<svg xmlns="http://www.w3.org/2000/svg" xmlns:xlink="http://www.w3.org/1999/xlink" width="456.554" height="287" viewBox="0 0 456.554 287">
  <defs>
    <filter id="Rectángulo_41231" x="16.267" y="8.001" width="426.08" height="278.408" filterUnits="userSpaceOnUse">
      <feOffset dy="4" input="SourceAlpha"/>
      <feGaussianBlur stdDeviation="4" result="blur"/>
      <feFlood flood-color="#d84318" flood-opacity="0.2"/>
      <feComposite operator="in" in2="blur"/>
      <feComposite in="SourceGraphic"/>
    </filter>
    <filter id="Trazado_189971" x="77.267" y="56.001" width="303.333" height="180.021" filterUnits="userSpaceOnUse">
      <feOffset dy="3" input="SourceAlpha"/>
      <feGaussianBlur stdDeviation="3" result="blur-2"/>
      <feFlood flood-opacity="0.161"/>
      <feComposite operator="in" in2="blur-2"/>
      <feComposite in="SourceGraphic"/>
    </filter>
  </defs>
  <g id="Grupo_129502" data-name="Grupo 129502" transform="translate(-531.713 -2113.526)">
    <g id="Grupo_129450" data-name="Grupo 129450" transform="translate(531.713 2367.44)">
      <path id="Trazado_114972" data-name="Trazado 114972" d="M730.636,386.057h-10.27l7.784,16.543-7.784,16.543h10.27l7.784-16.543Z" transform="translate(-720.365 -386.057)" fill="#1b3f5e"/>
      <path id="Trazado_114973" data-name="Trazado 114973" d="M746.921,386.057H736.65l7.784,16.543-7.784,16.543h10.27L754.7,402.6Z" transform="translate(-718.596 -386.057)" fill="#1b3f5e"/>
      <path id="Trazado_114974" data-name="Trazado 114974" d="M763.206,386.057h-10.27l7.784,16.543-7.784,16.543h10.27L770.99,402.6Z" transform="translate(-716.827 -386.057)" fill="#1b3f5e"/>
      <path id="Trazado_114975" data-name="Trazado 114975" d="M779.491,386.057h-10.27L777,402.6l-7.784,16.543h10.27l7.784-16.543Z" transform="translate(-715.058 -386.057)" fill="#1b3f5e"/>
      <path id="Trazado_114976" data-name="Trazado 114976" d="M795.776,386.057h-10.27L793.29,402.6l-7.784,16.543h10.27L803.56,402.6Z" transform="translate(-713.289 -386.057)" fill="#1b3f5e"/>
      <path id="Trazado_114977" data-name="Trazado 114977" d="M812.062,386.057H801.791l7.784,16.543-7.784,16.543h10.271l7.784-16.543Z" transform="translate(-711.52 -386.057)" fill="#1b3f5e"/>
      <path id="Trazado_114978" data-name="Trazado 114978" d="M828.347,386.058h-10.27L825.86,402.6l-7.784,16.543h10.27l7.784-16.543Z" transform="translate(-709.751 -386.057)" fill="#1b3f5e"/>
      <path id="Trazado_114979" data-name="Trazado 114979" d="M844.632,386.058h-10.27l7.784,16.543-7.784,16.543h10.27l7.784-16.543Z" transform="translate(-707.982 -386.057)" fill="#1b3f5e"/>
    </g>
    <g transform="matrix(1, 0, 0, 1, 531.71, 2113.53)" filter="url(#Rectángulo_41231)">
      <rect id="Rectángulo_41231-2" data-name="Rectángulo 41231" width="402.08" height="254.408" rx="14" transform="translate(28.27 16)" fill="#f5faff"/>
    </g>
    <g id="Grupo_129451" data-name="Grupo 129451" transform="translate(988.267 2146.612) rotate(180)">
      <path id="Trazado_114972-2" data-name="Trazado 114972" d="M10.27,0H0L7.784,16.543,0,33.086H10.27l7.784-16.543Z" fill="#d84318"/>
      <path id="Trazado_114973-2" data-name="Trazado 114973" d="M10.271,0H0L7.784,16.543,0,33.086H10.27l7.784-16.543Z" transform="translate(18.054 0)" fill="#d84318"/>
      <path id="Trazado_114974-2" data-name="Trazado 114974" d="M10.27,0H0L7.784,16.543,0,33.086H10.27l7.784-16.543Z" transform="translate(36.108 0)" fill="#d84318"/>
      <path id="Trazado_114975-2" data-name="Trazado 114975" d="M10.27,0H0L7.784,16.543,0,33.086H10.27l7.784-16.543Z" transform="translate(54.163 0)" fill="#d84318"/>
      <path id="Trazado_114976-2" data-name="Trazado 114976" d="M10.27,0H0L7.784,16.543,0,33.086H10.27l7.784-16.543Z" transform="translate(72.217 0)" fill="#d84318"/>
      <path id="Trazado_114977-2" data-name="Trazado 114977" d="M10.27,0H0L7.784,16.543,0,33.086H10.27l7.784-16.543Z" transform="translate(90.271 0)" fill="#d84318"/>
      <path id="Trazado_114978-2" data-name="Trazado 114978" d="M10.27,0H0L7.784,16.543,0,33.086H10.27l7.784-16.543Z" transform="translate(108.325 0)" fill="#d84318"/>
      <path id="Trazado_114979-2" data-name="Trazado 114979" d="M10.27,0H0L7.784,16.543,0,33.086H10.27l7.784-16.543Z" transform="translate(126.38 0)" fill="#d84318"/>
    </g>
    <g id="Grupo_129510" data-name="Grupo 129510" transform="translate(6797.98 12267.527)">
      <g transform="matrix(1, 0, 0, 1, -6266.27, -10154)" filter="url(#Trazado_189971)">
        <path id="Trazado_189971-2" data-name="Trazado 189971" d="M8.848,0H276.485a8.848,8.848,0,0,1,8.848,8.848V153.173a8.848,8.848,0,0,1-8.848,8.848H8.848A8.848,8.848,0,0,1,0,153.173V8.848A8.848,8.848,0,0,1,8.848,0Z" transform="translate(86.27 62)" fill="#fff"/>
      </g>
      <g id="Grupo_129568" data-name="Grupo 129568" transform="translate(-6165.623 -10080.94)">
        <g id="Grupo_129540" data-name="Grupo 129540" transform="translate(18.744 0)">
          <g id="Grupo_129510-2" data-name="Grupo 129510" transform="translate(0 0)">
            <rect id="Rectángulo_41273" data-name="Rectángulo 41273" width="2.504" height="130.413"/>
          </g>
          <g id="Grupo_129511" data-name="Grupo 129511" transform="translate(5.007 0)">
            <rect id="Rectángulo_41274" data-name="Rectángulo 41274" width="2.504" height="130.413"/>
          </g>
          <g id="Grupo_129512" data-name="Grupo 129512" transform="translate(12.517 0)">
            <rect id="Rectángulo_41275" data-name="Rectángulo 41275" width="5.008" height="117.895"/>
          </g>
          <g id="Grupo_129513" data-name="Grupo 129513" transform="translate(22.532 0)">
            <rect id="Rectángulo_41276" data-name="Rectángulo 41276" width="2.504" height="117.895"/>
          </g>
          <g id="Grupo_129514" data-name="Grupo 129514" transform="translate(30.043 0)">
            <rect id="Rectángulo_41277" data-name="Rectángulo 41277" width="2.504" height="117.895"/>
          </g>
          <g id="Grupo_129515" data-name="Grupo 129515" transform="translate(37.552 0)">
            <rect id="Rectángulo_41278" data-name="Rectángulo 41278" width="5.008" height="117.895"/>
          </g>
          <g id="Grupo_129516" data-name="Grupo 129516" transform="translate(45.064 0)">
            <rect id="Rectángulo_41279" data-name="Rectángulo 41279" width="10.013" height="117.895"/>
          </g>
          <g id="Grupo_129517" data-name="Grupo 129517" transform="translate(57.582 0)">
            <rect id="Rectángulo_41280" data-name="Rectángulo 41280" width="2.504" height="117.895"/>
          </g>
          <g id="Grupo_129518" data-name="Grupo 129518" transform="translate(62.588 0)">
            <rect id="Rectángulo_41281" data-name="Rectángulo 41281" width="2.504" height="117.895"/>
          </g>
          <g id="Grupo_129519" data-name="Grupo 129519" transform="translate(72.602 0)">
            <rect id="Rectángulo_41282" data-name="Rectángulo 41282" width="5.008" height="117.895"/>
          </g>
          <g id="Grupo_129520" data-name="Grupo 129520" transform="translate(80.112 0)">
            <rect id="Rectángulo_41283" data-name="Rectángulo 41283" width="5.008" height="117.895"/>
          </g>
          <g id="Grupo_129521" data-name="Grupo 129521" transform="translate(92.631 0)">
            <rect id="Rectángulo_41284" data-name="Rectángulo 41284" width="2.504" height="117.895"/>
          </g>
          <g id="Grupo_129522" data-name="Grupo 129522" transform="translate(97.638 0)">
            <rect id="Rectángulo_41285" data-name="Rectángulo 41285" width="2.504" height="117.895"/>
          </g>
          <g id="Grupo_129523" data-name="Grupo 129523" transform="translate(102.646 0)">
            <rect id="Rectángulo_41286" data-name="Rectángulo 41286" width="10.013" height="117.895"/>
          </g>
          <g id="Grupo_129524" data-name="Grupo 129524" transform="translate(115.163 0)">
            <rect id="Rectángulo_41287" data-name="Rectángulo 41287" width="2.504" height="130.413"/>
          </g>
          <g id="Grupo_129525" data-name="Grupo 129525" transform="translate(120.169 0)">
            <rect id="Rectángulo_41288" data-name="Rectángulo 41288" width="2.504" height="130.413"/>
          </g>
          <g id="Grupo_129526" data-name="Grupo 129526" transform="translate(125.177 0)">
            <rect id="Rectángulo_41289" data-name="Rectángulo 41289" width="2.504" height="117.895"/>
          </g>
          <g id="Grupo_129527" data-name="Grupo 129527" transform="translate(135.19 0)">
            <rect id="Rectángulo_41290" data-name="Rectángulo 41290" width="2.504" height="117.895"/>
          </g>
          <g id="Grupo_129528" data-name="Grupo 129528" transform="translate(142.702 0)">
            <rect id="Rectángulo_41291" data-name="Rectángulo 41291" width="2.504" height="117.895"/>
          </g>
          <g id="Grupo_129529" data-name="Grupo 129529" transform="translate(150.211 0)">
            <rect id="Rectángulo_41292" data-name="Rectángulo 41292" width="2.504" height="117.895"/>
          </g>
          <g id="Grupo_129530" data-name="Grupo 129530" transform="translate(160.225 0)">
            <rect id="Rectángulo_41293" data-name="Rectángulo 41293" width="7.512" height="117.895"/>
          </g>
          <g id="Grupo_129531" data-name="Grupo 129531" transform="translate(170.241 0)">
            <rect id="Rectángulo_41294" data-name="Rectángulo 41294" width="2.504" height="117.895"/>
          </g>
          <g id="Grupo_129532" data-name="Grupo 129532" transform="translate(177.75 0)">
            <rect id="Rectángulo_41295" data-name="Rectángulo 41295" width="7.512" height="117.895"/>
          </g>
          <g id="Grupo_129533" data-name="Grupo 129533" transform="translate(190.27 0)">
            <rect id="Rectángulo_41296" data-name="Rectángulo 41296" width="2.504" height="117.895"/>
          </g>
          <g id="Grupo_129534" data-name="Grupo 129534" transform="translate(195.276 0)">
            <rect id="Rectángulo_41297" data-name="Rectángulo 41297" width="5.008" height="117.895"/>
          </g>
          <g id="Grupo_129535" data-name="Grupo 129535" transform="translate(205.289 0)">
            <rect id="Rectángulo_41298" data-name="Rectángulo 41298" width="5.008" height="117.895"/>
          </g>
          <g id="Grupo_129536" data-name="Grupo 129536" transform="translate(212.801 0)">
            <rect id="Rectángulo_41299" data-name="Rectángulo 41299" width="5.008" height="117.895"/>
          </g>
          <g id="Grupo_129537" data-name="Grupo 129537" transform="translate(220.31 0)">
            <rect id="Rectángulo_41300" data-name="Rectángulo 41300" width="5.008" height="117.895"/>
          </g>
          <g id="Grupo_129538" data-name="Grupo 129538" transform="translate(230.326 0)">
            <rect id="Rectángulo_41301" data-name="Rectángulo 41301" width="2.504" height="130.413"/>
          </g>
          <g id="Grupo_129539" data-name="Grupo 129539" transform="translate(235.332 0)">
            <rect id="Rectángulo_41302" data-name="Rectángulo 41302" width="2.504" height="130.413"/>
          </g>
        </g>
        <g id="Grupo_129567" data-name="Grupo 129567" transform="translate(0 122.608)">
          <g id="Grupo_129542" data-name="Grupo 129542">
            <g id="Grupo_129541" data-name="Grupo 129541">
              <path id="Trazado_189958" data-name="Trazado 189958" d="M1381.8,922.413a18.71,18.71,0,0,1,.737,5.873c0,2.052-.115,6.383-1.658,7.857-.83.829-2.626,1.012-3.939,1.012-1.336,0-3.109-.183-3.961-1.012-1.521-1.474-1.636-5.805-1.636-7.857a18.71,18.71,0,0,1,.737-5.873c.783-2.279,2.6-2.533,4.861-2.533C1379.176,919.88,1381.019,920.134,1381.8,922.413Zm-7.832,1.474a31.194,31.194,0,0,0-.252,4.652c0,1.221.046,4.953.714,5.829.438.6,1.728.622,2.511.622s2.073-.023,2.51-.622c.646-.876.714-4.608.714-5.829a34.74,34.74,0,0,0-.252-4.652c-.3-1.772-1.129-1.843-2.972-1.843S1374.269,922.115,1373.97,923.887Z" transform="translate(-1371.344 -919.88)"/>
            </g>
          </g>
          <g id="Grupo_129544" data-name="Grupo 129544" transform="translate(34.566 0.298)">
            <g id="Grupo_129543" data-name="Grupo 129543">
              <path id="Trazado_189959" data-name="Trazado 189959" d="M1556.675,927.837v-2.948l4.077-3.411h2.556v16.77h-2.372v-14.1Z" transform="translate(-1556.675 -921.478)"/>
            </g>
          </g>
          <g id="Grupo_129546" data-name="Grupo 129546" transform="translate(50.423)">
            <g id="Grupo_129545" data-name="Grupo 129545">
              <path id="Trazado_189960" data-name="Trazado 189960" d="M1651.643,934.784v2.164h-9.951V935.68c0-3.96,1.452-5.549,4.676-7.6,1.244-.782,3.11-1.843,3.11-3.5a2.646,2.646,0,0,0-2.58-2.535,9.221,9.221,0,0,0-4.906,1.8v-2.556a7.812,7.812,0,0,1,4.537-1.406c2.879,0,5.321,1.521,5.321,4.605,0,3.043-2.211,4.216-4.468,5.667-1.5.991-3.317,2.35-3.317,4.284v.348Z" transform="translate(-1641.692 -919.88)"/>
            </g>
          </g>
          <g id="Grupo_129548" data-name="Grupo 129548" transform="translate(66.857 0.298)">
            <g id="Grupo_129547" data-name="Grupo 129547">
              <path id="Trazado_189961" data-name="Trazado 189961" d="M1739.941,923.828l-4.215,4.216a4.768,4.768,0,0,1,4.883,4.976c0,3.73-3.109,5.434-6.472,5.434a10.783,10.783,0,0,1-4.331-.991v-2.371a7.693,7.693,0,0,0,4.284,1.2c2.12,0,4.147-.923,4.147-3.34,0-2.235-1.751-3.087-3.778-3.087h-1.843v-1.819l4.308-4.4h-7.117v-2.167h10.135Z" transform="translate(-1729.806 -921.478)"/>
            </g>
          </g>
          <g id="Grupo_129550" data-name="Grupo 129550" transform="translate(83.474 0.298)">
            <g id="Grupo_129549" data-name="Grupo 129549">
              <path id="Trazado_189962" data-name="Trazado 189962" d="M1829.68,932.4v2.164h-2.049v3.685h-2.373v-3.685H1818.9v-2.488l4.928-10.6h2.443L1821.2,932.4h4.054v-3.455h2.373V932.4Z" transform="translate(-1818.901 -921.478)"/>
            </g>
          </g>
          <g id="Grupo_129552" data-name="Grupo 129552" transform="translate(100.737 0.298)">
            <g id="Grupo_129551" data-name="Grupo 129551">
              <path id="Trazado_189963" data-name="Trazado 189963" d="M1913.784,926.891h.553c3.455,0,6.541,1.5,6.541,5.369,0,5.667-6.565,6.195-8.637,6.195h-.783V936.29h1.359c2.695,0,5.689-.876,5.689-4.054,0-2.972-2.833-3.27-4.193-3.178l-2.855.206.507-7.786h8.453v2.167h-6.357Z" transform="translate(-1911.458 -921.478)"/>
            </g>
          </g>
          <g id="Grupo_129554" data-name="Grupo 129554" transform="translate(116.432 0.298)">
            <g id="Grupo_129553" data-name="Grupo 129553">
              <path id="Trazado_189964" data-name="Trazado 189964" d="M2005.149,921.478a42.892,42.892,0,0,0-4.468,4.93l-1.105,1.453.023.044a5.081,5.081,0,0,1,2.118-.437,5.5,5.5,0,0,1-.46,10.986c-3.594,0-5.645-2.141-5.645-5.711a9.155,9.155,0,0,1,2.35-6.4l4.216-4.862Zm-7.163,11.427a3.248,3.248,0,1,0,3.2-3.272A3.145,3.145,0,0,0,1997.986,932.906Z" transform="translate(-1995.613 -921.478)"/>
            </g>
          </g>
          <g id="Grupo_129556" data-name="Grupo 129556" transform="translate(150.097 0.298)">
            <g id="Grupo_129555" data-name="Grupo 129555">
              <path id="Trazado_189965" data-name="Trazado 189965" d="M2176.109,923.645v-2.167h11.033v.277a5.479,5.479,0,0,1-.437,2.58,16.144,16.144,0,0,1-1.728,2.4c-2.444,2.878-4.1,4.883-4.1,8.822v2.695H2178.5v-2.695c0-3.709,1.7-6.61,4.054-9.376l.831-.967a3.059,3.059,0,0,0,.92-1.566Z" transform="translate(-2176.109 -921.478)"/>
            </g>
          </g>
          <g id="Grupo_129558" data-name="Grupo 129558" transform="translate(166.506)">
            <g id="Grupo_129557" data-name="Grupo 129557">
              <path id="Trazado_189966" data-name="Trazado 189966" d="M2274.639,923.589c0,1.934-1.4,3.04-2.878,3.983,2.1,1.014,3.523,2.441,3.523,4.93,0,3.408-2.556,4.652-5.6,4.652-3.063,0-5.6-1.244-5.6-4.652,0-2.488,1.43-3.916,3.5-4.93-1.451-.944-2.857-2.049-2.857-3.983,0-2.674,2.6-3.709,4.953-3.709S2274.639,920.915,2274.639,923.589Zm-1.728,8.707c0-1.819-1.589-2.651-3.223-3.547-1.66.9-3.225,1.728-3.225,3.547,0,1.911,1.636,2.695,3.225,2.695S2272.912,934.206,2272.912,932.3Zm-5.8-8.5c0,1.312,1.542,2.211,2.58,2.627,1.035-.416,2.58-1.315,2.58-2.627,0-1.406-1.451-1.751-2.58-1.751S2267.109,922.389,2267.109,923.8Z" transform="translate(-2264.09 -919.88)"/>
            </g>
          </g>
          <g id="Grupo_129560" data-name="Grupo 129560" transform="translate(183.03)">
            <g id="Grupo_129559" data-name="Grupo 129559">
              <path id="Trazado_189967" data-name="Trazado 189967" d="M2354.255,936.948a39.051,39.051,0,0,0,5.711-6.472l-.024.021-.044-.044a4.523,4.523,0,0,1-1.958.436,5.2,5.2,0,0,1-5.254-5.39,5.346,5.346,0,0,1,5.714-5.62c3.547,0,5.6,2.394,5.6,5.92,0,4.1-3.707,8.108-6.587,11.148Zm.805-11.516a3.283,3.283,0,1,0,6.566-.047,3.1,3.1,0,0,0-3.225-3.34A3.068,3.068,0,0,0,2355.061,925.432Z" transform="translate(-2352.687 -919.88)"/>
            </g>
          </g>
          <g id="Grupo_129562" data-name="Grupo 129562" transform="translate(199.696)">
            <g id="Grupo_129561" data-name="Grupo 129561">
              <path id="Trazado_189968" data-name="Trazado 189968" d="M2452.5,922.413a18.706,18.706,0,0,1,.737,5.873c0,2.052-.115,6.383-1.66,7.857-.829.829-2.625,1.012-3.939,1.012-1.336,0-3.108-.183-3.96-1.012-1.521-1.474-1.636-5.805-1.636-7.857a18.7,18.7,0,0,1,.737-5.873c.781-2.279,2.6-2.533,4.859-2.533C2449.873,919.88,2451.715,920.134,2452.5,922.413Zm-7.834,1.474a31.26,31.26,0,0,0-.251,4.652c0,1.221.044,4.953.714,5.829.437.6,1.728.622,2.509.622s2.073-.023,2.512-.622c.646-.876.714-4.608.714-5.829a34.72,34.72,0,0,0-.254-4.652c-.3-1.772-1.129-1.843-2.972-1.843S2444.967,922.115,2444.666,923.887Z" transform="translate(-2442.042 -919.88)"/>
            </g>
          </g>
          <g id="Grupo_129564" data-name="Grupo 129564" transform="translate(217.373 0.298)">
            <g id="Grupo_129563" data-name="Grupo 129563">
              <path id="Trazado_189969" data-name="Trazado 189969" d="M2536.82,927.837v-2.948l4.077-3.411h2.556v16.77h-2.373v-14.1Z" transform="translate(-2536.82 -921.478)"/>
            </g>
          </g>
          <g id="Grupo_129566" data-name="Grupo 129566" transform="translate(233.228)">
            <g id="Grupo_129565" data-name="Grupo 129565">
              <path id="Trazado_189970" data-name="Trazado 189970" d="M2631.781,934.784v2.164h-9.951V935.68c0-3.96,1.453-5.549,4.676-7.6,1.244-.782,3.111-1.843,3.111-3.5a2.646,2.646,0,0,0-2.58-2.535,9.227,9.227,0,0,0-4.906,1.8v-2.556a7.817,7.817,0,0,1,4.538-1.406c2.881,0,5.322,1.521,5.322,4.605,0,3.043-2.211,4.216-4.469,5.667-1.5.991-3.317,2.35-3.317,4.284v.348Z" transform="translate(-2621.83 -919.88)"/>
            </g>
          </g>
        </g>
      </g>
    </g>
  </g>
</svg>
