<svg xmlns="http://www.w3.org/2000/svg" width="595.244" height="569.953" viewBox="0 0 595.244 569.953">
  <g id="Grupo_131488" data-name="Grupo 131488" transform="translate(-502.978 -1251)">
    <g id="Grupo_129838" data-name="Grupo 129838" transform="translate(711.292 1614.952)">
      <rect id="Rectángulo_41394" data-name="Rectángulo 41394" width="39.54" height="4.337" fill="#d84318"/>
      <rect id="Rectángulo_41395" data-name="Rectángulo 41395" width="39.54" height="4.337" transform="translate(39.231)" fill="#fff59d"/>
      <rect id="Rectángulo_41396" data-name="Rectángulo 41396" width="39.54" height="4.337" transform="translate(78.462)" fill="#d84318"/>
      <rect id="Rectángulo_41397" data-name="Rectángulo 41397" width="39.54" height="4.337" transform="translate(118.002)" fill="#fff59d"/>
      <rect id="Rectángulo_41398" data-name="Rectángulo 41398" width="39.54" height="4.337" transform="translate(157.233)" fill="#d84318"/>
    </g>
    <path id="Trazado_194440" data-name="Trazado 194440" d="M82.182,0A82.182,82.182,0,1,1,0,82.182,82.182,82.182,0,0,1,82.182,0Z" transform="translate(509.291 1404.102)" fill="#fff59d"/>
    <path id="Trazado_194441" data-name="Trazado 194441" d="M82.182,0A82.182,82.182,0,1,1,0,82.182,82.182,82.182,0,0,1,82.182,0Z" transform="translate(927.559 1404.102)" fill="#fff59d"/>
    <path id="Trazado_194442" data-name="Trazado 194442" d="M82.182,0A82.182,82.182,0,1,1,0,82.182,82.182,82.182,0,0,1,82.182,0Z" transform="translate(848.64 1650.327)" fill="#fff59d"/>
    <path id="Trazado_194443" data-name="Trazado 194443" d="M82.182,0A82.182,82.182,0,1,1,0,82.182,82.182,82.182,0,0,1,82.182,0Z" transform="translate(589.788 1650.327)" fill="#fff59d"/>
    <path id="Trazado_194444" data-name="Trazado 194444" d="M82.182,0A82.182,82.182,0,1,1,0,82.182,82.182,82.182,0,0,1,82.182,0Z" transform="translate(719.214 1257.313)" fill="#fff59d"/>
    <path id="Trazado_190742" data-name="Trazado 190742" d="M4904.422,3176.274a87.829,87.829,0,1,1,62.1-25.724A87.252,87.252,0,0,1,4904.422,3176.274Zm0-173.582a85.754,85.754,0,1,0,60.635,25.117A85.189,85.189,0,0,0,4904.422,3002.692Z" transform="translate(-4313.614 -1602.181)" fill="#fff59d"/>
    <path id="Trazado_190743" data-name="Trazado 190743" d="M5030.353,3088.3a87.828,87.828,0,1,1,62.1-25.725A87.257,87.257,0,0,1,5030.353,3088.3Zm0-173.582a85.751,85.751,0,1,0,60.635,25.115A85.189,85.189,0,0,0,5030.353,2914.716Z" transform="translate(-4228.044 -1661.638)" fill="#fff59d"/>
    <path id="Trazado_190744" data-name="Trazado 190744" d="M5154.706,3176.067a87.691,87.691,0,1,1,62.012-25.682A87.135,87.135,0,0,1,5154.706,3176.067Zm0-173.285a85.61,85.61,0,1,0,60.543,25.072A85.065,85.065,0,0,0,5154.706,3002.782Z" transform="translate(-4144.183 -1602.122)" fill="#fff59d"/>
    <path id="Trazado_190745" data-name="Trazado 190745" d="M4952.36,3323.211a87.691,87.691,0,1,1,62.012-25.682A87.135,87.135,0,0,1,4952.36,3323.211Zm0-173.285A85.615,85.615,0,1,0,5012.9,3175,85.06,85.06,0,0,0,4952.36,3149.926Z" transform="translate(-4281.188 -1502.682)" fill="#fff59d"/>
    <path id="Trazado_190746" data-name="Trazado 190746" d="M5107.66,3323.356a87.69,87.69,0,1,1,62.013-25.68A87.133,87.133,0,0,1,5107.66,3323.356Zm0-173.286a85.619,85.619,0,1,0,60.543,25.074A85.069,85.069,0,0,0,5107.66,3150.071Z" transform="translate(-4176.057 -1502.403)" fill="#fff59d"/>
    <path id="Trazado_194445" data-name="Trazado 194445" d="M0,0H83.888V2.077H0Z" transform="translate(663.158 1438.332) rotate(-36.006)" fill="#e8e8e8"/>
    <path id="Trazado_194446" data-name="Trazado 194446" d="M0,0H2.077V81.508H0Z" transform="translate(871.176 1390.701) rotate(-54)" fill="#e8e8e8"/>
    <path id="Trazado_194447" data-name="Trazado 194447" d="M0,0H85.832V2.077H0Z" transform="matrix(0.309, -0.951, 0.951, 0.309, 958.574, 1650.78)" fill="#e8e8e8"/>
    <path id="Trazado_194448" data-name="Trazado 194448" d="M0,0H2.077V85.9H0Z" transform="translate(616.187 1569.295) rotate(-18)" fill="#e8e8e8"/>
    <path id="Trazado_194449" data-name="Trazado 194449" d="M0,0H87.081V2.077H0Z" transform="translate(757.744 1736.893)" fill="#e8e8e8"/>
    <path id="Trazado_190767" data-name="Trazado 190767" d="M-76.733-10.053h-6.16V6.65H-87.84v-16.7h-6.047v-3.82h17.154Zm6.878,16.7h-4.764V-8.6h4.764ZM-74.9-12.533a2.12,2.12,0,0,1,.733-1.663,2.765,2.765,0,0,1,1.9-.648,2.765,2.765,0,0,1,1.9.648,2.12,2.12,0,0,1,.733,1.663,2.12,2.12,0,0,1-.733,1.663,2.765,2.765,0,0,1-1.9.648,2.765,2.765,0,0,1-1.9-.648A2.12,2.12,0,0,1-74.9-12.533ZM-52.772-.863a9.2,9.2,0,0,1-1.6,5.673,5.129,5.129,0,0,1-4.32,2.121A4.4,4.4,0,0,1-62.145,5.4v7.118h-4.75V-8.6h4.44l.141,1.409A4.4,4.4,0,0,1-58.72-8.883,5.17,5.17,0,0,1-54.336-6.8a9.31,9.31,0,0,1,1.565,5.715Zm-4.75-.3q0-4.059-2.368-4.059a2.235,2.235,0,0,0-2.255,1.212V2a2.308,2.308,0,0,0,2.283,1.269q2.269,0,2.34-3.918Zm6.244.042a9,9,0,0,1,.888-4.066,6.35,6.35,0,0,1,2.551-2.741,7.683,7.683,0,0,1,3.9-.958,7.012,7.012,0,0,1,5.4,2.121A8.14,8.14,0,0,1-36.563-.99v.169a7.9,7.9,0,0,1-1.98,5.659,7.031,7.031,0,0,1-5.363,2.093A7.111,7.111,0,0,1-49.135,4.98,7.635,7.635,0,0,1-51.264-.313Zm4.75.3a5.675,5.675,0,0,0,.662,3.1,2.207,2.207,0,0,0,1.959.987q2.537,0,2.593-3.9v-.479q0-4.1-2.622-4.1-2.382,0-2.579,3.538Zm20.043,3.185a1.1,1.1,0,0,0-.634-.973,9.648,9.648,0,0,0-2.41-.761A10.991,10.991,0,0,1-32.461-.4a4.911,4.911,0,0,1-1.762-1.557,3.719,3.719,0,0,1-.606-2.1A4.215,4.215,0,0,1-33.1-7.523a7.142,7.142,0,0,1,4.539-1.36,7.912,7.912,0,0,1,4.849,1.367,4.275,4.275,0,0,1,1.832,3.594H-26.64q0-1.832-1.931-1.832a1.914,1.914,0,0,0-1.254.416A1.287,1.287,0,0,0-30.333-4.3a1.182,1.182,0,0,0,.62,1.029,5.86,5.86,0,0,0,1.98.648,17.113,17.113,0,0,1,2.389.606Q-21.9-.835-21.9,2.224a3.994,3.994,0,0,1-1.853,3.4,8.128,8.128,0,0,1-4.8,1.311,8.3,8.3,0,0,1-3.5-.7,5.845,5.845,0,0,1-2.4-1.917,4.341,4.341,0,0,1-.86-2.551h4.44a1.836,1.836,0,0,0,.7,1.543,2.9,2.9,0,0,0,1.734.486,2.28,2.28,0,0,0,1.459-.395A1.262,1.262,0,0,0-26.485,2.365Zm13.39-3.453A9.316,9.316,0,0,1-11.53-6.8,5.15,5.15,0,0,1-7.161-8.883,4.38,4.38,0,0,1-3.721-7.276V-15H1.043V6.65H-3.228l-.24-1.635A4.5,4.5,0,0,1-7.189,6.932,5.14,5.14,0,0,1-11.5,4.846,9.611,9.611,0,0,1-13.095-1.088Zm4.75.3q0,4.059,2.368,4.059A2.338,2.338,0,0,0-3.721,1.942V-3.865A2.275,2.275,0,0,0-5.948-5.218q-2.2,0-2.382,3.552ZM11.121,6.932A7.84,7.84,0,0,1,5.44,4.839,7.228,7.228,0,0,1,3.27-.609V-1a9.366,9.366,0,0,1,.867-4.13A6.343,6.343,0,0,1,6.667-7.9a7.638,7.638,0,0,1,3.947-.98,6.6,6.6,0,0,1,5.074,1.994,7.837,7.837,0,0,1,1.861,5.56V.519H8.1A3.424,3.424,0,0,0,9.218,2.534a3.313,3.313,0,0,0,2.227.733,4.269,4.269,0,0,0,3.524-1.579l2.171,2.565a6.068,6.068,0,0,1-2.516,1.952A8.5,8.5,0,0,1,11.121,6.932Zm-.536-12.15Q8.5-5.218,8.1-2.456H12.9v-.366a2.353,2.353,0,0,0-.578-1.769A2.3,2.3,0,0,0,10.585-5.218ZM31.657,6.65H26.893V-8.6h4.764ZM26.611-12.533a2.12,2.12,0,0,1,.733-1.663,2.765,2.765,0,0,1,1.9-.648,2.765,2.765,0,0,1,1.9.648,2.12,2.12,0,0,1,.733,1.663,2.12,2.12,0,0,1-.733,1.663,2.765,2.765,0,0,1-1.9.648,2.765,2.765,0,0,1-1.9-.648A2.12,2.12,0,0,1,26.611-12.533ZM38.944-8.6l.155,1.79a5.172,5.172,0,0,1,4.355-2.072,4.351,4.351,0,0,1,3.559,1.424,6.777,6.777,0,0,1,1.219,4.285V6.65H43.468V-2.977A2.574,2.574,0,0,0,43-4.675a2.152,2.152,0,0,0-1.691-.543,2.265,2.265,0,0,0-2.072,1.1V6.65H34.49V-8.6ZM50.262-1.088A9.316,9.316,0,0,1,51.827-6.8,5.15,5.15,0,0,1,56.2-8.883a4.38,4.38,0,0,1,3.439,1.607V-15H64.4V6.65H60.129l-.24-1.635a4.5,4.5,0,0,1-3.721,1.917,5.14,5.14,0,0,1-4.313-2.086A9.611,9.611,0,0,1,50.262-1.088Zm4.75.3q0,4.059,2.368,4.059a2.338,2.338,0,0,0,2.255-1.325V-3.865a2.275,2.275,0,0,0-2.227-1.353q-2.2,0-2.382,3.552Zm17.1,7.442H67.345V-8.6h4.764ZM67.063-12.533A2.12,2.12,0,0,1,67.8-14.2a2.765,2.765,0,0,1,1.9-.648,2.765,2.765,0,0,1,1.9.648,2.12,2.12,0,0,1,.733,1.663A2.12,2.12,0,0,1,71.6-10.87a2.765,2.765,0,0,1-1.9.648,2.765,2.765,0,0,1-1.9-.648A2.12,2.12,0,0,1,67.063-12.533Zm14.419,15.8a2.113,2.113,0,0,0,1.55-.543,1.99,1.99,0,0,0,.536-1.515h4.454a5.273,5.273,0,0,1-1.8,4.116A6.685,6.685,0,0,1,81.6,6.932a6.768,6.768,0,0,1-5.243-2.086A8.219,8.219,0,0,1,74.435-.933v-.2a9.289,9.289,0,0,1,.853-4.08,6.209,6.209,0,0,1,2.46-2.72,7.334,7.334,0,0,1,3.806-.951,6.6,6.6,0,0,1,4.722,1.649,5.849,5.849,0,0,1,1.748,4.468H83.568a2.607,2.607,0,0,0-.578-1.818,2,2,0,0,0-1.55-.634q-1.846,0-2.157,2.354a16.608,16.608,0,0,0-.1,2.058,6.524,6.524,0,0,0,.55,3.185A1.9,1.9,0,0,0,81.482,3.267ZM98.622,6.65a5.363,5.363,0,0,1-.451-1.367,4.417,4.417,0,0,1-3.665,1.649,5.411,5.411,0,0,1-3.665-1.3,4.15,4.15,0,0,1-1.508-3.277A4.265,4.265,0,0,1,91.166-1.4a9.335,9.335,0,0,1,5.328-1.269h1.466v-.807q0-2.11-1.818-2.11A1.486,1.486,0,0,0,94.45-3.913H89.7A4.258,4.258,0,0,1,91.581-7.5a7.908,7.908,0,0,1,4.8-1.38,6.933,6.933,0,0,1,4.609,1.424,4.949,4.949,0,0,1,1.734,3.9V3.2a6.914,6.914,0,0,0,.648,3.214v.24Zm-2.974-3.1a2.65,2.65,0,0,0,1.473-.381,2.385,2.385,0,0,0,.839-.86V-.13H96.578Q94.1-.13,94.1,2.1a1.36,1.36,0,0,0,.437,1.05A1.581,1.581,0,0,0,95.648,3.549Zm9.105-4.637A9.316,9.316,0,0,1,106.318-6.8a5.15,5.15,0,0,1,4.369-2.086,4.38,4.38,0,0,1,3.439,1.607V-15h4.764V6.65H114.62l-.24-1.635a4.5,4.5,0,0,1-3.721,1.917,5.14,5.14,0,0,1-4.313-2.086A9.612,9.612,0,0,1,104.753-1.088Zm4.75.3q0,4.059,2.368,4.059a2.338,2.338,0,0,0,2.255-1.325V-3.865A2.275,2.275,0,0,0,111.9-5.218q-2.2,0-2.382,3.552Zm11.487-.324a9,9,0,0,1,.888-4.066,6.35,6.35,0,0,1,2.551-2.741,7.683,7.683,0,0,1,3.9-.958,7.012,7.012,0,0,1,5.4,2.121A8.14,8.14,0,0,1,135.706-.99v.169a7.9,7.9,0,0,1-1.98,5.659,7.031,7.031,0,0,1-5.363,2.093,7.111,7.111,0,0,1-5.229-1.952A7.635,7.635,0,0,1,121-.313Zm4.75.3a5.675,5.675,0,0,0,.662,3.1,2.207,2.207,0,0,0,1.959.987q2.537,0,2.593-3.9v-.479q0-4.1-2.622-4.1-2.382,0-2.579,3.538ZM147.024-4.3l-1.565-.113q-2.241,0-2.875,1.409V6.65h-4.75V-8.6h4.454l.155,1.959a3.678,3.678,0,0,1,3.34-2.241,4.632,4.632,0,0,1,1.325.169Zm8.823,11.234a7.84,7.84,0,0,1-5.68-2.093A7.228,7.228,0,0,1,148-.609V-1a9.366,9.366,0,0,1,.867-4.13,6.343,6.343,0,0,1,2.53-2.77,7.638,7.638,0,0,1,3.947-.98,6.6,6.6,0,0,1,5.074,1.994,7.837,7.837,0,0,1,1.861,5.56V.519h-9.444a3.424,3.424,0,0,0,1.113,2.016,3.313,3.313,0,0,0,2.227.733A4.269,4.269,0,0,0,159.7,1.688l2.171,2.565a6.068,6.068,0,0,1-2.516,1.952A8.5,8.5,0,0,1,155.847,6.932Zm-.536-12.15q-2.086,0-2.481,2.763h4.792v-.366a2.353,2.353,0,0,0-.578-1.769A2.3,2.3,0,0,0,155.312-5.218Zm16.858,7.583a1.1,1.1,0,0,0-.634-.973,9.648,9.648,0,0,0-2.41-.761A10.991,10.991,0,0,1,166.193-.4a4.911,4.911,0,0,1-1.762-1.557,3.719,3.719,0,0,1-.606-2.1,4.215,4.215,0,0,1,1.734-3.46,7.141,7.141,0,0,1,4.539-1.36,7.912,7.912,0,0,1,4.849,1.367,4.275,4.275,0,0,1,1.832,3.594h-4.764q0-1.832-1.931-1.832a1.914,1.914,0,0,0-1.254.416,1.287,1.287,0,0,0-.507,1.036,1.182,1.182,0,0,0,.62,1.029,5.86,5.86,0,0,0,1.98.648,17.112,17.112,0,0,1,2.389.606q3.439,1.184,3.439,4.243a3.994,3.994,0,0,1-1.853,3.4,8.128,8.128,0,0,1-4.8,1.311,8.294,8.294,0,0,1-3.5-.7,5.845,5.845,0,0,1-2.4-1.917,4.341,4.341,0,0,1-.86-2.551h4.44a1.836,1.836,0,0,0,.7,1.543,2.9,2.9,0,0,0,1.734.486,2.28,2.28,0,0,0,1.459-.395A1.262,1.262,0,0,0,172.169,2.365Z" transform="translate(767.542 1587.697)" fill="#12263f"/>
    <path id="Trazado_190766" data-name="Trazado 190766" d="M-4.391-9.637V.71A5.3,5.3,0,0,1-6,4.789a6.219,6.219,0,0,1-4.408,1.5,6.289,6.289,0,0,1-4.37-1.457,5.207,5.207,0,0,1-1.651-4V-9.637H-13.2V.732a2.993,2.993,0,0,0,.739,2.25,2.837,2.837,0,0,0,2.045.707q2.73,0,2.773-2.87V-9.637ZM1.791-8.472V-5.6h2v2.287h-2V2.512a1.391,1.391,0,0,0,.248.928,1.246,1.246,0,0,0,.949.281,4.973,4.973,0,0,0,.917-.076V6.008a6.419,6.419,0,0,1-1.888.281q-3.28,0-3.345-3.312v-6.29h-1.7V-5.6h1.7v-2.87ZM8.815,6.073H5.686V-5.6H8.815ZM5.5-8.623a1.535,1.535,0,0,1,.469-1.154,1.763,1.763,0,0,1,1.279-.453,1.767,1.767,0,0,1,1.273.453A1.527,1.527,0,0,1,9-8.623a1.531,1.531,0,0,1-.48,1.165A1.771,1.771,0,0,1,7.251-7a1.771,1.771,0,0,1-1.268-.453A1.531,1.531,0,0,1,5.5-8.623Zm9.171,14.7H11.545V-10.5h3.129Zm5.859,0H17.4V-5.6h3.129ZM17.22-8.623a1.535,1.535,0,0,1,.469-1.154,1.763,1.763,0,0,1,1.279-.453,1.767,1.767,0,0,1,1.273.453,1.527,1.527,0,0,1,.475,1.154,1.531,1.531,0,0,1-.48,1.165A1.771,1.771,0,0,1,18.968-7,1.771,1.771,0,0,1,17.7-7.457,1.531,1.531,0,0,1,17.22-8.623ZM22.615.149A7.035,7.035,0,0,1,23.84-4.2a3.973,3.973,0,0,1,3.35-1.618,3.576,3.576,0,0,1,2.816,1.273V-10.5h3.129V6.073H30.319l-.151-1.241a3.669,3.669,0,0,1-3,1.457,3.963,3.963,0,0,1-3.307-1.624A7.262,7.262,0,0,1,22.615.149Zm3.118.232A4.609,4.609,0,0,0,26.305,2.9a1.863,1.863,0,0,0,1.662.875,2.086,2.086,0,0,0,2.039-1.221V-2.061a2.057,2.057,0,0,0-2.018-1.221Q25.733-3.282,25.733.382ZM42.317,6.073A3.463,3.463,0,0,1,42,5.026a3.773,3.773,0,0,1-2.946,1.262A4.145,4.145,0,0,1,36.215,5.3a3.192,3.192,0,0,1-1.128-2.5A3.3,3.3,0,0,1,36.463-.056a6.788,6.788,0,0,1,3.976-1h1.435v-.669a1.924,1.924,0,0,0-.415-1.295,1.634,1.634,0,0,0-1.311-.486,1.858,1.858,0,0,0-1.235.378,1.283,1.283,0,0,0-.448,1.036H35.347a3.132,3.132,0,0,1,.626-1.877,4.137,4.137,0,0,1,1.77-1.354,6.449,6.449,0,0,1,2.568-.491,5.1,5.1,0,0,1,3.426,1.084A3.793,3.793,0,0,1,45-1.685v5.06a5.581,5.581,0,0,0,.464,2.514v.183ZM39.738,3.9A2.686,2.686,0,0,0,41.011,3.6a2.02,2.02,0,0,0,.863-.825V.764H40.709q-2.341,0-2.492,1.618l-.011.183a1.248,1.248,0,0,0,.41.96A1.593,1.593,0,0,0,39.738,3.9ZM46.913.149A7.035,7.035,0,0,1,48.138-4.2a3.973,3.973,0,0,1,3.35-1.618A3.576,3.576,0,0,1,54.3-4.544V-10.5h3.129V6.073H54.617l-.151-1.241a3.669,3.669,0,0,1-3,1.457,3.963,3.963,0,0,1-3.307-1.624A7.262,7.262,0,0,1,46.913.149Zm3.118.232A4.609,4.609,0,0,0,50.6,2.9a1.863,1.863,0,0,0,1.662.875A2.086,2.086,0,0,0,54.3,2.554V-2.061a2.057,2.057,0,0,0-2.018-1.221Q50.031-3.282,50.031.382Zm-85.448,26.6a7.035,7.035,0,0,1,1.225-4.348,3.973,3.973,0,0,1,3.35-1.618,3.576,3.576,0,0,1,2.816,1.273V16.332H-24.9V32.905h-2.816l-.151-1.241a3.669,3.669,0,0,1-3,1.457A3.963,3.963,0,0,1-34.171,31.5,7.262,7.262,0,0,1-35.417,26.982Zm3.118.232a4.609,4.609,0,0,0,.572,2.518,1.863,1.863,0,0,0,1.662.875,2.086,2.086,0,0,0,2.039-1.221V24.772a2.057,2.057,0,0,0-2.018-1.221Q-32.3,23.55-32.3,27.214Zm15.192,5.907a5.731,5.731,0,0,1-4.181-1.575,5.6,5.6,0,0,1-1.613-4.2v-.3a7.052,7.052,0,0,1,.68-3.145A4.989,4.989,0,0,1-20.3,21.765a5.406,5.406,0,0,1,2.843-.75,4.845,4.845,0,0,1,3.771,1.511,6.138,6.138,0,0,1,1.376,4.283v1.273H-19.74a2.9,2.9,0,0,0,.912,1.834,2.756,2.756,0,0,0,1.926.691A3.366,3.366,0,0,0-14.086,29.3l1.532,1.716a4.681,4.681,0,0,1-1.9,1.548A6.23,6.23,0,0,1-17.107,33.121Zm-.356-9.592a1.948,1.948,0,0,0-1.505.629,3.255,3.255,0,0,0-.739,1.8h4.337v-.249a2.321,2.321,0,0,0-.561-1.609A2.01,2.01,0,0,0-17.463,23.529Zm10.218,9.376h-3.129V16.332h3.129ZM6.2,33.121a5.731,5.731,0,0,1-4.181-1.575A5.6,5.6,0,0,1,.4,27.348v-.3a7.052,7.052,0,0,1,.68-3.145A4.989,4.989,0,0,1,3.01,21.765a5.406,5.406,0,0,1,2.843-.75,4.845,4.845,0,0,1,3.771,1.511A6.138,6.138,0,0,1,11,26.809v1.273H3.566a2.9,2.9,0,0,0,.912,1.834,2.756,2.756,0,0,0,1.926.691A3.366,3.366,0,0,0,9.22,29.3l1.532,1.716a4.681,4.681,0,0,1-1.9,1.548A6.23,6.23,0,0,1,6.2,33.121Zm-.356-9.592a1.948,1.948,0,0,0-1.505.629,3.255,3.255,0,0,0-.739,1.8H7.936v-.249A2.321,2.321,0,0,0,7.375,24.1,2.01,2.01,0,0,0,5.843,23.529Zm13.25,6.15a1,1,0,0,0-.566-.9,6.434,6.434,0,0,0-1.818-.588q-4.165-.874-4.165-3.539a3.208,3.208,0,0,1,1.289-2.595A5.2,5.2,0,0,1,17.2,21.015a5.6,5.6,0,0,1,3.555,1.047,3.3,3.3,0,0,1,1.333,2.719H18.973a1.509,1.509,0,0,0-.432-1.106,1.826,1.826,0,0,0-1.349-.437,1.866,1.866,0,0,0-1.219.356,1.124,1.124,0,0,0-.432.906.961.961,0,0,0,.491.836,5.05,5.05,0,0,0,1.656.55,13.527,13.527,0,0,1,1.964.523,3.226,3.226,0,0,1,2.471,3.14,3.045,3.045,0,0,1-1.37,2.584,5.911,5.911,0,0,1-3.539.987,6.174,6.174,0,0,1-2.606-.523,4.372,4.372,0,0,1-1.786-1.435,3.334,3.334,0,0,1-.647-1.969h2.956a1.628,1.628,0,0,0,.615,1.273,2.439,2.439,0,0,0,1.532.442,2.258,2.258,0,0,0,1.354-.34A1.058,1.058,0,0,0,19.092,29.679Zm15.548-2.5A7,7,0,0,1,33.415,31.5a3.926,3.926,0,0,1-3.307,1.624,3.637,3.637,0,0,1-2.859-1.23v5.5H24.131V21.231h2.892l.108,1.144a3.665,3.665,0,0,1,2.956-1.359,3.953,3.953,0,0,1,3.356,1.6,7.191,7.191,0,0,1,1.2,4.4Zm-3.118-.227a4.6,4.6,0,0,0-.577-2.514,1.88,1.88,0,0,0-1.678-.885,2.042,2.042,0,0,0-2.018,1.122v4.78a2.077,2.077,0,0,0,2.039,1.154Q31.522,30.607,31.522,26.949Zm11.815,5.956a3.463,3.463,0,0,1-.313-1.047,3.773,3.773,0,0,1-2.946,1.262,4.145,4.145,0,0,1-2.843-.993,3.192,3.192,0,0,1-1.128-2.5,3.3,3.3,0,0,1,1.376-2.848,6.788,6.788,0,0,1,3.976-1h1.435V25.1a1.924,1.924,0,0,0-.415-1.295,1.634,1.634,0,0,0-1.311-.486,1.858,1.858,0,0,0-1.235.378,1.283,1.283,0,0,0-.448,1.036H36.366a3.132,3.132,0,0,1,.626-1.877,4.137,4.137,0,0,1,1.769-1.354,6.449,6.449,0,0,1,2.568-.491A5.1,5.1,0,0,1,44.755,22.1a3.793,3.793,0,0,1,1.268,3.048v5.06a5.581,5.581,0,0,0,.464,2.514v.183Zm-2.579-2.169a2.686,2.686,0,0,0,1.273-.308,2.02,2.02,0,0,0,.863-.825V27.6H41.729q-2.341,0-2.492,1.618l-.011.183a1.248,1.248,0,0,0,.41.96A1.593,1.593,0,0,0,40.758,30.736Zm12.516-.129a2.045,2.045,0,0,0,1.4-.475,1.663,1.663,0,0,0,.561-1.262h2.924a4,4,0,0,1-.647,2.174,4.272,4.272,0,0,1-1.743,1.532,5.454,5.454,0,0,1-2.444.545,5.068,5.068,0,0,1-3.949-1.591,6.3,6.3,0,0,1-1.446-4.4v-.205a6.226,6.226,0,0,1,1.435-4.305,5.009,5.009,0,0,1,3.938-1.608,4.91,4.91,0,0,1,3.512,1.246,4.412,4.412,0,0,1,1.343,3.318H55.237a2.143,2.143,0,0,0-.561-1.481,2.085,2.085,0,0,0-3.07.225,4.6,4.6,0,0,0-.556,2.577v.324a4.661,4.661,0,0,0,.55,2.594A1.9,1.9,0,0,0,53.274,30.607Zm9.959,2.3H60.1V21.231h3.129ZM59.92,18.21a1.536,1.536,0,0,1,.469-1.154,2.023,2.023,0,0,1,2.552,0,1.648,1.648,0,0,1-.005,2.32,2,2,0,0,1-2.536,0A1.531,1.531,0,0,1,59.92,18.21Zm5.395,8.75a6.924,6.924,0,0,1,.669-3.1,4.9,4.9,0,0,1,1.926-2.1,5.619,5.619,0,0,1,2.919-.744,5.316,5.316,0,0,1,3.857,1.446,5.8,5.8,0,0,1,1.667,3.927l.022.8a6.1,6.1,0,0,1-1.5,4.31,5.813,5.813,0,0,1-8.054.005,6.209,6.209,0,0,1-1.505-4.4Zm3.118.221a4.364,4.364,0,0,0,.626,2.545,2.248,2.248,0,0,0,3.561.011,4.775,4.775,0,0,0,.637-2.783,4.32,4.32,0,0,0-.637-2.529,2.069,2.069,0,0,0-1.791-.9,2.036,2.036,0,0,0-1.769.891A4.855,4.855,0,0,0,68.433,27.181Z" transform="translate(910.231 1720.016)" fill="#12263f"/>
    <path id="Trazado_190764" data-name="Trazado 190764" d="M-2.429,6.073H-5.666l-6.3-10.336V6.073H-15.2V-9.637h3.237L-5.655.721V-9.637h3.226Zm5.913,0H.355V-5.6H3.484ZM.171-8.623A1.535,1.535,0,0,1,.641-9.777a1.763,1.763,0,0,1,1.279-.453,1.767,1.767,0,0,1,1.273.453,1.527,1.527,0,0,1,.475,1.154,1.531,1.531,0,0,1-.48,1.165A1.771,1.771,0,0,1,1.919-7,1.771,1.771,0,0,1,.651-7.457,1.531,1.531,0,0,1,.171-8.623ZM10.421,2.264,12.59-5.6h3.258L11.91,6.073H8.932L4.994-5.6H8.253Zm12.03,4.025a5.731,5.731,0,0,1-4.181-1.575,5.6,5.6,0,0,1-1.613-4.2v-.3a7.052,7.052,0,0,1,.68-3.145,4.989,4.989,0,0,1,1.926-2.136,5.406,5.406,0,0,1,2.843-.75,4.845,4.845,0,0,1,3.771,1.511A6.138,6.138,0,0,1,27.253-.023V1.25H19.819a2.9,2.9,0,0,0,.912,1.834,2.756,2.756,0,0,0,1.926.691,3.366,3.366,0,0,0,2.816-1.306l1.532,1.716a4.681,4.681,0,0,1-1.9,1.548A6.23,6.23,0,0,1,22.452,6.289ZM22.1-3.3a1.948,1.948,0,0,0-1.505.629,3.255,3.255,0,0,0-.739,1.8h4.337v-.249a2.321,2.321,0,0,0-.561-1.609A2.01,2.01,0,0,0,22.1-3.3ZM32.314,6.073H29.185V-10.5h3.129Zm7.941.216a5.731,5.731,0,0,1-4.181-1.575,5.6,5.6,0,0,1-1.613-4.2v-.3a7.052,7.052,0,0,1,.68-3.145,4.989,4.989,0,0,1,1.926-2.136,5.406,5.406,0,0,1,2.843-.75A4.845,4.845,0,0,1,43.68-4.307,6.138,6.138,0,0,1,45.056-.023V1.25H37.622a2.9,2.9,0,0,0,.912,1.834,2.756,2.756,0,0,0,1.926.691,3.366,3.366,0,0,0,2.816-1.306l1.532,1.716a4.681,4.681,0,0,1-1.9,1.548A6.23,6.23,0,0,1,40.255,6.289ZM39.9-3.3a1.948,1.948,0,0,0-1.505.629,3.255,3.255,0,0,0-.739,1.8h4.337v-.249a2.321,2.321,0,0,0-.561-1.609A2.01,2.01,0,0,0,39.9-3.3Zm13.25,6.15a1,1,0,0,0-.566-.9,6.434,6.434,0,0,0-1.818-.588Q46.6.484,46.6-2.181a3.208,3.208,0,0,1,1.289-2.595A5.2,5.2,0,0,1,51.26-5.817a5.6,5.6,0,0,1,3.555,1.047,3.3,3.3,0,0,1,1.333,2.719H53.03A1.509,1.509,0,0,0,52.6-3.158a1.826,1.826,0,0,0-1.349-.437,1.866,1.866,0,0,0-1.219.356,1.124,1.124,0,0,0-.432.906.961.961,0,0,0,.491.836,5.05,5.05,0,0,0,1.656.55,13.528,13.528,0,0,1,1.964.523,3.226,3.226,0,0,1,2.471,3.14A3.045,3.045,0,0,1,54.81,5.3a5.911,5.911,0,0,1-3.539.987,6.174,6.174,0,0,1-2.606-.523A4.372,4.372,0,0,1,46.88,4.33a3.334,3.334,0,0,1-.647-1.969h2.956A1.628,1.628,0,0,0,49.8,3.634a2.439,2.439,0,0,0,1.532.442,2.258,2.258,0,0,0,1.354-.34A1.058,1.058,0,0,0,53.148,2.847ZM-34.911,26.982a7.035,7.035,0,0,1,1.225-4.348,3.973,3.973,0,0,1,3.35-1.618,3.576,3.576,0,0,1,2.816,1.273V16.332h3.129V32.905h-2.816l-.151-1.241a3.669,3.669,0,0,1-3,1.457A3.963,3.963,0,0,1-33.665,31.5,7.262,7.262,0,0,1-34.911,26.982Zm3.118.232a4.609,4.609,0,0,0,.572,2.518,1.863,1.863,0,0,0,1.662.875,2.086,2.086,0,0,0,2.039-1.221V24.772a2.057,2.057,0,0,0-2.018-1.221Q-31.793,23.55-31.793,27.214ZM-16.6,33.121a5.731,5.731,0,0,1-4.181-1.575,5.6,5.6,0,0,1-1.613-4.2v-.3a7.052,7.052,0,0,1,.68-3.145,4.989,4.989,0,0,1,1.926-2.136,5.406,5.406,0,0,1,2.843-.75,4.845,4.845,0,0,1,3.771,1.511A6.138,6.138,0,0,1-11.8,26.809v1.273h-7.434a2.9,2.9,0,0,0,.912,1.834,2.756,2.756,0,0,0,1.926.691A3.366,3.366,0,0,0-13.58,29.3l1.532,1.716a4.681,4.681,0,0,1-1.9,1.548A6.23,6.23,0,0,1-16.6,33.121Zm-.356-9.592a1.948,1.948,0,0,0-1.505.629,3.255,3.255,0,0,0-.739,1.8h4.337v-.249a2.321,2.321,0,0,0-.561-1.609A2.01,2.01,0,0,0-16.957,23.529Zm18.99.626A8.471,8.471,0,0,0,.91,24.068a2.284,2.284,0,0,0-2.32,1.2v7.639H-4.528V21.231h2.946l.086,1.392a2.889,2.889,0,0,1,2.6-1.608,3.267,3.267,0,0,1,.971.14Zm.626,2.805a6.924,6.924,0,0,1,.669-3.1,4.9,4.9,0,0,1,1.926-2.1,5.619,5.619,0,0,1,2.919-.744,5.316,5.316,0,0,1,3.857,1.446A5.8,5.8,0,0,1,13.7,26.388l.022.8a6.1,6.1,0,0,1-1.5,4.31,5.213,5.213,0,0,1-4.025,1.624A5.239,5.239,0,0,1,4.163,31.5a6.209,6.209,0,0,1-1.505-4.4Zm3.118.221A4.364,4.364,0,0,0,6.4,29.726a2.064,2.064,0,0,0,1.791.881,2.069,2.069,0,0,0,1.769-.87,4.775,4.775,0,0,0,.637-2.783,4.32,4.32,0,0,0-.637-2.529,2.069,2.069,0,0,0-1.791-.9A2.036,2.036,0,0,0,6.4,24.42,4.855,4.855,0,0,0,5.777,27.181Zm13.595-8.821v2.87h2v2.287h-2v5.826a1.391,1.391,0,0,0,.248.928,1.246,1.246,0,0,0,.949.281,4.973,4.973,0,0,0,.917-.076V32.84a6.419,6.419,0,0,1-1.888.281q-3.28,0-3.345-3.312v-6.29h-1.7V21.231h1.7v-2.87Zm10.5,14.544a3.463,3.463,0,0,1-.313-1.047,3.773,3.773,0,0,1-2.946,1.262,4.145,4.145,0,0,1-2.843-.993,3.193,3.193,0,0,1-1.128-2.5,3.3,3.3,0,0,1,1.376-2.848,6.788,6.788,0,0,1,3.976-1h1.435V25.1a1.924,1.924,0,0,0-.415-1.295,1.634,1.634,0,0,0-1.311-.486,1.858,1.858,0,0,0-1.235.378,1.283,1.283,0,0,0-.448,1.036H22.9a3.132,3.132,0,0,1,.626-1.877,4.137,4.137,0,0,1,1.769-1.354,6.449,6.449,0,0,1,2.568-.491A5.1,5.1,0,0,1,31.289,22.1a3.793,3.793,0,0,1,1.268,3.048v5.06a5.581,5.581,0,0,0,.464,2.514v.183Zm-2.579-2.169a2.686,2.686,0,0,0,1.273-.308,2.02,2.02,0,0,0,.863-.825V27.6H28.262q-2.341,0-2.492,1.618l-.011.183a1.248,1.248,0,0,0,.41.96A1.593,1.593,0,0,0,27.291,30.736Zm12.516-.129a2.045,2.045,0,0,0,1.4-.475,1.663,1.663,0,0,0,.561-1.262h2.924a4,4,0,0,1-.647,2.174A4.272,4.272,0,0,1,42.3,32.576a5.454,5.454,0,0,1-2.444.545,5.068,5.068,0,0,1-3.949-1.591,6.3,6.3,0,0,1-1.446-4.4v-.205A6.226,6.226,0,0,1,35.9,22.623a5.009,5.009,0,0,1,3.938-1.608,4.91,4.91,0,0,1,3.512,1.246,4.412,4.412,0,0,1,1.343,3.318H41.771A2.143,2.143,0,0,0,41.21,24.1a2.085,2.085,0,0,0-3.07.225,4.6,4.6,0,0,0-.556,2.577v.324a4.661,4.661,0,0,0,.55,2.594A1.9,1.9,0,0,0,39.807,30.607Zm9.959,2.3H46.637V21.231h3.129Zm-3.312-14.7a1.536,1.536,0,0,1,.469-1.154,2.023,2.023,0,0,1,2.552,0,1.648,1.648,0,0,1-.005,2.32,2,2,0,0,1-2.536,0A1.531,1.531,0,0,1,46.453,18.21Zm5.395,8.75a6.924,6.924,0,0,1,.669-3.1,4.9,4.9,0,0,1,1.926-2.1,5.619,5.619,0,0,1,2.919-.744,5.316,5.316,0,0,1,3.857,1.446,5.8,5.8,0,0,1,1.667,3.927l.022.8a6.1,6.1,0,0,1-1.5,4.31,5.813,5.813,0,0,1-8.054.005,6.209,6.209,0,0,1-1.505-4.4Zm3.118.221a4.364,4.364,0,0,0,.626,2.545,2.248,2.248,0,0,0,3.561.011,4.775,4.775,0,0,0,.637-2.783,4.32,4.32,0,0,0-.637-2.529,2.069,2.069,0,0,0-1.791-.9,2.036,2.036,0,0,0-1.769.891A4.856,4.856,0,0,0,54.966,27.181Zm3.01-10.849h3.4l-2.989,3.345H55.851Zm9.721,4.9.1,1.349a4.076,4.076,0,0,1,3.356-1.564,3.387,3.387,0,0,1,2.762,1.09,5.084,5.084,0,0,1,.928,3.258v7.542H71.723V25.439A2.023,2.023,0,0,0,71.291,24a1.932,1.932,0,0,0-1.435-.448,2.145,2.145,0,0,0-1.975,1.122v8.232H64.763V21.231Z" transform="translate(781.098 1327.002)" fill="#12263f"/>
    <path id="Trazado_190765" data-name="Trazado 190765" d="M-18.033.84a5.559,5.559,0,0,1-1.872,3.992,6.575,6.575,0,0,1-4.451,1.457,5.912,5.912,0,0,1-4.753-2.034A8.339,8.339,0,0,1-30.84-1.329v-.96a9.417,9.417,0,0,1,.8-3.992A5.983,5.983,0,0,1-27.76-8.93a6.392,6.392,0,0,1,3.447-.923A6.4,6.4,0,0,1-19.932-8.4a5.974,5.974,0,0,1,1.921,4.089h-3.237A3.281,3.281,0,0,0-22.1-6.513,3.136,3.136,0,0,0-24.313-7.2a2.75,2.75,0,0,0-2.422,1.16,6.5,6.5,0,0,0-.825,3.6v1.187a6.957,6.957,0,0,0,.771,3.722,2.7,2.7,0,0,0,2.433,1.176,3.2,3.2,0,0,0,2.239-.685A3.1,3.1,0,0,0-21.27.84ZM-16.6.128a6.924,6.924,0,0,1,.669-3.1A4.9,4.9,0,0,1-14-5.073a5.619,5.619,0,0,1,2.919-.744A5.316,5.316,0,0,1-7.227-4.371,5.8,5.8,0,0,1-5.56-.444l.022.8a6.1,6.1,0,0,1-1.5,4.31,5.213,5.213,0,0,1-4.025,1.624,5.239,5.239,0,0,1-4.03-1.618A6.209,6.209,0,0,1-16.6.268Zm3.118.221a4.364,4.364,0,0,0,.626,2.545,2.064,2.064,0,0,0,1.791.881A2.069,2.069,0,0,0-9.293,2.9,4.775,4.775,0,0,0-8.657.122a4.32,4.32,0,0,0-.637-2.529,2.069,2.069,0,0,0-1.791-.9,2.036,2.036,0,0,0-1.769.891A4.855,4.855,0,0,0-13.48.349ZM2.7,2.847a1,1,0,0,0-.566-.9A6.434,6.434,0,0,0,.32,1.358Q-3.845.484-3.845-2.181A3.208,3.208,0,0,1-2.555-4.776,5.2,5.2,0,0,1,.816-5.817,5.6,5.6,0,0,1,4.372-4.771,3.3,3.3,0,0,1,5.7-2.052H2.586a1.509,1.509,0,0,0-.432-1.106A1.826,1.826,0,0,0,.806-3.595a1.866,1.866,0,0,0-1.219.356,1.124,1.124,0,0,0-.432.906A.961.961,0,0,0-.354-1.5,5.05,5.05,0,0,0,1.3-.946a13.528,13.528,0,0,1,1.964.523,3.226,3.226,0,0,1,2.471,3.14A3.045,3.045,0,0,1,4.366,5.3a5.911,5.911,0,0,1-3.539.987,6.174,6.174,0,0,1-2.606-.523A4.372,4.372,0,0,1-3.564,4.33a3.334,3.334,0,0,1-.647-1.969h2.956A1.628,1.628,0,0,0-.64,3.634a2.439,2.439,0,0,0,1.532.442,2.258,2.258,0,0,0,1.354-.34A1.058,1.058,0,0,0,2.7,2.847ZM11.477-8.472V-5.6h2v2.287h-2V2.512a1.391,1.391,0,0,0,.248.928,1.246,1.246,0,0,0,.949.281,4.973,4.973,0,0,0,.917-.076V6.008a6.419,6.419,0,0,1-1.888.281q-3.28,0-3.345-3.312v-6.29h-1.7V-5.6h1.7v-2.87ZM14.4.128a6.924,6.924,0,0,1,.669-3.1A4.9,4.9,0,0,1,17-5.073a5.619,5.619,0,0,1,2.919-.744,5.316,5.316,0,0,1,3.857,1.446A5.8,5.8,0,0,1,25.438-.444l.022.8a6.1,6.1,0,0,1-1.5,4.31,5.213,5.213,0,0,1-4.025,1.624,5.239,5.239,0,0,1-4.03-1.618A6.209,6.209,0,0,1,14.4.268Zm3.118.221a4.364,4.364,0,0,0,.626,2.545,2.248,2.248,0,0,0,3.561.011A4.775,4.775,0,0,0,22.342.122a4.32,4.32,0,0,0-.637-2.529,2.069,2.069,0,0,0-1.791-.9,2.036,2.036,0,0,0-1.769.891A4.855,4.855,0,0,0,17.519.349ZM33.7,2.847a1,1,0,0,0-.566-.9,6.434,6.434,0,0,0-1.818-.588Q27.154.484,27.154-2.181a3.208,3.208,0,0,1,1.289-2.595,5.2,5.2,0,0,1,3.372-1.041A5.6,5.6,0,0,1,35.37-4.771,3.3,3.3,0,0,1,36.7-2.052H33.584a1.509,1.509,0,0,0-.432-1.106A1.826,1.826,0,0,0,31.8-3.595a1.866,1.866,0,0,0-1.219.356,1.124,1.124,0,0,0-.432.906.961.961,0,0,0,.491.836,5.05,5.05,0,0,0,1.656.55,13.528,13.528,0,0,1,1.964.523,3.226,3.226,0,0,1,2.471,3.14A3.045,3.045,0,0,1,35.365,5.3a5.911,5.911,0,0,1-3.539.987,6.174,6.174,0,0,1-2.606-.523A4.372,4.372,0,0,1,27.434,4.33a3.334,3.334,0,0,1-.647-1.969h2.956a1.628,1.628,0,0,0,.615,1.273,2.439,2.439,0,0,0,1.532.442,2.258,2.258,0,0,0,1.354-.34A1.058,1.058,0,0,0,33.7,2.847ZM43.759.149A7.035,7.035,0,0,1,44.984-4.2a3.973,3.973,0,0,1,3.35-1.618A3.576,3.576,0,0,1,51.15-4.544V-10.5h3.129V6.073H51.463l-.151-1.241a3.669,3.669,0,0,1-3,1.457,3.963,3.963,0,0,1-3.307-1.624A7.262,7.262,0,0,1,43.759.149Zm3.118.232A4.609,4.609,0,0,0,47.449,2.9a1.863,1.863,0,0,0,1.662.875A2.086,2.086,0,0,0,51.15,2.554V-2.061a2.057,2.057,0,0,0-2.018-1.221Q46.877-3.282,46.877.382ZM62.069,6.289a5.731,5.731,0,0,1-4.181-1.575,5.6,5.6,0,0,1-1.613-4.2v-.3a7.052,7.052,0,0,1,.68-3.145,4.989,4.989,0,0,1,1.926-2.136,5.406,5.406,0,0,1,2.843-.75,4.845,4.845,0,0,1,3.771,1.511A6.138,6.138,0,0,1,66.87-.023V1.25H59.436a2.9,2.9,0,0,0,.912,1.834,2.756,2.756,0,0,0,1.926.691A3.366,3.366,0,0,0,65.09,2.469l1.532,1.716a4.681,4.681,0,0,1-1.9,1.548A6.23,6.23,0,0,1,62.069,6.289ZM61.713-3.3a1.948,1.948,0,0,0-1.505.629,3.255,3.255,0,0,0-.739,1.8h4.337v-.249a2.321,2.321,0,0,0-.561-1.609A2.01,2.01,0,0,0,61.713-3.3ZM-27.328,32.905h-3.129V21.231h3.129Zm-3.312-14.7a1.535,1.535,0,0,1,.469-1.154,1.763,1.763,0,0,1,1.279-.453,1.767,1.767,0,0,1,1.273.453,1.527,1.527,0,0,1,.475,1.154,1.531,1.531,0,0,1-.48,1.165,1.771,1.771,0,0,1-1.268.453,1.771,1.771,0,0,1-1.268-.453A1.531,1.531,0,0,1-30.641,18.21Zm8.75,3.021.1,1.349a4.076,4.076,0,0,1,3.356-1.564,3.387,3.387,0,0,1,2.762,1.09,5.084,5.084,0,0,1,.928,3.258v7.542h-3.118V25.439A2.023,2.023,0,0,0-18.3,24a1.932,1.932,0,0,0-1.435-.448,2.145,2.145,0,0,0-1.975,1.122v8.232h-3.118V21.231ZM-8.015,29.1l2.169-7.866h3.258L-6.526,32.905H-9.5l-3.938-11.674h3.258Zm12.03,4.025A5.731,5.731,0,0,1-.165,31.546a5.6,5.6,0,0,1-1.613-4.2v-.3A7.052,7.052,0,0,1-1.1,23.9,4.989,4.989,0,0,1,.827,21.765a5.406,5.406,0,0,1,2.843-.75,4.845,4.845,0,0,1,3.771,1.511,6.138,6.138,0,0,1,1.376,4.283v1.273H1.383a2.9,2.9,0,0,0,.912,1.834,2.756,2.756,0,0,0,1.926.691A3.366,3.366,0,0,0,7.037,29.3l1.532,1.716a4.681,4.681,0,0,1-1.9,1.548A6.23,6.23,0,0,1,4.016,33.121Zm-.356-9.592a1.948,1.948,0,0,0-1.505.629,3.255,3.255,0,0,0-.739,1.8H5.753v-.249A2.321,2.321,0,0,0,5.192,24.1,2.01,2.01,0,0,0,3.659,23.529Zm9.8-2.3.1,1.349a4.076,4.076,0,0,1,3.356-1.564,3.387,3.387,0,0,1,2.762,1.09,5.084,5.084,0,0,1,.928,3.258v7.542H17.481V25.439A2.023,2.023,0,0,0,17.049,24a1.932,1.932,0,0,0-1.435-.448,2.145,2.145,0,0,0-1.975,1.122v8.232H10.522V21.231ZM26.7,18.361v2.87h2v2.287h-2v5.826a1.391,1.391,0,0,0,.248.928,1.246,1.246,0,0,0,.949.281,4.973,4.973,0,0,0,.917-.076V32.84a6.419,6.419,0,0,1-1.888.281q-3.28,0-3.345-3.312v-6.29h-1.7V21.231h1.7v-2.87Zm10.5,14.544a3.463,3.463,0,0,1-.313-1.047,3.773,3.773,0,0,1-2.946,1.262,4.145,4.145,0,0,1-2.843-.993,3.192,3.192,0,0,1-1.128-2.5,3.3,3.3,0,0,1,1.376-2.848,6.788,6.788,0,0,1,3.976-1h1.435V25.1a1.924,1.924,0,0,0-.415-1.295,1.634,1.634,0,0,0-1.311-.486,1.858,1.858,0,0,0-1.235.378,1.283,1.283,0,0,0-.448,1.036H30.224a3.132,3.132,0,0,1,.626-1.877,4.137,4.137,0,0,1,1.769-1.354,6.449,6.449,0,0,1,2.568-.491A5.1,5.1,0,0,1,38.612,22.1a3.793,3.793,0,0,1,1.268,3.048v5.06a5.581,5.581,0,0,0,.464,2.514v.183Zm-2.579-2.169a2.686,2.686,0,0,0,1.273-.308,2.02,2.02,0,0,0,.863-.825V27.6H35.586q-2.341,0-2.492,1.618l-.011.183a1.248,1.248,0,0,0,.41.96A1.593,1.593,0,0,0,34.615,30.736Zm14.221-6.582a8.471,8.471,0,0,0-1.122-.086,2.284,2.284,0,0,0-2.32,1.2v7.639H42.276V21.231h2.946l.086,1.392a2.889,2.889,0,0,1,2.6-1.608,3.267,3.267,0,0,1,.971.14Zm4.791,8.75H50.5V21.231h3.129Zm-3.312-14.7a1.536,1.536,0,0,1,.469-1.154,2.023,2.023,0,0,1,2.552,0,1.648,1.648,0,0,1-.005,2.32,2,2,0,0,1-2.536,0A1.531,1.531,0,0,1,50.314,18.21Zm5.395,8.75a6.924,6.924,0,0,1,.669-3.1,4.9,4.9,0,0,1,1.926-2.1,5.619,5.619,0,0,1,2.919-.744,5.316,5.316,0,0,1,3.857,1.446,5.8,5.8,0,0,1,1.667,3.927l.022.8a6.1,6.1,0,0,1-1.5,4.31,5.813,5.813,0,0,1-8.054.005,6.209,6.209,0,0,1-1.505-4.4Zm3.118.221a4.364,4.364,0,0,0,.626,2.545,2.248,2.248,0,0,0,3.561.011,4.775,4.775,0,0,0,.637-2.783,4.32,4.32,0,0,0-.637-2.529,2.069,2.069,0,0,0-1.791-.9,2.036,2.036,0,0,0-1.77.891A4.856,4.856,0,0,0,58.827,27.181Z" transform="translate(991.796 1483.261)" fill="#12263f"/>
    <path id="Trazado_190763" data-name="Trazado 190763" d="M-43.941,6.073V-9.637h4.834A7.341,7.341,0,0,1-35.4-8.7,6.508,6.508,0,0,1-32.85-6.049a8.187,8.187,0,0,1,.917,3.911v.723a8.21,8.21,0,0,1-.9,3.9,6.452,6.452,0,0,1-2.541,2.643,7.4,7.4,0,0,1-3.7.949ZM-40.7-7.015V3.473h1.564a3.515,3.515,0,0,0,2.9-1.241,5.607,5.607,0,0,0,1.025-3.55v-.831a5.7,5.7,0,0,0-.993-3.631,3.5,3.5,0,0,0-2.9-1.235Zm14.21,13.088h-3.129V-5.6h3.129Zm-3.312-14.7a1.536,1.536,0,0,1,.469-1.154,1.763,1.763,0,0,1,1.279-.453,1.767,1.767,0,0,1,1.273.453,1.527,1.527,0,0,1,.475,1.154,1.531,1.531,0,0,1-.48,1.165A1.771,1.771,0,0,1-28.059-7a1.771,1.771,0,0,1-1.268-.453A1.531,1.531,0,0,1-29.807-8.623ZM-17.6,2.847a1,1,0,0,0-.566-.9,6.434,6.434,0,0,0-1.818-.588q-4.165-.874-4.165-3.539a3.208,3.208,0,0,1,1.289-2.595,5.2,5.2,0,0,1,3.372-1.041,5.6,5.6,0,0,1,3.555,1.047A3.3,3.3,0,0,1-14.6-2.052h-3.118a1.509,1.509,0,0,0-.432-1.106A1.826,1.826,0,0,0-19.5-3.595a1.866,1.866,0,0,0-1.219.356,1.124,1.124,0,0,0-.432.906.961.961,0,0,0,.491.836,5.05,5.05,0,0,0,1.656.55,13.528,13.528,0,0,1,1.964.523,3.226,3.226,0,0,1,2.471,3.14A3.045,3.045,0,0,1-15.942,5.3a5.911,5.911,0,0,1-3.539.987,6.174,6.174,0,0,1-2.606-.523A4.372,4.372,0,0,1-23.873,4.33a3.334,3.334,0,0,1-.647-1.969h2.956a1.628,1.628,0,0,0,.615,1.273,2.439,2.439,0,0,0,1.532.442,2.258,2.258,0,0,0,1.354-.34A1.058,1.058,0,0,0-17.6,2.847ZM-2.056.344A7,7,0,0,1-3.281,4.665,3.926,3.926,0,0,1-6.588,6.289a3.637,3.637,0,0,1-2.859-1.23v5.5h-3.118V-5.6h2.892l.108,1.144A3.665,3.665,0,0,1-6.609-5.817a3.953,3.953,0,0,1,3.356,1.6,7.191,7.191,0,0,1,1.2,4.4ZM-5.174.117A4.6,4.6,0,0,0-5.752-2.4a1.88,1.88,0,0,0-1.678-.885A2.042,2.042,0,0,0-9.447-2.16V2.62A2.077,2.077,0,0,0-7.408,3.775Q-5.174,3.775-5.174.117ZM-.61.128a6.924,6.924,0,0,1,.669-3.1,4.9,4.9,0,0,1,1.926-2.1A5.619,5.619,0,0,1,4.9-5.817,5.316,5.316,0,0,1,8.76-4.371,5.8,5.8,0,0,1,10.427-.444l.022.8a6.1,6.1,0,0,1-1.5,4.31A5.213,5.213,0,0,1,4.925,6.289,5.239,5.239,0,0,1,.895,4.67,6.209,6.209,0,0,1-.61.268ZM2.508.349a4.364,4.364,0,0,0,.626,2.545,2.064,2.064,0,0,0,1.791.881A2.069,2.069,0,0,0,6.694,2.9,4.775,4.775,0,0,0,7.331.122a4.32,4.32,0,0,0-.637-2.529A2.069,2.069,0,0,0,4.9-3.3a2.036,2.036,0,0,0-1.769.891A4.856,4.856,0,0,0,2.508.349ZM15.24-5.6l.1,1.349a4.076,4.076,0,0,1,3.356-1.564,3.387,3.387,0,0,1,2.762,1.09,5.084,5.084,0,0,1,.928,3.258V6.073H19.264V-1.394a2.023,2.023,0,0,0-.432-1.44A1.932,1.932,0,0,0,17.4-3.282,2.145,2.145,0,0,0,15.423-2.16V6.073H12.3V-5.6Zm12.8,11.674H24.907V-5.6h3.129Zm-3.312-14.7a1.535,1.535,0,0,1,.469-1.154,1.763,1.763,0,0,1,1.279-.453,1.767,1.767,0,0,1,1.273.453,1.527,1.527,0,0,1,.475,1.154,1.531,1.531,0,0,1-.48,1.165A1.771,1.771,0,0,1,26.472-7,1.771,1.771,0,0,1,25.2-7.457,1.531,1.531,0,0,1,24.724-8.623ZM41.124.344a7.069,7.069,0,0,1-1.2,4.375,3.967,3.967,0,0,1-3.345,1.57A3.645,3.645,0,0,1,33.55,4.832l-.14,1.241H30.6V-10.5h3.118v5.945A3.551,3.551,0,0,1,36.56-5.817a4,4,0,0,1,3.35,1.57A7.079,7.079,0,0,1,41.124.171ZM38.006.117a4.644,4.644,0,0,0-.561-2.584,1.9,1.9,0,0,0-1.672-.815,2.057,2.057,0,0,0-2.05,1.219V2.545a2.085,2.085,0,0,0,2.072,1.23,1.925,1.925,0,0,0,1.985-1.489A7.681,7.681,0,0,0,38.006.117Zm8.33,5.956H43.206V-5.6h3.129Zm-3.312-14.7a1.535,1.535,0,0,1,.469-1.154,1.763,1.763,0,0,1,1.279-.453,1.767,1.767,0,0,1,1.273.453,1.527,1.527,0,0,1,.475,1.154,1.531,1.531,0,0,1-.48,1.165A1.771,1.771,0,0,1,44.771-7,1.771,1.771,0,0,1,43.5-7.457,1.531,1.531,0,0,1,43.023-8.623Zm9.171,14.7H49.065V-10.5h3.129Zm5.859,0H54.924V-5.6h3.129ZM54.74-8.623a1.535,1.535,0,0,1,.469-1.154,1.763,1.763,0,0,1,1.279-.453,1.767,1.767,0,0,1,1.273.453,1.527,1.527,0,0,1,.475,1.154,1.531,1.531,0,0,1-.48,1.165A1.771,1.771,0,0,1,56.488-7a1.771,1.771,0,0,1-1.268-.453A1.531,1.531,0,0,1,54.74-8.623ZM60.135.149A7.035,7.035,0,0,1,61.36-4.2a3.973,3.973,0,0,1,3.35-1.618,3.576,3.576,0,0,1,2.816,1.273V-10.5h3.129V6.073H67.839l-.151-1.241a3.669,3.669,0,0,1-3,1.457,3.963,3.963,0,0,1-3.307-1.624A7.262,7.262,0,0,1,60.135.149Zm3.118.232A4.609,4.609,0,0,0,63.825,2.9a1.863,1.863,0,0,0,1.662.875,2.086,2.086,0,0,0,2.039-1.221V-2.061a2.057,2.057,0,0,0-2.018-1.221Q63.253-3.282,63.253.382ZM79.837,6.073a3.463,3.463,0,0,1-.313-1.047,3.773,3.773,0,0,1-2.946,1.262A4.145,4.145,0,0,1,73.736,5.3a3.193,3.193,0,0,1-1.128-2.5A3.3,3.3,0,0,1,73.984-.056a6.788,6.788,0,0,1,3.976-1h1.435v-.669a1.924,1.924,0,0,0-.415-1.295,1.634,1.634,0,0,0-1.311-.486,1.858,1.858,0,0,0-1.235.378,1.283,1.283,0,0,0-.448,1.036H72.867a3.132,3.132,0,0,1,.626-1.877,4.137,4.137,0,0,1,1.77-1.354,6.449,6.449,0,0,1,2.568-.491,5.1,5.1,0,0,1,3.426,1.084,3.793,3.793,0,0,1,1.268,3.048v5.06a5.581,5.581,0,0,0,.464,2.514v.183ZM77.258,3.9A2.686,2.686,0,0,0,78.532,3.6a2.02,2.02,0,0,0,.863-.825V.764H78.229q-2.341,0-2.492,1.618l-.011.183a1.248,1.248,0,0,0,.41.96A1.593,1.593,0,0,0,77.258,3.9ZM84.433.149A7.035,7.035,0,0,1,85.658-4.2a3.973,3.973,0,0,1,3.35-1.618,3.576,3.576,0,0,1,2.816,1.273V-10.5h3.129V6.073H92.137l-.151-1.241a3.669,3.669,0,0,1-3,1.457A3.963,3.963,0,0,1,85.68,4.665,7.262,7.262,0,0,1,84.433.149Zm3.118.232A4.609,4.609,0,0,0,88.124,2.9a1.863,1.863,0,0,0,1.662.875,2.086,2.086,0,0,0,2.039-1.221V-2.061a2.057,2.057,0,0,0-2.018-1.221Q87.552-3.282,87.552.382ZM-15.43,26.982a7.035,7.035,0,0,1,1.225-4.348,3.973,3.973,0,0,1,3.35-1.618,3.576,3.576,0,0,1,2.816,1.273V16.332H-4.91V32.905H-7.726l-.151-1.241a3.669,3.669,0,0,1-3,1.457A3.963,3.963,0,0,1-14.184,31.5,7.262,7.262,0,0,1-15.43,26.982Zm3.118.232a4.609,4.609,0,0,0,.572,2.518,1.863,1.863,0,0,0,1.662.875,2.086,2.086,0,0,0,2.039-1.221V24.772a2.057,2.057,0,0,0-2.018-1.221Q-12.312,23.55-12.312,27.214ZM2.88,33.121A5.731,5.731,0,0,1-1.3,31.546a5.6,5.6,0,0,1-1.613-4.2v-.3a7.052,7.052,0,0,1,.68-3.145A4.989,4.989,0,0,1-.308,21.765a5.406,5.406,0,0,1,2.843-.75,4.845,4.845,0,0,1,3.771,1.511,6.138,6.138,0,0,1,1.376,4.283v1.273H.247a2.9,2.9,0,0,0,.912,1.834,2.756,2.756,0,0,0,1.926.691A3.366,3.366,0,0,0,5.9,29.3l1.532,1.716a4.681,4.681,0,0,1-1.9,1.548A6.23,6.23,0,0,1,2.88,33.121Zm-.356-9.592a1.948,1.948,0,0,0-1.505.629,3.255,3.255,0,0,0-.739,1.8H4.617v-.249A2.321,2.321,0,0,0,4.056,24.1,2.01,2.01,0,0,0,2.524,23.529Zm18.029,6.085q.173-.863-1.2-1.252l-.982-.248q-3.485-.96-3.388-3.388a3.353,3.353,0,0,1,1.462-2.692,5.444,5.444,0,0,1,3.393-1.02,4.883,4.883,0,0,1,3.194,1.047,3.448,3.448,0,0,1,1.241,2.73l-3.021-.011a1.33,1.33,0,0,0-1.489-1.521,2.143,2.143,0,0,0-1.235.356,1.466,1.466,0,0,0-.642.96q-.162.863,1.306,1.219l.432.1a8.68,8.68,0,0,1,2.277.815,3.436,3.436,0,0,1,1.214,1.138,2.817,2.817,0,0,1,.394,1.629,3.109,3.109,0,0,1-.718,1.942A4.392,4.392,0,0,1,20.915,32.7a6.54,6.54,0,0,1-2.509.421A4.928,4.928,0,0,1,15.17,32a3.6,3.6,0,0,1-1.316-2.832l2.87.022a1.578,1.578,0,0,0,1.791,1.694,2.548,2.548,0,0,0,1.386-.345A1.364,1.364,0,0,0,20.554,29.614ZM31.084,18.361l-.507,2.87h1.942l-.4,2.287H30.178l-.993,5.848a1.487,1.487,0,0,0,.086.842q.151.291.734.313.173.011.928-.054l-.216,2.385a5.118,5.118,0,0,1-1.748.248,2.742,2.742,0,0,1-2.233-.939,3.392,3.392,0,0,1-.6-2.482l1-6.161H25.484l.4-2.287h1.651l.5-2.87Zm7.531,2.654a4.682,4.682,0,0,1,2.66.793,4.466,4.466,0,0,1,1.64,2.126,6.576,6.576,0,0,1,.372,3,7.1,7.1,0,0,1-1.937,4.5,5.469,5.469,0,0,1-4.17,1.678,4.668,4.668,0,0,1-2.633-.782,4.449,4.449,0,0,1-1.64-2.109,6.431,6.431,0,0,1-.378-2.978,7.313,7.313,0,0,1,1.964-4.6A5.356,5.356,0,0,1,38.615,21.015Zm-3.075,7.34a2.694,2.694,0,0,0,.486,1.632,1.614,1.614,0,0,0,1.306.619,2.365,2.365,0,0,0,2.2-1.287,6.417,6.417,0,0,0,.744-3.5,2.93,2.93,0,0,0-.5-1.654,1.587,1.587,0,0,0-1.311-.641,2.368,2.368,0,0,0-2.174,1.277A6.351,6.351,0,0,0,35.54,28.355Zm13.735,2.262a2,2,0,0,0,1.4-.459,2.254,2.254,0,0,0,.734-1.279l2.859-.011a4.194,4.194,0,0,1-.771,2.212,4.687,4.687,0,0,1-1.856,1.532,5.313,5.313,0,0,1-2.444.518,4.314,4.314,0,0,1-3.366-1.467,5.476,5.476,0,0,1-1.2-3.82l.032-.593.011-.119A7.3,7.3,0,0,1,46.6,22.617a5.194,5.194,0,0,1,4.025-1.6A4.208,4.208,0,0,1,53.759,22.3,4.554,4.554,0,0,1,54.9,25.59H52.059a2.39,2.39,0,0,0-.41-1.478,1.558,1.558,0,0,0-1.23-.583q-2.18-.065-2.643,3.183a10.747,10.747,0,0,0-.119,1.985Q47.765,30.585,49.276,30.618ZM60.5,28.255l-1.413,1.23-.593,3.42H55.447l2.87-16.573h3.053l-1.575,9,.593-.637,3.463-3.463h3.906l-5.1,5.017L65.9,32.905H62.568Z" transform="translate(565.952 1481.683)" fill="#12263f"/>
    <path id="Trazado_190768" data-name="Trazado 190768" d="M-23.5.538V6.073h-3.237V-9.637h6.129a7.09,7.09,0,0,1,3.113.647,4.771,4.771,0,0,1,2.066,1.84,5.129,5.129,0,0,1,.723,2.714A4.511,4.511,0,0,1-16.289-.795,6.584,6.584,0,0,1-20.664.538Zm0-2.622h2.892a2.843,2.843,0,0,0,1.958-.6,2.2,2.2,0,0,0,.674-1.726,2.591,2.591,0,0,0-.68-1.867,2.539,2.539,0,0,0-1.877-.734H-23.5ZM-6.13-2.678a8.472,8.472,0,0,0-1.122-.086,2.284,2.284,0,0,0-2.32,1.2V6.073H-12.69V-5.6h2.946l.086,1.392a2.889,2.889,0,0,1,2.6-1.608,3.267,3.267,0,0,1,.971.14ZM.538,6.289A5.731,5.731,0,0,1-3.643,4.713,5.6,5.6,0,0,1-5.256.516v-.3a7.052,7.052,0,0,1,.68-3.145A4.989,4.989,0,0,1-2.651-5.067a5.406,5.406,0,0,1,2.843-.75A4.845,4.845,0,0,1,3.963-4.307,6.138,6.138,0,0,1,5.339-.023V1.25H-2.1a2.9,2.9,0,0,0,.912,1.834,2.756,2.756,0,0,0,1.926.691A3.366,3.366,0,0,0,3.559,2.469L5.091,4.185a4.681,4.681,0,0,1-1.9,1.548A6.23,6.23,0,0,1,.538,6.289ZM.182-3.3a1.948,1.948,0,0,0-1.505.629,3.255,3.255,0,0,0-.739,1.8H2.275v-.249a2.321,2.321,0,0,0-.561-1.609A2.01,2.01,0,0,0,.182-3.3ZM11.964,3.775a2.045,2.045,0,0,0,1.4-.475,1.663,1.663,0,0,0,.561-1.262h2.924A4,4,0,0,1,16.2,4.212a4.272,4.272,0,0,1-1.743,1.532,5.454,5.454,0,0,1-2.444.545A5.068,5.068,0,0,1,8.069,4.7,6.3,6.3,0,0,1,6.623.3V.1A6.226,6.226,0,0,1,8.058-4.21,5.009,5.009,0,0,1,12-5.817a4.91,4.91,0,0,1,3.512,1.246,4.412,4.412,0,0,1,1.343,3.318H13.928a2.143,2.143,0,0,0-.561-1.481A1.871,1.871,0,0,0,11.942-3.3a1.878,1.878,0,0,0-1.645.794A4.6,4.6,0,0,0,9.741.068V.392a4.661,4.661,0,0,0,.55,2.594A1.9,1.9,0,0,0,11.964,3.775Zm9.959,2.3H18.794V-5.6h3.129ZM18.61-8.623a1.535,1.535,0,0,1,.469-1.154,1.763,1.763,0,0,1,1.279-.453,1.767,1.767,0,0,1,1.273.453,1.527,1.527,0,0,1,.475,1.154,1.531,1.531,0,0,1-.48,1.165A1.771,1.771,0,0,1,20.358-7a1.771,1.771,0,0,1-1.268-.453A1.531,1.531,0,0,1,18.61-8.623ZM24.005.128a6.924,6.924,0,0,1,.669-3.1,4.9,4.9,0,0,1,1.926-2.1,5.619,5.619,0,0,1,2.919-.744,5.316,5.316,0,0,1,3.857,1.446A5.8,5.8,0,0,1,35.043-.444l.022.8a6.1,6.1,0,0,1-1.5,4.31A5.213,5.213,0,0,1,29.54,6.289,5.239,5.239,0,0,1,25.51,4.67a6.209,6.209,0,0,1-1.505-4.4Zm3.118.221a4.364,4.364,0,0,0,.626,2.545A2.248,2.248,0,0,0,31.31,2.9,4.775,4.775,0,0,0,31.946.122a4.32,4.32,0,0,0-.637-2.529,2.069,2.069,0,0,0-1.791-.9,2.036,2.036,0,0,0-1.769.891A4.856,4.856,0,0,0,27.123.349ZM42,.149A7.035,7.035,0,0,1,43.227-4.2a3.973,3.973,0,0,1,3.35-1.618,3.576,3.576,0,0,1,2.816,1.273V-10.5h3.129V6.073H49.706l-.151-1.241a3.669,3.669,0,0,1-3,1.457,3.963,3.963,0,0,1-3.307-1.624A7.262,7.262,0,0,1,42,.149ZM45.12.382A4.609,4.609,0,0,0,45.692,2.9a1.863,1.863,0,0,0,1.662.875,2.086,2.086,0,0,0,2.039-1.221V-2.061a2.057,2.057,0,0,0-2.018-1.221Q45.12-3.282,45.12.382ZM60.312,6.289a5.731,5.731,0,0,1-4.181-1.575,5.6,5.6,0,0,1-1.613-4.2v-.3a7.052,7.052,0,0,1,.68-3.145,4.989,4.989,0,0,1,1.926-2.136,5.406,5.406,0,0,1,2.843-.75,4.845,4.845,0,0,1,3.771,1.511A6.138,6.138,0,0,1,65.113-.023V1.25H57.679a2.9,2.9,0,0,0,.912,1.834,2.756,2.756,0,0,0,1.926.691,3.366,3.366,0,0,0,2.816-1.306l1.532,1.716a4.681,4.681,0,0,1-1.9,1.548A6.23,6.23,0,0,1,60.312,6.289ZM59.956-3.3a1.948,1.948,0,0,0-1.505.629,3.255,3.255,0,0,0-.739,1.8h4.337v-.249a2.321,2.321,0,0,0-.561-1.609A2.01,2.01,0,0,0,59.956-3.3Zm-89.1,36.208h-3.129V21.231h3.129Zm-3.312-14.7a1.535,1.535,0,0,1,.469-1.154,1.763,1.763,0,0,1,1.279-.453,1.767,1.767,0,0,1,1.273.453,1.527,1.527,0,0,1,.475,1.154,1.531,1.531,0,0,1-.48,1.165,1.771,1.771,0,0,1-1.268.453,1.771,1.771,0,0,1-1.268-.453A1.531,1.531,0,0,1-32.457,18.21Zm8.75,3.021.1,1.349a4.076,4.076,0,0,1,3.356-1.564,3.387,3.387,0,0,1,2.762,1.09,5.084,5.084,0,0,1,.928,3.258v7.542h-3.118V25.439A2.023,2.023,0,0,0-20.114,24a1.932,1.932,0,0,0-1.435-.448,2.145,2.145,0,0,0-1.975,1.122v8.232h-3.118V21.231ZM-9.831,29.1l2.169-7.866H-4.4L-8.342,32.905H-11.32l-3.938-11.674H-12ZM2.2,33.121a5.731,5.731,0,0,1-4.181-1.575,5.6,5.6,0,0,1-1.613-4.2v-.3a7.052,7.052,0,0,1,.68-3.145A4.989,4.989,0,0,1-.989,21.765a5.406,5.406,0,0,1,2.843-.75,4.845,4.845,0,0,1,3.771,1.511A6.138,6.138,0,0,1,7,26.809v1.273H-.433a2.9,2.9,0,0,0,.912,1.834,2.756,2.756,0,0,0,1.926.691A3.366,3.366,0,0,0,5.22,29.3l1.532,1.716a4.681,4.681,0,0,1-1.9,1.548A6.23,6.23,0,0,1,2.2,33.121Zm-.356-9.592a1.948,1.948,0,0,0-1.505.629,3.255,3.255,0,0,0-.739,1.8H3.936v-.249A2.321,2.321,0,0,0,3.375,24.1,2.01,2.01,0,0,0,1.843,23.529Zm9.8-2.3.1,1.349a4.076,4.076,0,0,1,3.356-1.564,3.387,3.387,0,0,1,2.762,1.09,5.084,5.084,0,0,1,.928,3.258v7.542H15.665V25.439A2.023,2.023,0,0,0,15.233,24,1.932,1.932,0,0,0,13.8,23.55a2.145,2.145,0,0,0-1.975,1.122v8.232H8.705V21.231Zm13.239-2.87v2.87h2v2.287h-2v5.826a1.391,1.391,0,0,0,.248.928,1.246,1.246,0,0,0,.949.281,4.973,4.973,0,0,0,.917-.076V32.84a6.419,6.419,0,0,1-1.888.281q-3.28,0-3.345-3.312v-6.29h-1.7V21.231h1.7v-2.87Zm10.5,14.544a3.463,3.463,0,0,1-.313-1.047,3.773,3.773,0,0,1-2.946,1.262,4.145,4.145,0,0,1-2.843-.993,3.193,3.193,0,0,1-1.128-2.5,3.3,3.3,0,0,1,1.376-2.848,6.788,6.788,0,0,1,3.976-1h1.435V25.1a1.924,1.924,0,0,0-.415-1.295,1.634,1.634,0,0,0-1.311-.486,1.858,1.858,0,0,0-1.235.378,1.283,1.283,0,0,0-.448,1.036H28.407a3.132,3.132,0,0,1,.626-1.877A4.137,4.137,0,0,1,30.8,21.506a6.449,6.449,0,0,1,2.568-.491A5.1,5.1,0,0,1,36.8,22.1a3.793,3.793,0,0,1,1.268,3.048v5.06a5.581,5.581,0,0,0,.464,2.514v.183ZM32.8,30.736a2.686,2.686,0,0,0,1.273-.308,2.02,2.02,0,0,0,.863-.825V27.6H33.77q-2.341,0-2.492,1.618l-.011.183a1.248,1.248,0,0,0,.41.96A1.593,1.593,0,0,0,32.8,30.736Zm14.221-6.582a8.471,8.471,0,0,0-1.122-.086,2.284,2.284,0,0,0-2.32,1.2v7.639H40.459V21.231H43.4l.086,1.392a2.889,2.889,0,0,1,2.6-1.608,3.267,3.267,0,0,1,.971.14Zm4.791,8.75H48.681V21.231H51.81ZM48.5,18.21a1.535,1.535,0,0,1,.469-1.154,2.023,2.023,0,0,1,2.552,0,1.648,1.648,0,0,1-.005,2.32,2,2,0,0,1-2.536,0A1.531,1.531,0,0,1,48.5,18.21Zm5.395,8.75a6.924,6.924,0,0,1,.669-3.1,4.9,4.9,0,0,1,1.926-2.1,5.619,5.619,0,0,1,2.919-.744,5.316,5.316,0,0,1,3.857,1.446,5.8,5.8,0,0,1,1.667,3.927l.022.8a6.1,6.1,0,0,1-1.5,4.31A5.813,5.813,0,0,1,55.4,31.5a6.209,6.209,0,0,1-1.505-4.4Zm3.118.221a4.364,4.364,0,0,0,.626,2.545,2.248,2.248,0,0,0,3.561.011,4.775,4.775,0,0,0,.637-2.783,4.32,4.32,0,0,0-.637-2.529,2.069,2.069,0,0,0-1.791-.9,2.036,2.036,0,0,0-1.769.891A4.856,4.856,0,0,0,57.01,27.181Z" transform="translate(653.091 1720.016)" fill="#12263f"/>
    <g id="lista-de-verificacion" transform="translate(769.722 1467.395)">
      <path id="Trazado_190747" data-name="Trazado 190747" d="M72.191,3.432H65.243A4.877,4.877,0,0,0,60.591,0H38.4a4.877,4.877,0,0,0-4.652,3.432H26.8a6.779,6.779,0,0,0-6.718,6.823V78.9A6.779,6.779,0,0,0,26.8,85.726H72.191A6.778,6.778,0,0,0,78.909,78.9V10.255A6.778,6.778,0,0,0,72.191,3.432ZM33.748,13.646A4.877,4.877,0,0,0,38.4,17.078H60.591a4.877,4.877,0,0,0,4.652-3.432h3.593V75.512H30.155V13.646ZM36.88,4.869a1.522,1.522,0,0,1,1.52-1.52H60.591a1.521,1.521,0,0,1,1.52,1.52V12.21a1.521,1.521,0,0,1-1.52,1.52H38.4a1.522,1.522,0,0,1-1.52-1.52ZM75.56,78.9a3.427,3.427,0,0,1-3.369,3.474H26.8A3.427,3.427,0,0,1,23.431,78.9V10.255A3.427,3.427,0,0,1,26.8,6.781h6.731V10.3h-5.05a1.675,1.675,0,0,0-1.674,1.674V77.187a1.675,1.675,0,0,0,1.674,1.674H70.51a1.675,1.675,0,0,0,1.674-1.674V11.971A1.675,1.675,0,0,0,70.51,10.3H65.46V6.781h6.732a3.427,3.427,0,0,1,3.369,3.474V78.9Z" transform="translate(-20.082)" fill="#d84318"/>
      <path id="Trazado_190748" data-name="Trazado 190748" d="M142.245,44.349h15.13a1.674,1.674,0,1,0,0-3.349h-15.13a1.674,1.674,0,0,0,0,3.349Z" transform="translate(-120.397 -34.135)" fill="#d84318"/>
      <path id="Trazado_190749" data-name="Trazado 190749" d="M102.566,132.711a1.675,1.675,0,0,0,2.392,0l6.725-6.865a1.674,1.674,0,1,0-2.392-2.343l-5.529,5.644-.485-.5a1.674,1.674,0,0,0-2.392,2.343Z" transform="translate(-86.958 -102.405)" fill="#d84318"/>
      <path id="Trazado_190750" data-name="Trazado 190750" d="M192.449,126.349H205.9a1.674,1.674,0,1,0,0-3.349H192.449a1.674,1.674,0,0,0,0,3.349Z" transform="translate(-162.195 -102.406)" fill="#d84318"/>
      <path id="Trazado_190751" data-name="Trazado 190751" d="M192.449,167.349H205.9a1.674,1.674,0,1,0,0-3.349H192.449a1.674,1.674,0,0,0,0,3.349Z" transform="translate(-162.195 -136.541)" fill="#d84318"/>
      <path id="Trazado_190752" data-name="Trazado 190752" d="M102.566,214.711a1.675,1.675,0,0,0,2.392,0l6.725-6.865a1.674,1.674,0,1,0-2.392-2.343l-5.529,5.644-.485-.5a1.674,1.674,0,1,0-2.392,2.343Z" transform="translate(-86.958 -170.676)" fill="#d84318"/>
      <path id="Trazado_190753" data-name="Trazado 190753" d="M192.449,208.349H205.9a1.674,1.674,0,1,0,0-3.349H192.449a1.674,1.674,0,0,0,0,3.349Z" transform="translate(-162.195 -170.676)" fill="#d84318"/>
      <path id="Trazado_190754" data-name="Trazado 190754" d="M192.449,249.349H205.9a1.674,1.674,0,1,0,0-3.349H192.449a1.674,1.674,0,0,0,0,3.349Z" transform="translate(-162.195 -204.811)" fill="#d84318"/>
      <path id="Trazado_190755" data-name="Trazado 190755" d="M102.566,296.711a1.675,1.675,0,0,0,2.392,0l6.725-6.865a1.674,1.674,0,0,0-2.392-2.343l-5.529,5.644-.485-.5a1.674,1.674,0,0,0-2.392,2.343Z" transform="translate(-86.958 -238.946)" fill="#d84318"/>
      <path id="Trazado_190756" data-name="Trazado 190756" d="M192.449,290.349H205.9a1.674,1.674,0,1,0,0-3.349H192.449a1.674,1.674,0,0,0,0,3.349Z" transform="translate(-162.195 -238.947)" fill="#d84318"/>
      <path id="Trazado_190757" data-name="Trazado 190757" d="M192.449,331.349H205.9a1.674,1.674,0,1,0,0-3.349H192.449a1.674,1.674,0,1,0,0,3.349Z" transform="translate(-162.195 -273.082)" fill="#d84318"/>
      <path id="Trazado_190758" data-name="Trazado 190758" d="M102.566,378.711a1.675,1.675,0,0,0,2.392,0l6.725-6.865a1.674,1.674,0,0,0-2.392-2.343l-5.529,5.644-.485-.5a1.674,1.674,0,0,0-2.392,2.343Z" transform="translate(-86.958 -307.217)" fill="#d84318"/>
      <path id="Trazado_190759" data-name="Trazado 190759" d="M192.449,372.349H205.9a1.674,1.674,0,1,0,0-3.349H192.449a1.674,1.674,0,0,0,0,3.349Z" transform="translate(-162.195 -307.217)" fill="#d84318"/>
      <path id="Trazado_190760" data-name="Trazado 190760" d="M192.449,413.349H205.9a1.674,1.674,0,1,0,0-3.349H192.449a1.674,1.674,0,1,0,0,3.349Z" transform="translate(-162.195 -341.352)" fill="#d84318"/>
      <path id="Trazado_190761" data-name="Trazado 190761" d="M408.1,101.193l-6.718-10.077a1.675,1.675,0,0,0-2.786,0l-6.728,10.093a1.683,1.683,0,0,0-.278.923v50.435a8.4,8.4,0,0,0,16.8,0V102.132a1.719,1.719,0,0,0-.288-.938Zm-3.061,2.613v3.376h-10.1v-3.376Zm-10.1,38.681V110.531h3.376v31.956h-3.376Zm6.725-31.956h3.376v31.956h-3.376Zm-6.725,35.3h10.1v3.376h-10.1Zm5.05-50.772,3.6,5.394H396.4Zm0,62.554a5.056,5.056,0,0,1-5.05-5.05v-.007h10.1v.007A5.056,5.056,0,0,1,399.991,157.617Z" transform="translate(-329.389 -75.24)" fill="#d84318"/>
    </g>
  </g>
</svg>
