<svg xmlns="http://www.w3.org/2000/svg" width="610" height="411" viewBox="0 0 610 411">
  <g id="Grupo_131486" data-name="Grupo 131486" transform="translate(-495 -3029)">
    <path id="Trazado_194422" data-name="Trazado 194422" d="M15,0H595a15,15,0,0,1,15,15V285a15,15,0,0,1-15,15H15A15,15,0,0,1,0,285V15A15,15,0,0,1,15,0Z" transform="translate(495 3140)" fill="#f0f8ff"/>
    <path id="Trazado_190584" data-name="Trazado 190584" d="M-79.478-6.152a6.627,6.627,0,0,1-.3,2.251,3.362,3.362,0,0,1-1,1.382l-.645.6a2.547,2.547,0,0,0-.908,1.816A1.357,1.357,0,0,0-82,.9a1.162,1.162,0,0,0,.845.317A1.29,1.29,0,0,0-80.137.806a1.794,1.794,0,0,0,.386-1.177h3.311a4,4,0,0,1-1.245,3.047A4.9,4.9,0,0,1-81.079,3.76a5.039,5.039,0,0,1-3.364-1.011A3.547,3.547,0,0,1-85.63-.107a3.281,3.281,0,0,1,.371-1.528,6.061,6.061,0,0,1,1.27-1.558l.83-.762a2.243,2.243,0,0,0,.84-1.494l.049-.7Zm-1.309-1.318a1.892,1.892,0,0,1-1.3-.464,1.516,1.516,0,0,1-.522-1.187,1.516,1.516,0,0,1,.522-1.187,1.892,1.892,0,0,1,1.3-.464,1.86,1.86,0,0,1,1.313.474,1.537,1.537,0,0,1,.513,1.177,1.537,1.537,0,0,1-.513,1.177A1.86,1.86,0,0,1-80.786-7.471Zm17.764.654a8.4,8.4,0,0,1-.654,3.442,5.984,5.984,0,0,1-1.807,2.358L-63.188.8l-2.119,1.8L-68.364.137A6.353,6.353,0,0,1-69.224.2a6.163,6.163,0,0,1-3.223-.84,5.712,5.712,0,0,1-2.192-2.4,8.159,8.159,0,0,1-.815-3.594v-.752a8.414,8.414,0,0,1,.767-3.691A5.713,5.713,0,0,1-72.5-13.545a6.115,6.115,0,0,1,3.257-.869,6.087,6.087,0,0,1,3.223.859,5.79,5.79,0,0,1,2.2,2.446,8.18,8.18,0,0,1,.8,3.638Zm-3.486-.6a5.979,5.979,0,0,0-.708-3.218,2.271,2.271,0,0,0-2.026-1.1,2.256,2.256,0,0,0-2.041,1.084,6.057,6.057,0,0,0-.693,3.174v.654A6.145,6.145,0,0,0-71.284-3.6,2.27,2.27,0,0,0-69.224-2.48a2.237,2.237,0,0,0,2.007-1.1,6.016,6.016,0,0,0,.708-3.174Zm11.377,6.27A3.393,3.393,0,0,1-57.954.2,3.328,3.328,0,0,1-60.586-.815a4.251,4.251,0,0,1-.894-2.905v-6.846h3.291V-3.7A1.183,1.183,0,0,0-56.87-2.344a1.72,1.72,0,0,0,1.611-.811v-7.412h3.311V0h-3.086ZM-45.034.2a5.432,5.432,0,0,1-3.936-1.45,5.008,5.008,0,0,1-1.5-3.774V-5.3a6.489,6.489,0,0,1,.6-2.861,4.395,4.395,0,0,1,1.753-1.919,5.292,5.292,0,0,1,2.734-.679A4.574,4.574,0,0,1-41.87-9.38a5.43,5.43,0,0,1,1.289,3.853v1.279h-6.543a2.372,2.372,0,0,0,.771,1.4,2.3,2.3,0,0,0,1.543.508,2.958,2.958,0,0,0,2.441-1.094l1.5,1.777A4.2,4.2,0,0,1-42.607-.308,5.891,5.891,0,0,1-45.034.2Zm-.371-8.418q-1.445,0-1.719,1.914h3.32v-.254a1.63,1.63,0,0,0-.4-1.226A1.593,1.593,0,0,0-45.405-8.223Zm-.039-6.787h3.477l-2.715,3.066-2.686,0ZM-29.165.2A5.432,5.432,0,0,1-33.1-1.255a5.008,5.008,0,0,1-1.5-3.774V-5.3A6.489,6.489,0,0,1-34-8.164a4.395,4.395,0,0,1,1.753-1.919,5.292,5.292,0,0,1,2.734-.679A4.574,4.574,0,0,1-26-9.38a5.43,5.43,0,0,1,1.289,3.853v1.279h-6.543a2.372,2.372,0,0,0,.771,1.4,2.3,2.3,0,0,0,1.543.508A2.958,2.958,0,0,0-26.5-3.437L-25-1.66A4.2,4.2,0,0,1-26.738-.308,5.891,5.891,0,0,1-29.165.2Zm-.371-8.418q-1.445,0-1.719,1.914h3.32v-.254a1.63,1.63,0,0,0-.4-1.226A1.593,1.593,0,0,0-29.536-8.223Zm11.68,5.254a.76.76,0,0,0-.439-.674,6.685,6.685,0,0,0-1.67-.527A7.615,7.615,0,0,1-22-4.888a3.4,3.4,0,0,1-1.221-1.079,2.577,2.577,0,0,1-.42-1.455,2.92,2.92,0,0,1,1.2-2.4,4.948,4.948,0,0,1,3.145-.942,5.482,5.482,0,0,1,3.359.947,2.962,2.962,0,0,1,1.27,2.49h-3.3q0-1.27-1.338-1.27a1.326,1.326,0,0,0-.869.288.892.892,0,0,0-.352.718.819.819,0,0,0,.43.713,4.06,4.06,0,0,0,1.372.449,11.857,11.857,0,0,1,1.655.42,3.007,3.007,0,0,1,2.383,2.939A2.767,2.767,0,0,1-15.967-.713,5.631,5.631,0,0,1-19.292.2a5.747,5.747,0,0,1-2.422-.488,4.05,4.05,0,0,1-1.66-1.328,3.007,3.007,0,0,1-.6-1.768h3.076a1.272,1.272,0,0,0,.488,1.069,2.009,2.009,0,0,0,1.2.337,1.58,1.58,0,0,0,1.011-.273A.875.875,0,0,0-17.856-2.969ZM-4.692,0h-3.3V-15h3.3ZM3.286,0a3.716,3.716,0,0,1-.312-.947A3.06,3.06,0,0,1,.435.2,3.749,3.749,0,0,1-2.1-.708,2.875,2.875,0,0,1-3.149-2.979a2.955,2.955,0,0,1,1.27-2.6,6.468,6.468,0,0,1,3.691-.879H2.827v-.559q0-1.462-1.26-1.462A1.03,1.03,0,0,0,.4-7.319H-2.9a2.95,2.95,0,0,1,1.3-2.487,5.479,5.479,0,0,1,3.325-.956,4.8,4.8,0,0,1,3.193.986,3.429,3.429,0,0,1,1.2,2.705v4.678A4.79,4.79,0,0,0,6.577-.166V0ZM1.226-2.148a1.836,1.836,0,0,0,1.021-.264,1.653,1.653,0,0,0,.581-.6V-4.7H1.87Q.151-4.7.151-3.154a.942.942,0,0,0,.3.728A1.1,1.1,0,0,0,1.226-2.148Zm18.1-5.439-1.084-.078a1.947,1.947,0,0,0-1.992.977V0H12.954V-10.566H16.04l.107,1.357a2.548,2.548,0,0,1,2.314-1.553,3.209,3.209,0,0,1,.918.117Zm.42,2.207A6.236,6.236,0,0,1,20.356-8.2a4.4,4.4,0,0,1,1.768-1.9,5.323,5.323,0,0,1,2.705-.664,4.858,4.858,0,0,1,3.74,1.47,5.64,5.64,0,0,1,1.367,4v.117a5.472,5.472,0,0,1-1.372,3.921A4.871,4.871,0,0,1,24.849.2a4.927,4.927,0,0,1-3.623-1.353,5.29,5.29,0,0,1-1.475-3.667Zm3.291.205a3.932,3.932,0,0,0,.459,2.148,1.529,1.529,0,0,0,1.357.684q1.758,0,1.8-2.705v-.332q0-2.842-1.816-2.842-1.65,0-1.787,2.451ZM35.22-13.193v2.627h1.738v2.285H35.22v4.834a1.234,1.234,0,0,0,.215.83,1.152,1.152,0,0,0,.85.234,4.828,4.828,0,0,0,.82-.059V-.088A6.074,6.074,0,0,1,35.249.2a3.448,3.448,0,0,1-2.51-.8,3.282,3.282,0,0,1-.811-2.432V-8.281H30.581v-2.285h1.348v-2.627ZM44.2,0a3.716,3.716,0,0,1-.312-.947A3.06,3.06,0,0,1,41.353.2a3.749,3.749,0,0,1-2.539-.9,2.875,2.875,0,0,1-1.045-2.271,2.955,2.955,0,0,1,1.27-2.6,6.468,6.468,0,0,1,3.691-.879h1.016v-.559q0-1.462-1.26-1.462a1.03,1.03,0,0,0-1.172,1.158H38.022a2.95,2.95,0,0,1,1.3-2.487,5.479,5.479,0,0,1,3.325-.956,4.8,4.8,0,0,1,3.193.986,3.429,3.429,0,0,1,1.2,2.705v4.678A4.79,4.79,0,0,0,47.5-.166V0ZM42.144-2.148a1.836,1.836,0,0,0,1.021-.264,1.653,1.653,0,0,0,.581-.6V-4.7h-.957q-1.719,0-1.719,1.543a.942.942,0,0,0,.3.728A1.1,1.1,0,0,0,42.144-2.148Zm11.191-.2a1.464,1.464,0,0,0,1.074-.376,1.379,1.379,0,0,0,.371-1.05h3.086A3.653,3.653,0,0,1,56.621-.918,4.631,4.631,0,0,1,53.413.2,4.689,4.689,0,0,1,49.78-1.25a5.7,5.7,0,0,1-1.328-4v-.137a6.436,6.436,0,0,1,.591-2.827,4.3,4.3,0,0,1,1.7-1.885,5.081,5.081,0,0,1,2.637-.659,4.573,4.573,0,0,1,3.271,1.143,4.053,4.053,0,0,1,1.211,3.1H54.78a1.807,1.807,0,0,0-.4-1.26,1.382,1.382,0,0,0-1.074-.439q-1.279,0-1.494,1.631a11.507,11.507,0,0,0-.068,1.426,4.52,4.52,0,0,0,.381,2.207A1.319,1.319,0,0,0,53.335-2.344ZM62.729,0h-3.3V-10.566h3.3Zm-3.5-13.291a1.469,1.469,0,0,1,.508-1.152,1.916,1.916,0,0,1,1.318-.449,1.916,1.916,0,0,1,1.318.449,1.469,1.469,0,0,1,.508,1.152,1.469,1.469,0,0,1-.508,1.152,1.916,1.916,0,0,1-1.318.449,1.916,1.916,0,0,1-1.318-.449A1.469,1.469,0,0,1,59.233-13.291Zm5.107,7.91A6.236,6.236,0,0,1,64.956-8.2a4.4,4.4,0,0,1,1.768-1.9,5.323,5.323,0,0,1,2.705-.664,4.858,4.858,0,0,1,3.74,1.47,5.64,5.64,0,0,1,1.367,4v.117a5.472,5.472,0,0,1-1.372,3.921A4.871,4.871,0,0,1,69.448.2a4.927,4.927,0,0,1-3.623-1.353,5.29,5.29,0,0,1-1.475-3.667Zm3.291.205a3.932,3.932,0,0,0,.459,2.148,1.529,1.529,0,0,0,1.357.684q1.758,0,1.8-2.705v-.332q0-2.842-1.816-2.842-1.65,0-1.787,2.451ZM69.878-15h3.477L70.64-11.934l-2.686,0Zm9.131,4.434.107,1.24a3.583,3.583,0,0,1,3.018-1.436,3.015,3.015,0,0,1,2.466.986,4.7,4.7,0,0,1,.845,2.969V0h-3.3V-6.67a1.783,1.783,0,0,0-.322-1.177,1.491,1.491,0,0,0-1.172-.376,1.569,1.569,0,0,0-1.436.762V0H75.923V-10.566ZM-63.613,21.639a6.455,6.455,0,0,1,1.084-3.955A3.568,3.568,0,0,1-59.5,16.238a3.035,3.035,0,0,1,2.383,1.113V12h3.3V27h-2.959l-.166-1.133A3.116,3.116,0,0,1-59.521,27.2,3.562,3.562,0,0,1-62.51,25.75,6.659,6.659,0,0,1-63.613,21.639Zm3.291.205q0,2.813,1.641,2.813a1.62,1.62,0,0,0,1.563-.918V19.715a1.576,1.576,0,0,0-1.543-.937q-1.523,0-1.65,2.461ZM-46.836,27.2a5.432,5.432,0,0,1-3.936-1.45,5.008,5.008,0,0,1-1.5-3.774V21.7a6.489,6.489,0,0,1,.6-2.861,4.395,4.395,0,0,1,1.753-1.919,5.292,5.292,0,0,1,2.734-.679,4.574,4.574,0,0,1,3.516,1.382,5.43,5.43,0,0,1,1.289,3.853v1.279h-6.543a2.372,2.372,0,0,0,.771,1.4,2.3,2.3,0,0,0,1.543.508,2.958,2.958,0,0,0,2.441-1.094l1.5,1.777a4.2,4.2,0,0,1-1.743,1.353A5.891,5.891,0,0,1-46.836,27.2Zm-.371-8.418q-1.445,0-1.719,1.914h3.32v-.254a1.63,1.63,0,0,0-.4-1.226A1.593,1.593,0,0,0-47.207,18.777ZM-32.607,27h-3.3V16.434h3.3Zm-3.5-13.291a1.469,1.469,0,0,1,.508-1.152,1.916,1.916,0,0,1,1.318-.449,1.916,1.916,0,0,1,1.318.449,1.469,1.469,0,0,1,.508,1.152,1.469,1.469,0,0,1-.508,1.152,1.916,1.916,0,0,1-1.318.449,1.916,1.916,0,0,1-1.318-.449A1.469,1.469,0,0,1-36.1,13.709Zm8.545,2.725.107,1.24a3.583,3.583,0,0,1,3.018-1.436,3.015,3.015,0,0,1,2.466.986,4.7,4.7,0,0,1,.845,2.969V27h-3.3V20.33a1.783,1.783,0,0,0-.322-1.177,1.491,1.491,0,0,0-1.172-.376,1.569,1.569,0,0,0-1.436.762V27h-3.291V16.434Zm12.471,6.65,1.67-6.65h3.467L-13.4,27h-3.359l-3.447-10.566h3.477Zm11.1,4.111a5.432,5.432,0,0,1-3.936-1.45,5.008,5.008,0,0,1-1.5-3.774V21.7a6.489,6.489,0,0,1,.6-2.861A4.395,4.395,0,0,1-7.07,16.917a5.292,5.292,0,0,1,2.734-.679A4.574,4.574,0,0,1-.82,17.62,5.43,5.43,0,0,1,.469,21.473v1.279H-6.074a2.372,2.372,0,0,0,.771,1.4,2.3,2.3,0,0,0,1.543.508,2.958,2.958,0,0,0,2.441-1.094l1.5,1.777a4.2,4.2,0,0,1-1.743,1.353A5.891,5.891,0,0,1-3.984,27.2Zm-.371-8.418q-1.445,0-1.719,1.914h3.32v-.254a1.63,1.63,0,0,0-.4-1.226A1.593,1.593,0,0,0-4.355,18.777Zm9.17-2.344.107,1.24a3.583,3.583,0,0,1,3.018-1.436,3.015,3.015,0,0,1,2.466.986,4.7,4.7,0,0,1,.845,2.969V27h-3.3V20.33a1.783,1.783,0,0,0-.322-1.177,1.491,1.491,0,0,0-1.172-.376,1.569,1.569,0,0,0-1.436.762V27H1.729V16.434ZM16.9,13.807v2.627h1.738v2.285H16.9v4.834a1.234,1.234,0,0,0,.215.83,1.152,1.152,0,0,0,.85.234,4.828,4.828,0,0,0,.82-.059v2.354a6.074,6.074,0,0,1-1.855.283,3.448,3.448,0,0,1-2.51-.8,3.282,3.282,0,0,1-.811-2.432V18.719H12.266V16.434h1.348V13.807ZM25.889,27a3.716,3.716,0,0,1-.312-.947A3.06,3.06,0,0,1,23.037,27.2a3.749,3.749,0,0,1-2.539-.9,2.875,2.875,0,0,1-1.045-2.271,2.955,2.955,0,0,1,1.27-2.6,6.468,6.468,0,0,1,3.691-.879H25.43v-.559q0-1.462-1.26-1.462A1.03,1.03,0,0,0,23,19.681H19.707a2.95,2.95,0,0,1,1.3-2.487,5.479,5.479,0,0,1,3.325-.956,4.8,4.8,0,0,1,3.193.986,3.429,3.429,0,0,1,1.2,2.705v4.678a4.79,4.79,0,0,0,.449,2.227V27Zm-2.061-2.148a1.836,1.836,0,0,0,1.021-.264,1.653,1.653,0,0,0,.581-.6V22.3h-.957q-1.719,0-1.719,1.543a.942.942,0,0,0,.3.728A1.1,1.1,0,0,0,23.828,24.852Zm13.115-5.439-1.084-.078a1.947,1.947,0,0,0-1.992.977V27H30.576V16.434h3.086l.107,1.357a2.548,2.548,0,0,1,2.314-1.553,3.209,3.209,0,0,1,.918.117ZM41.6,27H38.3V16.434h3.3Zm-3.5-13.291a1.469,1.469,0,0,1,.508-1.152,2.159,2.159,0,0,1,2.637,0,1.561,1.561,0,0,1,0,2.3,2.159,2.159,0,0,1-2.637,0A1.469,1.469,0,0,1,38.105,13.709Zm5.107,7.91a6.236,6.236,0,0,1,.615-2.817A4.4,4.4,0,0,1,45.6,16.9a5.323,5.323,0,0,1,2.705-.664,4.858,4.858,0,0,1,3.74,1.47,5.64,5.64,0,0,1,1.367,4v.117a5.472,5.472,0,0,1-1.372,3.921A4.871,4.871,0,0,1,48.32,27.2,4.927,4.927,0,0,1,44.7,25.843a5.29,5.29,0,0,1-1.475-3.667Zm3.291.205a3.932,3.932,0,0,0,.459,2.148,1.529,1.529,0,0,0,1.357.684q1.758,0,1.8-2.705v-.332q0-2.842-1.816-2.842-1.65,0-1.787,2.451Zm10.791.674a6.356,6.356,0,0,1,.322-2.251,3.521,3.521,0,0,1,1.045-1.431,6.947,6.947,0,0,0,1.1-1.108,1.809,1.809,0,0,0,.376-1.108q0-1.475-1.27-1.475a1.178,1.178,0,0,0-.947.43,1.827,1.827,0,0,0-.381,1.162h-3.3a3.937,3.937,0,0,1,1.23-3.042,4.906,4.906,0,0,1,3.4-1.089,5.1,5.1,0,0,1,3.374,1.006,3.53,3.53,0,0,1,1.2,2.861,3.333,3.333,0,0,1-.322,1.475,4.984,4.984,0,0,1-1.035,1.357L60.957,20.33a2.642,2.642,0,0,0-.664.942,3.734,3.734,0,0,0-.205,1.226Zm-.4,2.969a1.516,1.516,0,0,1,.522-1.187,2.064,2.064,0,0,1,2.607,0,1.609,1.609,0,0,1,0,2.373,2.064,2.064,0,0,1-2.607,0A1.516,1.516,0,0,1,56.895,25.467Z" transform="translate(649 3190.001)" fill="#12263f"/>
    <path id="Trazado_190312" data-name="Trazado 190312" d="M24-3.2H1.25V-9.59H24ZM24,7.583H1.25V1.2H24Z" transform="translate(753.75 3316.683)" fill="#1b3f5e"/>
    <path id="Trazado_190585" data-name="Trazado 190585" d="M5.871-3.173l2.9-9.624h2.936L7.251,0H4.5L.062-12.8H2.988ZM16.734.176a4.668,4.668,0,0,1-3.406-1.283,4.561,4.561,0,0,1-1.314-3.419v-.246a5.745,5.745,0,0,1,.554-2.562,4.064,4.064,0,0,1,1.569-1.74,4.4,4.4,0,0,1,2.316-.611,3.947,3.947,0,0,1,3.072,1.23,5,5,0,0,1,1.121,3.489v1.037H14.59a2.36,2.36,0,0,0,.743,1.494,2.245,2.245,0,0,0,1.569.563A2.742,2.742,0,0,0,19.2-2.936l1.248,1.4A3.813,3.813,0,0,1,18.9-.277,5.075,5.075,0,0,1,16.734.176Zm-.29-7.813a1.587,1.587,0,0,0-1.226.512,2.651,2.651,0,0,0-.6,1.466h3.533v-.2a1.891,1.891,0,0,0-.457-1.311A1.638,1.638,0,0,0,16.444-7.638Zm7.98-1.872.079,1.1a3.32,3.32,0,0,1,2.733-1.274,2.759,2.759,0,0,1,2.25.888,4.142,4.142,0,0,1,.756,2.654V0H27.7V-6.082a1.648,1.648,0,0,0-.352-1.173,1.574,1.574,0,0,0-1.169-.365,1.747,1.747,0,0,0-1.608.914V0h-2.54V-9.51Zm10.784-2.338V-9.51h1.626v1.863H35.209V-2.9a1.133,1.133,0,0,0,.2.756,1.015,1.015,0,0,0,.773.229,4.051,4.051,0,0,0,.747-.062V-.053a5.229,5.229,0,0,1-1.538.229,2.425,2.425,0,0,1-2.725-2.7V-7.646H31.28V-9.51h1.389v-2.338ZM43.761,0a2.821,2.821,0,0,1-.255-.853,3.073,3.073,0,0,1-2.4,1.028,3.376,3.376,0,0,1-2.316-.809,2.6,2.6,0,0,1-.918-2.039,2.687,2.687,0,0,1,1.121-2.32,5.529,5.529,0,0,1,3.239-.817H43.4v-.545a1.567,1.567,0,0,0-.338-1.055,1.331,1.331,0,0,0-1.068-.4,1.513,1.513,0,0,0-1.006.308,1.045,1.045,0,0,0-.365.844h-2.54a2.551,2.551,0,0,1,.51-1.529,3.37,3.37,0,0,1,1.441-1.1,5.253,5.253,0,0,1,2.092-.4,4.15,4.15,0,0,1,2.791.883,3.09,3.09,0,0,1,1.033,2.483V-2.2a4.546,4.546,0,0,0,.378,2.048V0Zm-2.1-1.767a2.188,2.188,0,0,0,1.037-.25,1.645,1.645,0,0,0,.7-.672V-4.324h-.949q-1.907,0-2.03,1.318l-.009.149a1.017,1.017,0,0,0,.334.782A1.3,1.3,0,0,0,41.66-1.767Zm11.391-.861a.818.818,0,0,0-.461-.734,5.241,5.241,0,0,0-1.481-.479q-3.393-.712-3.393-2.883a2.613,2.613,0,0,1,1.05-2.114,4.237,4.237,0,0,1,2.747-.848,4.56,4.56,0,0,1,2.9.853,2.687,2.687,0,0,1,1.085,2.215h-2.54a1.229,1.229,0,0,0-.352-.9,1.488,1.488,0,0,0-1.1-.356,1.52,1.52,0,0,0-.993.29.916.916,0,0,0-.352.738.783.783,0,0,0,.4.681,4.114,4.114,0,0,0,1.349.448,11.019,11.019,0,0,1,1.6.426,2.628,2.628,0,0,1,2.013,2.558A2.481,2.481,0,0,1,54.4-.628a4.815,4.815,0,0,1-2.883.8A5.029,5.029,0,0,1,49.4-.25a3.561,3.561,0,0,1-1.455-1.169,2.716,2.716,0,0,1-.527-1.6h2.408a1.326,1.326,0,0,0,.5,1.037,1.987,1.987,0,0,0,1.248.36,1.839,1.839,0,0,0,1.1-.277A.861.861,0,0,0,53.051-2.628Z" transform="translate(909 3298.002)" fill="#12263f"/>
    <path id="Trazado_190586" data-name="Trazado 190586" d="M3.946,0H1.31V-12.8H3.946ZM8.561-9.51l.079,1.1a3.32,3.32,0,0,1,2.733-1.274,2.759,2.759,0,0,1,2.25.888,4.142,4.142,0,0,1,.756,2.654V0h-2.54V-6.082a1.648,1.648,0,0,0-.352-1.173,1.574,1.574,0,0,0-1.169-.365,1.747,1.747,0,0,0-1.608.914V0H6.17V-9.51ZM19.863-3.1,21.63-9.51h2.654L21.076,0H18.65L15.442-9.51H18.1Zm9.8,3.278a4.668,4.668,0,0,1-3.406-1.283,4.561,4.561,0,0,1-1.314-3.419v-.246A5.745,5.745,0,0,1,25.5-7.334a4.064,4.064,0,0,1,1.569-1.74,4.4,4.4,0,0,1,2.316-.611,3.947,3.947,0,0,1,3.072,1.23,5,5,0,0,1,1.121,3.489v1.037H27.519a2.36,2.36,0,0,0,.743,1.494,2.245,2.245,0,0,0,1.569.563,2.742,2.742,0,0,0,2.294-1.063l1.248,1.4A3.813,3.813,0,0,1,31.825-.277,5.075,5.075,0,0,1,29.663.176Zm-.29-7.813a1.587,1.587,0,0,0-1.226.512,2.651,2.651,0,0,0-.6,1.466h3.533v-.2a1.891,1.891,0,0,0-.457-1.311A1.638,1.638,0,0,0,29.373-7.638Zm7.98-1.872.079,1.1a3.32,3.32,0,0,1,2.733-1.274,2.759,2.759,0,0,1,2.25.888,4.142,4.142,0,0,1,.756,2.654V0h-2.54V-6.082a1.648,1.648,0,0,0-.352-1.173,1.574,1.574,0,0,0-1.169-.365,1.747,1.747,0,0,0-1.608.914V0h-2.54V-9.51Zm10.784-2.338V-9.51h1.626v1.863H48.138V-2.9a1.133,1.133,0,0,0,.2.756,1.015,1.015,0,0,0,.773.229,4.051,4.051,0,0,0,.747-.062V-.053a5.229,5.229,0,0,1-1.538.229,2.425,2.425,0,0,1-2.725-2.7V-7.646H44.209V-9.51H45.6v-2.338ZM56.689,0a2.821,2.821,0,0,1-.255-.853,3.073,3.073,0,0,1-2.4,1.028,3.376,3.376,0,0,1-2.316-.809A2.6,2.6,0,0,1,50.8-2.672a2.687,2.687,0,0,1,1.121-2.32A5.529,5.529,0,0,1,55.16-5.81h1.169v-.545a1.567,1.567,0,0,0-.338-1.055,1.331,1.331,0,0,0-1.068-.4,1.513,1.513,0,0,0-1.006.308,1.045,1.045,0,0,0-.365.844h-2.54a2.551,2.551,0,0,1,.51-1.529,3.37,3.37,0,0,1,1.441-1.1,5.253,5.253,0,0,1,2.092-.4,4.15,4.15,0,0,1,2.791.883,3.09,3.09,0,0,1,1.033,2.483V-2.2a4.546,4.546,0,0,0,.378,2.048V0Zm-2.1-1.767a2.188,2.188,0,0,0,1.037-.25,1.645,1.645,0,0,0,.7-.672V-4.324H55.38q-1.907,0-2.03,1.318l-.009.149a1.017,1.017,0,0,0,.334.782A1.3,1.3,0,0,0,54.589-1.767ZM66.173-7.128a6.9,6.9,0,0,0-.914-.07,1.86,1.86,0,0,0-1.89.976V0h-2.54V-9.51h2.4l.07,1.134a2.354,2.354,0,0,1,2.118-1.31,2.662,2.662,0,0,1,.791.114ZM70.075,0H67.526V-9.51h2.549Zm-2.7-11.971a1.251,1.251,0,0,1,.382-.94A1.436,1.436,0,0,1,68.8-13.28a1.44,1.44,0,0,1,1.037.369,1.244,1.244,0,0,1,.387.94,1.247,1.247,0,0,1-.391.949,1.443,1.443,0,0,1-1.033.369,1.443,1.443,0,0,1-1.033-.369A1.247,1.247,0,0,1,67.377-11.971Zm4.395,7.128a5.64,5.64,0,0,1,.545-2.522,3.989,3.989,0,0,1,1.569-1.714,4.577,4.577,0,0,1,2.377-.606A4.33,4.33,0,0,1,79.4-8.508a4.727,4.727,0,0,1,1.358,3.2l.018.65a4.97,4.97,0,0,1-1.222,3.511A4.247,4.247,0,0,1,76.28.176,4.268,4.268,0,0,1,73-1.143a5.058,5.058,0,0,1-1.226-3.586Zm2.54.18a3.555,3.555,0,0,0,.51,2.073,1.682,1.682,0,0,0,1.459.717,1.686,1.686,0,0,0,1.441-.709,3.89,3.89,0,0,0,.519-2.267,3.519,3.519,0,0,0-.519-2.06,1.686,1.686,0,0,0-1.459-.731,1.658,1.658,0,0,0-1.441.726A3.955,3.955,0,0,0,74.312-4.662Zm21.076,0a5.7,5.7,0,0,1-1,3.52A3.2,3.2,0,0,1,91.7.176a2.963,2.963,0,0,1-2.329-1V3.656h-2.54V-9.51h2.355l.088.932a2.985,2.985,0,0,1,2.408-1.107,3.22,3.22,0,0,1,2.733,1.3A5.858,5.858,0,0,1,95.388-4.8Zm-2.54-.185a3.743,3.743,0,0,0-.47-2.048,1.532,1.532,0,0,0-1.367-.721,1.663,1.663,0,0,0-1.644.914v3.894a1.692,1.692,0,0,0,1.661.94Q92.848-1.872,92.848-4.852ZM102.3-7.128a6.9,6.9,0,0,0-.914-.07,1.86,1.86,0,0,0-1.89.976V0h-2.54V-9.51h2.4l.07,1.134a2.354,2.354,0,0,1,2.118-1.31,2.662,2.662,0,0,1,.791.114Zm.51,2.285a5.64,5.64,0,0,1,.545-2.522,3.989,3.989,0,0,1,1.569-1.714,4.577,4.577,0,0,1,2.377-.606,4.33,4.33,0,0,1,3.142,1.178,4.727,4.727,0,0,1,1.358,3.2l.018.65A4.97,4.97,0,0,1,110.6-1.147,4.247,4.247,0,0,1,107.323.176a4.268,4.268,0,0,1-3.283-1.318,5.058,5.058,0,0,1-1.226-3.586Zm2.54.18a3.555,3.555,0,0,0,.51,2.073,1.682,1.682,0,0,0,1.459.717,1.686,1.686,0,0,0,1.441-.709,3.89,3.89,0,0,0,.519-2.267,3.519,3.519,0,0,0-.519-2.06,1.686,1.686,0,0,0-1.459-.731,1.658,1.658,0,0,0-1.441.726A3.955,3.955,0,0,0,105.354-4.662ZM115.77-9.51l.079,1.063a3.342,3.342,0,0,1,2.733-1.239,2.536,2.536,0,0,1,2.522,1.45,3.265,3.265,0,0,1,2.856-1.45,2.836,2.836,0,0,1,2.3.9,4.141,4.141,0,0,1,.756,2.711V0h-2.549V-6.064a1.811,1.811,0,0,0-.316-1.182,1.4,1.4,0,0,0-1.116-.374,1.585,1.585,0,0,0-1.582,1.09L121.465,0h-2.54V-6.056a1.789,1.789,0,0,0-.325-1.2,1.416,1.416,0,0,0-1.107-.369,1.646,1.646,0,0,0-1.564.9V0h-2.54V-9.51ZM133.348.176a4.668,4.668,0,0,1-3.406-1.283,4.561,4.561,0,0,1-1.314-3.419v-.246a5.745,5.745,0,0,1,.554-2.562,4.064,4.064,0,0,1,1.569-1.74,4.4,4.4,0,0,1,2.316-.611,3.947,3.947,0,0,1,3.072,1.23,5,5,0,0,1,1.121,3.489v1.037H131.2a2.36,2.36,0,0,0,.743,1.494,2.245,2.245,0,0,0,1.569.563,2.742,2.742,0,0,0,2.294-1.063l1.248,1.4A3.813,3.813,0,0,1,135.51-.277,5.075,5.075,0,0,1,133.348.176Zm-.29-7.813a1.587,1.587,0,0,0-1.226.512,2.651,2.651,0,0,0-.6,1.466h3.533v-.2a1.891,1.891,0,0,0-.457-1.311A1.638,1.638,0,0,0,133.058-7.638ZM138.3-4.825a5.731,5.731,0,0,1,1-3.542,3.237,3.237,0,0,1,2.729-1.318,2.913,2.913,0,0,1,2.294,1.037V-13.5h2.549V0H144.58l-.123-1.011A2.989,2.989,0,0,1,142.014.176a3.228,3.228,0,0,1-2.694-1.323A5.916,5.916,0,0,1,138.3-4.825Zm2.54.189a3.754,3.754,0,0,0,.466,2.051,1.517,1.517,0,0,0,1.354.713,1.7,1.7,0,0,0,1.661-.995V-6.625a1.675,1.675,0,0,0-1.644-.995Q140.845-7.62,140.845-4.636ZM151.523,0h-2.549V-9.51h2.549Zm-2.7-11.971a1.251,1.251,0,0,1,.382-.94,1.436,1.436,0,0,1,1.042-.369,1.44,1.44,0,0,1,1.037.369,1.244,1.244,0,0,1,.387.94,1.247,1.247,0,0,1-.391.949,1.443,1.443,0,0,1-1.033.369,1.443,1.443,0,0,1-1.033-.369A1.247,1.247,0,0,1,148.825-11.971Zm4.395,7.128a5.64,5.64,0,0,1,.545-2.522,3.989,3.989,0,0,1,1.569-1.714,4.577,4.577,0,0,1,2.377-.606,4.33,4.33,0,0,1,3.142,1.178,4.727,4.727,0,0,1,1.358,3.2l.018.65a4.97,4.97,0,0,1-1.222,3.511A4.247,4.247,0,0,1,157.729.176a4.268,4.268,0,0,1-3.283-1.318,5.058,5.058,0,0,1-1.226-3.586Zm2.54.18a3.555,3.555,0,0,0,.51,2.073,1.682,1.682,0,0,0,1.459.717,1.686,1.686,0,0,0,1.441-.709,3.89,3.89,0,0,0,.519-2.267,3.519,3.519,0,0,0-.519-2.06,1.686,1.686,0,0,0-1.459-.731,1.658,1.658,0,0,0-1.441.726A3.955,3.955,0,0,0,155.76-4.662Z" transform="translate(855 3404.002)" fill="#12263f"/>
    <path id="Trazado_190583" data-name="Trazado 190583" d="M-30.028-4.685h-2.1V0h-2.637V-12.8h4.755a5.375,5.375,0,0,1,3.5,1.011,3.488,3.488,0,0,1,1.23,2.856,3.937,3.937,0,0,1-.567,2.184,3.866,3.866,0,0,1-1.718,1.393L-24.8-.123V0h-2.83Zm-2.1-2.136H-30a2.178,2.178,0,0,0,1.538-.505,1.806,1.806,0,0,0,.545-1.393,1.933,1.933,0,0,0-.514-1.424,2.137,2.137,0,0,0-1.578-.519h-2.118Zm8.288,1.978A5.64,5.64,0,0,1-23.3-7.365a3.989,3.989,0,0,1,1.569-1.714,4.577,4.577,0,0,1,2.377-.606,4.33,4.33,0,0,1,3.142,1.178,4.727,4.727,0,0,1,1.358,3.2l.018.65a4.97,4.97,0,0,1-1.222,3.511A4.247,4.247,0,0,1-19.332.176a4.268,4.268,0,0,1-3.283-1.318A5.058,5.058,0,0,1-23.84-4.729Zm2.54.18a3.555,3.555,0,0,0,.51,2.073,1.682,1.682,0,0,0,1.459.717,1.686,1.686,0,0,0,1.441-.709,3.89,3.89,0,0,0,.519-2.267,3.519,3.519,0,0,0-.519-2.06,1.686,1.686,0,0,0-1.459-.731,1.658,1.658,0,0,0-1.441.726A3.955,3.955,0,0,0-21.3-4.662Zm11.074-7.185V-9.51H-8.6v1.863h-1.626V-2.9a1.133,1.133,0,0,0,.2.756,1.015,1.015,0,0,0,.773.229A4.051,4.051,0,0,0-8.5-1.978V-.053a5.229,5.229,0,0,1-1.538.229,2.425,2.425,0,0,1-2.725-2.7V-7.646h-1.389V-9.51h1.389v-2.338ZM-1.674,0a2.821,2.821,0,0,1-.255-.853A3.073,3.073,0,0,1-4.329.176,3.376,3.376,0,0,1-6.645-.633a2.6,2.6,0,0,1-.918-2.039,2.687,2.687,0,0,1,1.121-2.32A5.529,5.529,0,0,1-3.2-5.81h1.169v-.545a1.567,1.567,0,0,0-.338-1.055,1.331,1.331,0,0,0-1.068-.4A1.513,1.513,0,0,0-4.447-7.5a1.045,1.045,0,0,0-.365.844h-2.54a2.551,2.551,0,0,1,.51-1.529A3.37,3.37,0,0,1-5.4-9.286a5.253,5.253,0,0,1,2.092-.4A4.15,4.15,0,0,1-.519-8.8,3.09,3.09,0,0,1,.514-6.319V-2.2A4.546,4.546,0,0,0,.892-.149V0Zm-2.1-1.767a2.188,2.188,0,0,0,1.037-.25,1.645,1.645,0,0,0,.7-.672V-4.324h-.949q-1.907,0-2.03,1.318l-.009.149a1.017,1.017,0,0,0,.334.782A1.3,1.3,0,0,0-3.775-1.767Zm10.2-.105a1.666,1.666,0,0,0,1.143-.387A1.355,1.355,0,0,0,8.02-3.287H10.4a3.258,3.258,0,0,1-.527,1.771A3.48,3.48,0,0,1,8.455-.268,4.442,4.442,0,0,1,6.464.176a4.129,4.129,0,0,1-3.217-1.3A5.13,5.13,0,0,1,2.07-4.7v-.167A5.071,5.071,0,0,1,3.239-8.376a4.08,4.08,0,0,1,3.208-1.31A4,4,0,0,1,9.308-8.67a3.594,3.594,0,0,1,1.094,2.7H8.02a1.745,1.745,0,0,0-.457-1.206A1.524,1.524,0,0,0,6.4-7.638a1.53,1.53,0,0,0-1.34.647,3.749,3.749,0,0,0-.453,2.1v.264a3.8,3.8,0,0,0,.448,2.113A1.549,1.549,0,0,0,6.42-1.872ZM14.533,0H11.984V-9.51h2.549Zm-2.7-11.971a1.251,1.251,0,0,1,.382-.94,1.436,1.436,0,0,1,1.042-.369,1.44,1.44,0,0,1,1.037.369,1.244,1.244,0,0,1,.387.94,1.247,1.247,0,0,1-.391.949,1.443,1.443,0,0,1-1.033.369,1.443,1.443,0,0,1-1.033-.369A1.247,1.247,0,0,1,11.834-11.971Zm4.395,7.128a5.64,5.64,0,0,1,.545-2.522,3.989,3.989,0,0,1,1.569-1.714,4.577,4.577,0,0,1,2.377-.606,4.33,4.33,0,0,1,3.142,1.178,4.727,4.727,0,0,1,1.358,3.2l.018.65a4.97,4.97,0,0,1-1.222,3.511A4.247,4.247,0,0,1,20.738.176a4.268,4.268,0,0,1-3.283-1.318,5.058,5.058,0,0,1-1.226-3.586Zm2.54.18a3.555,3.555,0,0,0,.51,2.073,1.682,1.682,0,0,0,1.459.717,1.686,1.686,0,0,0,1.441-.709A3.89,3.89,0,0,0,22.7-4.847a3.519,3.519,0,0,0-.519-2.06,1.686,1.686,0,0,0-1.459-.731,1.658,1.658,0,0,0-1.441.726A3.955,3.955,0,0,0,18.769-4.662ZM21.221-13.5H23.99l-2.435,2.725H19.49ZM29.14-9.51l.079,1.1a3.32,3.32,0,0,1,2.733-1.274A2.759,2.759,0,0,1,34.2-8.8a4.142,4.142,0,0,1,.756,2.654V0h-2.54V-6.082a1.648,1.648,0,0,0-.352-1.173A1.574,1.574,0,0,0,30.9-7.62a1.747,1.747,0,0,0-1.608.914V0H26.75V-9.51ZM-52.044,19.175a5.731,5.731,0,0,1,1-3.542,3.237,3.237,0,0,1,2.729-1.318,2.913,2.913,0,0,1,2.294,1.037V10.5h2.549V24h-2.294l-.123-1.011a2.989,2.989,0,0,1-2.443,1.187,3.228,3.228,0,0,1-2.694-1.323A5.916,5.916,0,0,1-52.044,19.175Zm2.54.189a3.754,3.754,0,0,0,.466,2.051,1.517,1.517,0,0,0,1.354.713,1.7,1.7,0,0,0,1.661-.995V17.375a1.675,1.675,0,0,0-1.644-.995Q-49.5,16.38-49.5,19.364Zm12.375,4.812a4.668,4.668,0,0,1-3.406-1.283,4.561,4.561,0,0,1-1.314-3.419v-.246a5.745,5.745,0,0,1,.554-2.562,4.064,4.064,0,0,1,1.569-1.74,4.4,4.4,0,0,1,2.316-.611,3.947,3.947,0,0,1,3.072,1.23,5,5,0,0,1,1.121,3.489v1.037h-6.056a2.36,2.36,0,0,0,.743,1.494,2.245,2.245,0,0,0,1.569.563,2.742,2.742,0,0,0,2.294-1.063l1.248,1.4a3.813,3.813,0,0,1-1.547,1.261A5.075,5.075,0,0,1-37.129,24.176Zm-.29-7.813a1.587,1.587,0,0,0-1.226.512,2.651,2.651,0,0,0-.6,1.466h3.533v-.2a1.891,1.891,0,0,0-.457-1.311A1.638,1.638,0,0,0-37.419,16.362ZM-24.614,24h-2.549V14.49h2.549Zm-2.7-11.971a1.251,1.251,0,0,1,.382-.94,1.436,1.436,0,0,1,1.042-.369,1.44,1.44,0,0,1,1.037.369,1.244,1.244,0,0,1,.387.94,1.247,1.247,0,0,1-.391.949,1.443,1.443,0,0,1-1.033.369,1.443,1.443,0,0,1-1.033-.369A1.247,1.247,0,0,1-27.312,12.029Zm7.128,2.461.079,1.1a3.32,3.32,0,0,1,2.733-1.274,2.759,2.759,0,0,1,2.25.888,4.142,4.142,0,0,1,.756,2.654V24h-2.54V17.918a1.648,1.648,0,0,0-.352-1.173,1.574,1.574,0,0,0-1.169-.365,1.747,1.747,0,0,0-1.608.914V24h-2.54V14.49Zm11.3,6.407,1.767-6.407H-4.46L-7.668,24h-2.426L-13.3,14.49h2.654Zm9.8,3.278a4.668,4.668,0,0,1-3.406-1.283A4.561,4.561,0,0,1-3.8,19.474v-.246a5.745,5.745,0,0,1,.554-2.562,4.064,4.064,0,0,1,1.569-1.74,4.4,4.4,0,0,1,2.316-.611,3.947,3.947,0,0,1,3.072,1.23A5,5,0,0,1,4.83,19.034v1.037H-1.226a2.36,2.36,0,0,0,.743,1.494,2.245,2.245,0,0,0,1.569.563,2.742,2.742,0,0,0,2.294-1.063l1.248,1.4a3.813,3.813,0,0,1-1.547,1.261A5.075,5.075,0,0,1,.918,24.176Zm-.29-7.813A1.587,1.587,0,0,0-.6,16.874a2.651,2.651,0,0,0-.6,1.466H2.333v-.2a1.891,1.891,0,0,0-.457-1.311A1.638,1.638,0,0,0,.628,16.362Zm7.98-1.872.079,1.1a3.32,3.32,0,0,1,2.733-1.274,2.759,2.759,0,0,1,2.25.888,4.142,4.142,0,0,1,.756,2.654V24h-2.54V17.918a1.648,1.648,0,0,0-.352-1.173,1.574,1.574,0,0,0-1.169-.365,1.747,1.747,0,0,0-1.608.914V24H6.218V14.49Zm10.784-2.338V14.49h1.626v1.863H19.393V21.1a1.133,1.133,0,0,0,.2.756,1.015,1.015,0,0,0,.773.229,4.051,4.051,0,0,0,.747-.062v1.925a5.229,5.229,0,0,1-1.538.229,2.425,2.425,0,0,1-2.725-2.7V16.354H15.464V14.49h1.389V12.152ZM27.945,24a2.821,2.821,0,0,1-.255-.853,3.073,3.073,0,0,1-2.4,1.028,3.376,3.376,0,0,1-2.316-.809,2.6,2.6,0,0,1-.918-2.039,2.687,2.687,0,0,1,1.121-2.32,5.529,5.529,0,0,1,3.239-.817h1.169v-.545a1.567,1.567,0,0,0-.338-1.055,1.331,1.331,0,0,0-1.068-.4,1.513,1.513,0,0,0-1.006.308,1.045,1.045,0,0,0-.365.844h-2.54a2.551,2.551,0,0,1,.51-1.529,3.37,3.37,0,0,1,1.441-1.1,5.253,5.253,0,0,1,2.092-.4A4.15,4.15,0,0,1,29.1,15.2a3.09,3.09,0,0,1,1.033,2.483V21.8a4.546,4.546,0,0,0,.378,2.048V24Zm-2.1-1.767a2.188,2.188,0,0,0,1.037-.25,1.645,1.645,0,0,0,.7-.672V19.676h-.949q-1.907,0-2.03,1.318l-.009.149a1.017,1.017,0,0,0,.334.782A1.3,1.3,0,0,0,25.844,22.233Zm11.584-5.361a6.9,6.9,0,0,0-.914-.07,1.86,1.86,0,0,0-1.89.976V24h-2.54V14.49h2.4l.07,1.134a2.354,2.354,0,0,1,2.118-1.31,2.662,2.662,0,0,1,.791.114ZM41.331,24H38.782V14.49h2.549Zm-2.7-11.971a1.251,1.251,0,0,1,.382-.94,1.648,1.648,0,0,1,2.079,0,1.342,1.342,0,0,1,0,1.89,1.629,1.629,0,0,1-2.065,0A1.247,1.247,0,0,1,38.632,12.029Zm4.395,7.128a5.64,5.64,0,0,1,.545-2.522,3.989,3.989,0,0,1,1.569-1.714,4.577,4.577,0,0,1,2.377-.606,4.33,4.33,0,0,1,3.142,1.178,4.727,4.727,0,0,1,1.358,3.2l.018.65a4.97,4.97,0,0,1-1.222,3.511,4.735,4.735,0,0,1-6.561,0,5.058,5.058,0,0,1-1.226-3.586Zm2.54.18a3.555,3.555,0,0,0,.51,2.073,1.831,1.831,0,0,0,2.9.009,3.89,3.89,0,0,0,.519-2.267,3.519,3.519,0,0,0-.519-2.06,1.686,1.686,0,0,0-1.459-.731,1.658,1.658,0,0,0-1.441.726A3.955,3.955,0,0,0,45.567,19.338Z" transform="translate(649 3379.001)" fill="#12263f"/>
    <path id="Trazado_190341" data-name="Trazado 190341" d="M30,3A27.008,27.008,0,0,0,19.491,54.879,27.008,27.008,0,0,0,40.509,5.121,26.828,26.828,0,0,0,30,3m0-3A30,30,0,1,1,0,30,30,30,0,0,1,30,0Z" transform="translate(907 3321.002)" fill="#d84318"/>
    <g id="caja_1_" data-name="caja (1)" transform="translate(901.968 3331.001)">
      <path id="Trazado_190313" data-name="Trazado 190313" d="M41.293,9.4l-17.4,8.4a.631.631,0,0,0-.357.569V39.041a.632.632,0,0,0,.357.569l17.4,8.4a1.263,1.263,0,0,0,1.1,0l17.4-8.4a.631.631,0,0,0,.357-.569V18.367A.632.632,0,0,0,59.8,17.8l-17.4-8.4A1.263,1.263,0,0,0,41.293,9.4Z" transform="translate(-6.909 -8.54)" fill="#fff9c7"/>
      <path id="Trazado_190314" data-name="Trazado 190314" d="M23.637,120.368a.629.629,0,0,0-.1.346v20.675a.631.631,0,0,0,.357.569l17.4,8.4a1.262,1.262,0,0,0,.549.126V129.157Z" transform="translate(-6.909 -110.887)" fill="#e8dc72"/>
      <path id="Trazado_190315" data-name="Trazado 190315" d="M274.205,120.368a.629.629,0,0,1,.105.346v20.675a.631.631,0,0,1-.357.569l-17.4,8.4a1.262,1.262,0,0,1-.549.126V129.157Z" transform="translate(-221.067 -110.887)" fill="#fff59d"/>
      <path id="Trazado_190316" data-name="Trazado 190316" d="M138.8,54.826,120.534,46l-4.816,2.334,18.31,8.84Z" transform="translate(-91.834 -42.376)" fill="#d86b4c"/>
      <path id="Trazado_190317" data-name="Trazado 190317" d="M348.185,160.4v6.848a.316.316,0,0,0,.453.284l3.965-1.914a.631.631,0,0,0,.357-.569v-7Z" transform="translate(-305.991 -145.603)" fill="#d84318"/>
      <path id="Trazado_190318" data-name="Trazado 190318" d="M53.5,8.9,35.19.059a.591.591,0,0,0-.514,0L16.366,8.9a.591.591,0,0,0-.334.532V30.9a.591.591,0,0,0,.334.532l18.31,8.839a.591.591,0,0,0,.514,0L53.5,31.43a.591.591,0,0,0,.334-.532V9.431A.591.591,0,0,0,53.5,8.9ZM34.933,1.247,51.884,9.431,46.971,11.8a.585.585,0,0,0-.1-.063L30.034,3.612ZM28.7,4.28l16.927,8.172L42.16,14.125,25.24,5.957ZM42.785,15.136l3.238-1.563v6.187l-3.238,1.563ZM35.524,38.8V18.641l4.086-1.972A.591.591,0,0,0,39.1,15.6l-4.163,2.01-1.638-.791a.591.591,0,1,0-.514,1.064l1.561.754V38.8L17.213,30.527V10.372l13.043,6.3a.591.591,0,0,0,.514-1.064L17.982,9.43,23.85,6.6,41.6,15.164l.008.01v7.089a.591.591,0,0,0,.848.532l4.42-2.134a.591.591,0,0,0,.334-.532V13l5.448-2.63V30.527Z" transform="translate(0 0)"/>
      <path id="Trazado_190319" data-name="Trazado 190319" d="M51.583,342.619l-2.687-1.3a.591.591,0,0,0-.514,1.064l2.687,1.3a.591.591,0,0,0,.514-1.064Z" transform="translate(-29.495 -314.383)"/>
      <path id="Trazado_190320" data-name="Trazado 190320" d="M54.1,308.238l-5.156-2.489a.591.591,0,0,0-.514,1.064l5.156,2.489a.591.591,0,0,0,.514-1.064Z" transform="translate(-29.538 -281.612)"/>
    </g>
    <g id="caja_1_2" data-name="caja (1)" transform="translate(976.437 3324.001)">
      <path id="Trazado_190313-2" data-name="Trazado 190313" d="M44.3,9.417,23.949,19.244a.738.738,0,0,0-.417.665V44.088a.739.739,0,0,0,.417.665L44.3,54.58a1.477,1.477,0,0,0,1.284,0l20.355-9.827a.739.739,0,0,0,.417-.665V19.909a.739.739,0,0,0-.417-.665L45.588,9.417A1.477,1.477,0,0,0,44.3,9.417Z" transform="translate(-6.809 -8.416)" fill="#fff9c7"/>
      <path id="Trazado_190314-2" data-name="Trazado 190314" d="M23.655,120.368a.735.735,0,0,0-.123.4v24.179a.738.738,0,0,0,.417.665L44.3,155.443a1.476,1.476,0,0,0,.642.147V130.647Z" transform="translate(-6.809 -109.28)" fill="#e8dc72"/>
      <path id="Trazado_190315-2" data-name="Trazado 190315" d="M277.291,120.368a.735.735,0,0,1,.123.4v24.179a.738.738,0,0,1-.417.665l-20.355,9.827a1.477,1.477,0,0,1-.642.147V130.647Z" transform="translate(-217.863 -109.28)" fill="#fff59d"/>
      <path id="Trazado_190316-2" data-name="Trazado 190316" d="M142.717,56.322,121.35,46l-5.632,2.73,21.414,10.338Z" transform="translate(-90.503 -41.762)" fill="#d86b4c"/>
      <path id="Trazado_190317-2" data-name="Trazado 190317" d="M348.185,160.8v8.009a.369.369,0,0,0,.53.332l4.637-2.239a.738.738,0,0,0,.417-.665v-8.184Z" transform="translate(-301.556 -143.492)" fill="#d84318"/>
      <path id="Trazado_190318-2" data-name="Trazado 190318" d="M59.852,10.407,38.438.069a.691.691,0,0,0-.6,0L16.422,10.407a.691.691,0,0,0-.39.622V36.136a.691.691,0,0,0,.39.622L37.837,47.1a.691.691,0,0,0,.6,0L59.852,36.758a.691.691,0,0,0,.39-.622V11.029A.691.691,0,0,0,59.852,10.407ZM38.137,1.458l19.825,9.571L52.215,13.8a.685.685,0,0,0-.117-.074L32.408,4.224Zm-7.29,3.547,19.8,9.557L46.589,16.52,26.8,6.967ZM47.32,17.7l3.787-1.828v7.235L47.32,24.937ZM38.828,45.373V21.8l4.778-2.307a.691.691,0,1,0-.6-1.244L38.137,20.6l-1.916-.925a.691.691,0,1,0-.6,1.244l1.826.881V45.373L17.414,35.7V12.13l15.255,7.364a.691.691,0,0,0,.6-1.244L18.312,11.029l6.863-3.313L45.929,17.735l.01.012v8.29a.691.691,0,0,0,.991.622l5.169-2.5a.691.691,0,0,0,.39-.622V15.206l6.372-3.076V35.7Z"/>
      <path id="Trazado_190319-2" data-name="Trazado 190319" d="M52.182,342.848l-3.143-1.517a.691.691,0,0,0-.6,1.244l3.143,1.517a.691.691,0,0,0,.6-1.244Z" transform="translate(-29.067 -309.826)"/>
      <path id="Trazado_190320-2" data-name="Trazado 190320" d="M55.118,308.67l-6.03-2.911a.691.691,0,0,0-.6,1.244l6.03,2.911a.691.691,0,0,0,.6-1.244Z" transform="translate(-29.11 -277.531)"/>
    </g>
    <g id="caja_1_3" data-name="caja (1)" transform="translate(820.968 3339.001)">
      <path id="Trazado_190313-3" data-name="Trazado 190313" d="M37.834,9.372,23.819,16.137a.508.508,0,0,0-.287.458V33.242a.509.509,0,0,0,.287.458l14.014,6.766a1.017,1.017,0,0,0,.884,0L52.732,33.7a.508.508,0,0,0,.287-.458V16.595a.509.509,0,0,0-.287-.458L38.718,9.372A1.017,1.017,0,0,0,37.834,9.372Z" transform="translate(-7.024 -8.682)" fill="#fff9c7"/>
      <path id="Trazado_190314-3" data-name="Trazado 190314" d="M23.617,120.368a.506.506,0,0,0-.085.278v16.647a.508.508,0,0,0,.287.458l14.014,6.766a1.017,1.017,0,0,0,.442.1V127.445Z" transform="translate(-7.024 -112.734)" fill="#e8dc72"/>
      <path id="Trazado_190315-3" data-name="Trazado 190315" d="M270.659,120.368a.506.506,0,0,1,.085.278v16.647a.508.508,0,0,1-.287.458l-14.014,6.766a1.017,1.017,0,0,1-.442.1V127.445Z" transform="translate(-224.749 -112.734)" fill="#fff59d"/>
      <path id="Trazado_190316-3" data-name="Trazado 190316" d="M134.306,53.107,119.6,46l-3.878,1.88L130.461,55Z" transform="translate(-93.364 -43.082)" fill="#d86b4c"/>
      <path id="Trazado_190317-3" data-name="Trazado 190317" d="M348.185,159.943v5.514a.254.254,0,0,0,.365.229l3.193-1.541a.508.508,0,0,0,.287-.458v-5.634Z" transform="translate(-311.087 -148.028)" fill="#d84318"/>
      <path id="Trazado_190318-3" data-name="Trazado 190318" d="M46.2,7.165,31.458.048a.476.476,0,0,0-.414,0L16.3,7.165a.476.476,0,0,0-.269.428V24.879a.476.476,0,0,0,.269.428l14.744,7.118a.476.476,0,0,0,.414,0L46.2,25.308a.476.476,0,0,0,.269-.428V7.594A.476.476,0,0,0,46.2,7.165ZM31.251,1,44.9,7.594,40.944,9.5a.472.472,0,0,0-.081-.051L27.307,2.909ZM26.232,3.446l13.63,6.58-2.792,1.348L23.447,4.8Zm11.341,8.741,2.607-1.259V15.91l-2.607,1.259ZM31.727,31.239V15.01l3.29-1.588a.476.476,0,1,0-.414-.857l-3.352,1.618-1.319-.637a.476.476,0,1,0-.414.857l1.257.607V31.239L16.983,24.581V8.351l10.5,5.07a.476.476,0,0,0,.414-.857L17.6,7.594l4.725-2.281,14.289,6.9.007.008v5.708a.476.476,0,0,0,.682.428l3.559-1.718a.476.476,0,0,0,.269-.428V10.469l4.387-2.118V24.581Z"/>
      <path id="Trazado_190319-3" data-name="Trazado 190319" d="M50.894,342.354l-2.164-1.044a.476.476,0,0,0-.414.857l2.164,1.044a.476.476,0,0,0,.414-.857Z" transform="translate(-29.986 -319.618)"/>
      <path id="Trazado_190320-3" data-name="Trazado 190320" d="M52.93,307.742l-4.152-2a.476.476,0,0,0-.414.857l4.152,2a.476.476,0,0,0,.414-.857Z" transform="translate(-30.03 -286.302)"/>
    </g>
    <g id="carrito-de-compras" transform="translate(975 3218.808)">
      <g id="Grupo_129629" data-name="Grupo 129629" transform="translate(16.175 53.421)">
        <circle id="Elipse_5130" data-name="Elipse 5130" cx="2.865" cy="2.865" r="2.865" transform="translate(32.472)" fill="#fff59d"/>
        <circle id="Elipse_5131" data-name="Elipse 5131" cx="2.865" cy="2.865" r="2.865" fill="#fff59d"/>
      </g>
      <path id="Trazado_190324" data-name="Trazado 190324" d="M13.312,20.022,8.06,14.769a1.91,1.91,0,0,1,0-2.7h0a1.91,1.91,0,0,1,2.7,0l5.253,5.253a1.91,1.91,0,0,1,0,2.7h0A1.91,1.91,0,0,1,13.312,20.022Z" transform="translate(-6.607 -10.615)" fill="#d84318"/>
      <path id="Trazado_190325" data-name="Trazado 190325" d="M113.352,104.831a.669.669,0,0,0-.7.859l6.5,21.51a.96.96,0,0,0,.912.679l.072,0,33.232-2.432a.669.669,0,0,0,.614-.58l2.017-15.465a.669.669,0,0,0-.6-.752Z" transform="translate(-99.205 -92.816)" fill="#fff9c7"/>
      <path id="Trazado_190326" data-name="Trazado 190326" d="M60.8,16.758a.894.894,0,0,0-.617-.331L10.853,11.949a2.79,2.79,0,0,0-.814-1.868L4.786,4.828A2.8,2.8,0,0,0,.821,8.793l5.253,5.253a2.785,2.785,0,0,0,1.983.821,2.814,2.814,0,0,0,.819-.121l7.469,24.731a4.684,4.684,0,0,0,4.5,3.351c.117,0,.236,0,.354-.013l33.776-2.471a3.772,3.772,0,0,0,3.453-3.263l2.563-19.65A.893.893,0,0,0,60.8,16.758Zm-2.351,6.324-6.372-.232.429-5.326,6.59.6Zm-1,7.683-6.017.134.5-6.265,6.283.229ZM42.185,39.488l.176-6.6,7.133-.159-.5,6.261Zm-8.111.593-.431-7,6.93-.154-.178,6.692Zm-7.738.566-1.374-7.374,6.892-.153.437,7.091ZM13.3,23.226l8.023.292,1.494,8.017-6.96.155Zm9.853.359,8.128.3.46,7.455-7.114.158Zm7.615-8.034.4,6.537-8.353-.3L21.5,14.71Zm10.08,6.89-7.882-.287-.4-6.439,8.438.766Zm1.942-5.8,7.937.72-.436,5.422-7.657-.279ZM40.8,24.227l-.184,6.911-7.087.158-.453-7.35Zm1.6,6.872.181-6.807,7.561.275-.513,6.371ZM7.338,12.782,2.085,7.53A1.017,1.017,0,1,1,3.522,6.092l5.253,5.253a1.017,1.017,0,1,1-1.438,1.438Zm12.316,1.76,1.337,7.176-8.233-.3L10.428,13.7Zm1.417,26.491a2.91,2.91,0,0,1-3.015-2.073l-1.66-5.5,6.756-.15,1.391,7.465Zm33.776-2.471-4.053.3.5-6.169,5.927-.132-.56,4.293A1.979,1.979,0,0,1,54.846,38.562Z" transform="translate(0 -4.007)"/>
      <path id="Trazado_190327" data-name="Trazado 190327" d="M160.519,351.389a.894.894,0,0,0,0-1.787H123.3a1.017,1.017,0,0,1-.934-1.417l2.524-5.889a.894.894,0,0,0-1.643-.7l-2.524,5.889a2.8,2.8,0,0,0,2.577,3.908h.985v2.141a3.759,3.759,0,1,0,1.787,0v-2.141h30.684v2.141a3.759,3.759,0,1,0,1.787,0v-2.141Zm-33.365,5.792a1.972,1.972,0,1,1-1.972-1.972A1.974,1.974,0,0,1,127.154,357.18Zm32.472,0a1.972,1.972,0,1,1-1.972-1.972A1.974,1.974,0,0,1,159.626,357.18Z" transform="translate(-106.143 -300.894)"/>
    </g>
    <g id="carrito-de-compras-2" data-name="carrito-de-compras" transform="translate(914 3233.572)">
      <g id="Grupo_129629-2" data-name="Grupo 129629" transform="translate(12.197 40.284)">
        <circle id="Elipse_5130-2" data-name="Elipse 5130" cx="2.161" cy="2.161" r="2.161" transform="translate(24.487)" fill="#fff59d"/>
        <circle id="Elipse_5131-2" data-name="Elipse 5131" cx="2.161" cy="2.161" r="2.161" fill="#fff59d"/>
      </g>
      <path id="Trazado_190324-2" data-name="Trazado 190324" d="M11.883,17.928,7.922,13.967a1.44,1.44,0,0,1,0-2.037h0a1.44,1.44,0,0,1,2.037,0l3.961,3.961a1.44,1.44,0,0,1,0,2.037h0A1.441,1.441,0,0,1,11.883,17.928Z" transform="translate(-6.826 -10.834)" fill="#d84318"/>
      <path id="Trazado_190325-2" data-name="Trazado 190325" d="M113.173,104.83a.5.5,0,0,0-.528.648l4.9,16.22a.724.724,0,0,0,.688.512l.054,0,25.06-1.834a.5.5,0,0,0,.463-.438l1.521-11.662a.5.5,0,0,0-.454-.567Z" transform="translate(-102.504 -95.77)" fill="#fff9c7"/>
      <path id="Trazado_190326-2" data-name="Trazado 190326" d="M45.852,13.622a.674.674,0,0,0-.465-.25L8.184,10A2.1,2.1,0,0,0,7.57,8.588L3.609,4.626a2.114,2.114,0,0,0-2.99,2.99L4.58,11.577a2.1,2.1,0,0,0,1.5.619,2.122,2.122,0,0,0,.618-.091l5.632,18.65a3.532,3.532,0,0,0,3.4,2.527c.088,0,.178,0,.267-.01l25.47-1.864a2.845,2.845,0,0,0,2.6-2.46l1.933-14.818A.674.674,0,0,0,45.852,13.622ZM44.08,18.391l-4.8-.175L39.6,14.2l4.97.451Zm-.756,5.794-4.538.1.38-4.725,4.738.173ZM31.811,30.763l.133-4.977,5.379-.12-.38,4.721Zm-6.117.448-.325-5.279,5.226-.116-.134,5.046Zm-5.835.427-1.036-5.56,5.2-.116.33,5.347ZM10.032,18.5l6.05.22,1.126,6.045-5.249.117Zm7.43.271,6.129.223.347,5.622-5.365.119ZM23.2,12.712l.3,4.93-6.3-.229-.994-5.335Zm7.6,5.2-5.944-.217-.3-4.856,6.363.578Zm1.465-4.373,5.986.543-.329,4.089-5.774-.21Zm-1.5,5.72-.139,5.212-5.344.119-.342-5.543Zm1.21,5.182.137-5.133,5.7.208-.387,4.8ZM5.533,10.624,1.572,6.663A.767.767,0,1,1,2.656,5.579L6.617,9.54a.767.767,0,1,1-1.084,1.084Zm9.288,1.327,1.008,5.411L9.62,17.136,7.864,11.32Zm1.068,19.977a2.194,2.194,0,0,1-2.274-1.563l-1.252-4.144,5.095-.113,1.049,5.629Zm25.47-1.864-3.056.224.374-4.652,4.47-.1-.422,3.237A1.492,1.492,0,0,1,41.36,30.065Z" transform="translate(0 -4.007)"/>
      <path id="Trazado_190327-2" data-name="Trazado 190327" d="M150.679,348.846a.674.674,0,0,0,0-1.348H122.615a.767.767,0,0,1-.7-1.069l1.9-4.441a.674.674,0,1,0-1.239-.531l-1.9,4.441a2.114,2.114,0,0,0,1.943,2.947h.743v1.615a2.834,2.834,0,1,0,1.348,0v-1.615h23.139v1.615a2.834,2.834,0,1,0,1.348,0v-1.615Zm-25.161,4.367a1.487,1.487,0,1,1-1.487-1.487A1.488,1.488,0,0,1,125.518,353.214Zm24.487,0a1.487,1.487,0,1,1-1.487-1.487A1.488,1.488,0,0,1,150,353.214Z" transform="translate(-109.674 -310.768)"/>
    </g>
    <g id="carrito-de-compras-3" data-name="carrito-de-compras" transform="translate(837 3242.924)">
      <g id="Grupo_129629-3" data-name="Grupo 129629" transform="translate(9.678 31.965)">
        <circle id="Elipse_5130-3" data-name="Elipse 5130" cx="1.715" cy="1.715" r="1.715" transform="translate(19.43)" fill="#fff59d"/>
        <circle id="Elipse_5131-3" data-name="Elipse 5131" cx="1.715" cy="1.715" r="1.715" fill="#fff59d"/>
      </g>
      <path id="Trazado_190324-3" data-name="Trazado 190324" d="M10.978,16.6,7.835,13.459a1.143,1.143,0,0,1,0-1.616h0a1.143,1.143,0,0,1,1.616,0l3.143,3.143a1.143,1.143,0,0,1,0,1.616h0A1.143,1.143,0,0,1,10.978,16.6Z" transform="translate(-6.966 -10.973)" fill="#d84318"/>
      <path id="Trazado_190325-3" data-name="Trazado 190325" d="M113.059,104.83a.4.4,0,0,0-.419.514l3.887,12.87a.575.575,0,0,0,.546.406l.043,0L137,117.164a.4.4,0,0,0,.367-.347l1.207-9.254a.4.4,0,0,0-.36-.45Z" transform="translate(-104.594 -97.641)" fill="#fff9c7"/>
      <path id="Trazado_190326-3" data-name="Trazado 190326" d="M36.383,11.637a.535.535,0,0,0-.369-.2L6.494,8.759a1.669,1.669,0,0,0-.487-1.117L2.864,4.5A1.678,1.678,0,0,0,.491,6.871l3.143,3.143a1.666,1.666,0,0,0,1.186.491,1.684,1.684,0,0,0,.49-.072l4.469,14.8a2.8,2.8,0,0,0,2.694,2.005c.07,0,.141,0,.212-.008L32.9,25.75A2.257,2.257,0,0,0,34.962,23.8L36.5,12.04A.535.535,0,0,0,36.383,11.637Zm-1.407,3.784-3.813-.139L31.42,12.1l3.943.358Zm-.6,4.6-3.6.08.3-3.749,3.76.137Zm-9.135,5.22.105-3.949,4.268-.095-.3,3.746Zm-4.854.355L20.13,21.4l4.146-.092-.107,4Zm-4.63.339-.822-4.412,4.124-.092.261,4.243ZM7.96,15.507l4.8.175.894,4.8-4.165.093Zm5.9.215,4.863.177.275,4.461-4.257.095Zm4.556-4.807.241,3.912-5-.182-.789-4.233Zm6.031,4.123-4.716-.172-.237-3.853,5.049.458Zm1.162-3.47L30.355,12l-.261,3.245-4.582-.167Zm-1.191,4.539-.11,4.136-4.241.094-.271-4.4Zm.96,4.112.108-4.073,4.524.165L29.7,20.122ZM4.391,9.258,1.247,6.115a.608.608,0,1,1,.86-.86L5.251,8.4a.608.608,0,1,1-.86.86Zm7.37,1.053.8,4.294-4.927-.18L6.24,9.81Zm.848,15.851a1.741,1.741,0,0,1-1.8-1.24l-.993-3.288,4.042-.09.832,4.466Zm20.21-1.479-2.425.177.3-3.691,3.547-.079L33.9,23.659A1.184,1.184,0,0,1,32.818,24.683Z" transform="translate(0 -4.007)"/>
      <path id="Trazado_190327-3" data-name="Trazado 190327" d="M144.446,347.236a.535.535,0,1,0,0-1.069H122.178a.608.608,0,0,1-.559-.848l1.51-3.524a.535.535,0,1,0-.983-.421l-1.51,3.524a1.678,1.678,0,0,0,1.542,2.339h.589v1.281a2.249,2.249,0,1,0,1.069,0v-1.281H142.2v1.281a2.249,2.249,0,1,0,1.069,0v-1.281ZM124.482,350.7a1.18,1.18,0,1,1-1.18-1.18A1.181,1.181,0,0,1,124.482,350.7Zm19.43,0a1.18,1.18,0,1,1-1.18-1.18A1.181,1.181,0,0,1,143.911,350.7Z" transform="translate(-111.909 -317.022)"/>
    </g>
    <g id="paquete" transform="translate(623.671 3282.767)">
      <path id="Trazado_190328" data-name="Trazado 190328" d="M30.985,280.268H8.283a.783.783,0,0,1-.783-.783v-22.7A.783.783,0,0,1,8.283,256H31.768v23.485A.783.783,0,0,1,30.985,280.268Z" transform="translate(-6.768 -231)" fill="#fff59d"/>
      <path id="Trazado_190329" data-name="Trazado 190329" d="M20.808,277.919a10.96,10.96,0,0,1-10.96-10.96V256H8.283a.783.783,0,0,0-.783.783v22.7a.783.783,0,0,0,.783.783h22.7a.783.783,0,0,0,.783-.783v-1.566Z" transform="translate(-6.768 -231)" fill="#e8dc72"/>
      <rect id="Rectángulo_41337" data-name="Rectángulo 41337" width="3.914" height="7.828" transform="translate(10.909 25)" fill="#d86b4c"/>
      <path id="Trazado_190330" data-name="Trazado 190330" d="M279.485,280.268h-22.7a.783.783,0,0,1-.783-.783V256h23.485a.783.783,0,0,1,.783.783v22.7A.783.783,0,0,1,279.485,280.268Z" transform="translate(-231 -231)" fill="#fff59d"/>
      <path id="Trazado_190331" data-name="Trazado 190331" d="M269.308,277.919a10.96,10.96,0,0,1-10.96-10.96V256H256v23.485a.783.783,0,0,0,.783.783h22.7a.783.783,0,0,0,.783-.783v-1.566Z" transform="translate(-231 -231)" fill="#e8dc72"/>
      <rect id="Rectángulo_41338" data-name="Rectángulo 41338" width="3.914" height="7.828" transform="translate(35.177 25)" fill="#d86b4c"/>
      <path id="Trazado_190332" data-name="Trazado 190332" d="M155.235,31.768h-22.7a.783.783,0,0,1-.783-.783V8.283a.783.783,0,0,1,.783-.783h22.7a.783.783,0,0,1,.783.783v22.7A.783.783,0,0,1,155.235,31.768Z" transform="translate(-118.884 -6.768)" fill="#fff59d"/>
      <path id="Trazado_190333" data-name="Trazado 190333" d="M145.058,29.419A10.96,10.96,0,0,1,134.1,18.46V7.5h-1.566a.783.783,0,0,0-.783.783v22.7a.783.783,0,0,0,.783.783h22.7a.783.783,0,0,0,.783-.783V29.419Z" transform="translate(-118.884 -6.768)" fill="#e8dc72"/>
      <rect id="Rectángulo_41339" data-name="Rectángulo 41339" width="3.914" height="7.828" transform="translate(23.043 0.732)" fill="#d86b4c"/>
      <path id="Trazado_190334" data-name="Trazado 190334" d="M44.727,448.9H40.813a.732.732,0,0,0,0,1.465h3.914a.732.732,0,1,0,0-1.465Z" transform="translate(-36.167 -405.065)"/>
      <path id="Trazado_190335" data-name="Trazado 190335" d="M47.076,416.839H40.813a.732.732,0,0,0,0,1.465h6.263a.732.732,0,1,0,0-1.465Z" transform="translate(-36.167 -376.132)"/>
      <path id="Trazado_190336" data-name="Trazado 190336" d="M48.485,24.268H37.866V1.515A1.517,1.517,0,0,0,36.351,0h-22.7a1.517,1.517,0,0,0-1.515,1.515V24.268H1.515A1.517,1.517,0,0,0,0,25.783v22.7A1.517,1.517,0,0,0,1.515,50h46.97A1.517,1.517,0,0,0,50,48.485v-22.7A1.517,1.517,0,0,0,48.485,24.268ZM35.909,25.732h2.449V32.1H35.909ZM23.775,1.465h2.449V7.828H23.775V1.465ZM11.642,25.732h2.449V32.1H11.642ZM48.535,48.485a.05.05,0,0,1-.05.05H25.732v-22.8H30.48a.732.732,0,0,0,0-1.465H19.52a.732.732,0,1,0,0,1.465h4.747v22.8H1.515a.05.05,0,0,1-.05-.05v-22.7a.05.05,0,0,1,.05-.05h8.661v7.1a.732.732,0,0,0,.732.732h3.914a.732.732,0,0,0,.732-.732v-7.1h.833a.732.732,0,1,0,0-1.465H13.6V1.515a.05.05,0,0,1,.05-.05H22.31v7.1a.732.732,0,0,0,.732.732h3.914a.732.732,0,0,0,.732-.732v-7.1h8.661a.05.05,0,0,1,.05.05V24.268h-2.79a.732.732,0,0,0,0,1.465h.833v7.1a.732.732,0,0,0,.732.732h3.914a.732.732,0,0,0,.732-.732v-7.1h8.661a.05.05,0,0,1,.05.05v22.7Z"/>
      <path id="Trazado_190337" data-name="Trazado 190337" d="M293.227,448.9h-3.914a.732.732,0,0,0,0,1.465h3.914a.732.732,0,0,0,0-1.465Z" transform="translate(-260.398 -405.065)"/>
      <path id="Trazado_190338" data-name="Trazado 190338" d="M295.575,416.839h-6.263a.732.732,0,0,0,0,1.465h6.263a.732.732,0,1,0,0-1.465Z" transform="translate(-260.398 -376.132)"/>
      <path id="Trazado_190339" data-name="Trazado 190339" d="M168.977,200.4h-3.914a.732.732,0,0,0,0,1.465h3.914a.732.732,0,1,0,0-1.465Z" transform="translate(-148.282 -180.832)"/>
      <path id="Trazado_190340" data-name="Trazado 190340" d="M171.325,168.339h-6.263a.732.732,0,0,0,0,1.465h6.263a.732.732,0,0,0,0-1.465Z" transform="translate(-148.282 -151.9)"/>
    </g>
    <path id="Trazado_194423" data-name="Trazado 194423" d="M226.065,11765.506a2,2,0,0,1,1.429-2.441l190.423-49.8-16.422-9.534a2,2,0,0,1,2.008-3.458l22.388,13-12.657,22.06a2,2,0,0,1-3.47-1.99l9.324-16.248-190.581,49.846a2.031,2.031,0,0,1-.508.065A2,2,0,0,1,226.065,11765.506Z" transform="translate(602.5 -8529)" fill="#d84318"/>
    <path id="Trazado_194424" data-name="Trazado 194424" d="M0,0H199V5H0Z" transform="translate(837 3308.002)" fill="#1b3f5e"/>
    <g id="hacia-adelante" transform="translate(577.051 3304.57) rotate(-45)">
      <g id="Grupo_129743" data-name="Grupo 129743" transform="translate(1.47 0.601)">
        <path id="Trazado_190392" data-name="Trazado 190392" d="M11.471,45.862c1.436-18.5,9.419-22.863,20.866-22V25.9a2.043,2.043,0,0,0,3.213,1.854l11.112-8.16a1.917,1.917,0,0,0,0-3.523L35.549,7.909a2.222,2.222,0,0,0-1.205-.371h0a2.067,2.067,0,0,0-2.005,2.225V11.8C15.384,12.055,5.135,27.437,9.2,46.14c.262,1.56,2.146,1.277,2.268-.278Z" transform="translate(-8.313 -7.538)" fill="#d86d4e" fill-rule="evenodd"/>
      </g>
      <g id="Grupo_129744" data-name="Grupo 129744" transform="translate(1.741 8.386)">
        <path id="Trazado_190393" data-name="Trazado 190393" d="M35.644,109.228c-11.115-.556-20.59,4.1-21.985,22.1-.1,1.253-1.338,1.68-1.956.986.147,1.2.353,2.413.619,3.64.262,1.56,2.146,1.277,2.268-.278,1.436-18.5,9.419-22.863,20.866-22v2.035a2.043,2.043,0,0,0,3.213,1.854l11.112-8.16a1.917,1.917,0,0,0,0-3.523l-1.015-.746-8.958,7.76c-1.4.911-2.057,2.012-2.094.061v-2.521c0-1.216-.893-1.146-2.071-1.205Z" transform="translate(-11.703 -105.133)" fill="#d84318" fill-rule="evenodd"/>
      </g>
      <g id="Grupo_129745" data-name="Grupo 129745" transform="translate(0.877 0)">
        <path id="Trazado_190394" data-name="Trazado 190394" d="M3.411,40.84a1.679,1.679,0,0,1-1.638-1.523,34.886,34.886,0,0,1,.371-17.225A25.158,25.158,0,0,1,10.352,9.519a.6.6,0,1,1,.751.931C3.441,16.629.391,27.33,2.945,39.076c0,.009,0,.019.005.028.059.353.234.55.476.539.263-.012.565-.256.605-.765.633-8.167,2.543-13.929,5.839-17.615a.6.6,0,1,1,.892.8c-3.115,3.482-4.926,9.014-5.538,16.91a1.909,1.909,0,0,1-1.745,1.867ZM27.5,21.786a2.522,2.522,0,0,1-1.186-.295,2.788,2.788,0,0,1-1.419-2.52s0-.007,0-.011V17.484c-5.281-.322-9.149.56-12.14,2.761a.6.6,0,0,1-.709-.964,15.144,15.144,0,0,1,6.15-2.627,26.987,26.987,0,0,1,7.342-.325.6.6,0,0,1,.553.6v2.029a1.628,1.628,0,0,0,.783,1.48,1.47,1.47,0,0,0,1.492-.113l11.1-8.149.046-.031a1.549,1.549,0,0,0,.87-1.249,1.549,1.549,0,0,0-.87-1.249l-.046-.031-11.1-8.149a1.47,1.47,0,0,0-1.492-.113,1.628,1.628,0,0,0-.783,1.48V4.861a.6.6,0,0,1-.589.6,23.51,23.51,0,0,0-12.142,3.4.6.6,0,1,1-.627-1.019A24.545,24.545,0,0,1,24.9,4.278V2.826s0-.007,0-.011A2.788,2.788,0,0,1,26.315.294a2.652,2.652,0,0,1,2.718.176l.028.019L40.152,8.634a2.693,2.693,0,0,1,1.425,2.259,2.693,2.693,0,0,1-1.425,2.259L29.061,21.3l-.028.019a2.81,2.81,0,0,1-1.532.471Z" transform="translate(-0.877 0)"/>
      </g>
    </g>
    <g id="hacia-adelante-2" data-name="hacia-adelante" transform="translate(720.949 3303.429) rotate(135)">
      <g id="Grupo_129743-2" data-name="Grupo 129743" transform="translate(1.47 0.601)">
        <path id="Trazado_190392-2" data-name="Trazado 190392" d="M11.471,45.862c1.436-18.5,9.419-22.863,20.866-22V25.9a2.043,2.043,0,0,0,3.213,1.854l11.112-8.16a1.917,1.917,0,0,0,0-3.523L35.549,7.909a2.222,2.222,0,0,0-1.205-.371h0a2.067,2.067,0,0,0-2.005,2.225V11.8C15.384,12.055,5.135,27.437,9.2,46.14c.262,1.56,2.146,1.277,2.268-.278Z" transform="translate(-8.313 -7.538)" fill="#d86d4e" fill-rule="evenodd"/>
      </g>
      <g id="Grupo_129744-2" data-name="Grupo 129744" transform="translate(1.741 8.386)">
        <path id="Trazado_190393-2" data-name="Trazado 190393" d="M35.644,109.228c-11.115-.556-20.59,4.1-21.985,22.1-.1,1.253-1.338,1.68-1.956.986.147,1.2.353,2.413.619,3.64.262,1.56,2.146,1.277,2.268-.278,1.436-18.5,9.419-22.863,20.866-22v2.035a2.043,2.043,0,0,0,3.213,1.854l11.112-8.16a1.917,1.917,0,0,0,0-3.523l-1.015-.746-8.958,7.76c-1.4.911-2.057,2.012-2.094.061v-2.521c0-1.216-.893-1.146-2.071-1.205Z" transform="translate(-11.703 -105.133)" fill="#d84318" fill-rule="evenodd"/>
      </g>
      <g id="Grupo_129745-2" data-name="Grupo 129745" transform="translate(0.877 0)">
        <path id="Trazado_190394-2" data-name="Trazado 190394" d="M3.411,40.84a1.679,1.679,0,0,1-1.638-1.523,34.886,34.886,0,0,1,.371-17.225A25.158,25.158,0,0,1,10.352,9.519a.6.6,0,1,1,.751.931C3.441,16.629.391,27.33,2.945,39.076c0,.009,0,.019.005.028.059.353.234.55.476.539.263-.012.565-.256.605-.765.633-8.167,2.543-13.929,5.839-17.615a.6.6,0,1,1,.892.8c-3.115,3.482-4.926,9.014-5.538,16.91a1.909,1.909,0,0,1-1.745,1.867ZM27.5,21.786a2.522,2.522,0,0,1-1.186-.295,2.788,2.788,0,0,1-1.419-2.52s0-.007,0-.011V17.484c-5.281-.322-9.149.56-12.14,2.761a.6.6,0,0,1-.709-.964,15.144,15.144,0,0,1,6.15-2.627,26.987,26.987,0,0,1,7.342-.325.6.6,0,0,1,.553.6v2.029a1.628,1.628,0,0,0,.783,1.48,1.47,1.47,0,0,0,1.492-.113l11.1-8.149.046-.031a1.549,1.549,0,0,0,.87-1.249,1.549,1.549,0,0,0-.87-1.249l-.046-.031-11.1-8.149a1.47,1.47,0,0,0-1.492-.113,1.628,1.628,0,0,0-.783,1.48V4.861a.6.6,0,0,1-.589.6,23.51,23.51,0,0,0-12.142,3.4.6.6,0,1,1-.627-1.019A24.545,24.545,0,0,1,24.9,4.278V2.826s0-.007,0-.011A2.788,2.788,0,0,1,26.315.294a2.652,2.652,0,0,1,2.718.176l.028.019L40.152,8.634a2.693,2.693,0,0,1,1.425,2.259,2.693,2.693,0,0,1-1.425,2.259L29.061,21.3l-.028.019a2.81,2.81,0,0,1-1.532.471Z" transform="translate(-0.877 0)"/>
      </g>
    </g>
    <path id="Trazado_194425" data-name="Trazado 194425" d="M0,0H5V28H0Z" transform="translate(495 3097)" fill="#f0f8ff"/>
    <path id="Trazado_194426" data-name="Trazado 194426" d="M4.247-3.383H2.729V0H.825V-9.242H4.259a3.882,3.882,0,0,1,2.526.73,2.519,2.519,0,0,1,.889,2.063,2.843,2.843,0,0,1-.409,1.577A2.792,2.792,0,0,1,6.024-3.866l2,3.777V0H5.979ZM2.729-4.926H4.266a1.573,1.573,0,0,0,1.111-.365A1.3,1.3,0,0,0,5.77-6.3,1.4,1.4,0,0,0,5.4-7.325,1.543,1.543,0,0,0,4.259-7.7H2.729ZM8.715-3.5a4.073,4.073,0,0,1,.394-1.822,2.881,2.881,0,0,1,1.133-1.238A3.306,3.306,0,0,1,11.959-7a3.128,3.128,0,0,1,2.269.851,3.414,3.414,0,0,1,.981,2.311l.013.47a3.59,3.59,0,0,1-.882,2.536,3.067,3.067,0,0,1-2.368.955A3.082,3.082,0,0,1,9.6-.825a3.653,3.653,0,0,1-.885-2.59Zm1.834.13a2.567,2.567,0,0,0,.368,1.5,1.215,1.215,0,0,0,1.054.518,1.217,1.217,0,0,0,1.041-.512A2.809,2.809,0,0,0,13.387-3.5a2.542,2.542,0,0,0-.375-1.488,1.217,1.217,0,0,0-1.054-.528,1.2,1.2,0,0,0-1.041.524A2.857,2.857,0,0,0,10.55-3.367Zm8-5.189v1.688h1.174v1.346H18.548v3.428a.818.818,0,0,0,.146.546.733.733,0,0,0,.559.165,2.925,2.925,0,0,0,.54-.044v1.39a3.777,3.777,0,0,1-1.111.165,1.752,1.752,0,0,1-1.968-1.949v-3.7h-1V-6.868h1V-8.557ZM24.724,0a2.037,2.037,0,0,1-.184-.616,2.22,2.22,0,0,1-1.733.743,2.439,2.439,0,0,1-1.673-.584,1.878,1.878,0,0,1-.663-1.473,1.941,1.941,0,0,1,.809-1.676A3.994,3.994,0,0,1,23.62-4.2h.844v-.394a1.132,1.132,0,0,0-.244-.762.961.961,0,0,0-.771-.286,1.093,1.093,0,0,0-.727.222.755.755,0,0,0-.263.609H20.624a1.843,1.843,0,0,1,.368-1.1,2.434,2.434,0,0,1,1.041-.8A3.794,3.794,0,0,1,23.543-7a3,3,0,0,1,2.015.638A2.232,2.232,0,0,1,26.3-4.564v2.977a3.284,3.284,0,0,0,.273,1.479V0ZM23.207-1.276a1.58,1.58,0,0,0,.749-.181,1.188,1.188,0,0,0,.508-.486V-3.123h-.686q-1.377,0-1.466.952l-.006.108a.734.734,0,0,0,.241.565A.937.937,0,0,0,23.207-1.276Zm7.363-.076a1.2,1.2,0,0,0,.825-.279.979.979,0,0,0,.33-.743h1.72a2.353,2.353,0,0,1-.381,1.279,2.513,2.513,0,0,1-1.025.9A3.208,3.208,0,0,1,30.6.127a2.982,2.982,0,0,1-2.323-.936A3.705,3.705,0,0,1,27.428-3.4v-.121a3.663,3.663,0,0,1,.844-2.533A2.947,2.947,0,0,1,30.589-7a2.889,2.889,0,0,1,2.066.733,2.6,2.6,0,0,1,.79,1.952h-1.72a1.261,1.261,0,0,0-.33-.871,1.1,1.1,0,0,0-.838-.335,1.1,1.1,0,0,0-.968.467,2.708,2.708,0,0,0-.327,1.516v.191a2.742,2.742,0,0,0,.324,1.526A1.119,1.119,0,0,0,30.57-1.352ZM36.429,0H34.588V-6.868h1.841ZM34.48-8.646a.9.9,0,0,1,.276-.679,1.037,1.037,0,0,1,.752-.267,1.04,1.04,0,0,1,.749.267.9.9,0,0,1,.279.679.9.9,0,0,1-.282.686,1.042,1.042,0,0,1-.746.267,1.042,1.042,0,0,1-.746-.267A.9.9,0,0,1,34.48-8.646ZM37.654-3.5a4.073,4.073,0,0,1,.394-1.822,2.881,2.881,0,0,1,1.133-1.238A3.306,3.306,0,0,1,40.9-7a3.128,3.128,0,0,1,2.269.851,3.414,3.414,0,0,1,.981,2.311l.013.47a3.59,3.59,0,0,1-.882,2.536,3.067,3.067,0,0,1-2.368.955A3.082,3.082,0,0,1,38.54-.825a3.653,3.653,0,0,1-.885-2.59Zm1.834.13a2.567,2.567,0,0,0,.368,1.5,1.215,1.215,0,0,0,1.054.518,1.217,1.217,0,0,0,1.041-.512A2.809,2.809,0,0,0,42.326-3.5a2.542,2.542,0,0,0-.375-1.488A1.217,1.217,0,0,0,40.9-5.516a1.2,1.2,0,0,0-1.041.524A2.857,2.857,0,0,0,39.489-3.367ZM41.26-9.75h2L41.5-7.782H40.009Zm5.719,2.882.057.793A2.4,2.4,0,0,1,49.01-7a1.993,1.993,0,0,1,1.625.641,2.991,2.991,0,0,1,.546,1.917V0H49.347V-4.393a1.19,1.19,0,0,0-.254-.847,1.137,1.137,0,0,0-.844-.263,1.262,1.262,0,0,0-1.162.66V0H45.252V-6.868ZM57.745,0H55.9V-6.868h1.841ZM55.8-8.646a.9.9,0,0,1,.276-.679,1.037,1.037,0,0,1,.752-.267,1.04,1.04,0,0,1,.749.267.9.9,0,0,1,.279.679.9.9,0,0,1-.282.686,1.042,1.042,0,0,1-.746.267,1.042,1.042,0,0,1-.746-.267A.9.9,0,0,1,55.8-8.646Zm5.148,1.777L61-6.075A2.4,2.4,0,0,1,62.975-7a1.993,1.993,0,0,1,1.625.641,2.991,2.991,0,0,1,.546,1.917V0H63.312V-4.393a1.19,1.19,0,0,0-.254-.847,1.137,1.137,0,0,0-.844-.263,1.262,1.262,0,0,0-1.162.66V0H59.217V-6.868Zm8.163,4.627,1.276-4.627H72.3L69.983,0H68.231L65.914-6.868h1.917ZM76.267.127A3.372,3.372,0,0,1,73.807-.8a3.294,3.294,0,0,1-.949-2.469v-.178a4.149,4.149,0,0,1,.4-1.85,2.935,2.935,0,0,1,1.133-1.257A3.18,3.18,0,0,1,76.064-7a2.85,2.85,0,0,1,2.219.889,3.611,3.611,0,0,1,.809,2.52v.749H74.718a1.7,1.7,0,0,0,.536,1.079,1.621,1.621,0,0,0,1.133.406,1.98,1.98,0,0,0,1.657-.768l.9,1.009A2.754,2.754,0,0,1,77.829-.2,3.665,3.665,0,0,1,76.267.127Zm-.209-5.643a1.146,1.146,0,0,0-.885.37,1.915,1.915,0,0,0-.435,1.058h2.552v-.147a1.366,1.366,0,0,0-.33-.947A1.183,1.183,0,0,0,76.058-5.516Zm5.764-1.352.057.793A2.4,2.4,0,0,1,83.853-7a1.993,1.993,0,0,1,1.625.641,2.991,2.991,0,0,1,.546,1.917V0H84.189V-4.393a1.19,1.19,0,0,0-.254-.847,1.137,1.137,0,0,0-.844-.263,1.262,1.262,0,0,0-1.162.66V0H80.095V-6.868ZM89.61-8.557v1.688h1.174v1.346H89.61v3.428a.818.818,0,0,0,.146.546.733.733,0,0,0,.559.165,2.925,2.925,0,0,0,.54-.044v1.39a3.777,3.777,0,0,1-1.111.165,1.752,1.752,0,0,1-1.968-1.949v-3.7h-1V-6.868h1V-8.557ZM95.786,0A2.037,2.037,0,0,1,95.6-.616a2.22,2.22,0,0,1-1.733.743A2.439,2.439,0,0,1,92.2-.457a1.878,1.878,0,0,1-.663-1.473,1.941,1.941,0,0,1,.809-1.676,3.994,3.994,0,0,1,2.339-.59h.844v-.394a1.132,1.132,0,0,0-.244-.762.961.961,0,0,0-.771-.286,1.093,1.093,0,0,0-.727.222.755.755,0,0,0-.263.609H91.686a1.843,1.843,0,0,1,.368-1.1,2.434,2.434,0,0,1,1.041-.8A3.794,3.794,0,0,1,94.605-7a3,3,0,0,1,2.015.638,2.232,2.232,0,0,1,.746,1.793v2.977A3.284,3.284,0,0,0,97.64-.108V0ZM94.269-1.276a1.58,1.58,0,0,0,.749-.181,1.188,1.188,0,0,0,.508-.486V-3.123H94.84q-1.377,0-1.466.952l-.006.108a.734.734,0,0,0,.241.565A.937.937,0,0,0,94.269-1.276Zm8.366-3.872a4.984,4.984,0,0,0-.66-.051,1.344,1.344,0,0,0-1.365.7V0H98.776V-6.868h1.733l.051.819A1.7,1.7,0,0,1,102.089-7a1.922,1.922,0,0,1,.571.083ZM105.454,0h-1.841V-6.868h1.841ZM103.5-8.646a.9.9,0,0,1,.276-.679,1.037,1.037,0,0,1,.752-.267,1.04,1.04,0,0,1,.749.267.9.9,0,0,1,.279.679.9.9,0,0,1-.282.686,1.042,1.042,0,0,1-.746.267,1.042,1.042,0,0,1-.746-.267A.9.9,0,0,1,103.5-8.646ZM106.679-3.5a4.073,4.073,0,0,1,.394-1.822,2.881,2.881,0,0,1,1.133-1.238A3.306,3.306,0,0,1,109.922-7a3.127,3.127,0,0,1,2.269.851,3.414,3.414,0,0,1,.981,2.311l.013.47A3.59,3.59,0,0,1,112.3-.828a3.067,3.067,0,0,1-2.368.955,3.082,3.082,0,0,1-2.371-.952,3.653,3.653,0,0,1-.885-2.59Zm1.834.13a2.567,2.567,0,0,0,.368,1.5,1.215,1.215,0,0,0,1.054.518,1.217,1.217,0,0,0,1.041-.512,2.809,2.809,0,0,0,.375-1.637,2.542,2.542,0,0,0-.375-1.488,1.217,1.217,0,0,0-1.054-.528,1.2,1.2,0,0,0-1.041.524A2.857,2.857,0,0,0,108.513-3.367Z" transform="translate(511 3116)" fill="#12263f"/>
    <path id="Trazado_194427" data-name="Trazado 194427" d="M7.859-4.648h-4.5V0H1.016V-11.375H8.422v1.9H3.359v2.938h4.5ZM12.016,0H9.75V-8.453h2.266Zm-2.4-10.641a1.112,1.112,0,0,1,.34-.836,1.277,1.277,0,0,1,.926-.328,1.28,1.28,0,0,1,.922.328,1.105,1.105,0,0,1,.344.836A1.108,1.108,0,0,1,11.8-9.8a1.283,1.283,0,0,1-.918.328A1.283,1.283,0,0,1,9.965-9.8,1.108,1.108,0,0,1,9.617-10.641Zm3.93,6.352a4.954,4.954,0,0,1,.926-3.133,3,3,0,0,1,2.5-1.187,2.631,2.631,0,0,1,2.164.953l.094-.8h2.047V-.281a3.613,3.613,0,0,1-.5,1.93A3.236,3.236,0,0,1,19.352,2.9a4.985,4.985,0,0,1-2.141.43A4.635,4.635,0,0,1,15.4,2.957,3.217,3.217,0,0,1,14.063,2l1-1.375a2.645,2.645,0,0,0,2.047.945,1.936,1.936,0,0,0,1.4-.48,1.8,1.8,0,0,0,.5-1.363V-.727a2.612,2.612,0,0,1-2.055.883,2.992,2.992,0,0,1-2.465-1.191,4.953,4.953,0,0,1-.941-3.16Zm2.258.168a3.085,3.085,0,0,0,.461,1.8,1.466,1.466,0,0,0,1.266.653,1.568,1.568,0,0,0,1.477-.775V-6a1.564,1.564,0,0,0-1.461-.775,1.476,1.476,0,0,0-1.277.665A3.477,3.477,0,0,0,15.8-4.121ZM28.07-.859A2.831,2.831,0,0,1,25.758.156a2.67,2.67,0,0,1-2.074-.781,3.335,3.335,0,0,1-.73-2.289V-8.453h2.258v5.467q0,1.322,1.2,1.322a1.63,1.63,0,0,0,1.578-.8V-8.453h2.266V0H28.133Zm8.641-5.477A6.134,6.134,0,0,0,35.9-6.4a1.654,1.654,0,0,0-1.68.867V0H31.961V-8.453h2.133l.063,1.008a2.092,2.092,0,0,1,1.883-1.164,2.366,2.366,0,0,1,.7.1ZM42.461,0a2.507,2.507,0,0,1-.227-.758A2.732,2.732,0,0,1,40.1.156a3,3,0,0,1-2.059-.719,2.312,2.312,0,0,1-.816-1.812,2.389,2.389,0,0,1,1-2.062A4.915,4.915,0,0,1,41.1-5.164h1.039v-.484a1.393,1.393,0,0,0-.3-.937,1.183,1.183,0,0,0-.949-.352A1.345,1.345,0,0,0,40-6.664a.929.929,0,0,0-.324.75H37.414a2.268,2.268,0,0,1,.453-1.359,3,3,0,0,1,1.281-.98,4.669,4.669,0,0,1,1.859-.355,3.689,3.689,0,0,1,2.48.785,2.747,2.747,0,0,1,.918,2.207v3.664a4.041,4.041,0,0,0,.336,1.82V0ZM40.594-1.57a1.945,1.945,0,0,0,.922-.223,1.462,1.462,0,0,0,.625-.6V-3.844H41.3q-1.7,0-1.8,1.172l-.008.133a.9.9,0,0,0,.3.7A1.153,1.153,0,0,0,40.594-1.57ZM57.828,0h-7.8V-1.547l3.68-3.922a9.078,9.078,0,0,0,1.121-1.445A2.322,2.322,0,0,0,55.2-8.086a1.738,1.738,0,0,0-.383-1.191,1.382,1.382,0,0,0-1.094-.434,1.49,1.49,0,0,0-1.207.527A2.089,2.089,0,0,0,52.07-7.8H49.8a3.729,3.729,0,0,1,.5-1.9,3.5,3.5,0,0,1,1.4-1.348,4.262,4.262,0,0,1,2.055-.488,4.036,4.036,0,0,1,2.73.844A2.985,2.985,0,0,1,57.461-8.3a3.825,3.825,0,0,1-.437,1.719,9.551,9.551,0,0,1-1.5,2.039L52.938-1.82h4.891ZM5.352,15.406H2.727L1.93,20H.453L2.43,8.625l3.422.008a3.814,3.814,0,0,1,2.727.907,2.83,2.83,0,0,1,.789,2.448,3.241,3.241,0,0,1-.777,1.885A4.247,4.247,0,0,1,6.75,15.1l1.766,4.8-.008.1H6.945ZM2.938,14.172l2.156.008a3.012,3.012,0,0,0,1.9-.6,2.326,2.326,0,0,0,.906-1.6,1.837,1.837,0,0,0-.391-1.531,2.087,2.087,0,0,0-1.547-.586L3.688,9.859ZM14.57,11.391a3.047,3.047,0,0,1,1.82.578,3.285,3.285,0,0,1,1.121,1.551,4.8,4.8,0,0,1,.246,2.16l-.016.172a5.685,5.685,0,0,1-.734,2.23,4.309,4.309,0,0,1-1.516,1.551,3.7,3.7,0,0,1-2.039.523,3.052,3.052,0,0,1-1.816-.578,3.21,3.21,0,0,1-1.113-1.531,4.931,4.931,0,0,1-.25-2.133,5.76,5.76,0,0,1,.711-2.359,4.409,4.409,0,0,1,1.527-1.621A3.652,3.652,0,0,1,14.57,11.391ZM11.7,15.922a4.8,4.8,0,0,0,0,1.023,2.507,2.507,0,0,0,.551,1.469,1.653,1.653,0,0,0,1.262.57,2.253,2.253,0,0,0,1.3-.348,2.919,2.919,0,0,0,1-1.121,4.721,4.721,0,0,0,.523-1.664,7.494,7.494,0,0,0,.023-1.211,2.6,2.6,0,0,0-.57-1.492,1.69,1.69,0,0,0-1.266-.578,2.3,2.3,0,0,0-1.859.859,4.245,4.245,0,0,0-.945,2.313ZM22.539,9.5l-.359,2.047h1.539l-.2,1.117H21.992l-.883,5.258a1.833,1.833,0,0,0-.008.375.6.6,0,0,0,.664.609,4.05,4.05,0,0,0,.688-.078l-.109,1.18a3.847,3.847,0,0,1-1.031.141,1.476,1.476,0,0,1-1.266-.621,2.4,2.4,0,0,1-.328-1.629l.859-5.234H19.086l.2-1.117h1.492L21.133,9.5ZM29.125,20a1.893,1.893,0,0,1-.055-.445l.023-.445a3.465,3.465,0,0,1-2.469,1.047,2.526,2.526,0,0,1-1.816-.707,2.14,2.14,0,0,1-.637-1.73,2.6,2.6,0,0,1,1.176-2.1,5.005,5.005,0,0,1,2.887-.754l1.477.008L29.8,14.2a1.545,1.545,0,0,0-.293-1.2,1.414,1.414,0,0,0-1.113-.457,2.181,2.181,0,0,0-1.285.355,1.513,1.513,0,0,0-.684.98l-1.422.008a2.266,2.266,0,0,1,.578-1.316,3.363,3.363,0,0,1,1.3-.891,4.215,4.215,0,0,1,1.648-.3,2.8,2.8,0,0,1,2.055.8,2.484,2.484,0,0,1,.617,2.043l-.687,4.188-.039.6a2.949,2.949,0,0,0,.094.852L30.563,20Zm-2.219-1.094a2.466,2.466,0,0,0,1.285-.324,3.254,3.254,0,0,0,1.043-.941l.3-1.742-1.07-.008a4.054,4.054,0,0,0-2.047.422,1.554,1.554,0,0,0-.8,1.2,1.21,1.21,0,0,0,.277.988A1.321,1.321,0,0,0,26.906,18.906Zm9.141.078a2.145,2.145,0,0,0,1.367-.441,2.1,2.1,0,0,0,.8-1.2l1.336-.008a3.014,3.014,0,0,1-.637,1.453,3.68,3.68,0,0,1-2.926,1.367,3.017,3.017,0,0,1-1.785-.551,3.084,3.084,0,0,1-1.074-1.492,4.972,4.972,0,0,1-.234-2.152l.039-.391a5.605,5.605,0,0,1,.711-2.18,4.11,4.11,0,0,1,1.469-1.5,3.648,3.648,0,0,1,2-.5,2.857,2.857,0,0,1,2.125.891,3.08,3.08,0,0,1,.8,2.18l-1.32-.008a2.029,2.029,0,0,0-.461-1.34,1.607,1.607,0,0,0-1.2-.543,2.254,2.254,0,0,0-1.832.82,4.3,4.3,0,0,0-.91,2.359l-.023.2a6.776,6.776,0,0,0-.016,1.031,2.355,2.355,0,0,0,.516,1.445A1.656,1.656,0,0,0,36.047,18.984ZM42.211,20H40.8l1.469-8.453H43.68ZM43.375,8.461a.774.774,0,0,1,.6.215.8.8,0,0,1,.238.605.834.834,0,0,1-.836.852.779.779,0,0,1-.6-.211.764.764,0,0,1-.227-.594.886.886,0,0,1,.234-.609A.826.826,0,0,1,43.375,8.461Zm5.844,2.93a3.047,3.047,0,0,1,1.82.578A3.285,3.285,0,0,1,52.16,13.52a4.8,4.8,0,0,1,.246,2.16l-.016.172a5.685,5.685,0,0,1-.734,2.23,4.309,4.309,0,0,1-1.516,1.551,3.7,3.7,0,0,1-2.039.523,3.052,3.052,0,0,1-1.816-.578,3.21,3.21,0,0,1-1.113-1.531,4.931,4.931,0,0,1-.25-2.133,5.76,5.76,0,0,1,.711-2.359,4.409,4.409,0,0,1,1.527-1.621A3.652,3.652,0,0,1,49.219,11.391Zm-2.875,4.531a4.8,4.8,0,0,0,0,1.023,2.507,2.507,0,0,0,.551,1.469,1.653,1.653,0,0,0,1.262.57,2.253,2.253,0,0,0,1.3-.348,2.919,2.919,0,0,0,1-1.121,4.721,4.721,0,0,0,.523-1.664A7.494,7.494,0,0,0,51,14.641a2.6,2.6,0,0,0-.57-1.492,1.69,1.69,0,0,0-1.266-.578,2.3,2.3,0,0,0-1.859.859,4.245,4.245,0,0,0-.945,2.313ZM50.422,8h1.8l-2.391,2.3-1.242,0Zm5.836,3.539-.2,1.07a3.333,3.333,0,0,1,2.594-1.219,2.1,2.1,0,0,1,1.766.828,3.217,3.217,0,0,1,.422,2.242L59.914,20H58.5l.93-5.557a2.962,2.962,0,0,0,.008-.71,1.168,1.168,0,0,0-1.289-1.116,2.661,2.661,0,0,0-2.234,1.358L54.867,20H53.453l1.469-8.453ZM67.547,20H66.141l1.469-8.453h1.406ZM68.711,8.461a.774.774,0,0,1,.6.215.8.8,0,0,1,.238.605.834.834,0,0,1-.836.852.779.779,0,0,1-.6-.211.764.764,0,0,1-.227-.594.886.886,0,0,1,.234-.609A.826.826,0,0,1,68.711,8.461Zm3.953,3.078-.2,1.07a3.333,3.333,0,0,1,2.594-1.219,2.1,2.1,0,0,1,1.766.828,3.217,3.217,0,0,1,.422,2.242L76.32,20H74.906l.93-5.557a2.962,2.962,0,0,0,.008-.71,1.168,1.168,0,0,0-1.289-1.116,2.661,2.661,0,0,0-2.234,1.358L71.273,20H69.859l1.469-8.453Zm8.906,6.484,3.047-6.477h1.492L81.852,20H80.773l-1.656-8.453h1.391Zm8.18,2.133a3.048,3.048,0,0,1-2.469-1.164,4.006,4.006,0,0,1-.75-2.9l.039-.336a5.624,5.624,0,0,1,.746-2.3,4.339,4.339,0,0,1,1.5-1.566,3.491,3.491,0,0,1,1.906-.5,2.688,2.688,0,0,1,2.047.867,3.566,3.566,0,0,1,.813,2.266,6.62,6.62,0,0,1-.031,1.016l-.086.648H87.938a2.856,2.856,0,0,0,.379,1.953,1.8,1.8,0,0,0,1.551.836,3.007,3.007,0,0,0,2.313-1.125l.813.688a3.718,3.718,0,0,1-1.371,1.2A3.886,3.886,0,0,1,89.75,20.156Zm.9-7.586a2.066,2.066,0,0,0-1.527.594A4.22,4.22,0,0,0,88.086,15l4.109.008.031-.125a2.313,2.313,0,0,0-.316-1.637A1.488,1.488,0,0,0,90.648,12.57ZM97.2,11.539l-.2,1.07a3.333,3.333,0,0,1,2.594-1.219,2.1,2.1,0,0,1,1.766.828,3.217,3.217,0,0,1,.422,2.242L100.852,20H99.438l.93-5.557a2.962,2.962,0,0,0,.008-.71,1.168,1.168,0,0,0-1.289-1.116,2.661,2.661,0,0,0-2.234,1.358L95.8,20H94.391l1.469-8.453Zm9.57-2.039-.359,2.047h1.539l-.2,1.117h-1.531l-.883,5.258a1.833,1.833,0,0,0-.008.375.6.6,0,0,0,.664.609,4.05,4.05,0,0,0,.688-.078l-.109,1.18a3.847,3.847,0,0,1-1.031.141,1.476,1.476,0,0,1-1.266-.621,2.4,2.4,0,0,1-.328-1.629l.859-5.234h-1.492l.2-1.117H105l.359-2.047ZM113.352,20a1.893,1.893,0,0,1-.055-.445l.023-.445a3.465,3.465,0,0,1-2.469,1.047,2.526,2.526,0,0,1-1.816-.707,2.14,2.14,0,0,1-.637-1.73,2.6,2.6,0,0,1,1.176-2.1,5.005,5.005,0,0,1,2.887-.754l1.477.008.094-.672a1.545,1.545,0,0,0-.293-1.2,1.414,1.414,0,0,0-1.113-.457,2.181,2.181,0,0,0-1.285.355,1.513,1.513,0,0,0-.684.98l-1.422.008a2.266,2.266,0,0,1,.578-1.316,3.363,3.363,0,0,1,1.3-.891,4.215,4.215,0,0,1,1.648-.3,2.8,2.8,0,0,1,2.055.8,2.484,2.484,0,0,1,.617,2.043l-.687,4.188-.039.6a2.949,2.949,0,0,0,.094.852l-.016.133Zm-2.219-1.094a2.466,2.466,0,0,0,1.285-.324,3.254,3.254,0,0,0,1.043-.941l.3-1.742-1.07-.008a4.054,4.054,0,0,0-2.047.422,1.554,1.554,0,0,0-.8,1.2,1.21,1.21,0,0,0,.277.988A1.321,1.321,0,0,0,111.133,18.906Zm10.828-6.07-.664-.07a2.42,2.42,0,0,0-2.141,1.227L118.117,20H116.7l1.469-8.453,1.367-.008-.211.984a2.527,2.527,0,0,1,2.117-1.148,2.594,2.594,0,0,1,.672.117Zm1.6,7.164h-1.406l1.469-8.453h1.406Zm1.164-11.539a.774.774,0,0,1,.6.215.8.8,0,0,1,.238.605.834.834,0,0,1-.836.852.779.779,0,0,1-.6-.211.764.764,0,0,1-.227-.594.886.886,0,0,1,.234-.609A.826.826,0,0,1,124.727,8.461Zm5.844,2.93a3.047,3.047,0,0,1,1.82.578,3.285,3.285,0,0,1,1.121,1.551,4.8,4.8,0,0,1,.246,2.16l-.016.172a5.685,5.685,0,0,1-.734,2.23,4.309,4.309,0,0,1-1.516,1.551,3.7,3.7,0,0,1-2.039.523,3.052,3.052,0,0,1-1.816-.578,3.21,3.21,0,0,1-1.113-1.531,4.931,4.931,0,0,1-.25-2.133,5.76,5.76,0,0,1,.711-2.359,4.409,4.409,0,0,1,1.527-1.621A3.652,3.652,0,0,1,130.57,11.391ZM127.7,15.922a4.8,4.8,0,0,0,0,1.023,2.507,2.507,0,0,0,.551,1.469,1.653,1.653,0,0,0,1.262.57,2.253,2.253,0,0,0,1.3-.348,2.919,2.919,0,0,0,1-1.121,4.721,4.721,0,0,0,.523-1.664,7.493,7.493,0,0,0,.023-1.211,2.6,2.6,0,0,0-.57-1.492,1.69,1.69,0,0,0-1.266-.578,2.3,2.3,0,0,0-1.859.859,4.245,4.245,0,0,0-.945,2.313Z" transform="translate(515 3045)" fill="#12263f"/>
    <path id="Trazado_194428" data-name="Trazado 194428" d="M0,0H4V40H0Z" transform="translate(495 3029)" fill="#f0f8ff"/>
  </g>
</svg>
