<svg xmlns="http://www.w3.org/2000/svg" xmlns:xlink="http://www.w3.org/1999/xlink" width="119.087" height="115.172" viewBox="0 0 119.087 115.172">
  <defs>
    <linearGradient id="linear-gradient" x1="0.147" y1="0.815" x2="0.431" y2="0.258" gradientUnits="objectBoundingBox">
      <stop offset="0" stop-color="#d84318"/>
      <stop offset="1" stop-color="#d84318" stop-opacity="0"/>
    </linearGradient>
  </defs>
  <g id="Grupo_131428" data-name="Grupo 131428" transform="translate(-101 398.784)">
    <path id="Trazado_191933" data-name="Trazado 191933" d="M132.033-349.291l18.07-33.536,69.984,40.69-80.993-3.53A49.315,49.315,0,0,1,132.033-349.291Z" fill="url(#linear-gradient)"/>
    <rect id="Rectángulo_41437" data-name="Rectángulo 41437" width="2.067" height="76.377" transform="matrix(0.503, -0.864, 0.864, 0.503, 149.584, -381.934)" fill="#d84318"/>
    <g id="Grupo_131195" data-name="Grupo 131195">
      <g id="Grupo_131157" data-name="Grupo 131157">
        <g id="Grupo_131156" data-name="Grupo 131156" style="isolation: isolate">
          <g id="Grupo_131129" data-name="Grupo 131129" style="isolation: isolate">
            <g id="Grupo_131128" data-name="Grupo 131128" style="isolation: isolate">
              <path id="Trazado_191934" data-name="Trazado 191934" d="M120.71-296.936l4.1-2.383c-.023-.04-.046-.08-.067-.121l-4.1,2.384c.022.04.044.08.067.12Z" fill="#adadad"/>
              <path id="Trazado_191935" data-name="Trazado 191935" d="M120.643-297.056l4.1-2.384c-.022-.04-.042-.081-.062-.122l-4.1,2.384c.02.041.041.081.062.122Z" fill="#a8a8a8"/>
            </g>
          </g>
          <g id="Grupo_131131" data-name="Grupo 131131" style="isolation: isolate">
            <g id="Grupo_131130" data-name="Grupo 131130" style="isolation: isolate">
              <path id="Trazado_191936" data-name="Trazado 191936" d="M121.078-296.421l4.1-2.383c-.04-.046-.079-.093-.116-.142l-4.1,2.384c.038.048.076.1.116.141Z" fill="#c2c2c2"/>
              <path id="Trazado_191937" data-name="Trazado 191937" d="M120.962-296.562l4.1-2.384c-.033-.042-.065-.085-.1-.129l-4.1,2.384c.031.044.062.087.1.129Z" fill="#bdbdbd"/>
              <path id="Trazado_191938" data-name="Trazado 191938" d="M120.867-296.691l4.1-2.384c-.029-.04-.057-.082-.083-.123l-4.1,2.383c.027.042.054.083.083.124Z" fill="#f2f2f2"/>
              <path id="Trazado_191939" data-name="Trazado 191939" d="M120.784-296.815l4.1-2.383c-.026-.04-.05-.081-.074-.121l-4.1,2.383c.024.041.049.081.074.121Z" fill="#b3b3b3"/>
              <path id="Trazado_191940" data-name="Trazado 191940" d="M120.71-296.936l4.1-2.383c-.023-.04-.046-.08-.067-.121l-4.1,2.384c.022.04.044.08.067.12Z" fill="#adadad"/>
            </g>
          </g>
          <g id="Grupo_131133" data-name="Grupo 131133" style="isolation: isolate">
            <g id="Grupo_131132" data-name="Grupo 131132" style="isolation: isolate">
              <path id="Trazado_191941" data-name="Trazado 191941" d="M121.235-296.254l4.1-2.384c-.054-.053-.106-.108-.156-.166l-4.1,2.383c.051.058.1.114.157.167Z" fill="#c7c7c7"/>
              <path id="Trazado_191942" data-name="Trazado 191942" d="M121.078-296.421l4.1-2.383c-.04-.046-.079-.093-.116-.142l-4.1,2.384c.038.048.076.1.116.141Z" fill="#c2c2c2"/>
            </g>
          </g>
          <g id="Grupo_131135" data-name="Grupo 131135" style="isolation: isolate">
            <g id="Grupo_131134" data-name="Grupo 131134" style="isolation: isolate">
              <path id="Trazado_191943" data-name="Trazado 191943" d="M120.643-297.056l4.1-2.384c-.022-.04-.042-.081-.062-.122l-4.1,2.384c.02.041.041.081.062.122Z" fill="#a8a8a8"/>
              <path id="Trazado_191944" data-name="Trazado 191944" d="M120.581-297.178l4.1-2.384c-.02-.041-.039-.082-.057-.124l-4.1,2.384c.019.041.037.083.057.124Z" fill="#a3a3a3"/>
              <path id="Trazado_191945" data-name="Trazado 191945" d="M120.524-297.3l4.1-2.384c-.018-.042-.036-.085-.052-.128l-4.1,2.383c.016.043.034.086.052.129Z" fill="#9e9e9e"/>
              <path id="Trazado_191946" data-name="Trazado 191946" d="M120.472-297.431l4.1-2.383c-.018-.045-.034-.09-.049-.135l-4.1,2.383q.022.069.048.135Z" fill="#999"/>
              <path id="Trazado_191947" data-name="Trazado 191947" d="M120.424-297.566l4.1-2.383c-.016-.049-.031-.1-.044-.146l-4.1,2.384c.013.048.028.1.045.145Z" fill="#949494"/>
            </g>
          </g>
          <g id="Grupo_131137" data-name="Grupo 131137" style="isolation: isolate">
            <g id="Grupo_131136" data-name="Grupo 131136" style="isolation: isolate">
              <path id="Trazado_191948" data-name="Trazado 191948" d="M121.713-295.884l4.1-2.383a2.415,2.415,0,0,1-.478-.371l-4.1,2.384a2.388,2.388,0,0,0,.478.37Z" fill="#ccc"/>
              <path id="Trazado_191949" data-name="Trazado 191949" d="M121.235-296.254l4.1-2.384c-.054-.053-.106-.108-.156-.166l-4.1,2.383c.051.058.1.114.157.167Z" fill="#c7c7c7"/>
            </g>
          </g>
          <g id="Grupo_131139" data-name="Grupo 131139" style="isolation: isolate">
            <g id="Grupo_131138" data-name="Grupo 131138" style="isolation: isolate">
              <path id="Trazado_191950" data-name="Trazado 191950" d="M120.339-297.876l4.1-2.383c-.014-.067-.025-.133-.034-.2l-4.1,2.384c.008.066.02.132.034.2Z" fill="#8a8a8a"/>
              <path id="Trazado_191951" data-name="Trazado 191951" d="M120.305-298.074l4.1-2.384a2.229,2.229,0,0,1-.018-.28,1,1,0,0,1,.418-.919l-4.1,2.384a1,1,0,0,0-.418.919,2.069,2.069,0,0,0,.019.28Z" fill="#858585"/>
            </g>
          </g>
          <g id="Grupo_131141" data-name="Grupo 131141" style="isolation: isolate">
            <g id="Grupo_131140" data-name="Grupo 131140" style="isolation: isolate">
              <path id="Trazado_191952" data-name="Trazado 191952" d="M122.731-295.784l4.1-2.384-4.11,2.389Z" fill="#9e9e9e"/>
              <path id="Trazado_191953" data-name="Trazado 191953" d="M122.723-295.779l4.1-2.384a.6.6,0,0,1-.072.035l-4.1,2.384c.025-.011.049-.022.072-.035Z" fill="#a3a3a3"/>
              <path id="Trazado_191954" data-name="Trazado 191954" d="M122.651-295.744l4.1-2.384c-.024.01-.05.019-.076.027l-4.1,2.383a.609.609,0,0,0,.075-.026Z" fill="#a8a8a8"/>
              <path id="Trazado_191955" data-name="Trazado 191955" d="M122.576-295.718l4.1-2.383c-.026.007-.052.013-.08.018l-4.1,2.384a.718.718,0,0,0,.08-.019Z" fill="#adadad"/>
              <path id="Trazado_191956" data-name="Trazado 191956" d="M122.5-295.7l4.1-2.384a.81.81,0,0,1-.086.01l-4.1,2.384a.829.829,0,0,0,.087-.01Z" fill="#b3b3b3"/>
              <path id="Trazado_191957" data-name="Trazado 191957" d="M122.409-295.689l4.1-2.384a.757.757,0,0,1-.1,0l-4.1,2.384c.033,0,.064,0,.095,0Z" fill="#f2f2f2"/>
              <path id="Trazado_191958" data-name="Trazado 191958" d="M122.314-295.688l4.1-2.384a.809.809,0,0,1-.107-.011l-4.1,2.384a1,1,0,0,0,.106.011Z" fill="#bdbdbd"/>
              <path id="Trazado_191959" data-name="Trazado 191959" d="M122.208-295.7l4.1-2.384a1.014,1.014,0,0,1-.126-.027l-4.1,2.384a1.009,1.009,0,0,0,.126.027Z" fill="#c2c2c2"/>
              <path id="Trazado_191960" data-name="Trazado 191960" d="M122.082-295.726l4.1-2.384a1.2,1.2,0,0,1-.168-.058l-4.1,2.384a1.411,1.411,0,0,0,.169.058Z" fill="#c7c7c7"/>
              <path id="Trazado_191961" data-name="Trazado 191961" d="M121.913-295.784l4.1-2.384a1.7,1.7,0,0,1-.2-.1l-4.1,2.383a1.621,1.621,0,0,0,.2.1Z" fill="#ccc"/>
            </g>
          </g>
          <g id="Grupo_131143" data-name="Grupo 131143" style="isolation: isolate">
            <g id="Grupo_131142" data-name="Grupo 131142" style="isolation: isolate">
              <path id="Trazado_191962" data-name="Trazado 191962" d="M120.305-298.074l4.1-2.384a2.229,2.229,0,0,1-.018-.28,1,1,0,0,1,.418-.919l-4.1,2.384a1,1,0,0,0-.418.919,2.069,2.069,0,0,0,.019.28Z" fill="#858585"/>
            </g>
          </g>
          <g id="Grupo_131145" data-name="Grupo 131145" style="isolation: isolate">
            <g id="Grupo_131144" data-name="Grupo 131144" style="isolation: isolate">
              <path id="Trazado_191963" data-name="Trazado 191963" d="M122.731-295.784l4.1-2.384a1,1,0,0,0,.417-.918l-4.1,2.384a1,1,0,0,1-.417.918Z" fill="#434343"/>
            </g>
          </g>
          <g id="Grupo_131147" data-name="Grupo 131147" style="isolation: isolate">
            <g id="Grupo_131146" data-name="Grupo 131146" style="isolation: isolate">
              <path id="Trazado_191964" data-name="Trazado 191964" d="M121.722-299.174l4.1-2.383a1.625,1.625,0,0,0-.2-.1l-4.1,2.384a1.764,1.764,0,0,1,.2.1Z" fill="#666"/>
              <path id="Trazado_191965" data-name="Trazado 191965" d="M121.522-299.273l4.1-2.384a1.411,1.411,0,0,0-.169-.058l-4.1,2.384a1.4,1.4,0,0,1,.168.058Z" fill="#646464"/>
              <path id="Trazado_191966" data-name="Trazado 191966" d="M121.354-299.331l4.1-2.384a1.246,1.246,0,0,0-.126-.027l-4.1,2.384a1.02,1.02,0,0,1,.126.027Z" fill="#616161"/>
              <path id="Trazado_191967" data-name="Trazado 191967" d="M121.228-299.358l4.1-2.384c-.036-.005-.071-.009-.106-.011l-4.1,2.384a1.014,1.014,0,0,1,.107.011Z" fill="#5f5f5f"/>
              <path id="Trazado_191968" data-name="Trazado 191968" d="M121.121-299.369l4.1-2.384c-.032,0-.064,0-.1,0l-4.1,2.384c.031,0,.063,0,.1,0Z" fill="#5c5c5c"/>
              <path id="Trazado_191969" data-name="Trazado 191969" d="M121.026-299.368l4.1-2.384a.81.81,0,0,0-.086.01l-4.1,2.384a.81.81,0,0,1,.086-.01Z" fill="#5a5a5a"/>
              <path id="Trazado_191970" data-name="Trazado 191970" d="M120.94-299.358l4.1-2.384a.686.686,0,0,0-.081.019l-4.1,2.383c.026-.007.053-.013.08-.018Z" fill="#575757"/>
              <path id="Trazado_191971" data-name="Trazado 191971" d="M120.86-299.34l4.1-2.383a.478.478,0,0,0-.075.027l-4.1,2.383c.024-.01.05-.019.076-.027Z" fill="#545454"/>
              <path id="Trazado_191972" data-name="Trazado 191972" d="M120.784-299.313l4.1-2.383a.6.6,0,0,0-.072.035l-4.1,2.383c.023-.013.047-.024.072-.035Z" fill="#525252"/>
              <path id="Trazado_191973" data-name="Trazado 191973" d="M120.712-299.278l4.1-2.383-4.11,2.388Z" fill="#4f4f4f"/>
            </g>
          </g>
          <g id="Grupo_131149" data-name="Grupo 131149" style="isolation: isolate">
            <g id="Grupo_131148" data-name="Grupo 131148" style="isolation: isolate">
              <path id="Trazado_191974" data-name="Trazado 191974" d="M123.148-296.7l4.1-2.384a2.241,2.241,0,0,0-.018-.28l-4.1,2.384a2.055,2.055,0,0,1,.018.28Z" fill="#434343"/>
              <path id="Trazado_191975" data-name="Trazado 191975" d="M123.13-296.982l4.1-2.384c-.009-.066-.02-.132-.034-.2l-4.1,2.383c.014.067.026.133.034.2Z" fill="#454545"/>
              <path id="Trazado_191976" data-name="Trazado 191976" d="M123.1-297.181l4.1-2.383c-.012-.055-.025-.11-.041-.165l-4.1,2.384c.015.055.028.109.04.164Z" fill="#484848"/>
              <path id="Trazado_191977" data-name="Trazado 191977" d="M123.056-297.345l4.1-2.384c-.013-.049-.028-.1-.044-.146l-4.1,2.384c.016.048.031.1.045.146Z" fill="#4a4a4a"/>
              <path id="Trazado_191978" data-name="Trazado 191978" d="M123.011-297.491l4.1-2.384c-.015-.045-.031-.09-.049-.135l-4.1,2.383c.017.045.033.091.048.136Z" fill="#4d4d4d"/>
              <path id="Trazado_191979" data-name="Trazado 191979" d="M122.963-297.627l4.1-2.383c-.016-.043-.034-.086-.052-.129l-4.1,2.384c.019.043.036.085.053.128Z" fill="#4f4f4f"/>
              <path id="Trazado_191980" data-name="Trazado 191980" d="M122.91-297.755l4.1-2.384c-.018-.041-.037-.083-.057-.124l-4.1,2.384c.02.041.039.082.057.124Z" fill="#525252"/>
              <path id="Trazado_191981" data-name="Trazado 191981" d="M122.853-297.879l4.1-2.384c-.02-.041-.04-.082-.062-.122l-4.1,2.384c.022.04.042.081.062.122Z" fill="#545454"/>
              <path id="Trazado_191982" data-name="Trazado 191982" d="M122.791-298l4.1-2.384c-.021-.04-.044-.081-.067-.12l-4.1,2.383c.023.04.046.08.067.121Z" fill="#575757"/>
              <path id="Trazado_191983" data-name="Trazado 191983" d="M122.724-298.122l4.1-2.383c-.024-.041-.049-.082-.074-.122l-4.1,2.384c.026.04.05.08.074.121Z" fill="#5a5a5a"/>
              <path id="Trazado_191984" data-name="Trazado 191984" d="M122.65-298.243l4.1-2.384c-.027-.041-.055-.083-.083-.123l-4.1,2.383c.029.041.056.082.083.124Z" fill="#5c5c5c"/>
              <path id="Trazado_191985" data-name="Trazado 191985" d="M122.567-298.367l4.1-2.383c-.031-.044-.063-.087-.1-.129l-4.1,2.383c.033.042.065.085.1.129Z" fill="#5f5f5f"/>
              <path id="Trazado_191986" data-name="Trazado 191986" d="M122.472-298.5l4.1-2.383c-.038-.049-.077-.1-.116-.142l-4.1,2.384c.04.045.079.093.116.141Z" fill="#616161"/>
              <path id="Trazado_191987" data-name="Trazado 191987" d="M122.356-298.637l4.1-2.384c-.051-.058-.1-.113-.157-.166l-4.1,2.383c.053.053.106.109.156.167Z" fill="#646464"/>
              <path id="Trazado_191988" data-name="Trazado 191988" d="M122.2-298.8l4.1-2.383a2.34,2.34,0,0,0-.477-.37l-4.1,2.383a2.389,2.389,0,0,1,.478.37Z" fill="#666"/>
            </g>
          </g>
          <g id="Grupo_131151" data-name="Grupo 131151" style="isolation: isolate">
            <g id="Grupo_131150" data-name="Grupo 131150" style="isolation: isolate">
              <path id="Trazado_191989" data-name="Trazado 191989" d="M141.466-283.837l4.1-2.384a2.33,2.33,0,0,0,.971-2.134l-4.1,2.383a2.329,2.329,0,0,1-.971,2.135Z" fill="#858585"/>
            </g>
          </g>
          <g id="Grupo_131152" data-name="Grupo 131152">
            <path id="Trazado_191990" data-name="Trazado 191990" d="M142.437-285.972c-.006,2.112-1.5,2.964-3.339,1.9L104.317-304.15A7.311,7.311,0,0,1,101-309.895l.009-3.014,41.437,23.924Zm-20.724-9.912c.79.457,1.433.09,1.435-.818a3.144,3.144,0,0,0-1.426-2.472c-.79-.456-1.433-.089-1.436.82a3.143,3.143,0,0,0,1.427,2.47Z" fill="#f2f2f2"/>
          </g>
          <g id="Grupo_131153" data-name="Grupo 131153">
            <path id="Trazado_191991" data-name="Trazado 191991" d="M121.722-299.174c-.79-.456-1.433-.089-1.436.82a3.143,3.143,0,0,0,1.427,2.47c.79.457,1.433.09,1.435-.818A3.144,3.144,0,0,0,121.722-299.174Z" fill="#f2f2f2"/>
          </g>
          <g id="Grupo_131154" data-name="Grupo 131154">
            <path id="Trazado_191992" data-name="Trazado 191992" d="M142.446-288.985l4.1-2.384L105.11-315.292l-4.1,2.384Z" fill="#dbdbdb"/>
          </g>
          <g id="Grupo_131155" data-name="Grupo 131155">
            <path id="Trazado_191993" data-name="Trazado 191993" d="M142.437-285.972l4.1-2.384.009-3.013-4.1,2.384Z" fill="#888"/>
          </g>
        </g>
      </g>
      <g id="Grupo_131162" data-name="Grupo 131162">
        <g id="Grupo_131161" data-name="Grupo 131161" style="isolation: isolate">
          <g id="Grupo_131158" data-name="Grupo 131158">
            <path id="Trazado_191994" data-name="Trazado 191994" d="M143.634-289.653l2.918-1.7.222-78.173-2.918,1.7Z" fill="#818181"/>
          </g>
          <g id="Grupo_131159" data-name="Grupo 131159">
            <path id="Trazado_191995" data-name="Trazado 191995" d="M143.855-367.826l2.918-1.7-41.438-23.924-2.918,1.7Z" fill="#d0d0d0"/>
          </g>
          <g id="Grupo_131160" data-name="Grupo 131160">
            <path id="Trazado_191996" data-name="Trazado 191996" d="M102.417-391.75l-.222,78.173,41.438,23.924.222-78.173Z" fill="#bbb"/>
          </g>
        </g>
      </g>
      <g id="Grupo_131167" data-name="Grupo 131167">
        <g id="Grupo_131166" data-name="Grupo 131166" style="isolation: isolate">
          <g id="Grupo_131163" data-name="Grupo 131163">
            <path id="Trazado_191997" data-name="Trazado 191997" d="M142.463-288.925l1.876-1.09.222-78.173-1.876,1.09Z" fill="#1b3f5e"/>
          </g>
          <g id="Grupo_131164" data-name="Grupo 131164">
            <path id="Trazado_191998" data-name="Trazado 191998" d="M142.685-367.1l1.876-1.09-41.437-23.924-1.876,1.09Z" fill="#1b3f5e"/>
          </g>
          <g id="Grupo_131165" data-name="Grupo 131165">
            <path id="Trazado_191999" data-name="Trazado 191999" d="M101.248-391.022l-.222,78.173,41.437,23.924.222-78.173Z" fill="#245580"/>
          </g>
        </g>
      </g>
      <g id="Grupo_131194" data-name="Grupo 131194">
        <g id="Grupo_131193" data-name="Grupo 131193" style="isolation: isolate">
          <g id="Grupo_131169" data-name="Grupo 131169" style="isolation: isolate">
            <g id="Grupo_131168" data-name="Grupo 131168" style="isolation: isolate">
              <path id="Trazado_192000" data-name="Trazado 192000" d="M104.6-395.944l4.1-2.384a4.214,4.214,0,0,0-.467-.232l-4.1,2.384a4.033,4.033,0,0,1,.466.232Z" fill="#ccc"/>
              <path id="Trazado_192001" data-name="Trazado 192001" d="M104.138-396.176l4.1-2.384a3.319,3.319,0,0,0-.392-.135l-4.1,2.384a3.383,3.383,0,0,1,.392.135Z" fill="#c7c7c7"/>
              <path id="Trazado_192002" data-name="Trazado 192002" d="M103.746-396.311l4.1-2.384a2.5,2.5,0,0,0-.292-.062l-4.1,2.383a2.744,2.744,0,0,1,.293.063Z" fill="#c2c2c2"/>
              <path id="Trazado_192003" data-name="Trazado 192003" d="M103.453-396.374l4.1-2.383a2.175,2.175,0,0,0-.248-.025l-4.1,2.383a2.394,2.394,0,0,1,.248.025Z" fill="#bdbdbd"/>
              <path id="Trazado_192004" data-name="Trazado 192004" d="M103.205-396.4l4.1-2.383a1.8,1.8,0,0,0-.221,0l-4.1,2.383c.072,0,.145-.005.22,0Z" fill="#f2f2f2"/>
              <path id="Trazado_192005" data-name="Trazado 192005" d="M102.985-396.4l4.1-2.383a1.9,1.9,0,0,0-.2.023l-4.1,2.384a1.836,1.836,0,0,1,.2-.024Z" fill="#b3b3b3"/>
              <path id="Trazado_192006" data-name="Trazado 192006" d="M102.784-396.373l4.1-2.384a1.861,1.861,0,0,0-.186.043l-4.1,2.384a1.635,1.635,0,0,1,.187-.043Z" fill="#adadad"/>
              <path id="Trazado_192007" data-name="Trazado 192007" d="M102.6-396.33l4.1-2.384a1.659,1.659,0,0,0-.176.062l-4.1,2.384a1.531,1.531,0,0,1,.176-.062Z" fill="#a8a8a8"/>
              <path id="Trazado_192008" data-name="Trazado 192008" d="M102.421-396.268l4.1-2.384a1.521,1.521,0,0,0-.167.082l-4.1,2.383a1.718,1.718,0,0,1,.167-.081Z" fill="#a3a3a3"/>
              <path id="Trazado_192009" data-name="Trazado 192009" d="M102.254-396.187l4.1-2.383-4.12,2.394Z" fill="#9e9e9e"/>
            </g>
          </g>
          <g id="Grupo_131170" data-name="Grupo 131170">
            <path id="Trazado_192010" data-name="Trazado 192010" d="M112.845-387.256l4.1-2.384,0-1.011-4.1,2.384Z" fill="#888"/>
          </g>
          <g id="Grupo_131171" data-name="Grupo 131171">
            <path id="Trazado_192011" data-name="Trazado 192011" d="M131.122-376.7l4.1-2.384L116.946-389.64l-4.1,2.384Z" fill="#dbdbdb"/>
          </g>
          <g id="Grupo_131172" data-name="Grupo 131172">
            <path id="Trazado_192012" data-name="Trazado 192012" d="M131.125-377.714l4.1-2.384L116.949-390.65l-4.1,2.384Z" fill="#6e6e6e"/>
          </g>
          <g id="Grupo_131173" data-name="Grupo 131173">
            <path id="Trazado_192013" data-name="Trazado 192013" d="M131.122-376.7l4.1-2.384,0-1.011-4.1,2.384Z" fill="#444"/>
          </g>
          <g id="Grupo_131175" data-name="Grupo 131175" style="isolation: isolate">
            <g id="Grupo_131174" data-name="Grupo 131174" style="isolation: isolate">
              <path id="Trazado_192014" data-name="Trazado 192014" d="M136.483-372.989l4.1-2.384a1.627,1.627,0,0,1-.326-.253l-4.1,2.384a1.664,1.664,0,0,0,.326.253Z" fill="#ccc"/>
            </g>
          </g>
          <g id="Grupo_131177" data-name="Grupo 131177" style="isolation: isolate">
            <g id="Grupo_131176" data-name="Grupo 131176" style="isolation: isolate">
              <path id="Trazado_192015" data-name="Trazado 192015" d="M136.483-372.989l4.1-2.384a1.627,1.627,0,0,1-.326-.253l-4.1,2.384a1.664,1.664,0,0,0,.326.253Z" fill="#ccc"/>
              <path id="Trazado_192016" data-name="Trazado 192016" d="M136.157-373.242l4.1-2.384c-.037-.036-.073-.074-.107-.114l-4.1,2.384c.035.04.07.078.107.114Z" fill="#c7c7c7"/>
              <path id="Trazado_192017" data-name="Trazado 192017" d="M136.05-373.356l4.1-2.384c-.027-.031-.054-.063-.079-.1l-4.1,2.383c.026.034.052.066.079.1Z" fill="#c2c2c2"/>
              <path id="Trazado_192018" data-name="Trazado 192018" d="M135.971-373.453l4.1-2.383c-.023-.029-.044-.058-.065-.088l-4.1,2.383c.021.03.043.06.065.088Z" fill="#bdbdbd"/>
              <path id="Trazado_192019" data-name="Trazado 192019" d="M135.906-373.541l4.1-2.383c-.02-.028-.039-.056-.057-.085l-4.1,2.384c.019.028.037.057.057.084Z" fill="#f2f2f2"/>
              <path id="Trazado_192020" data-name="Trazado 192020" d="M135.849-373.625l4.1-2.384-.051-.083-4.1,2.384c.016.028.033.056.05.083Z" fill="#b3b3b3"/>
              <path id="Trazado_192021" data-name="Trazado 192021" d="M135.8-373.708l4.1-2.384c-.015-.027-.031-.054-.045-.082l-4.1,2.384c.015.027.03.055.046.082Z" fill="#adadad"/>
              <path id="Trazado_192022" data-name="Trazado 192022" d="M135.753-373.79l4.1-2.384c-.015-.027-.029-.055-.043-.083l-4.1,2.384c.013.028.027.055.042.083Z" fill="#a8a8a8"/>
              <path id="Trazado_192023" data-name="Trazado 192023" d="M135.711-373.873l4.1-2.384c-.013-.028-.026-.056-.038-.085l-4.1,2.384c.012.028.025.056.039.085Z" fill="#a3a3a3"/>
              <path id="Trazado_192024" data-name="Trazado 192024" d="M135.672-373.958l4.1-2.384c-.013-.029-.025-.058-.036-.088l-4.1,2.384c.011.029.023.059.036.088Z" fill="#9e9e9e"/>
              <path id="Trazado_192025" data-name="Trazado 192025" d="M135.636-374.046l4.1-2.384c-.012-.03-.023-.061-.033-.092l-4.1,2.384c.01.031.021.061.033.092Z" fill="#999"/>
              <path id="Trazado_192026" data-name="Trazado 192026" d="M135.6-374.138l4.1-2.384c-.011-.033-.022-.066-.031-.1l-4.1,2.383c.009.033.019.067.03.1Z" fill="#949494"/>
              <path id="Trazado_192027" data-name="Trazado 192027" d="M135.573-374.238l4.1-2.383c-.01-.038-.019-.075-.027-.113l-4.1,2.384c.008.037.017.075.028.112Z" fill="#8f8f8f"/>
              <path id="Trazado_192028" data-name="Trazado 192028" d="M135.545-374.35l4.1-2.384q-.015-.067-.024-.135l-4.1,2.384c.006.044.013.09.023.135Z" fill="#8a8a8a"/>
              <path id="Trazado_192029" data-name="Trazado 192029" d="M135.522-374.485l4.1-2.384a1.568,1.568,0,0,1-.012-.191.686.686,0,0,1,.285-.627l-4.1,2.384a.684.684,0,0,0-.285.626,1.4,1.4,0,0,0,.013.192Z" fill="#858585"/>
            </g>
          </g>
          <g id="Grupo_131179" data-name="Grupo 131179" style="isolation: isolate">
            <g id="Grupo_131178" data-name="Grupo 131178" style="isolation: isolate">
              <path id="Trazado_192030" data-name="Trazado 192030" d="M137.179-372.921l4.1-2.384-4.107,2.387Z" fill="#9e9e9e"/>
              <path id="Trazado_192031" data-name="Trazado 192031" d="M137.174-372.918l4.1-2.383-.049.023-4.1,2.384c.016-.007.033-.015.049-.024Z" fill="#a3a3a3"/>
              <path id="Trazado_192032" data-name="Trazado 192032" d="M137.125-372.894l4.1-2.384a.441.441,0,0,1-.051.019l-4.1,2.383a.453.453,0,0,0,.052-.018Z" fill="#a8a8a8"/>
              <path id="Trazado_192033" data-name="Trazado 192033" d="M137.073-372.876l4.1-2.383a.485.485,0,0,1-.055.012l-4.1,2.384a.487.487,0,0,0,.055-.013Z" fill="#adadad"/>
              <path id="Trazado_192034" data-name="Trazado 192034" d="M137.018-372.863l4.1-2.384a.382.382,0,0,1-.059.007l-4.1,2.384a.556.556,0,0,0,.059-.007Z" fill="#b3b3b3"/>
              <path id="Trazado_192035" data-name="Trazado 192035" d="M136.959-372.856l4.1-2.384a.469.469,0,0,1-.065,0l-4.1,2.383Z" fill="#f2f2f2"/>
              <path id="Trazado_192036" data-name="Trazado 192036" d="M136.9-372.856l4.1-2.383a.645.645,0,0,1-.073-.008l-4.1,2.384a.622.622,0,0,0,.073.007Z" fill="#bdbdbd"/>
              <path id="Trazado_192037" data-name="Trazado 192037" d="M136.822-372.863l4.1-2.384a.729.729,0,0,1-.086-.018l-4.1,2.384a.689.689,0,0,0,.086.018Z" fill="#c2c2c2"/>
              <path id="Trazado_192038" data-name="Trazado 192038" d="M136.736-372.881l4.1-2.384a.828.828,0,0,1-.115-.04l-4.1,2.384a1.124,1.124,0,0,0,.115.04Z" fill="#c7c7c7"/>
              <path id="Trazado_192039" data-name="Trazado 192039" d="M136.621-372.921l4.1-2.384a1.091,1.091,0,0,1-.137-.068l-4.1,2.384a1.255,1.255,0,0,0,.138.068Z" fill="#ccc"/>
            </g>
          </g>
          <g id="Grupo_131181" data-name="Grupo 131181" style="isolation: isolate">
            <g id="Grupo_131180" data-name="Grupo 131180" style="isolation: isolate">
              <path id="Trazado_192040" data-name="Trazado 192040" d="M137.179-372.921l4.1-2.384a.686.686,0,0,0,.285-.627l-4.1,2.384a.686.686,0,0,1-.285.627Z" fill="#434343"/>
            </g>
          </g>
          <g id="Grupo_131183" data-name="Grupo 131183" style="isolation: isolate">
            <g id="Grupo_131182" data-name="Grupo 131182" style="isolation: isolate">
              <path id="Trazado_192041" data-name="Trazado 192041" d="M136.49-375.235l4.1-2.384a1.234,1.234,0,0,0-.136-.068l-4.1,2.384a1.089,1.089,0,0,1,.137.068Z" fill="#666"/>
              <path id="Trazado_192042" data-name="Trazado 192042" d="M136.353-375.3l4.1-2.384a.984.984,0,0,0-.115-.04l-4.1,2.384a.785.785,0,0,1,.115.04Z" fill="#646464"/>
              <path id="Trazado_192043" data-name="Trazado 192043" d="M136.238-375.343l4.1-2.384a.735.735,0,0,0-.086-.018l-4.1,2.383c.028.005.057.011.086.019Z" fill="#616161"/>
              <path id="Trazado_192044" data-name="Trazado 192044" d="M136.152-375.362l4.1-2.383a.622.622,0,0,0-.073-.007l-4.1,2.383c.024,0,.048,0,.073.007Z" fill="#5f5f5f"/>
              <path id="Trazado_192045" data-name="Trazado 192045" d="M136.079-375.369l4.1-2.383h-.065l-4.1,2.384a.471.471,0,0,1,.065,0Z" fill="#5c5c5c"/>
              <path id="Trazado_192046" data-name="Trazado 192046" d="M136.014-375.368l4.1-2.384a.564.564,0,0,0-.059.007l-4.1,2.384a.4.4,0,0,1,.059-.007Z" fill="#5a5a5a"/>
              <path id="Trazado_192047" data-name="Trazado 192047" d="M135.955-375.361l4.1-2.384a.336.336,0,0,0-.055.013l-4.1,2.383a.467.467,0,0,1,.054-.012Z" fill="#575757"/>
              <path id="Trazado_192048" data-name="Trazado 192048" d="M135.9-375.349l4.1-2.383a.437.437,0,0,0-.051.018l-4.1,2.383a.453.453,0,0,1,.052-.018Z" fill="#545454"/>
              <path id="Trazado_192049" data-name="Trazado 192049" d="M135.849-375.331l4.1-2.383a.457.457,0,0,0-.05.024l-4.1,2.383.049-.024Z" fill="#525252"/>
              <path id="Trazado_192050" data-name="Trazado 192050" d="M135.8-375.307l4.1-2.383-4.107,2.387Z" fill="#4f4f4f"/>
            </g>
          </g>
          <g id="Grupo_131185" data-name="Grupo 131185" style="isolation: isolate">
            <g id="Grupo_131184" data-name="Grupo 131184" style="isolation: isolate">
              <path id="Trazado_192051" data-name="Trazado 192051" d="M137.464-373.548l4.1-2.384a1.393,1.393,0,0,0-.013-.191l-4.1,2.383a1.569,1.569,0,0,1,.012.192Z" fill="#434343"/>
              <path id="Trazado_192052" data-name="Trazado 192052" d="M137.452-373.74l4.1-2.383c-.006-.045-.013-.09-.023-.136l-4.1,2.384q.015.068.024.135Z" fill="#454545"/>
              <path id="Trazado_192053" data-name="Trazado 192053" d="M137.428-373.875l4.1-2.384c-.008-.037-.017-.075-.028-.112l-4.1,2.383c.01.038.019.075.027.113Z" fill="#484848"/>
              <path id="Trazado_192054" data-name="Trazado 192054" d="M137.4-373.988l4.1-2.383c-.009-.033-.019-.067-.03-.1l-4.1,2.384c.011.033.022.066.031.1Z" fill="#4a4a4a"/>
              <path id="Trazado_192055" data-name="Trazado 192055" d="M137.37-374.087l4.1-2.384c-.01-.031-.021-.061-.033-.092l-4.1,2.384c.012.03.023.061.033.092Z" fill="#4d4d4d"/>
              <path id="Trazado_192056" data-name="Trazado 192056" d="M137.337-374.179l4.1-2.384c-.011-.029-.023-.059-.036-.088l-4.1,2.384c.013.029.025.058.036.088Z" fill="#4f4f4f"/>
              <path id="Trazado_192057" data-name="Trazado 192057" d="M137.3-374.267l4.1-2.384q-.018-.042-.039-.084l-4.1,2.383c.013.028.026.057.038.085Z" fill="#525252"/>
              <path id="Trazado_192058" data-name="Trazado 192058" d="M137.263-374.352l4.1-2.383c-.013-.028-.027-.056-.042-.083l-4.1,2.383.043.083Z" fill="#545454"/>
              <path id="Trazado_192059" data-name="Trazado 192059" d="M137.22-374.435l4.1-2.383c-.015-.028-.03-.056-.046-.083l-4.1,2.384c.015.027.031.055.045.082Z" fill="#575757"/>
              <path id="Trazado_192060" data-name="Trazado 192060" d="M137.175-374.517l4.1-2.384c-.016-.028-.033-.055-.05-.082l-4.1,2.383c.018.028.034.055.051.083Z" fill="#5a5a5a"/>
              <path id="Trazado_192061" data-name="Trazado 192061" d="M137.124-374.6l4.1-2.383c-.018-.029-.037-.057-.057-.085l-4.1,2.384c.019.028.038.056.056.084Z" fill="#5c5c5c"/>
              <path id="Trazado_192062" data-name="Trazado 192062" d="M137.068-374.684l4.1-2.384c-.021-.03-.042-.059-.065-.088l-4.1,2.384c.022.029.044.058.065.088Z" fill="#5f5f5f"/>
              <path id="Trazado_192063" data-name="Trazado 192063" d="M137-374.772l4.1-2.384c-.025-.033-.052-.065-.079-.1l-4.1,2.383c.027.032.053.064.079.1Z" fill="#616161"/>
              <path id="Trazado_192064" data-name="Trazado 192064" d="M136.924-374.869l4.1-2.383c-.034-.04-.07-.078-.107-.114l-4.1,2.384c.036.036.072.074.107.113Z" fill="#646464"/>
              <path id="Trazado_192065" data-name="Trazado 192065" d="M136.817-374.982l4.1-2.384a1.6,1.6,0,0,0-.327-.253l-4.1,2.384a1.6,1.6,0,0,1,.327.253Z" fill="#666"/>
            </g>
          </g>
          <g id="Grupo_131186" data-name="Grupo 131186">
            <path id="Trazado_192066" data-name="Trazado 192066" d="M136.49-375.235c-.54-.312-.979-.062-.981.558a2.153,2.153,0,0,0,.974,1.688c.541.312.979.061.981-.559A2.146,2.146,0,0,0,136.49-375.235Z" fill="#f2f2f2"/>
          </g>
          <g id="Grupo_131187" data-name="Grupo 131187">
            <path id="Trazado_192067" data-name="Trazado 192067" d="M139.385-375.863a7.311,7.311,0,0,1,3.317,5.745l-.008,3.014-41.437-23.924.008-3.013c.006-2.112,1.5-2.965,3.339-1.9Zm-26.54-11.393L131.122-376.7l0-1.01-18.278-10.553,0,1.011Zm23.638,14.267c.541.312.979.061.981-.559a2.146,2.146,0,0,0-.974-1.687c-.54-.312-.979-.062-.981.558a2.153,2.153,0,0,0,.974,1.688Z" fill="#f2f2f2"/>
          </g>
          <g id="Grupo_131188" data-name="Grupo 131188">
            <path id="Trazado_192068" data-name="Trazado 192068" d="M112.847-388.267l0,1.011L131.122-376.7l0-1.011Z" fill="#636363"/>
          </g>
          <g id="Grupo_131189" data-name="Grupo 131189">
            <path id="Trazado_192069" data-name="Trazado 192069" d="M142.694-367.1l4.1-2.384.009-3.013-4.1,2.384Z" fill="#888"/>
          </g>
          <g id="Grupo_131190" data-name="Grupo 131190">
            <path id="Trazado_192070" data-name="Trazado 192070" d="M139.385-375.863l4.1-2.384-34.781-20.081-4.1,2.384Z" fill="#dbdbdb"/>
          </g>
          <g id="Grupo_131192" data-name="Grupo 131192" style="isolation: isolate">
            <g id="Grupo_131191" data-name="Grupo 131191" style="isolation: isolate">
              <path id="Trazado_192071" data-name="Trazado 192071" d="M142.7-370.118l4.1-2.383a4.986,4.986,0,0,0-.042-.651l-4.1,2.383a4.994,4.994,0,0,1,.042.651Z" fill="#858585"/>
              <path id="Trazado_192072" data-name="Trazado 192072" d="M142.66-370.769l4.1-2.383c-.02-.153-.047-.307-.08-.462l-4.1,2.384c.033.154.059.308.079.461Z" fill="#8a8a8a"/>
              <path id="Trazado_192073" data-name="Trazado 192073" d="M142.581-371.23l4.1-2.384c-.027-.127-.058-.254-.093-.382l-4.1,2.384c.035.127.067.255.094.382Z" fill="#8f8f8f"/>
              <path id="Trazado_192074" data-name="Trazado 192074" d="M142.487-371.612l4.1-2.384c-.032-.113-.066-.226-.1-.339l-4.1,2.384c.037.113.072.226.1.339Z" fill="#949494"/>
              <path id="Trazado_192075" data-name="Trazado 192075" d="M142.384-371.951l4.1-2.384c-.035-.105-.072-.21-.112-.314l-4.1,2.384c.04.1.078.209.113.314Z" fill="#999"/>
              <path id="Trazado_192076" data-name="Trazado 192076" d="M142.271-372.265l4.1-2.384c-.039-.1-.08-.2-.123-.3l-4.1,2.384c.043.1.083.2.122.3Z" fill="#9e9e9e"/>
              <path id="Trazado_192077" data-name="Trazado 192077" d="M142.149-372.564l4.1-2.384c-.042-.1-.086-.193-.132-.288l-4.1,2.383c.046.1.09.192.132.289Z" fill="#a3a3a3"/>
              <path id="Trazado_192078" data-name="Trazado 192078" d="M142.017-372.853l4.1-2.383c-.046-.1-.094-.19-.143-.283l-4.1,2.383c.05.094.1.188.144.283Z" fill="#a8a8a8"/>
              <path id="Trazado_192079" data-name="Trazado 192079" d="M141.873-373.136l4.1-2.383c-.05-.1-.1-.188-.156-.281l-4.1,2.384c.054.092.106.186.156.28Z" fill="#adadad"/>
              <path id="Trazado_192080" data-name="Trazado 192080" d="M141.717-373.416l4.1-2.384c-.056-.1-.113-.189-.172-.281l-4.1,2.383c.059.093.116.187.172.282Z" fill="#b3b3b3"/>
              <path id="Trazado_192081" data-name="Trazado 192081" d="M141.545-373.7l4.1-2.383c-.063-.1-.127-.194-.193-.288l-4.1,2.384c.066.094.131.19.193.287Z" fill="#f2f2f2"/>
              <path id="Trazado_192082" data-name="Trazado 192082" d="M141.352-373.985l4.1-2.384q-.108-.153-.222-.3l-4.1,2.383c.076.1.15.2.221.3Z" fill="#bdbdbd"/>
              <path id="Trazado_192083" data-name="Trazado 192083" d="M141.131-374.286l4.1-2.383q-.13-.17-.27-.329l-4.1,2.384c.092.106.182.216.27.328Z" fill="#c2c2c2"/>
              <path id="Trazado_192084" data-name="Trazado 192084" d="M140.861-374.614l4.1-2.384q-.176-.2-.363-.387L140.5-375c.125.123.246.253.364.388Z" fill="#c7c7c7"/>
              <path id="Trazado_192085" data-name="Trazado 192085" d="M140.5-375l4.1-2.383a5.6,5.6,0,0,0-1.112-.862l-4.1,2.384A5.54,5.54,0,0,1,140.5-375Z" fill="#ccc"/>
            </g>
          </g>
        </g>
      </g>
    </g>
    <g id="Grupo_131246" data-name="Grupo 131246">
      <g id="Grupo_131197" data-name="Grupo 131197" style="isolation: isolate">
        <g id="Grupo_131196" data-name="Grupo 131196">
          <path id="Trazado_192086" data-name="Trazado 192086" d="M107.038-342c0,.029,0,.056,0,.082a.1.1,0,0,0,.055.1l.04.022c.021.013.042.026.064.038l3.131,1.808c.042.024.085.053.129.08a.215.215,0,0,0,.01-.1c0-.364,0-.728,0-1.093,0-.122,0-.123-.113-.188q-.887-.515-1.773-1.026l-.167-.1c-.028-.016-.056-.032-.083-.049l-.049-.028-.031-.018c-.08-.046-.069-.053-.068-.2q0-1.149.006-2.3c0-.151-.01-.17.071-.123l.067.039.564.326.281.162a.68.68,0,0,1,.06.036l.031.018c.084.048.069.025.069-.14,0-.319,0-.639,0-.958,0-.163-.012-.185.074-.136l.032.019.056.032.289.166.579.336c.111.064.113.065.113-.057,0-.355,0-.712,0-1.068,0-.122,0-.123-.1-.182l-3.226-1.862c-.118-.068-.1-.056-.1.091Z" fill="#fff"/>
        </g>
      </g>
      <g id="Grupo_131199" data-name="Grupo 131199" style="isolation: isolate">
        <g id="Grupo_131198" data-name="Grupo 131198">
          <path id="Trazado_192087" data-name="Trazado 192087" d="M117.328-329.325l-.03-.011a.425.425,0,0,1,.01.152l0,1.052c0,.1,0,.109.091.161l2.106,1.216c.086.049.088.047.088-.047,0-.372,0-.746.005-1.119a.136.136,0,0,0-.076-.143Q118.424-328.689,117.328-329.325Z" fill="#fff"/>
        </g>
      </g>
      <g id="Grupo_131201" data-name="Grupo 131201" style="isolation: isolate">
        <g id="Grupo_131200" data-name="Grupo 131200">
          <path id="Trazado_192088" data-name="Trazado 192088" d="M110.362-335.979l-1.051-.607q0,.656,0,1.31l1.139.658c.014-.249,0-.513.008-.768,0-.145,0-.29,0-.437C110.456-335.923,110.454-335.926,110.362-335.979Z" fill="#fff"/>
        </g>
      </g>
      <g id="Grupo_131202" data-name="Grupo 131202">
        <path id="Trazado_192089" data-name="Trazado 192089" d="M114.971-338.583c-.329-.188-.657-.379-.987-.568-.081-.047-.083-.046-.083.057,0,.185,0,.373,0,.56s0,.374,0,.559a.13.13,0,0,0,.075.133c.141.08.281.16.422.242l.578.335c.05.029.07.023.07-.037q0-.582,0-1.163A.122.122,0,0,0,114.971-338.583Z" fill="#fff"/>
      </g>
      <g id="Grupo_131204" data-name="Grupo 131204" style="isolation: isolate">
        <g id="Grupo_131203" data-name="Grupo 131203">
          <path id="Trazado_192090" data-name="Trazado 192090" d="M132.2-331.423c0,.048.01.105-.012.138a.884.884,0,0,0,.091.064l.962.556c.1.057.1.057.1-.051l0-1.106c0-.1,0-.1-.087-.149l-.962-.555c-.091-.051-.093-.05-.094.051Z" fill="#fff"/>
        </g>
      </g>
      <g id="Grupo_131205" data-name="Grupo 131205">
        <path id="Trazado_192091" data-name="Trazado 192091" d="M130.23-327.142l-.1-.054c-.125-.061-.215-.017-.234.114a.973.973,0,0,0,0,.122q0,1.6-.009,3.2a.935.935,0,0,0,0,.139.542.542,0,0,0,.229.366c.023.015.048.029.072.043l2.82,1.628c.023.013.046.027.071.04.132.066.221.016.232-.127,0-.041,0-.083,0-.122,0-.529,0-1.057,0-1.587s0-1.056,0-1.585c0-.041,0-.082,0-.124a.529.529,0,0,0-.218-.387c-.015-.011-.031-.02-.046-.029l-.062-.035Z" fill="#fff"/>
      </g>
      <g id="Grupo_131207" data-name="Grupo 131207" style="isolation: isolate">
        <g id="Grupo_131206" data-name="Grupo 131206">
          <path id="Trazado_192092" data-name="Trazado 192092" d="M119.673-355.495c0,.368,0,.736,0,1.107,0,.1,0,.1.087.148.3.177.609.351.915.53.042.024.086.051.13.078a.253.253,0,0,0,.01-.109c0-.361,0-.719,0-1.079,0-.122,0-.125-.1-.182l-.939-.542C119.675-355.6,119.673-355.6,119.673-355.495Z" fill="#fff"/>
        </g>
      </g>
      <g id="Grupo_131208" data-name="Grupo 131208">
        <path id="Trazado_192093" data-name="Trazado 192093" d="M107.107-339.175c-.082-.047-.077-.034-.077.1q0,1.169-.007,2.337v.041c0,.1,0,.106.094.159l1.043.6c0-.048.007-.094.007-.141l0-1.024c0-.141,0-.141.121-.072.338.193.677.389,1.017.584.013-.407,0-.825.009-1.235a.106.106,0,0,0-.053-.1l-.033-.018-.048-.028-2.021-1.167Z" fill="#fff"/>
      </g>
      <g id="Grupo_131232" data-name="Grupo 131232" style="isolation: isolate">
        <g id="Grupo_131209" data-name="Grupo 131209">
          <path id="Trazado_192094" data-name="Trazado 192094" d="M107.125-335.217c-.1-.061-.106-.06-.106.057l0,1.081c0,.113,0,.115.1.17l3.237,1.869.038.024c.032.018.059.024.059-.041,0-.417.01-.822,0-1.243-.295-.173-.59-.341-.886-.514-.023-.013-.05-.025-.075-.036s-.048-.022-.071-.035a.209.209,0,0,1-.083-.079c-.056-.1-.019-.192-.02-.287,0-.342,0-.682,0-1.023l-1.141-.658c0,.4,0,.811,0,1.215,0,.1,0,.1-.086.049Z" fill="#fff"/>
        </g>
        <g id="Grupo_131210" data-name="Grupo 131210">
          <path id="Trazado_192095" data-name="Trazado 192095" d="M110.584-339.8l.619.358.311.178c.1.055.1.054.1-.057l.007-2.393c0-.118,0-.121-.1-.179-.314-.184-.627-.362-.941-.545-.1-.056-.1-.059-.1-.168,0-.357,0-.712,0-1.068,0-.133,0-.133.116-.067l.083.048,4.2,2.427.083.048c.084.045.086.046.086-.049,0-.369,0-.737,0-1.108,0-.1,0-.108-.09-.16l-.941-.543c-.111-.064-.111-.065-.11-.189l0-1.081c0-.105,0-.108-.092-.161l-.94-.543c-.11-.063-.111-.062-.112.064l0,1.08c0,.1,0,.1-.092.053l-.917-.529-.059-.034c-.084-.049-.076-.055-.075-.2l.006-2.352c0-.12,0-.121-.1-.18-.314-.183-.627-.361-.941-.545-.1-.055-.1-.058-.1-.168,0-.361,0-.722,0-1.08,0-.119,0-.121.1-.061l4.463,2.577c0,.341,0,.68,0,1.025,0,.094-.036.191.02.286a.216.216,0,0,0,.084.078c.046.027.1.045.145.071q1.015.589,2.03,1.173c0,.35,0,.7,0,1.051,0,.085.036.213-.019.237-.021.01-.048,0-.079-.018s-.088-.062-.129-.085l-.27-.156-.539-.312c-.1-.058-.106-.059-.107.059q0,1.2-.006,2.393c0,.113,0,.116.109.178l1.938,1.119.121.071.065.036a.1.1,0,0,1,.053.092c-.006.407.007.826-.016,1.235a.3.3,0,0,0,.078.056c.336.194.672.388,1.006.579.02.012.039.017.058.027a.344.344,0,0,1,.012.15c0,.351,0,.7,0,1.053,0,.126,0,.126.109.189q1.585.918,3.174,1.835l.139.08c0,.036.006.073.006.108l-.006,2.34c0,.036,0,.073,0,.11s.015.08.094.125l.064.038,3.12,1.8c.037.022.066.037.087.049.076.044.064.055.064.213-.006,2.075-.012,4.15-.018,6.279,0,.112,0,.114-.1.059l-.941-.543c-.1-.061-.1-.062-.106-.182v-.068q0-1.128.007-2.256c0-.038,0-.075,0-.11s-.012-.081-.089-.124l-.054-.032-1.319-.761-.659-.381-.093-.053c-.087-.05-.071-.059-.071-.229l.007-2.314c0-.125,0-.126-.109-.188l-.93-.537c-.1-.06-.1-.058-.105.06v.081q-.006,2.352-.013,4.706c0,.083,0,.166,0,.246,0,.1,0,.1-.086.051l-.953-.55c-.1-.06-.1-.061-.1-.181v-.068c0-.757.006-1.514.006-2.271,0-.17.015-.16-.1-.224l-.05-.028-2.035-1.176c-.1-.059-.1-.062-.1-.18l0-1.04c0-.139.007-.149-.065-.191-.018-.01-.041-.022-.069-.039-.683-.4-1.366-.788-2.048-1.184-.1-.06-.105-.06-.105-.181,0-.364,0-.728,0-1.093,0-.1,0-.1-.085-.148l-.319-.185c-.211-.122-.423-.243-.634-.366-.1-.059-.1-.057-.1.061,0,.36,0,.722,0,1.08,0,.109,0,.11-.1.054q-.235-.134-.47-.27l-.47-.272c-.1-.059-.1-.06-.1-.18l0-1.081c0-.11,0-.113-.1-.169l-.965-.557c-.087-.05-.078-.036-.079.1l-.006,2.326c0,.027,0,.055,0,.081,0,.049.017.08.1.125l.062.037,3.084,1.78,1.216.7c.112.065.114.068.113.188l0,1.1c0,.034.006.074-.012.1-.047-.029-.1-.06-.141-.087q-3.279-1.891-6.558-3.786-.075-.043-.15-.09l0-1.309c.349.2.7.4,1.044.6.1.058.1.057.1-.049q0-1.2.007-2.407c0-.11,0-.113-.1-.169l-.953-.55c-.1-.057-.091-.057-.092-.188v-.1c0-.748.006-1.494.006-2.244a.476.476,0,0,0-.007-.149.243.243,0,0,1,.073.032Zm6.738,5.636,0,.766c0,.117,0,.119.106.18l2.047,1.181.069.039c.072.042.064.051.063.192,0,.351,0,.7,0,1.053,0,.1,0,.107.092.159l.482.28q.24.139.482.277c.084.049.086.048.086-.047q0-1.234.007-2.463a.188.188,0,0,0-.012-.082,1.59,1.59,0,0,1-.169-.086l-.085-.05-.114-.068-.218-.125-.436-.253c-.108-.062-.108-.064-.108-.191,0-.357,0-.711,0-1.068,0-.116,0-.118-.1-.178l-.927-.536c-.108-.062-.11-.065-.109-.191q0-1.176,0-2.352a.415.415,0,0,0-.013-.165.465.465,0,0,1-.1-.047c-.04-.023-.08-.05-.121-.073l-.786-.452c-.12-.07-.12-.07-.12.074l-.012,4.226Zm-4.561-6.859q0,1.821-.01,3.641c0,.14-.012.142.082.2l.044.026,3.179,1.835.039.022.031.019c.037.021.056.013.054-.04,0-.031,0-.063,0-.1q0-.9,0-1.806t.005-1.793c0-.027,0-.055,0-.081a.129.129,0,0,0-.078-.142.256.256,0,0,1-.029-.014l-.03-.018-3.154-1.821c-.014-.008-.027-.015-.079-.047s-.064-.013-.059.05c0,.024,0,.045,0,.068Zm8.041,8.438.03.017.962.556c.1.058.1.057.1-.049l0-1.108c0-.1,0-.1-.086-.148l-.964-.557c-.09-.05-.092-.049-.092.053,0,.349,0,.7-.005,1.051a.3.3,0,0,1-.01.14.248.248,0,0,0,.06.045Z" fill="#fff"/>
        </g>
        <g id="Grupo_131211" data-name="Grupo 131211">
          <path id="Trazado_192096" data-name="Trazado 192096" d="M123.05-335.172v.108c0,.38,0,.762-.007,1.14l1.141.659c0-.165.007-.33.006-.5,0-.271.009-.537,0-.814l-1.03-.594-.059-.035C123.064-335.224,123.05-335.211,123.05-335.172Z" fill="#fff"/>
        </g>
        <g id="Grupo_131212" data-name="Grupo 131212">
          <path id="Trazado_192097" data-name="Trazado 192097" d="M119.62-337.342c0,.038.009.086-.01.112a.281.281,0,0,0,.068.051l.045.025,2.059,1.189c.123.07.125.07.125-.05q0-1.06.006-2.12c0-.1,0-.189,0-.287s0-.1-.086-.148l-.832-.481-.1-.059c-.017-.009-.034-.02-.051-.03-.054-.032-.072-.018-.071.038,0,.111,0,.219,0,.328,0,.264,0,.529,0,.794,0,.111,0,.112-.1.057l-.939-.542c-.105-.06-.106-.06-.106.057C119.622-338.053,119.623-337.7,119.62-337.342Z" fill="#fff"/>
        </g>
        <g id="Grupo_131213" data-name="Grupo 131213">
          <path id="Trazado_192098" data-name="Trazado 192098" d="M111.7-352.311a.222.222,0,0,0-.064-.028.486.486,0,0,1,.008.15l-.006,2.325c0,.14-.01.143.082.2l.044.025.892.515.057.033c.072.042.068.028.068-.1l0-1.04c0-.133-.006-.142.09-.087.365.213.705.409,1.045.606a.337.337,0,0,0,.008-.125q.006-1.173.008-2.349c0-.138.007-.146-.067-.188l-.059-.034-.3-.172-.6-.343-.047-.028c-.086-.049-.078-.035-.078.1l0,1.039c0,.124,0,.123-.112.06-.3-.174-.61-.353-.915-.527Z" fill="#fff"/>
        </g>
        <g id="Grupo_131214" data-name="Grupo 131214">
          <path id="Trazado_192099" data-name="Trazado 192099" d="M120.775-341.813c0,.33,0,.658,0,.984,0,.075,0,.147,0,.219,0,.114,0,.116.1.171l.155.09.309.178.325.188.163.093c.092.053.1.053.1-.045,0-.4,0-.808,0-1.214C121.536-341.373,121.156-341.593,120.775-341.813Z" fill="#fff"/>
        </g>
        <g id="Grupo_131215" data-name="Grupo 131215">
          <path id="Trazado_192100" data-name="Trazado 192100" d="M119.5-343.864,117.35-345.1q0,.657,0,1.311c.332.191.663.383,1,.579l.086.048c.074.043.062.054.063.212l-.007,2.325c0,.126,0,.128.109.191q.238.137.476.274c.159.091.317.183.476.277.058.033.09.036.083-.044,0-.032,0-.063,0-.1,0-.77,0-1.541.007-2.309,0-.133,0-.133.117-.065l1.019.588a.273.273,0,0,0,.006-.064q0-1.234.007-2.469c0-.03,0-.063-.006-.1l-1.139-.656c0,.38,0,.763,0,1.143,0,.156.013.179-.064.135l-.029-.018Z" fill="#fff"/>
        </g>
        <g id="Grupo_131216" data-name="Grupo 131216">
          <path id="Trazado_192101" data-name="Trazado 192101" d="M114.323-349.481l.188.107.187.11c.094.054.188.108.28.159s.1.054.1-.059c0-.035,0-.072,0-.11,0-.759,0-1.522.008-2.281,0-.118,0-.12.1-.059l1.031.6c0,.342,0,.681,0,1.024,0,.1-.037.193.019.286a.22.22,0,0,0,.085.081c.047.026.1.044.145.07.133.077.265.155.4.231l.4.229c.092.053.1.053.1-.046,0-.4,0-.808,0-1.213l1.031.6.048.028c.069.04.067.049.067.172v.068l-.007,2.255c0,.03,0,.063,0,.1a.111.111,0,0,0,.07.116l.067.038.136.079.784.453c.083.049.083.051.084.149,0,.082,0,.164,0,.246,0,.32.006.648-.008.963q-1.076-.621-2.152-1.241l-.067-.04c-.024-.014-.047-.026-.065,0,0,.428.007.859-.006,1.278l-2.284-1.319c0-.4,0-.807.006-1.212v-.041a.091.091,0,0,0-.051-.085l-.028-.015-.055-.033-.9-.522c-.1-.059-.1-.062-.1-.182,0-.2,0-.41,0-.617,0-.19.012-.374,0-.572a1.828,1.828,0,0,1,.168.089C114.169-349.573,114.246-349.525,114.323-349.481Zm1.89,2.307c0,.1,0,.1.087.149l.916.529c.043.025.085.053.128.079a.208.208,0,0,0,.013-.109l0-1.079c0-.122,0-.125-.1-.182l-.94-.543c-.1-.058-.1-.057-.1.048l0,1.108Z" fill="#fff"/>
        </g>
        <g id="Grupo_131217" data-name="Grupo 131217">
          <path id="Trazado_192102" data-name="Trazado 192102" d="M128.77-335.877l-1.139-.658,0,1.311,1.141.658c.014-.3,0-.622.007-.932A2.844,2.844,0,0,0,128.77-335.877Z" fill="#fff"/>
        </g>
        <g id="Grupo_131218" data-name="Grupo 131218">
          <path id="Trazado_192103" data-name="Trazado 192103" d="M127.623-333.907c0,.378,0,.755,0,1.131,0,.036,0,.075,0,.11a.1.1,0,0,0,.057.107l.029.015.048.029q2.151,1.242,4.3,2.483l.07.041c.072.042.064.024.065-.116l0-1.025a.352.352,0,0,0-.013-.151.187.187,0,0,1-.061-.025c-.019-.011-.037-.023-.056-.033l-2.023-1.168-.039-.024c-.08-.044-.1-.082-.1-.14,0-.26,0-.518,0-.778,0-.114,0-.228,0-.342s0-.109-.09-.16c-.352-.2-.7-.4-1.054-.607q0,.6,0,1.2c0,.115,0,.116-.106.055C128.318-333.507,127.971-333.708,127.623-333.907Z" fill="#fff"/>
        </g>
        <g id="Grupo_131219" data-name="Grupo 131219">
          <path id="Trazado_192104" data-name="Trazado 192104" d="M127.622-331.031c.017-.13.11-.174.233-.111.031.016.064.035.095.053q3.672,2.119,7.346,4.243l.071.039c.012.007.024.014.035.022a.53.53,0,0,1,.218.388c0,.043,0,.083,0,.122q-.006,2.109-.012,4.215t-.012,4.185c0,.037,0,.074,0,.109,0,.2-.095.244-.268.147l-.06-.034-7.345-4.241-.048-.027-.048-.03a.535.535,0,0,1-.23-.381,1.027,1.027,0,0,1,0-.124q.012-4.227.024-8.453A.981.981,0,0,1,127.622-331.031Zm1.136,2.009q-.009,3-.017,6v.056a.33.33,0,0,0,.2.342l5.32,3.071c.157.091.2.068.2-.113q.009-3.055.017-6.114a.321.321,0,0,0-.207-.348l-2.654-1.532-2.607-1.506-.048-.028c-.016-.009-.032-.018-.048-.025-.1-.048-.142-.021-.152.085,0,.035,0,.072,0,.11Z" fill="#fff"/>
        </g>
        <g id="Grupo_131220" data-name="Grupo 131220">
          <path id="Trazado_192105" data-name="Trazado 192105" d="M129.309-336.881l-.531-.307c0,.436,0,.871,0,1.308.355.207.71.412,1.064.62.061.035.083.03.083-.044,0-.378,0-.755,0-1.133a.134.134,0,0,0-.081-.138Q129.575-336.726,129.309-336.881Z" fill="#fff"/>
        </g>
        <g id="Grupo_131221" data-name="Grupo 131221">
          <path id="Trazado_192106" data-name="Trazado 192106" d="M128.691-338.555l-1.053-.608,0,1.311,1.14.658c.015-.249.005-.513.008-.768,0-.145,0-.291,0-.437C128.783-338.5,128.782-338.5,128.691-338.555Z" fill="#fff"/>
        </g>
        <g id="Grupo_131222" data-name="Grupo 131222">
          <path id="Trazado_192107" data-name="Trazado 192107" d="M126.5-341.044c0,.377,0,.755-.006,1.132a.134.134,0,0,0,.076.135c.36.205.712.408,1.062.609.015-.33,0-.674.009-1.012a2.453,2.453,0,0,0,0-.3c-.348-.2-.7-.4-1.043-.6C126.506-341.132,126.5-341.132,126.5-341.044Z" fill="#fff"/>
        </g>
        <g id="Grupo_131223" data-name="Grupo 131223">
          <path id="Trazado_192108" data-name="Trazado 192108" d="M119.654-348.925c0,.365,0,.729,0,1.1,0,.106,0,.108.091.16l1.052.609,1.053.606c.088.051.089.05.09-.056l.01-3.719c0-.112,0-.114-.1-.17l-.987-.57a.46.46,0,0,0-.068-.031.347.347,0,0,1,.01.137c0,.779,0,1.561-.007,2.34,0,.148.011.155-.088.1l-.037-.022-.612-.353-.305-.176C119.656-349.034,119.655-349.033,119.654-348.925Z" fill="#fff"/>
        </g>
        <g id="Grupo_131224" data-name="Grupo 131224">
          <path id="Trazado_192109" data-name="Trazado 192109" d="M120.808-352.4c0,.027,0,.055-.011.07a.537.537,0,0,0,.055.042q.509.293,1.018.59c.049.027.083.046.083-.03,0-.4,0-.8,0-1.2l-.011-.055a.149.149,0,0,1-.057-.022c-.02-.011-.04-.025-.06-.036-.3-.171-.6-.346-.9-.517-.02-.012-.04-.025-.06-.036a.229.229,0,0,0-.065-.028.557.557,0,0,1,.009.082Z" fill="#fff"/>
        </g>
        <g id="Grupo_131225" data-name="Grupo 131225">
          <path id="Trazado_192110" data-name="Trazado 192110" d="M120.9-345.683l2.061,1.189c.111.064.112.067.112.2l0,1.052c0,.122,0,.125.1.183l.941.543c.1.058.1.057.1-.065l.007-2.381c0-.122,0-.123-.113-.189l-.6-.343-.3-.173-.065-.037c-.082-.047-.072-.054-.072-.193,0-.328,0-.658,0-.985,0-.16-.012-.184.07-.137l.081.047,5.417,3.128c.019.011.038.023.094.054a.1.1,0,0,1,.055.1c0,.071,0,.146,0,.219,0,.338.006.686-.009,1.018l-2.126-1.224-.084-.049c-.082-.048-.07-.025-.071.132l0,1c0,.132.006.146-.069.1l-.05-.03-.917-.529c-.105-.061-.107-.06-.107.055q-.007,1.854-.01,3.707c0,.117,0,.117.1.177q1.087.631,2.175,1.258c.013.278,0,.544,0,.815,0,.165-.005.33-.007.495l-1.031-.593c-.105-.059-.107-.06-.107.057l0,1.079c0,.114,0,.117.106.178l1.031.6c.013.278,0,.542,0,.815,0,.165-.006.327-.008.493l-.971-.557-.089-.052c-.091-.052-.076-.028-.078.143l-.01,3.622c0,.125,0,.134-.072.09l-.034-.02-2.07-1.2c-.11-.063-.11-.065-.109-.191,0-.394,0-.79,0-1.186l1.04.6c.105.06.105.06.105-.056q0-.546,0-1.092c0-.1,0-.105-.091-.157l-1.053-.612c0-.394,0-.788.006-1.183,0-.124,0-.124.111-.061l.941.543c.089.051.09.05.091-.054,0-.8.006-1.613.007-2.42,0-.1,0-.1-.083-.148l-.487-.283-.488-.28c-.083-.048-.084-.047-.084.052,0,.363,0,.731-.005,1.094,0,.115,0,.117-.1.056l-.928-.535c-.108-.063-.109-.065-.109-.191l.007-2.352a.394.394,0,0,0-.014-.163.625.625,0,0,1-.1-.049c-.041-.023-.081-.05-.122-.074q-.453-.258-.913-.528c0-.043.007-.084.007-.128,0-.777,0-1.556.007-2.333v-.042c0-.117,0-.119-.105-.178-.346-.2-.693-.4-1.04-.6,0-.382,0-.763.005-1.146,0-.032,0-.062,0-.095C120.788-345.731,120.809-345.738,120.9-345.683Zm2.209,5.222.031.018.482.279.482.277c.1.057.1.058.1-.05,0-.367,0-.737,0-1.106,0-.1,0-.1-.086-.148l-.481-.279-.481-.277c-.093-.053-.094-.052-.094.05,0,.352,0,.7,0,1.053a.3.3,0,0,1-.011.14.274.274,0,0,0,.059.043Z" fill="#fff"/>
        </g>
        <g id="Grupo_131226" data-name="Grupo 131226">
          <path id="Trazado_192111" data-name="Trazado 192111" d="M123.1-352.15q0,1.794-.01,3.583c0,.036,0,.075,0,.11a.118.118,0,0,0,.067.127l.505.29.5.29c.05.028.077.029.072-.034a.512.512,0,0,1,0-.068q.006-1.841.009-3.68c0-.04,0-.081,0-.121l-1.139-.658C123.1-352.257,123.1-352.2,123.1-352.15Z" fill="#fff"/>
        </g>
        <g id="Grupo_131227" data-name="Grupo 131227">
          <path id="Trazado_192112" data-name="Trazado 192112" d="M125.948-349.349l-.475-.274c-.089-.051-.091-.05-.091.056q0,.607-.005,1.216c0,.391,0,.784,0,1.177,0,.124,0,.125.1.183l.951.549c.089.052.091.049.091-.055q0-1.2.007-2.407c0-.112,0-.112-.1-.168Z" fill="#fff"/>
        </g>
        <g id="Grupo_131228" data-name="Grupo 131228">
          <path id="Trazado_192113" data-name="Trazado 192113" d="M135.578-334.579l-.069-.04-.3-.174c-.2-.117-.4-.232-.6-.348-.1-.058-.1-.058-.1.063,0,.354,0,.711,0,1.066,0,.123,0,.123-.113.059-1.055-.607-2.111-1.219-3.167-1.827-.034-.019-.061-.036-.081-.048-.083-.047-.069-.023-.069.138,0,.336,0,.674,0,1.011,0,.125,0,.125.113.189l3.168,1.831.086.048c.075.043.062.054.062.214q0,1.8-.009,3.612c0,.153-.011.147.1.21l.037.021.892.515.041.024c.079.046.074.034.074-.094q0-1.573.009-3.147t.009-3.132C135.643-334.528,135.65-334.538,135.578-334.579Z" fill="#fff"/>
        </g>
        <g id="Grupo_131229" data-name="Grupo 131229">
          <path id="Trazado_192114" data-name="Trazado 192114" d="M118.534-357.719c0,.132-.007.138.076.186l.056.032,3.131,1.808c.166.1.166.1.165.28l-.006,2.285c0,.048.01.1-.012.138a.44.44,0,0,0,.066.05c.361.209.721.417,1.083.624,0-.049.006-.093.006-.142l0-1.065c0-.1,0-.1.085-.052l.487.28.488.283c.081.047.082.05.082.148,0,.4,0,.808-.005,1.209q.849.49,1.7.984l.341.2.172.1c.065.038.079.019.08-.047,0-.377,0-.749,0-1.123,0-.1,0-.1-.085-.148l-.953-.55c-.1-.06-.1-.062-.1-.18,0-.362,0-.723,0-1.081,0-.111,0-.112.1-.056l.94.543c.1.058.1.058.1-.061l0-1.081c0-.111,0-.112-.1-.169q-.312-.182-.626-.361l-.314-.182c-.1-.06-.1-.062-.1-.18,0-.36,0-.72,0-1.082,0-.109,0-.112-.1-.167q-.236-.138-.471-.273c-.156-.091-.313-.181-.469-.27-.1-.06-.1-.06-.1.058q0,1.172-.008,2.34c0,.153.012.175-.065.13l-.03-.017-.05-.029-.3-.173-.6-.349c-.092-.054-.094-.056-.094-.16l0-1.052c0-.033,0-.066,0-.1a.084.084,0,0,0-.044-.083l-.1-.059-3.144-1.815-.066-.038c-.086-.05-.074-.055-.074-.2,0-.353,0-.7,0-1.055,0-.1,0-.1-.083-.148l-.483-.28-.482-.278c-.093-.053-.094-.052-.094.063l0,1.149Z" fill="#fff"/>
        </g>
        <g id="Grupo_131230" data-name="Grupo 131230">
          <path id="Trazado_192115" data-name="Trazado 192115" d="M128.685-341.191c.106.061.107.061.108-.053,0-.4,0-.8,0-1.2q.516.3,1.033.6l.045.026c.073.042.067.03.069-.1,0-.337,0-.676,0-1.013,0-.151-.01-.171.071-.125l.078.046,5.022,2.9.3.173.151.088c.089.052.091.054.091.159,0,.361,0,.721,0,1.08v.068c0,.038-.014.05-.05.029l-.083-.048q-.459-.266-.917-.527c-.09-.053-.092-.052-.092.052,0,.369,0,.739,0,1.108,0,.1,0,.1.087.149s.145.085.218.127l.437.251.221.13.117.065a.114.114,0,0,1,.063.118c0,.075,0,.153,0,.23,0,.3,0,.6,0,.9,0,.1,0,.094-.086.049l-.072-.041-2-1.155c-.022-.012-.044-.027-.066-.04a.284.284,0,0,0-.072-.032.263.263,0,0,1,.01.1l0,1.1c0,.119,0,.119-.1.06l-3.214-1.855c-.11-.064-.11-.066-.11-.19,0-.362,0-.722,0-1.082,0-.106,0-.108-.09-.16l-.583-.336-1.615-.936c0-.394,0-.787.007-1.181,0-.126,0-.127.109-.065Zm2.4,1.284c0,.1,0,.1.085.148l.319.185.634.366c.1.058.1.061.1.179,0,.361,0,.72,0,1.081,0,.111,0,.114.1.17l.9.522c.043.025.086.054.128.08a.238.238,0,0,0,.013-.122l.006-2.366c0-.027,0-.057,0-.084a.089.089,0,0,0-.051-.084c-.024-.013-.047-.028-.072-.043l-2.034-1.174-.036-.021c-.089-.048-.091-.049-.091.055,0,.369,0,.739,0,1.108Z" fill="#fff"/>
        </g>
        <g id="Grupo_131231" data-name="Grupo 131231">
          <path id="Trazado_192116" data-name="Trazado 192116" d="M127.685-354.649c.012-.157.107-.206.272-.119l.048.028,7.369,4.255.063.035.032.02a.528.528,0,0,1,.218.386c0,.039,0,.074,0,.11q-.012,4.227-.024,8.455c0,.041,0,.083,0,.121a.135.135,0,0,1-.207.125.7.7,0,0,1-.071-.037l-.048-.028-3.679-2.124L128-345.532l-.1-.055a.538.538,0,0,1-.246-.417c0-.037,0-.073,0-.109q.012-4.215.024-8.426C127.685-354.577,127.684-354.614,127.685-354.649Zm1.374,8.415q.654.372,1.308.751l1.31.757,2.606,1.5.054.032.054.029c.076.035.122.009.13-.073a.751.751,0,0,0,0-.107q.009-3.024.017-6.046v-.068a.312.312,0,0,0-.166-.292l-.082-.047-5.213-3.01-.085-.049c-.115-.061-.164-.035-.171.094,0,.031,0,.065,0,.1q-.009,3-.018,5.989a.4.4,0,0,0,.252.441Z" fill="#fff"/>
        </g>
      </g>
      <g id="Grupo_131233" data-name="Grupo 131233">
        <path id="Trazado_192117" data-name="Trazado 192117" d="M110.509-354.207c0,.367,0,.737,0,1.107,0,.1,0,.1.086.147.306.179.611.353.915.53.044.025.087.052.131.079a.253.253,0,0,0,.01-.109l0-1.079c0-.122,0-.124-.1-.181-.157-.092-.313-.183-.47-.273s-.313-.181-.47-.27C110.511-354.314,110.509-354.313,110.509-354.207Z" fill="#fff"/>
      </g>
      <g id="Grupo_131234" data-name="Grupo 131234">
        <path id="Trazado_192118" data-name="Trazado 192118" d="M107.075-354.883c0,.374,0,.75,0,1.121a.137.137,0,0,0,.083.141c.164.093.328.188.493.283l.494.286c.044.025.075.039.075-.027,0-.407,0-.812,0-1.219l-.009-.039a.221.221,0,0,1-.058-.025c-.02-.011-.039-.025-.059-.036-.305-.174-.611-.353-.915-.527C107.078-354.98,107.077-354.979,107.075-354.883Z" fill="#fff"/>
      </g>
      <g id="Grupo_131237" data-name="Grupo 131237" style="isolation: isolate">
        <g id="Grupo_131235" data-name="Grupo 131235">
          <path id="Trazado_192119" data-name="Trazado 192119" d="M107.108-366.528c.011-.157.1-.208.271-.121l.047.028,7.369,4.254.064.036a.268.268,0,0,1,.031.02.533.533,0,0,1,.22.387c0,.037,0,.072,0,.109q-.012,4.226-.024,8.454c0,.036,0,.074,0,.109-.01.144-.1.194-.23.128l-.054-.029-.054-.032-3.654-2.109-3.667-2.117-.1-.055a.534.534,0,0,1-.246-.417c0-.038,0-.073,0-.109q.012-4.213.024-8.428C107.108-366.456,107.106-366.493,107.108-366.528Zm1.121,7.975a.4.4,0,0,0,.254.439l3.135,1.806,2.089,1.207c.216.124.239.111.24-.137q0-1.5.008-3.008l.009-2.982v-.11a.307.307,0,0,0-.167-.29l-.082-.048-2.979-1.718c-.745-.43-1.49-.861-2.241-1.3-.237-.137-.248-.05-.249.147q-.006,3-.017,5.991Z" fill="#fff"/>
        </g>
        <g id="Grupo_131236" data-name="Grupo 131236">
          <path id="Trazado_192120" data-name="Trazado 192120" d="M109.684-362.691c-.183-.1-.3-.043-.3.176,0,1.087,0,2.171-.006,3.255v.041a.523.523,0,0,0,.269.458l1.453.841c.291.167.581.332.871.5.182.1.363.21.545.318s.295.056.294-.162c0-1.1.005-2.189.006-3.283a.513.513,0,0,0-.289-.5l-1.066-.616Q110.571-362.174,109.684-362.691Z" fill="#fff"/>
        </g>
      </g>
      <g id="Grupo_131239" data-name="Grupo 131239" style="isolation: isolate">
        <g id="Grupo_131238" data-name="Grupo 131238">
          <path id="Trazado_192121" data-name="Trazado 192121" d="M116.231-353.516q0,1.155-.006,2.31c0,.062,0,.124,0,.185l1.141.659c0-.038.006-.075.006-.114l.007-2.385a.343.343,0,0,0-.013-.139,2.488,2.488,0,0,1-.222-.116l-.112-.066-.151-.089-.178-.1-.357-.207C116.233-353.643,116.231-353.642,116.231-353.516Z" fill="#fff"/>
        </g>
      </g>
      <g id="Grupo_131240" data-name="Grupo 131240">
        <path id="Trazado_192122" data-name="Trazado 192122" d="M116.327-357.535c-.081-.047-.083-.044-.085.054l-.006,2.421c0,.1,0,.1.1.158l.314.182.627.361c.1.063.106.063.1.18l0,1.093c0,.032,0,.067-.011.087a.328.328,0,0,0,.068.05l.059.032.915.529c.111.064.113.067.112.189l0,1.052c0,.135-.01.132.1.193l.956.552c.089.051.091.05.091-.056,0-.358,0-.719.005-1.077,0-.126,0-.128.109-.065l1.021.6c.016-.017.012-.05.012-.081l0-1.151a.212.212,0,0,0-.013-.1.183.183,0,0,1-.061-.025c-.019-.01-.037-.023-.056-.033l-1.35-.779-.674-.39-.054-.031c-.089-.051-.078-.055-.077-.2q0-1.145.006-2.285a.761.761,0,0,1,0-.1.129.129,0,0,0-.083-.139Q117.385-356.924,116.327-357.535Z" fill="#fff"/>
      </g>
      <g id="Grupo_131241" data-name="Grupo 131241">
        <path id="Trazado_192123" data-name="Trazado 192123" d="M107.167-350.982c-.1-.057-.1-.057-.1.048l0,1.1c0,.108,0,.111.1.169q.522.3,1.048.607l1.023.589c.113.065.113.065.113-.058,0-.354,0-.71,0-1.066,0-.122,0-.124-.1-.181Z" fill="#fff"/>
      </g>
      <g id="Grupo_131242" data-name="Grupo 131242">
        <path id="Trazado_192124" data-name="Trazado 192124" d="M109.428-352.309c-.05-.029-.071-.022-.071.044,0,.383,0,.765,0,1.148a.121.121,0,0,0,.067.12l.507.291.506.294c.056.032.065.007.066-.045q0-.344,0-.685c0-.136,0-.274,0-.411s0-.137-.112-.2l-.466-.269-.325-.187-.162-.1Z" fill="#fff"/>
      </g>
      <g id="Grupo_131243" data-name="Grupo 131243">
        <path id="Trazado_192125" data-name="Trazado 192125" d="M108.219-354.479a.419.419,0,0,1-.01.14.552.552,0,0,0,.066.048l.665.385.333.192c.086.049.088.048.088-.045,0-.372,0-.746,0-1.12,0-.1,0-.1-.086-.147l-.481-.279-.481-.276c-.092-.053-.094-.053-.094.052Z" fill="#fff"/>
      </g>
      <g id="Grupo_131244" data-name="Grupo 131244">
        <path id="Trazado_192126" data-name="Trazado 192126" d="M116.337-361.478c-.061-.035-.085-.029-.083.045,0,.375,0,.747,0,1.121,0,.1,0,.1.084.15l.234.136c.157.09.313.179.469.27l.143.082c.048.027.1.055.143.084s.07.019.069-.039c0-.2,0-.391,0-.589s0-.374,0-.56a.123.123,0,0,0-.073-.13l-.494-.284Z" fill="#fff"/>
      </g>
      <g id="Grupo_131245" data-name="Grupo 131245">
        <path id="Trazado_192127" data-name="Trazado 192127" d="M131.683-349.987q-.7-.4-1.4-.8l-.056-.033-.028-.016c-.125-.061-.215-.019-.234.114a.936.936,0,0,0,0,.12q0,1.6-.009,3.2c0,.037,0,.072,0,.11a.538.538,0,0,0,.243.4l.061.037,2.818,1.627c.025.014.048.028.072.04.131.066.222.018.232-.125,0-.04,0-.082,0-.123,0-.527,0-1.058,0-1.585s0-1.057,0-1.587c0-.042,0-.082,0-.122a.537.537,0,0,0-.218-.389l-.047-.029-.048-.027Z" fill="#fff"/>
      </g>
    </g>
    <g id="Grupo_131252" data-name="Grupo 131252">
      <g id="Grupo_131247" data-name="Grupo 131247">
        <path id="Trazado_192128" data-name="Trazado 192128" d="M105.133-376.411l-.037,12.95.847.489.034-11.977,7.785,4.494,0-.973Z" fill="#fff"/>
      </g>
      <g id="Grupo_131248" data-name="Grupo 131248">
        <path id="Trazado_192129" data-name="Trazado 192129" d="M105.028-339.341l-.037,12.952,8.631,4.983,0-.973-7.785-4.494.034-11.979Z" fill="#fff"/>
      </g>
      <g id="Grupo_131249" data-name="Grupo 131249">
        <path id="Trazado_192130" data-name="Trazado 192130" d="M136.83-320.98,136.8-309l-7.785-4.494,0,.973,8.631,4.983.037-12.952Z" fill="#fff"/>
      </g>
      <g id="Grupo_131250" data-name="Grupo 131250">
        <path id="Trazado_192131" data-name="Trazado 192131" d="M107.165-350.53l0,1.731,28.412,16.4,0-1.731Z" fill="#d84318"/>
      </g>
      <g id="Grupo_131251" data-name="Grupo 131251">
        <path id="Trazado_192132" data-name="Trazado 192132" d="M129.151-362.545l0,.973,7.785,4.494L136.9-345.1l.847.489.037-12.95Z" fill="#fff"/>
      </g>
    </g>
  </g>
</svg>
