<svg xmlns="http://www.w3.org/2000/svg" width="820" height="441" viewBox="0 0 820 441">
  <g id="Grupo_131485" data-name="Grupo 131485" transform="translate(-390 -688)">
    <path id="Trazado_194421" data-name="Trazado 194421" d="M20,0H800a20,20,0,0,1,20,20V320a20,20,0,0,1-20,20H20A20,20,0,0,1,0,320V20A20,20,0,0,1,20,0Z" transform="translate(390 789)" fill="none"/>
    <path id="Trazado_190595" data-name="Trazado 190595" d="M9.026-5.1H4.052V0H.967V-12.8H9.527v2.382H4.052v2.944H9.026ZM15.732,0a3.344,3.344,0,0,1-.281-.853A2.754,2.754,0,0,1,13.166.176a3.374,3.374,0,0,1-2.285-.813,2.588,2.588,0,0,1-.94-2.043,2.66,2.66,0,0,1,1.143-2.338,5.821,5.821,0,0,1,3.322-.791h.914v-.5q0-1.316-1.134-1.316a.927.927,0,0,0-1.055,1.042H10.169a2.655,2.655,0,0,1,1.173-2.239,4.931,4.931,0,0,1,2.993-.86,4.323,4.323,0,0,1,2.874.888A3.086,3.086,0,0,1,18.29-6.363v4.21a4.311,4.311,0,0,0,.4,2V0ZM13.878-1.934a1.652,1.652,0,0,0,.918-.237,1.487,1.487,0,0,0,.523-.536V-4.228h-.861q-1.547,0-1.547,1.389a.848.848,0,0,0,.272.655A.986.986,0,0,0,13.878-1.934Zm11.03-.738a.684.684,0,0,0-.4-.606,6.016,6.016,0,0,0-1.5-.475A6.853,6.853,0,0,1,21.182-4.4a3.062,3.062,0,0,1-1.1-.971,2.319,2.319,0,0,1-.378-1.31,2.628,2.628,0,0,1,1.081-2.158,4.453,4.453,0,0,1,2.83-.848,4.934,4.934,0,0,1,3.023.853,2.666,2.666,0,0,1,1.143,2.241H24.812q0-1.143-1.2-1.143a1.194,1.194,0,0,0-.782.259.8.8,0,0,0-.316.646.737.737,0,0,0,.387.642,3.654,3.654,0,0,0,1.235.4,10.671,10.671,0,0,1,1.49.378A2.706,2.706,0,0,1,27.765-2.76,2.491,2.491,0,0,1,26.609-.642a5.068,5.068,0,0,1-2.993.817,5.172,5.172,0,0,1-2.18-.439,3.645,3.645,0,0,1-1.494-1.2,2.707,2.707,0,0,1-.536-1.591h2.769a1.145,1.145,0,0,0,.439.962,1.808,1.808,0,0,0,1.081.3,1.422,1.422,0,0,0,.91-.246A.787.787,0,0,0,24.908-2.672ZM33.75.176a4.889,4.889,0,0,1-3.542-1.305,4.507,4.507,0,0,1-1.354-3.4v-.246A5.84,5.84,0,0,1,29.4-7.348a3.955,3.955,0,0,1,1.578-1.727,4.763,4.763,0,0,1,2.461-.611A4.117,4.117,0,0,1,36.6-8.442a4.887,4.887,0,0,1,1.16,3.467v1.151H31.869a2.135,2.135,0,0,0,.694,1.257,2.066,2.066,0,0,0,1.389.457,2.662,2.662,0,0,0,2.2-.984l1.354,1.6A3.784,3.784,0,0,1,35.934-.277,5.3,5.3,0,0,1,33.75.176ZM33.416-7.4q-1.3,0-1.547,1.723h2.988v-.229a1.467,1.467,0,0,0-.36-1.1A1.434,1.434,0,0,0,33.416-7.4ZM49.948,0H46.978V-9.457L44.06-8.6v-2.25L49.676-12.8h.272ZM10.934,23.321a3.9,3.9,0,0,1-1.815,1.393,7.331,7.331,0,0,1-2.711.461,5.258,5.258,0,0,1-2.777-.734,4.889,4.889,0,0,1-1.876-2.087,7.21,7.21,0,0,1-.681-3.138V18.1a6.73,6.73,0,0,1,1.349-4.482,4.7,4.7,0,0,1,3.792-1.591,4.856,4.856,0,0,1,3.226,1.024,4.461,4.461,0,0,1,1.494,2.9H9.246a2.79,2.79,0,0,0-3.023-2.549A2.987,2.987,0,0,0,3.652,14.6a5.82,5.82,0,0,0-.883,3.453V19.1a5.454,5.454,0,0,0,.984,3.426A3.191,3.191,0,0,0,6.416,23.8a5.882,5.882,0,0,0,1.661-.21,2.569,2.569,0,0,0,1.178-.71V20.008H6.293v-1.38h4.641Zm6.5,1.854a4.155,4.155,0,0,1-3.146-1.27,4.714,4.714,0,0,1-1.213-3.4v-.3a5.707,5.707,0,0,1,.541-2.527,4.217,4.217,0,0,1,1.512-1.74,3.8,3.8,0,0,1,2.1-.628,3.562,3.562,0,0,1,2.883,1.222,5.289,5.289,0,0,1,1.028,3.5v.677H14.7a3.38,3.38,0,0,0,.822,2.272,2.583,2.583,0,0,0,2,.866,2.832,2.832,0,0,0,1.459-.352,3.666,3.666,0,0,0,1.046-.932l.993.773A3.993,3.993,0,0,1,17.438,25.176Zm-.2-8.525a2.169,2.169,0,0,0-1.652.716,3.482,3.482,0,0,0-.826,2.008h4.764v-.123a3.1,3.1,0,0,0-.668-1.92A2.042,2.042,0,0,0,17.235,16.65Zm7.33-1.16.053,1.2a3.465,3.465,0,0,1,2.848-1.371q3.015,0,3.041,3.4V25H28.881V18.707a2.189,2.189,0,0,0-.47-1.521,1.884,1.884,0,0,0-1.437-.492,2.347,2.347,0,0,0-1.389.422,2.865,2.865,0,0,0-.932,1.107V25H23.027V15.49Zm12.34,9.686a4.155,4.155,0,0,1-3.146-1.27,4.714,4.714,0,0,1-1.213-3.4v-.3a5.707,5.707,0,0,1,.541-2.527,4.217,4.217,0,0,1,1.512-1.74,3.8,3.8,0,0,1,2.1-.628,3.562,3.562,0,0,1,2.883,1.222,5.289,5.289,0,0,1,1.028,3.5v.677H34.172a3.38,3.38,0,0,0,.822,2.272,2.583,2.583,0,0,0,2,.866,2.832,2.832,0,0,0,1.459-.352,3.666,3.666,0,0,0,1.046-.932l.993.773A3.993,3.993,0,0,1,36.905,25.176Zm-.2-8.525a2.169,2.169,0,0,0-1.652.716,3.482,3.482,0,0,0-.826,2.008h4.764v-.123a3.1,3.1,0,0,0-.668-1.92A2.042,2.042,0,0,0,36.7,16.65Zm10.389.3a4.873,4.873,0,0,0-.8-.062,2.143,2.143,0,0,0-2.171,1.362V25H42.5V15.49h1.582l.026,1.1a2.532,2.532,0,0,1,2.268-1.274,1.661,1.661,0,0,1,.721.123ZM54.105,25a3.416,3.416,0,0,1-.229-1,3.628,3.628,0,0,1-2.707,1.178,3.357,3.357,0,0,1-2.307-.8,2.573,2.573,0,0,1-.9-2.017,2.688,2.688,0,0,1,1.129-2.307,5.325,5.325,0,0,1,3.177-.822h1.582v-.747a1.826,1.826,0,0,0-.51-1.358,2.049,2.049,0,0,0-1.5-.505,2.371,2.371,0,0,0-1.459.439,1.3,1.3,0,0,0-.589,1.063H48.155a2.244,2.244,0,0,1,.505-1.375,3.449,3.449,0,0,1,1.371-1.05,4.613,4.613,0,0,1,1.9-.387,3.759,3.759,0,0,1,2.575.822,2.964,2.964,0,0,1,.967,2.263v4.377a5.351,5.351,0,0,0,.334,2.083V25Zm-2.7-1.239a2.858,2.858,0,0,0,1.45-.4,2.392,2.392,0,0,0,.993-1.028V20.386H52.576q-2.988,0-2.988,1.749a1.48,1.48,0,0,0,.51,1.2A1.959,1.959,0,0,0,51.407,23.761Zm10.433.088a2.342,2.342,0,0,0,1.521-.527A1.855,1.855,0,0,0,64.081,22h1.538a2.949,2.949,0,0,1-.562,1.556,3.7,3.7,0,0,1-1.384,1.178,3.994,3.994,0,0,1-1.833.439,3.918,3.918,0,0,1-3.089-1.3A5.163,5.163,0,0,1,57.6,20.333v-.272a5.725,5.725,0,0,1,.51-2.47,3.883,3.883,0,0,1,1.463-1.679,4.157,4.157,0,0,1,2.254-.6,3.814,3.814,0,0,1,2.659.958,3.424,3.424,0,0,1,1.129,2.487H64.081a2.241,2.241,0,0,0-.7-1.516,2.174,2.174,0,0,0-1.551-.593,2.276,2.276,0,0,0-1.92.892,4.19,4.19,0,0,0-.681,2.58v.308a4.106,4.106,0,0,0,.677,2.531A2.287,2.287,0,0,0,61.84,23.849ZM69.214,25H67.588V15.49h1.626ZM67.456,12.968A.971.971,0,0,1,67.7,12.3a.907.907,0,0,1,.716-.272.922.922,0,0,1,.721.272.96.96,0,0,1,.246.668.929.929,0,0,1-.246.659.938.938,0,0,1-.721.264.924.924,0,0,1-.716-.264A.938.938,0,0,1,67.456,12.968Zm3.929,7.189a5.617,5.617,0,0,1,.549-2.514,4.1,4.1,0,0,1,1.529-1.723,4.163,4.163,0,0,1,2.237-.606,4.01,4.01,0,0,1,3.142,1.345,5.174,5.174,0,0,1,1.2,3.577v.114a5.666,5.666,0,0,1-.532,2.492,4.038,4.038,0,0,1-1.521,1.718,4.211,4.211,0,0,1-2.272.615,4,4,0,0,1-3.133-1.345,5.147,5.147,0,0,1-1.2-3.56Zm1.635.193a4.068,4.068,0,0,0,.734,2.54,2.487,2.487,0,0,0,3.933-.013,4.449,4.449,0,0,0,.729-2.72,4.061,4.061,0,0,0-.743-2.536A2.361,2.361,0,0,0,75.7,16.65a2.335,2.335,0,0,0-1.942.958A4.416,4.416,0,0,0,73.02,20.351ZM76.438,11.5h1.969l-2.355,2.584-1.31,0Zm7.181,3.99.053,1.2a3.465,3.465,0,0,1,2.848-1.371q3.015,0,3.041,3.4V25H87.935V18.707a2.189,2.189,0,0,0-.47-1.521,1.884,1.884,0,0,0-1.437-.492,2.347,2.347,0,0,0-1.389.422,2.865,2.865,0,0,0-.932,1.107V25H82.081V15.49Zm12.454,4.676a5.571,5.571,0,0,1,1.037-3.52,3.529,3.529,0,0,1,5.361-.189V11.5H104.1V25H102.6l-.079-1.02a3.311,3.311,0,0,1-2.716,1.2,3.248,3.248,0,0,1-2.694-1.354,5.634,5.634,0,0,1-1.042-3.533Zm1.626.185a4.218,4.218,0,0,0,.668,2.531,2.159,2.159,0,0,0,1.846.914,2.372,2.372,0,0,0,2.259-1.389V18.039a2.39,2.39,0,0,0-2.241-1.345,2.17,2.17,0,0,0-1.863.923A4.644,4.644,0,0,0,97.7,20.351Zm12.867,4.825a4.155,4.155,0,0,1-3.146-1.27,4.714,4.714,0,0,1-1.213-3.4v-.3a5.707,5.707,0,0,1,.541-2.527,4.217,4.217,0,0,1,1.512-1.74,3.8,3.8,0,0,1,2.1-.628,3.562,3.562,0,0,1,2.883,1.222,5.289,5.289,0,0,1,1.028,3.5v.677h-6.442a3.38,3.38,0,0,0,.822,2.272,2.583,2.583,0,0,0,2,.866,2.832,2.832,0,0,0,1.459-.352,3.666,3.666,0,0,0,1.046-.932l.993.773A3.993,3.993,0,0,1,110.566,25.176Zm-.2-8.525a2.169,2.169,0,0,0-1.652.716,3.482,3.482,0,0,0-.826,2.008h4.764v-.123a3.1,3.1,0,0,0-.668-1.92A2.042,2.042,0,0,0,110.364,16.65ZM3,50H1.371V36.5H3Zm8.473,0a3.416,3.416,0,0,1-.229-1,3.628,3.628,0,0,1-2.707,1.178,3.357,3.357,0,0,1-2.307-.8,2.573,2.573,0,0,1-.9-2.017,2.688,2.688,0,0,1,1.129-2.307,5.325,5.325,0,0,1,3.177-.822h1.582v-.747a1.826,1.826,0,0,0-.51-1.358,2.049,2.049,0,0,0-1.5-.505,2.371,2.371,0,0,0-1.459.439,1.3,1.3,0,0,0-.589,1.063H5.52a2.244,2.244,0,0,1,.505-1.375A3.449,3.449,0,0,1,7.4,40.7a4.613,4.613,0,0,1,1.9-.387,3.759,3.759,0,0,1,2.575.822,2.964,2.964,0,0,1,.967,2.263v4.377a5.351,5.351,0,0,0,.334,2.083V50Zm-2.7-1.239a2.858,2.858,0,0,0,1.45-.4,2.392,2.392,0,0,0,.993-1.028V45.386H9.94q-2.988,0-2.988,1.749a1.48,1.48,0,0,0,.51,1.2A1.959,1.959,0,0,0,8.771,48.761ZM21.384,40.49l.053,1.2a3.465,3.465,0,0,1,2.848-1.371q3.015,0,3.041,3.4V50H25.7V43.707a2.189,2.189,0,0,0-.47-1.521,1.884,1.884,0,0,0-1.437-.492,2.347,2.347,0,0,0-1.389.422,2.865,2.865,0,0,0-.932,1.107V50H19.846V40.49Zm12.34,9.686a4.155,4.155,0,0,1-3.146-1.27,4.714,4.714,0,0,1-1.213-3.4v-.3a5.707,5.707,0,0,1,.541-2.527,4.217,4.217,0,0,1,1.512-1.74,3.8,3.8,0,0,1,2.1-.628A3.562,3.562,0,0,1,36.4,41.536a5.289,5.289,0,0,1,1.028,3.5v.677H30.99a3.38,3.38,0,0,0,.822,2.272,2.583,2.583,0,0,0,2,.866,2.832,2.832,0,0,0,1.459-.352,3.666,3.666,0,0,0,1.046-.932l.993.773A3.993,3.993,0,0,1,33.724,50.176Zm-.2-8.525a2.169,2.169,0,0,0-1.652.716,3.482,3.482,0,0,0-.826,2.008h4.764v-.123a3.1,3.1,0,0,0-.668-1.92A2.042,2.042,0,0,0,33.521,41.65Zm9.606,7.2a2.342,2.342,0,0,0,1.521-.527A1.855,1.855,0,0,0,45.369,47h1.538a2.949,2.949,0,0,1-.562,1.556,3.7,3.7,0,0,1-1.384,1.178,3.994,3.994,0,0,1-1.833.439,3.918,3.918,0,0,1-3.089-1.3,5.163,5.163,0,0,1-1.147-3.546v-.272a5.725,5.725,0,0,1,.51-2.47,3.883,3.883,0,0,1,1.463-1.679,4.157,4.157,0,0,1,2.254-.6,3.814,3.814,0,0,1,2.659.958,3.424,3.424,0,0,1,1.129,2.487H45.369a2.241,2.241,0,0,0-.7-1.516,2.174,2.174,0,0,0-1.551-.593,2.276,2.276,0,0,0-1.92.892,4.19,4.19,0,0,0-.681,2.58v.308a4.106,4.106,0,0,0,.677,2.531A2.287,2.287,0,0,0,43.128,48.849Zm9.554,1.327a4.155,4.155,0,0,1-3.146-1.27,4.714,4.714,0,0,1-1.213-3.4v-.3a5.707,5.707,0,0,1,.541-2.527,4.217,4.217,0,0,1,1.512-1.74,3.8,3.8,0,0,1,2.1-.628,3.562,3.562,0,0,1,2.883,1.222,5.289,5.289,0,0,1,1.028,3.5v.677H49.948a3.38,3.38,0,0,0,.822,2.272,2.583,2.583,0,0,0,2,.866,2.832,2.832,0,0,0,1.459-.352,3.666,3.666,0,0,0,1.046-.932l.993.773A3.993,3.993,0,0,1,52.682,50.176Zm-.2-8.525a2.169,2.169,0,0,0-1.652.716A3.482,3.482,0,0,0,50,44.375h4.764v-.123a3.1,3.1,0,0,0-.668-1.92A2.042,2.042,0,0,0,52.479,41.65Zm11.329,5.827a1.2,1.2,0,0,0-.5-1.024,4.78,4.78,0,0,0-1.731-.628,8.186,8.186,0,0,1-1.96-.633,2.788,2.788,0,0,1-1.072-.879A2.1,2.1,0,0,1,58.2,43.1a2.467,2.467,0,0,1,.989-1.978,3.861,3.861,0,0,1,2.527-.809,3.974,3.974,0,0,1,2.624.835,2.652,2.652,0,0,1,1.006,2.136H63.712a1.468,1.468,0,0,0-.567-1.151,2.124,2.124,0,0,0-1.428-.483,2.223,2.223,0,0,0-1.389.387,1.217,1.217,0,0,0-.5,1.011.986.986,0,0,0,.466.888,5.731,5.731,0,0,0,1.683.571,8.77,8.77,0,0,1,1.973.65,2.878,2.878,0,0,1,1.121.91,2.237,2.237,0,0,1,.365,1.3,2.434,2.434,0,0,1-1.02,2.043,4.277,4.277,0,0,1-2.646.769,4.789,4.789,0,0,1-2.021-.4,3.288,3.288,0,0,1-1.375-1.129,2.722,2.722,0,0,1-.5-1.569H59.5a1.683,1.683,0,0,0,.655,1.3,2.54,2.54,0,0,0,1.613.479,2.622,2.622,0,0,0,1.481-.374A1.148,1.148,0,0,0,63.809,47.478ZM69.319,50H67.693V40.49h1.626ZM67.562,37.968A.971.971,0,0,1,67.8,37.3a.907.907,0,0,1,.716-.272.922.922,0,0,1,.721.272.96.96,0,0,1,.246.668.929.929,0,0,1-.246.659.938.938,0,0,1-.721.264.924.924,0,0,1-.716-.264A.938.938,0,0,1,67.562,37.968Zm3.964,7.2a5.571,5.571,0,0,1,1.037-3.52,3.529,3.529,0,0,1,5.361-.189V36.5H79.55V50H78.056l-.079-1.02a3.311,3.311,0,0,1-2.716,1.2,3.248,3.248,0,0,1-2.694-1.354,5.634,5.634,0,0,1-1.042-3.533Zm1.626.185a4.218,4.218,0,0,0,.668,2.531,2.159,2.159,0,0,0,1.846.914,2.372,2.372,0,0,0,2.259-1.389V43.039a2.39,2.39,0,0,0-2.241-1.345,2.17,2.17,0,0,0-1.863.923A4.644,4.644,0,0,0,73.151,45.351ZM87.943,50a3.416,3.416,0,0,1-.229-1,3.628,3.628,0,0,1-2.707,1.178,3.357,3.357,0,0,1-2.307-.8,2.573,2.573,0,0,1-.9-2.017,2.688,2.688,0,0,1,1.129-2.307,5.325,5.325,0,0,1,3.177-.822h1.582v-.747a1.826,1.826,0,0,0-.51-1.358,2.049,2.049,0,0,0-1.5-.505,2.371,2.371,0,0,0-1.459.439,1.3,1.3,0,0,0-.589,1.063H81.993a2.244,2.244,0,0,1,.505-1.375A3.449,3.449,0,0,1,83.87,40.7a4.613,4.613,0,0,1,1.9-.387,3.759,3.759,0,0,1,2.575.822,2.964,2.964,0,0,1,.967,2.263v4.377a5.351,5.351,0,0,0,.334,2.083V50Zm-2.7-1.239a2.858,2.858,0,0,0,1.45-.4,2.392,2.392,0,0,0,.993-1.028V45.386H86.414q-2.988,0-2.988,1.749a1.48,1.48,0,0,0,.51,1.2A1.959,1.959,0,0,0,85.245,48.761Zm6.223-3.595a5.571,5.571,0,0,1,1.037-3.52,3.529,3.529,0,0,1,5.361-.189V36.5h1.626V50H98l-.079-1.02a3.311,3.311,0,0,1-2.716,1.2,3.248,3.248,0,0,1-2.694-1.354,5.634,5.634,0,0,1-1.042-3.533Zm1.626.185a4.218,4.218,0,0,0,.668,2.531,2.159,2.159,0,0,0,1.846.914,2.372,2.372,0,0,0,2.259-1.389V43.039a2.39,2.39,0,0,0-2.241-1.345,2.17,2.17,0,0,0-1.863.923A4.644,4.644,0,0,0,93.094,45.351Z" transform="translate(1033 856)" fill="#12263f"/>
    <path id="Trazado_190598" data-name="Trazado 190598" d="M-44-5.1h-4.975V0h-3.085V-12.8H-43.5v2.382h-5.476v2.944H-44ZM-37.292,0a3.344,3.344,0,0,1-.281-.853A2.754,2.754,0,0,1-39.858.176a3.374,3.374,0,0,1-2.285-.813,2.588,2.588,0,0,1-.94-2.043,2.66,2.66,0,0,1,1.143-2.338,5.821,5.821,0,0,1,3.322-.791h.914v-.5q0-1.316-1.134-1.316a.927.927,0,0,0-1.055,1.042h-2.962a2.655,2.655,0,0,1,1.173-2.239,4.931,4.931,0,0,1,2.993-.86,4.323,4.323,0,0,1,2.874.888,3.086,3.086,0,0,1,1.081,2.435v4.21a4.311,4.311,0,0,0,.4,2V0Zm-1.854-1.934a1.652,1.652,0,0,0,.918-.237,1.487,1.487,0,0,0,.523-.536V-4.228h-.861q-1.547,0-1.547,1.389a.848.848,0,0,0,.272.655A.986.986,0,0,0-39.146-1.934Zm11.03-.738a.684.684,0,0,0-.4-.606,6.016,6.016,0,0,0-1.5-.475A6.853,6.853,0,0,1-31.843-4.4a3.062,3.062,0,0,1-1.1-.971,2.319,2.319,0,0,1-.378-1.31,2.628,2.628,0,0,1,1.081-2.158,4.453,4.453,0,0,1,2.83-.848,4.934,4.934,0,0,1,3.023.853,2.666,2.666,0,0,1,1.143,2.241h-2.971q0-1.143-1.2-1.143a1.194,1.194,0,0,0-.782.259.8.8,0,0,0-.316.646.737.737,0,0,0,.387.642,3.654,3.654,0,0,0,1.235.4,10.671,10.671,0,0,1,1.49.378A2.706,2.706,0,0,1-25.26-2.76,2.491,2.491,0,0,1-26.416-.642a5.068,5.068,0,0,1-2.993.817,5.172,5.172,0,0,1-2.18-.439,3.645,3.645,0,0,1-1.494-1.2,2.707,2.707,0,0,1-.536-1.591h2.769a1.145,1.145,0,0,0,.439.962,1.808,1.808,0,0,0,1.081.3,1.422,1.422,0,0,0,.91-.246A.787.787,0,0,0-28.116-2.672ZM-19.274.176a4.889,4.889,0,0,1-3.542-1.305,4.507,4.507,0,0,1-1.354-3.4v-.246a5.84,5.84,0,0,1,.541-2.575,3.955,3.955,0,0,1,1.578-1.727,4.763,4.763,0,0,1,2.461-.611,4.117,4.117,0,0,1,3.164,1.244,4.887,4.887,0,0,1,1.16,3.467v1.151h-5.889a2.135,2.135,0,0,0,.694,1.257,2.066,2.066,0,0,0,1.389.457,2.662,2.662,0,0,0,2.2-.984l1.354,1.6A3.784,3.784,0,0,1-17.09-.277,5.3,5.3,0,0,1-19.274.176ZM-19.608-7.4q-1.3,0-1.547,1.723h2.988v-.229a1.467,1.467,0,0,0-.36-1.1A1.434,1.434,0,0,0-19.608-7.4ZM-1.819-5h1.3v2.285h-1.3V0H-4.781V-2.716H-9.729l-.176-1.811,5.124-8.244V-12.8h2.962ZM-7.084-5h2.3V-8.938l-.185.3Zm-94.544,24.824h-3.006V25h-1.7V12.2h4.236a5.014,5.014,0,0,1,3.327.984A3.542,3.542,0,0,1-97.6,16.053a3.445,3.445,0,0,1-.646,2.083,3.856,3.856,0,0,1-1.8,1.327l3.006,5.432V25h-1.811Zm-3.006-1.38h2.593a2.924,2.924,0,0,0,2-.652,2.2,2.2,0,0,0,.743-1.743,2.32,2.32,0,0,0-.708-1.823,3,3,0,0,0-2.043-.643h-2.584Zm13.087,6.732a4.155,4.155,0,0,1-3.146-1.27,4.714,4.714,0,0,1-1.213-3.4v-.3a5.707,5.707,0,0,1,.541-2.527,4.217,4.217,0,0,1,1.512-1.74,3.8,3.8,0,0,1,2.1-.628,3.562,3.562,0,0,1,2.883,1.222,5.289,5.289,0,0,1,1.028,3.5v.677H-94.28a3.38,3.38,0,0,0,.822,2.272,2.583,2.583,0,0,0,2,.866A2.832,2.832,0,0,0-90,23.5a3.666,3.666,0,0,0,1.046-.932l.993.773A3.993,3.993,0,0,1-91.547,25.176Zm-.2-8.525a2.169,2.169,0,0,0-1.652.716,3.482,3.482,0,0,0-.826,2.008h4.764v-.123a3.1,3.1,0,0,0-.668-1.92A2.042,2.042,0,0,0-91.749,16.65Zm9.606,7.2a2.342,2.342,0,0,0,1.521-.527A1.855,1.855,0,0,0-79.9,22h1.538a2.949,2.949,0,0,1-.562,1.556,3.7,3.7,0,0,1-1.384,1.178,3.994,3.994,0,0,1-1.833.439,3.918,3.918,0,0,1-3.089-1.3,5.163,5.163,0,0,1-1.147-3.546v-.272a5.725,5.725,0,0,1,.51-2.47,3.883,3.883,0,0,1,1.463-1.679,4.157,4.157,0,0,1,2.254-.6,3.814,3.814,0,0,1,2.659.958,3.424,3.424,0,0,1,1.129,2.487H-79.9a2.241,2.241,0,0,0-.7-1.516,2.174,2.174,0,0,0-1.551-.593,2.276,2.276,0,0,0-1.92.892,4.19,4.19,0,0,0-.681,2.58v.308a4.106,4.106,0,0,0,.677,2.531A2.287,2.287,0,0,0-82.143,23.849Zm9.554,1.327a4.155,4.155,0,0,1-3.146-1.27,4.714,4.714,0,0,1-1.213-3.4v-.3a5.707,5.707,0,0,1,.541-2.527,4.217,4.217,0,0,1,1.512-1.74,3.8,3.8,0,0,1,2.1-.628,3.562,3.562,0,0,1,2.883,1.222,5.289,5.289,0,0,1,1.028,3.5v.677h-6.442a3.38,3.38,0,0,0,.822,2.272,2.583,2.583,0,0,0,2,.866,2.832,2.832,0,0,0,1.459-.352A3.666,3.666,0,0,0-70,22.565l.993.773A3.993,3.993,0,0,1-72.589,25.176Zm-.2-8.525a2.169,2.169,0,0,0-1.652.716,3.482,3.482,0,0,0-.826,2.008h4.764v-.123a3.1,3.1,0,0,0-.668-1.92A2.042,2.042,0,0,0-72.791,16.65Zm13.825,3.7a5.694,5.694,0,0,1-.993,3.5,3.183,3.183,0,0,1-2.689,1.327,3.488,3.488,0,0,1-2.725-1.1v4.579H-67V15.49h1.485l.079,1.055a3.35,3.35,0,0,1,2.76-1.23,3.243,3.243,0,0,1,2.711,1.292,5.756,5.756,0,0,1,1,3.595Zm-1.626-.185a4.2,4.2,0,0,0-.686-2.54,2.208,2.208,0,0,0-1.881-.932A2.39,2.39,0,0,0-65.373,18v4.544a2.4,2.4,0,0,0,2.232,1.3,2.2,2.2,0,0,0,1.859-.927A4.587,4.587,0,0,0-60.592,20.166Zm7.506,3.683a2.342,2.342,0,0,0,1.521-.527A1.855,1.855,0,0,0-50.845,22h1.538a2.949,2.949,0,0,1-.562,1.556,3.7,3.7,0,0,1-1.384,1.178,3.994,3.994,0,0,1-1.833.439,3.918,3.918,0,0,1-3.089-1.3,5.163,5.163,0,0,1-1.147-3.546v-.272a5.725,5.725,0,0,1,.51-2.47,3.883,3.883,0,0,1,1.463-1.679,4.157,4.157,0,0,1,2.254-.6,3.814,3.814,0,0,1,2.659.958,3.424,3.424,0,0,1,1.129,2.487h-1.538a2.241,2.241,0,0,0-.7-1.516,2.174,2.174,0,0,0-1.551-.593,2.276,2.276,0,0,0-1.92.892,4.19,4.19,0,0,0-.681,2.58v.308a4.106,4.106,0,0,0,.677,2.531A2.287,2.287,0,0,0-53.086,23.849ZM-45.712,25h-1.626V15.49h1.626ZM-47.47,12.968a.971.971,0,0,1,.242-.668.907.907,0,0,1,.716-.272.922.922,0,0,1,.721.272.96.96,0,0,1,.246.668.929.929,0,0,1-.246.659.938.938,0,0,1-.721.264.924.924,0,0,1-.716-.264A.938.938,0,0,1-47.47,12.968Zm3.929,7.189a5.617,5.617,0,0,1,.549-2.514,4.1,4.1,0,0,1,1.529-1.723,4.163,4.163,0,0,1,2.237-.606,4.01,4.01,0,0,1,3.142,1.345,5.174,5.174,0,0,1,1.2,3.577v.114a5.666,5.666,0,0,1-.532,2.492,4.038,4.038,0,0,1-1.521,1.718,4.211,4.211,0,0,1-2.272.615,4,4,0,0,1-3.133-1.345,5.147,5.147,0,0,1-1.2-3.56Zm1.635.193a4.068,4.068,0,0,0,.734,2.54,2.349,2.349,0,0,0,1.964.958,2.335,2.335,0,0,0,1.969-.971,4.449,4.449,0,0,0,.729-2.72,4.061,4.061,0,0,0-.743-2.536,2.361,2.361,0,0,0-1.973-.971,2.335,2.335,0,0,0-1.942.958A4.416,4.416,0,0,0-41.906,20.351Zm3.419-8.851h1.969l-2.355,2.584-1.31,0Zm7.181,3.99.053,1.2a3.465,3.465,0,0,1,2.848-1.371q3.015,0,3.041,3.4V25h-1.626V18.707a2.189,2.189,0,0,0-.47-1.521,1.884,1.884,0,0,0-1.437-.492,2.347,2.347,0,0,0-1.389.422,2.865,2.865,0,0,0-.932,1.107V25h-1.626V15.49Zm12.454,4.676a5.571,5.571,0,0,1,1.037-3.52A3.28,3.28,0,0,1-15.1,15.314a3.3,3.3,0,0,1,2.646,1.143V11.5h1.626V25h-1.494l-.079-1.02a3.311,3.311,0,0,1-2.716,1.2,3.248,3.248,0,0,1-2.694-1.354,5.634,5.634,0,0,1-1.042-3.533Zm1.626.185a4.218,4.218,0,0,0,.668,2.531,2.159,2.159,0,0,0,1.846.914,2.372,2.372,0,0,0,2.259-1.389V18.039A2.39,2.39,0,0,0-14.7,16.694a2.17,2.17,0,0,0-1.863.923A4.644,4.644,0,0,0-17.227,20.351Zm12.867,4.825a4.155,4.155,0,0,1-3.146-1.27,4.714,4.714,0,0,1-1.213-3.4v-.3a5.707,5.707,0,0,1,.541-2.527,4.217,4.217,0,0,1,1.512-1.74,3.8,3.8,0,0,1,2.1-.628,3.562,3.562,0,0,1,2.883,1.222,5.289,5.289,0,0,1,1.028,3.5v.677H-7.093a3.38,3.38,0,0,0,.822,2.272,2.583,2.583,0,0,0,2,.866A2.832,2.832,0,0,0-2.812,23.5a3.666,3.666,0,0,0,1.046-.932l.993.773A3.993,3.993,0,0,1-4.359,25.176Zm-.2-8.525a2.169,2.169,0,0,0-1.652.716,3.482,3.482,0,0,0-.826,2.008h4.764v-.123a3.1,3.1,0,0,0-.668-1.92A2.042,2.042,0,0,0-4.562,16.65Zm-126.1,28.7a5.694,5.694,0,0,1-.993,3.5,3.183,3.183,0,0,1-2.689,1.327,3.488,3.488,0,0,1-2.725-1.1v4.579h-1.626V40.49h1.485l.079,1.055a3.35,3.35,0,0,1,2.76-1.23,3.243,3.243,0,0,1,2.711,1.292,5.756,5.756,0,0,1,1,3.595Zm-1.626-.185a4.2,4.2,0,0,0-.686-2.54,2.208,2.208,0,0,0-1.881-.932A2.39,2.39,0,0,0-137.065,43v4.544a2.4,2.4,0,0,0,2.232,1.3,2.2,2.2,0,0,0,1.859-.927A4.587,4.587,0,0,0-132.284,45.166Zm7.638,5.01a4.155,4.155,0,0,1-3.146-1.27,4.714,4.714,0,0,1-1.213-3.4v-.3a5.707,5.707,0,0,1,.541-2.527,4.217,4.217,0,0,1,1.512-1.74,3.8,3.8,0,0,1,2.1-.628,3.562,3.562,0,0,1,2.883,1.222,5.289,5.289,0,0,1,1.028,3.5v.677h-6.442a3.38,3.38,0,0,0,.822,2.272,2.583,2.583,0,0,0,2,.866A2.832,2.832,0,0,0-123.1,48.5a3.666,3.666,0,0,0,1.046-.932l.993.773A3.993,3.993,0,0,1-124.646,50.176Zm-.2-8.525a2.169,2.169,0,0,0-1.652.716,3.482,3.482,0,0,0-.826,2.008h4.764v-.123a3.1,3.1,0,0,0-.668-1.92A2.042,2.042,0,0,0-124.849,41.65Zm5.4,3.516a5.571,5.571,0,0,1,1.037-3.52,3.28,3.28,0,0,1,2.716-1.332,3.3,3.3,0,0,1,2.646,1.143V36.5h1.626V50h-1.494L-113,48.98a3.311,3.311,0,0,1-2.716,1.2,3.248,3.248,0,0,1-2.694-1.354,5.634,5.634,0,0,1-1.042-3.533Zm1.626.185a4.218,4.218,0,0,0,.668,2.531,2.159,2.159,0,0,0,1.846.914,2.372,2.372,0,0,0,2.259-1.389V43.039a2.39,2.39,0,0,0-2.241-1.345,2.17,2.17,0,0,0-1.863.923A4.644,4.644,0,0,0-117.826,45.351ZM-107.139,50h-1.626V40.49h1.626ZM-108.9,37.968a.971.971,0,0,1,.242-.668.907.907,0,0,1,.716-.272.922.922,0,0,1,.721.272.96.96,0,0,1,.246.668.929.929,0,0,1-.246.659.938.938,0,0,1-.721.264.924.924,0,0,1-.716-.264A.938.938,0,0,1-108.9,37.968Zm3.964,7.2a5.571,5.571,0,0,1,1.037-3.52,3.28,3.28,0,0,1,2.716-1.332,3.3,3.3,0,0,1,2.646,1.143V36.5h1.626V50H-98.4l-.079-1.02a3.311,3.311,0,0,1-2.716,1.2,3.248,3.248,0,0,1-2.694-1.354,5.634,5.634,0,0,1-1.042-3.533Zm1.626.185a4.218,4.218,0,0,0,.668,2.531,2.159,2.159,0,0,0,1.846.914,2.372,2.372,0,0,0,2.259-1.389V43.039a2.39,2.39,0,0,0-2.241-1.345,2.17,2.17,0,0,0-1.863.923A4.644,4.644,0,0,0-103.307,45.351Zm8.49-.193a5.617,5.617,0,0,1,.549-2.514,4.1,4.1,0,0,1,1.529-1.723,4.163,4.163,0,0,1,2.237-.606,4.01,4.01,0,0,1,3.142,1.345,5.174,5.174,0,0,1,1.2,3.577v.114a5.666,5.666,0,0,1-.532,2.492,4.038,4.038,0,0,1-1.521,1.718,4.211,4.211,0,0,1-2.272.615,4,4,0,0,1-3.133-1.345,5.147,5.147,0,0,1-1.2-3.56Zm1.635.193a4.068,4.068,0,0,0,.734,2.54,2.349,2.349,0,0,0,1.964.958,2.335,2.335,0,0,0,1.969-.971,4.449,4.449,0,0,0,.729-2.72,4.061,4.061,0,0,0-.743-2.536A2.361,2.361,0,0,0-90.5,41.65a2.335,2.335,0,0,0-1.942.958A4.416,4.416,0,0,0-93.182,45.351Zm16.629,2.268,2.215-7.128h1.74l-3.823,10.978q-.888,2.373-2.821,2.373l-.308-.026-.606-.114V52.382l.439.035a2.164,2.164,0,0,0,1.288-.334,2.417,2.417,0,0,0,.76-1.222l.36-.967-3.393-9.4h1.775ZM-64.925,50h-1.626V36.5h1.626Zm2.171-4.843a5.617,5.617,0,0,1,.549-2.514,4.1,4.1,0,0,1,1.529-1.723,4.163,4.163,0,0,1,2.237-.606A4.01,4.01,0,0,1-55.3,41.659a5.174,5.174,0,0,1,1.2,3.577v.114a5.666,5.666,0,0,1-.532,2.492,4.038,4.038,0,0,1-1.521,1.718,4.211,4.211,0,0,1-2.272.615,4,4,0,0,1-3.133-1.345,5.147,5.147,0,0,1-1.2-3.56Zm1.635.193a4.068,4.068,0,0,0,.734,2.54,2.349,2.349,0,0,0,1.964.958,2.335,2.335,0,0,0,1.969-.971,4.449,4.449,0,0,0,.729-2.72,4.061,4.061,0,0,0-.743-2.536,2.361,2.361,0,0,0-1.973-.971,2.335,2.335,0,0,0-1.942.958A4.416,4.416,0,0,0-61.119,45.351Zm8.675-.185a5.589,5.589,0,0,1,1.028-3.538,3.289,3.289,0,0,1,2.725-1.314,3.271,3.271,0,0,1,2.716,1.23l.079-1.055h1.485v9.281a3.869,3.869,0,0,1-1.094,2.909,4.038,4.038,0,0,1-2.94,1.063,4.891,4.891,0,0,1-2.013-.439,3.465,3.465,0,0,1-1.5-1.2l.844-.976a3.18,3.18,0,0,0,2.558,1.292,2.491,2.491,0,0,0,1.85-.668,2.553,2.553,0,0,0,.664-1.881v-.817a3.342,3.342,0,0,1-2.663,1.125,3.248,3.248,0,0,1-2.7-1.345A5.876,5.876,0,0,1-52.444,45.166Zm1.635.185a4.264,4.264,0,0,0,.659,2.527A2.142,2.142,0,0,0-48.3,48.8a2.382,2.382,0,0,0,2.259-1.4V43.057a2.41,2.41,0,0,0-2.241-1.362,2.161,2.161,0,0,0-1.854.923A4.644,4.644,0,0,0-50.81,45.351ZM-40.192,50h-1.635V40.49h1.635Zm.018-13.491h1.969l-2.355,2.584-1.31,0Zm8.2,10.969a1.2,1.2,0,0,0-.5-1.024,4.78,4.78,0,0,0-1.731-.628,8.186,8.186,0,0,1-1.96-.633,2.788,2.788,0,0,1-1.072-.879,2.1,2.1,0,0,1-.347-1.213,2.467,2.467,0,0,1,.989-1.978,3.861,3.861,0,0,1,2.527-.809,3.974,3.974,0,0,1,2.624.835,2.652,2.652,0,0,1,1.006,2.136h-1.635a1.468,1.468,0,0,0-.567-1.151,2.124,2.124,0,0,0-1.428-.483,2.223,2.223,0,0,0-1.389.387,1.217,1.217,0,0,0-.5,1.011.986.986,0,0,0,.466.888,5.731,5.731,0,0,0,1.683.571,8.77,8.77,0,0,1,1.973.65,2.878,2.878,0,0,1,1.121.91,2.237,2.237,0,0,1,.365,1.3,2.434,2.434,0,0,1-1.02,2.043,4.277,4.277,0,0,1-2.646.769,4.789,4.789,0,0,1-2.021-.4,3.288,3.288,0,0,1-1.375-1.129,2.722,2.722,0,0,1-.5-1.569h1.626a1.683,1.683,0,0,0,.655,1.3,2.54,2.54,0,0,0,1.613.479,2.622,2.622,0,0,0,1.481-.374A1.148,1.148,0,0,0-31.975,47.478Zm5.95-9.29v2.3h1.775v1.257h-1.775v5.9a1.32,1.32,0,0,0,.237.858,1,1,0,0,0,.809.286,3.937,3.937,0,0,0,.773-.105V50a4.742,4.742,0,0,1-1.248.175,2.025,2.025,0,0,1-1.644-.659,2.832,2.832,0,0,1-.554-1.872v-5.9h-1.731V40.49h1.731v-2.3ZM-20.584,50H-22.21V40.49h1.626Zm-1.758-12.032A.971.971,0,0,1-22.1,37.3a.907.907,0,0,1,.716-.272.922.922,0,0,1,.721.272.96.96,0,0,1,.246.668.929.929,0,0,1-.246.659.938.938,0,0,1-.721.264.924.924,0,0,1-.716-.264A.938.938,0,0,1-22.342,37.968Zm8.174,10.881a2.342,2.342,0,0,0,1.521-.527A1.855,1.855,0,0,0-11.927,47h1.538a2.949,2.949,0,0,1-.562,1.556,3.7,3.7,0,0,1-1.384,1.178,3.994,3.994,0,0,1-1.833.439,3.918,3.918,0,0,1-3.089-1.3A5.163,5.163,0,0,1-18.4,45.333v-.272a5.725,5.725,0,0,1,.51-2.47,3.883,3.883,0,0,1,1.463-1.679,4.157,4.157,0,0,1,2.254-.6,3.814,3.814,0,0,1,2.659.958,3.424,3.424,0,0,1,1.129,2.487h-1.538a2.241,2.241,0,0,0-.7-1.516,2.174,2.174,0,0,0-1.551-.593,2.276,2.276,0,0,0-1.92.892,4.19,4.19,0,0,0-.681,2.58v.308a4.106,4.106,0,0,0,.677,2.531A2.287,2.287,0,0,0-14.168,48.849ZM-2.689,50a3.416,3.416,0,0,1-.229-1,3.628,3.628,0,0,1-2.707,1.178,3.357,3.357,0,0,1-2.307-.8,2.573,2.573,0,0,1-.9-2.017A2.688,2.688,0,0,1-7.7,45.056a5.325,5.325,0,0,1,3.177-.822h1.582v-.747a1.826,1.826,0,0,0-.51-1.358,2.049,2.049,0,0,0-1.5-.505,2.371,2.371,0,0,0-1.459.439A1.3,1.3,0,0,0-7,43.127H-8.64a2.244,2.244,0,0,1,.505-1.375A3.449,3.449,0,0,1-6.763,40.7a4.613,4.613,0,0,1,1.9-.387,3.759,3.759,0,0,1,2.575.822A2.964,2.964,0,0,1-1.318,43.4v4.377a5.351,5.351,0,0,0,.334,2.083V50Zm-2.7-1.239a2.858,2.858,0,0,0,1.45-.4,2.392,2.392,0,0,0,.993-1.028V45.386H-4.219q-2.988,0-2.988,1.749a1.48,1.48,0,0,0,.51,1.2A1.959,1.959,0,0,0-5.388,48.761ZM-80.719,70.166a5.571,5.571,0,0,1,1.037-3.52,3.28,3.28,0,0,1,2.716-1.332,3.3,3.3,0,0,1,2.646,1.143V61.5h1.626V75h-1.494l-.079-1.02a3.311,3.311,0,0,1-2.716,1.2,3.248,3.248,0,0,1-2.694-1.354,5.634,5.634,0,0,1-1.042-3.533Zm1.626.185a4.218,4.218,0,0,0,.668,2.531,2.159,2.159,0,0,0,1.846.914,2.372,2.372,0,0,0,2.259-1.389V68.039a2.39,2.39,0,0,0-2.241-1.345,2.17,2.17,0,0,0-1.863.923A4.644,4.644,0,0,0-79.093,70.351Zm12.867,4.825a4.155,4.155,0,0,1-3.146-1.27,4.714,4.714,0,0,1-1.213-3.4v-.3a5.707,5.707,0,0,1,.541-2.527,4.217,4.217,0,0,1,1.512-1.74,3.8,3.8,0,0,1,2.1-.628,3.562,3.562,0,0,1,2.883,1.222,5.289,5.289,0,0,1,1.028,3.5v.677h-6.442a3.38,3.38,0,0,0,.822,2.272,2.583,2.583,0,0,0,2,.866,2.832,2.832,0,0,0,1.459-.352,3.666,3.666,0,0,0,1.046-.932l.993.773A3.993,3.993,0,0,1-66.226,75.176Zm-.2-8.525a2.169,2.169,0,0,0-1.652.716,3.482,3.482,0,0,0-.826,2.008h4.764v-.123a3.1,3.1,0,0,0-.668-1.92A2.042,2.042,0,0,0-66.428,66.65ZM-58.869,75H-60.5V61.5h1.626ZM-48,73.849a2.342,2.342,0,0,0,1.521-.527A1.855,1.855,0,0,0-45.756,72h1.538a2.949,2.949,0,0,1-.562,1.556,3.7,3.7,0,0,1-1.384,1.178A3.994,3.994,0,0,1-48,75.176a3.918,3.918,0,0,1-3.089-1.3,5.163,5.163,0,0,1-1.147-3.546v-.272a5.725,5.725,0,0,1,.51-2.47,3.883,3.883,0,0,1,1.463-1.679,4.157,4.157,0,0,1,2.254-.6,3.814,3.814,0,0,1,2.659.958,3.424,3.424,0,0,1,1.129,2.487h-1.538a2.241,2.241,0,0,0-.7-1.516,2.174,2.174,0,0,0-1.551-.593,2.276,2.276,0,0,0-1.92.892,4.19,4.19,0,0,0-.681,2.58v.308a4.106,4.106,0,0,0,.677,2.531A2.287,2.287,0,0,0-48,73.849ZM-40.623,75h-1.626V61.5h1.626Zm4.368,0h-1.626V65.49h1.626Zm-1.758-12.032a.971.971,0,0,1,.242-.668.907.907,0,0,1,.716-.272.922.922,0,0,1,.721.272.96.96,0,0,1,.246.668.929.929,0,0,1-.246.659.938.938,0,0,1-.721.264.924.924,0,0,1-.716-.264A.938.938,0,0,1-38.013,62.968Zm8.306,12.208a4.155,4.155,0,0,1-3.146-1.27,4.714,4.714,0,0,1-1.213-3.4v-.3a5.707,5.707,0,0,1,.541-2.527,4.217,4.217,0,0,1,1.512-1.74,3.8,3.8,0,0,1,2.1-.628,3.562,3.562,0,0,1,2.883,1.222A5.289,5.289,0,0,1-26,70.034v.677H-32.44a3.38,3.38,0,0,0,.822,2.272,2.583,2.583,0,0,0,2,.866A2.832,2.832,0,0,0-28.16,73.5a3.666,3.666,0,0,0,1.046-.932l.993.773A3.993,3.993,0,0,1-29.707,75.176Zm-.2-8.525a2.169,2.169,0,0,0-1.652.716,3.482,3.482,0,0,0-.826,2.008h4.764v-.123a3.1,3.1,0,0,0-.668-1.92A2.042,2.042,0,0,0-29.909,66.65Zm7.33-1.16.053,1.2a3.465,3.465,0,0,1,2.848-1.371q3.015,0,3.041,3.4V75h-1.626V68.707a2.189,2.189,0,0,0-.47-1.521,1.884,1.884,0,0,0-1.437-.492,2.347,2.347,0,0,0-1.389.422,2.865,2.865,0,0,0-.932,1.107V75h-1.626V65.49Zm10.6-2.3v2.3H-10.2v1.257h-1.775v5.9a1.32,1.32,0,0,0,.237.858,1,1,0,0,0,.809.286,3.937,3.937,0,0,0,.773-.105V75a4.742,4.742,0,0,1-1.248.175,2.025,2.025,0,0,1-1.644-.659,2.832,2.832,0,0,1-.554-1.872v-5.9h-1.731V65.49h1.731v-2.3Zm7.62,11.988a4.155,4.155,0,0,1-3.146-1.27,4.714,4.714,0,0,1-1.213-3.4v-.3a5.707,5.707,0,0,1,.541-2.527,4.217,4.217,0,0,1,1.512-1.74,3.8,3.8,0,0,1,2.1-.628,3.562,3.562,0,0,1,2.883,1.222,5.289,5.289,0,0,1,1.028,3.5v.677H-7.093a3.38,3.38,0,0,0,.822,2.272,2.583,2.583,0,0,0,2,.866A2.832,2.832,0,0,0-2.812,73.5a3.666,3.666,0,0,0,1.046-.932l.993.773A3.993,3.993,0,0,1-4.359,75.176Zm-.2-8.525a2.169,2.169,0,0,0-1.652.716,3.482,3.482,0,0,0-.826,2.008h4.764v-.123a3.1,3.1,0,0,0-.668-1.92A2.042,2.042,0,0,0-4.562,66.65Z" transform="translate(567 845)" fill="#12263f"/>
    <path id="Trazado_190596" data-name="Trazado 190596" d="M9.026-5.1H4.052V0H.967V-12.8H9.527v2.382H4.052v2.944H9.026ZM15.732,0a3.344,3.344,0,0,1-.281-.853A2.754,2.754,0,0,1,13.166.176a3.374,3.374,0,0,1-2.285-.813,2.588,2.588,0,0,1-.94-2.043,2.66,2.66,0,0,1,1.143-2.338,5.821,5.821,0,0,1,3.322-.791h.914v-.5q0-1.316-1.134-1.316a.927.927,0,0,0-1.055,1.042H10.169a2.655,2.655,0,0,1,1.173-2.239,4.931,4.931,0,0,1,2.993-.86,4.323,4.323,0,0,1,2.874.888A3.086,3.086,0,0,1,18.29-6.363v4.21a4.311,4.311,0,0,0,.4,2V0ZM13.878-1.934a1.652,1.652,0,0,0,.918-.237,1.487,1.487,0,0,0,.523-.536V-4.228h-.861q-1.547,0-1.547,1.389a.848.848,0,0,0,.272.655A.986.986,0,0,0,13.878-1.934Zm11.03-.738a.684.684,0,0,0-.4-.606,6.016,6.016,0,0,0-1.5-.475A6.853,6.853,0,0,1,21.182-4.4a3.062,3.062,0,0,1-1.1-.971,2.319,2.319,0,0,1-.378-1.31,2.628,2.628,0,0,1,1.081-2.158,4.453,4.453,0,0,1,2.83-.848,4.934,4.934,0,0,1,3.023.853,2.666,2.666,0,0,1,1.143,2.241H24.812q0-1.143-1.2-1.143a1.194,1.194,0,0,0-.782.259.8.8,0,0,0-.316.646.737.737,0,0,0,.387.642,3.654,3.654,0,0,0,1.235.4,10.671,10.671,0,0,1,1.49.378A2.706,2.706,0,0,1,27.765-2.76,2.491,2.491,0,0,1,26.609-.642a5.068,5.068,0,0,1-2.993.817,5.172,5.172,0,0,1-2.18-.439,3.645,3.645,0,0,1-1.494-1.2,2.707,2.707,0,0,1-.536-1.591h2.769a1.145,1.145,0,0,0,.439.962,1.808,1.808,0,0,0,1.081.3,1.422,1.422,0,0,0,.91-.246A.787.787,0,0,0,24.908-2.672ZM33.75.176a4.889,4.889,0,0,1-3.542-1.305,4.507,4.507,0,0,1-1.354-3.4v-.246A5.84,5.84,0,0,1,29.4-7.348a3.955,3.955,0,0,1,1.578-1.727,4.763,4.763,0,0,1,2.461-.611A4.117,4.117,0,0,1,36.6-8.442a4.887,4.887,0,0,1,1.16,3.467v1.151H31.869a2.135,2.135,0,0,0,.694,1.257,2.066,2.066,0,0,0,1.389.457,2.662,2.662,0,0,0,2.2-.984l1.354,1.6A3.784,3.784,0,0,1,35.934-.277,5.3,5.3,0,0,1,33.75.176ZM33.416-7.4q-1.3,0-1.547,1.723h2.988v-.229a1.467,1.467,0,0,0-.36-1.1A1.434,1.434,0,0,0,33.416-7.4ZM52.313,0h-8.93V-1.934L47.5-6.258a4.909,4.909,0,0,0,1.521-2.751,1.913,1.913,0,0,0-.36-1.257A1.287,1.287,0,0,0,47.61-10.7a1.3,1.3,0,0,0-1.1.576,2.366,2.366,0,0,0-.422,1.437H43.119a4.2,4.2,0,0,1,.589-2.175,4.129,4.129,0,0,1,1.635-1.56,4.856,4.856,0,0,1,2.338-.562,4.777,4.777,0,0,1,3.195.958A3.42,3.42,0,0,1,52-9.272,4,4,0,0,1,51.715-7.8a6.456,6.456,0,0,1-.875,1.5,22.029,22.029,0,0,1-1.912,2.1L47.276-2.285h5.036ZM8.719,19.085H3.173V23.62H9.615V25H1.485V12.2H9.527v1.38H3.173v4.122H8.719Zm5.651,3.709,2.355-7.3h1.661L14.977,25H13.737l-3.445-9.51h1.661ZM25.69,25a3.416,3.416,0,0,1-.229-1,3.628,3.628,0,0,1-2.707,1.178,3.357,3.357,0,0,1-2.307-.8,2.573,2.573,0,0,1-.9-2.017,2.688,2.688,0,0,1,1.129-2.307,5.325,5.325,0,0,1,3.177-.822h1.582v-.747a1.826,1.826,0,0,0-.51-1.358,2.049,2.049,0,0,0-1.5-.505,2.371,2.371,0,0,0-1.459.439,1.3,1.3,0,0,0-.589,1.063H19.74a2.244,2.244,0,0,1,.505-1.375,3.449,3.449,0,0,1,1.371-1.05,4.613,4.613,0,0,1,1.9-.387,3.759,3.759,0,0,1,2.575.822,2.964,2.964,0,0,1,.967,2.263v4.377a5.351,5.351,0,0,0,.334,2.083V25Zm-2.7-1.239a2.858,2.858,0,0,0,1.45-.4,2.392,2.392,0,0,0,.993-1.028V20.386H24.161q-2.988,0-2.988,1.749a1.48,1.48,0,0,0,.51,1.2A1.959,1.959,0,0,0,22.992,23.761ZM31.377,25H29.751V11.5h1.626Zm8.473-.94a3.454,3.454,0,0,1-2.786,1.116,2.956,2.956,0,0,1-2.316-.883,3.823,3.823,0,0,1-.8-2.615V15.49h1.626v6.144q0,2.162,1.758,2.162a2.434,2.434,0,0,0,2.479-1.389V15.49h1.626V25H39.885Zm9.923.94a3.416,3.416,0,0,1-.229-1,3.628,3.628,0,0,1-2.707,1.178,3.357,3.357,0,0,1-2.307-.8,2.573,2.573,0,0,1-.9-2.017,2.688,2.688,0,0,1,1.129-2.307,5.325,5.325,0,0,1,3.177-.822h1.582v-.747a1.826,1.826,0,0,0-.51-1.358,2.049,2.049,0,0,0-1.5-.505,2.371,2.371,0,0,0-1.459.439,1.3,1.3,0,0,0-.589,1.063H43.822a2.244,2.244,0,0,1,.505-1.375A3.449,3.449,0,0,1,45.7,15.7a4.613,4.613,0,0,1,1.9-.387,3.759,3.759,0,0,1,2.575.822,2.964,2.964,0,0,1,.967,2.263v4.377a5.351,5.351,0,0,0,.334,2.083V25Zm-2.7-1.239a2.858,2.858,0,0,0,1.45-.4,2.392,2.392,0,0,0,.993-1.028V20.386H48.243q-2.988,0-2.988,1.749a1.48,1.48,0,0,0,.51,1.2A1.959,1.959,0,0,0,47.074,23.761Zm10.433.088a2.342,2.342,0,0,0,1.521-.527A1.855,1.855,0,0,0,59.748,22h1.538a2.949,2.949,0,0,1-.562,1.556,3.7,3.7,0,0,1-1.384,1.178,3.994,3.994,0,0,1-1.833.439,3.918,3.918,0,0,1-3.089-1.3,5.163,5.163,0,0,1-1.147-3.546v-.272a5.725,5.725,0,0,1,.51-2.47,3.883,3.883,0,0,1,1.463-1.679,4.157,4.157,0,0,1,2.254-.6,3.814,3.814,0,0,1,2.659.958,3.424,3.424,0,0,1,1.129,2.487H59.748a2.241,2.241,0,0,0-.7-1.516A2.174,2.174,0,0,0,57.5,16.65a2.276,2.276,0,0,0-1.92.892,4.19,4.19,0,0,0-.681,2.58v.308a4.106,4.106,0,0,0,.677,2.531A2.287,2.287,0,0,0,57.507,23.849ZM64.881,25H63.255V15.49h1.626ZM63.123,12.968a.971.971,0,0,1,.242-.668.907.907,0,0,1,.716-.272.922.922,0,0,1,.721.272.96.96,0,0,1,.246.668.929.929,0,0,1-.246.659.938.938,0,0,1-.721.264.924.924,0,0,1-.716-.264A.938.938,0,0,1,63.123,12.968Zm3.929,7.189a5.617,5.617,0,0,1,.549-2.514,4.1,4.1,0,0,1,1.529-1.723,4.163,4.163,0,0,1,2.237-.606,4.01,4.01,0,0,1,3.142,1.345,5.174,5.174,0,0,1,1.2,3.577v.114a5.666,5.666,0,0,1-.532,2.492,4.038,4.038,0,0,1-1.521,1.718,4.211,4.211,0,0,1-2.272.615,4,4,0,0,1-3.133-1.345,5.147,5.147,0,0,1-1.2-3.56Zm1.635.193a4.068,4.068,0,0,0,.734,2.54,2.487,2.487,0,0,0,3.933-.013,4.449,4.449,0,0,0,.729-2.72,4.061,4.061,0,0,0-.743-2.536,2.361,2.361,0,0,0-1.973-.971,2.335,2.335,0,0,0-1.942.958A4.416,4.416,0,0,0,68.687,20.351ZM72.105,11.5h1.969l-2.355,2.584-1.31,0Zm7.181,3.99.053,1.2a3.465,3.465,0,0,1,2.848-1.371q3.015,0,3.041,3.4V25H83.6V18.707a2.189,2.189,0,0,0-.47-1.521,1.884,1.884,0,0,0-1.437-.492,2.347,2.347,0,0,0-1.389.422,2.865,2.865,0,0,0-.932,1.107V25H77.748V15.49Zm15.961,7.128,2.215-7.128H99.2L95.379,26.468q-.888,2.373-2.821,2.373l-.308-.026-.606-.114V27.382l.439.035a2.164,2.164,0,0,0,1.288-.334,2.417,2.417,0,0,0,.76-1.222l.36-.967L91.1,15.49h1.775ZM6.768,47.478a1.2,1.2,0,0,0-.5-1.024,4.78,4.78,0,0,0-1.731-.628,8.186,8.186,0,0,1-1.96-.633,2.788,2.788,0,0,1-1.072-.879A2.1,2.1,0,0,1,1.16,43.1a2.467,2.467,0,0,1,.989-1.978,3.861,3.861,0,0,1,2.527-.809,3.974,3.974,0,0,1,2.624.835,2.652,2.652,0,0,1,1.006,2.136H6.671A1.468,1.468,0,0,0,6.1,42.134a2.124,2.124,0,0,0-1.428-.483,2.223,2.223,0,0,0-1.389.387,1.217,1.217,0,0,0-.5,1.011.986.986,0,0,0,.466.888,5.731,5.731,0,0,0,1.683.571,8.77,8.77,0,0,1,1.973.65,2.878,2.878,0,0,1,1.121.91,2.237,2.237,0,0,1,.365,1.3,2.434,2.434,0,0,1-1.02,2.043,4.277,4.277,0,0,1-2.646.769,4.789,4.789,0,0,1-2.021-.4,3.288,3.288,0,0,1-1.375-1.129,2.722,2.722,0,0,1-.5-1.569H2.461a1.683,1.683,0,0,0,.655,1.3,2.54,2.54,0,0,0,1.613.479,2.622,2.622,0,0,0,1.481-.374A1.148,1.148,0,0,0,6.768,47.478Zm7.69,2.7a4.155,4.155,0,0,1-3.146-1.27,4.714,4.714,0,0,1-1.213-3.4v-.3a5.707,5.707,0,0,1,.541-2.527,4.217,4.217,0,0,1,1.512-1.74,3.8,3.8,0,0,1,2.1-.628,3.562,3.562,0,0,1,2.883,1.222,5.289,5.289,0,0,1,1.028,3.5v.677H11.725a3.38,3.38,0,0,0,.822,2.272,2.583,2.583,0,0,0,2,.866A2.832,2.832,0,0,0,16,48.5a3.666,3.666,0,0,0,1.046-.932l.993.773A3.993,3.993,0,0,1,14.458,50.176Zm-.2-8.525a2.169,2.169,0,0,0-1.652.716,3.482,3.482,0,0,0-.826,2.008h4.764v-.123a3.1,3.1,0,0,0-.668-1.92A2.042,2.042,0,0,0,14.256,41.65ZM21.814,50H20.188V36.5h1.626Zm6.548.176a4.155,4.155,0,0,1-3.146-1.27A4.714,4.714,0,0,1,24,45.509v-.3a5.707,5.707,0,0,1,.541-2.527,4.217,4.217,0,0,1,1.512-1.74,3.8,3.8,0,0,1,2.1-.628,3.562,3.562,0,0,1,2.883,1.222,5.289,5.289,0,0,1,1.028,3.5v.677H25.629a3.38,3.38,0,0,0,.822,2.272,2.583,2.583,0,0,0,2,.866,2.832,2.832,0,0,0,1.459-.352,3.666,3.666,0,0,0,1.046-.932l.993.773A3.993,3.993,0,0,1,28.362,50.176Zm-.2-8.525a2.169,2.169,0,0,0-1.652.716,3.482,3.482,0,0,0-.826,2.008h4.764v-.123a3.1,3.1,0,0,0-.668-1.92A2.042,2.042,0,0,0,28.16,41.65Zm9.606,7.2a2.342,2.342,0,0,0,1.521-.527A1.855,1.855,0,0,0,40.008,47h1.538a2.949,2.949,0,0,1-.562,1.556A3.7,3.7,0,0,1,39.6,49.736a3.994,3.994,0,0,1-1.833.439,3.918,3.918,0,0,1-3.089-1.3,5.163,5.163,0,0,1-1.147-3.546v-.272a5.725,5.725,0,0,1,.51-2.47A3.883,3.883,0,0,1,35.5,40.912a4.157,4.157,0,0,1,2.254-.6,3.814,3.814,0,0,1,2.659.958,3.424,3.424,0,0,1,1.129,2.487H40.008a2.241,2.241,0,0,0-.7-1.516,2.174,2.174,0,0,0-1.551-.593,2.276,2.276,0,0,0-1.92.892,4.19,4.19,0,0,0-.681,2.58v.308a4.106,4.106,0,0,0,.677,2.531A2.287,2.287,0,0,0,37.767,48.849Zm9.422,0a2.342,2.342,0,0,0,1.521-.527A1.855,1.855,0,0,0,49.43,47h1.538a2.949,2.949,0,0,1-.562,1.556,3.7,3.7,0,0,1-1.384,1.178,3.994,3.994,0,0,1-1.833.439,3.918,3.918,0,0,1-3.089-1.3,5.163,5.163,0,0,1-1.147-3.546v-.272a5.725,5.725,0,0,1,.51-2.47,3.883,3.883,0,0,1,1.463-1.679,4.157,4.157,0,0,1,2.254-.6,3.814,3.814,0,0,1,2.659.958,3.424,3.424,0,0,1,1.129,2.487H49.43a2.241,2.241,0,0,0-.7-1.516,2.174,2.174,0,0,0-1.551-.593,2.276,2.276,0,0,0-1.92.892,4.19,4.19,0,0,0-.681,2.58v.308a4.106,4.106,0,0,0,.677,2.531A2.287,2.287,0,0,0,47.188,48.849ZM54.563,50H52.937V40.49h1.626ZM52.8,37.968a.971.971,0,0,1,.242-.668.907.907,0,0,1,.716-.272.922.922,0,0,1,.721.272.96.96,0,0,1,.246.668.929.929,0,0,1-.246.659.938.938,0,0,1-.721.264.924.924,0,0,1-.716-.264A.938.938,0,0,1,52.8,37.968Zm3.929,7.189a5.617,5.617,0,0,1,.549-2.514,4.1,4.1,0,0,1,1.529-1.723,4.163,4.163,0,0,1,2.237-.606,4.01,4.01,0,0,1,3.142,1.345,5.174,5.174,0,0,1,1.2,3.577v.114a5.666,5.666,0,0,1-.532,2.492,4.038,4.038,0,0,1-1.521,1.718,4.211,4.211,0,0,1-2.272.615,4,4,0,0,1-3.133-1.345,5.147,5.147,0,0,1-1.2-3.56Zm1.635.193a4.068,4.068,0,0,0,.734,2.54,2.487,2.487,0,0,0,3.933-.013,4.449,4.449,0,0,0,.729-2.72,4.061,4.061,0,0,0-.743-2.536,2.361,2.361,0,0,0-1.973-.971,2.335,2.335,0,0,0-1.942.958A4.416,4.416,0,0,0,58.368,45.351ZM61.787,36.5h1.969L61.4,39.084l-1.31,0Zm7.181,3.99.053,1.2a3.465,3.465,0,0,1,2.848-1.371q3.015,0,3.041,3.4V50H73.283V43.707a2.189,2.189,0,0,0-.47-1.521,1.884,1.884,0,0,0-1.437-.492,2.347,2.347,0,0,0-1.389.422,2.865,2.865,0,0,0-.932,1.107V50H67.43V40.49Zm12.454,4.676a5.571,5.571,0,0,1,1.037-3.52,3.529,3.529,0,0,1,5.361-.189V36.5h1.626V50H87.952l-.079-1.02a3.311,3.311,0,0,1-2.716,1.2,3.248,3.248,0,0,1-2.694-1.354,5.634,5.634,0,0,1-1.042-3.533Zm1.626.185a4.218,4.218,0,0,0,.668,2.531,2.159,2.159,0,0,0,1.846.914,2.372,2.372,0,0,0,2.259-1.389V43.039a2.39,2.39,0,0,0-2.241-1.345,2.17,2.17,0,0,0-1.863.923A4.644,4.644,0,0,0,83.048,45.351Zm12.867,4.825a4.155,4.155,0,0,1-3.146-1.27,4.714,4.714,0,0,1-1.213-3.4v-.3a5.707,5.707,0,0,1,.541-2.527,4.217,4.217,0,0,1,1.512-1.74,3.8,3.8,0,0,1,2.1-.628A3.562,3.562,0,0,1,98.6,41.536a5.289,5.289,0,0,1,1.028,3.5v.677H93.182A3.38,3.38,0,0,0,94,47.983a2.583,2.583,0,0,0,2,.866,2.832,2.832,0,0,0,1.459-.352,3.666,3.666,0,0,0,1.046-.932l.993.773A3.993,3.993,0,0,1,95.915,50.176Zm-.2-8.525a2.169,2.169,0,0,0-1.652.716,3.482,3.482,0,0,0-.826,2.008H98v-.123a3.1,3.1,0,0,0-.668-1.92A2.042,2.042,0,0,0,95.713,41.65ZM9.264,70.351a5.694,5.694,0,0,1-.993,3.5,3.183,3.183,0,0,1-2.689,1.327,3.488,3.488,0,0,1-2.725-1.1v4.579H1.23V65.49H2.716l.079,1.055a3.35,3.35,0,0,1,2.76-1.23,3.243,3.243,0,0,1,2.711,1.292,5.756,5.756,0,0,1,1,3.595Zm-1.626-.185a4.2,4.2,0,0,0-.686-2.54,2.208,2.208,0,0,0-1.881-.932A2.39,2.39,0,0,0,2.856,68v4.544a2.4,2.4,0,0,0,2.232,1.3,2.2,2.2,0,0,0,1.859-.927A4.587,4.587,0,0,0,7.638,70.166Zm8.288-3.217a4.873,4.873,0,0,0-.8-.062,2.143,2.143,0,0,0-2.171,1.362V75H11.329V65.49h1.582l.026,1.1a2.532,2.532,0,0,1,2.268-1.274,1.661,1.661,0,0,1,.721.123Zm.888,3.208a5.617,5.617,0,0,1,.549-2.514,4.1,4.1,0,0,1,1.529-1.723,4.163,4.163,0,0,1,2.237-.606,4.01,4.01,0,0,1,3.142,1.345,5.174,5.174,0,0,1,1.2,3.577v.114a5.666,5.666,0,0,1-.532,2.492,4.038,4.038,0,0,1-1.521,1.718,4.211,4.211,0,0,1-2.272.615,4,4,0,0,1-3.133-1.345,5.147,5.147,0,0,1-1.2-3.56Zm1.635.193a4.068,4.068,0,0,0,.734,2.54,2.487,2.487,0,0,0,3.933-.013,4.449,4.449,0,0,0,.729-2.72,4.061,4.061,0,0,0-.743-2.536,2.361,2.361,0,0,0-1.973-.971,2.335,2.335,0,0,0-1.942.958A4.416,4.416,0,0,0,18.448,70.351Zm12.067,2.443,2.355-7.3h1.661L31.122,75H29.883l-3.445-9.51H28.1Zm9.413,2.382a4.155,4.155,0,0,1-3.146-1.27,4.714,4.714,0,0,1-1.213-3.4v-.3a5.707,5.707,0,0,1,.541-2.527,4.217,4.217,0,0,1,1.512-1.74,3.8,3.8,0,0,1,2.1-.628,3.562,3.562,0,0,1,2.883,1.222,5.289,5.289,0,0,1,1.028,3.5v.677H37.2a3.38,3.38,0,0,0,.822,2.272,2.583,2.583,0,0,0,2,.866,2.832,2.832,0,0,0,1.459-.352,3.666,3.666,0,0,0,1.046-.932l.993.773A3.993,3.993,0,0,1,39.929,75.176Zm-.2-8.525a2.169,2.169,0,0,0-1.652.716,3.482,3.482,0,0,0-.826,2.008h4.764v-.123a3.1,3.1,0,0,0-.668-1.92A2.042,2.042,0,0,0,39.727,66.65Zm9.738,8.525a4.155,4.155,0,0,1-3.146-1.27,4.714,4.714,0,0,1-1.213-3.4v-.3a5.707,5.707,0,0,1,.541-2.527,4.217,4.217,0,0,1,1.512-1.74,3.8,3.8,0,0,1,2.1-.628,3.562,3.562,0,0,1,2.883,1.222,5.289,5.289,0,0,1,1.028,3.5v.677H46.731a3.38,3.38,0,0,0,.822,2.272,2.583,2.583,0,0,0,2,.866,2.832,2.832,0,0,0,1.459-.352,3.666,3.666,0,0,0,1.046-.932l.993.773A3.993,3.993,0,0,1,49.465,75.176Zm-.2-8.525a2.169,2.169,0,0,0-1.652.716,3.482,3.482,0,0,0-.826,2.008h4.764v-.123a3.1,3.1,0,0,0-.668-1.92A2.042,2.042,0,0,0,49.263,66.65Zm5.4,3.516a5.571,5.571,0,0,1,1.037-3.52,3.529,3.529,0,0,1,5.361-.189V61.5h1.626V75H61.189l-.079-1.02a3.311,3.311,0,0,1-2.716,1.2A3.248,3.248,0,0,1,55.7,73.822a5.634,5.634,0,0,1-1.042-3.533Zm1.626.185a4.218,4.218,0,0,0,.668,2.531A2.159,2.159,0,0,0,58.8,73.8a2.372,2.372,0,0,0,2.259-1.389V68.039a2.39,2.39,0,0,0-2.241-1.345,2.17,2.17,0,0,0-1.863.923A4.644,4.644,0,0,0,56.285,70.351Zm8.49-.193a5.617,5.617,0,0,1,.549-2.514,4.1,4.1,0,0,1,1.529-1.723,4.163,4.163,0,0,1,2.237-.606,4.01,4.01,0,0,1,3.142,1.345,5.174,5.174,0,0,1,1.2,3.577v.114a5.666,5.666,0,0,1-.532,2.492,4.038,4.038,0,0,1-1.521,1.718,4.211,4.211,0,0,1-2.272.615,4,4,0,0,1-3.133-1.345,5.147,5.147,0,0,1-1.2-3.56Zm1.635.193a4.068,4.068,0,0,0,.734,2.54,2.487,2.487,0,0,0,3.933-.013,4.449,4.449,0,0,0,.729-2.72,4.061,4.061,0,0,0-.743-2.536,2.361,2.361,0,0,0-1.973-.971,2.335,2.335,0,0,0-1.942.958A4.416,4.416,0,0,0,66.41,70.351Zm13.658-3.4a4.873,4.873,0,0,0-.8-.062A2.143,2.143,0,0,0,77.1,68.25V75H75.472V65.49h1.582l.026,1.1a2.532,2.532,0,0,1,2.268-1.274,1.661,1.661,0,0,1,.721.123Zm5.273,8.227a4.155,4.155,0,0,1-3.146-1.27,4.714,4.714,0,0,1-1.213-3.4v-.3a5.707,5.707,0,0,1,.541-2.527,4.217,4.217,0,0,1,1.512-1.74,3.8,3.8,0,0,1,2.1-.628,3.562,3.562,0,0,1,2.883,1.222,5.289,5.289,0,0,1,1.028,3.5v.677H82.608a3.38,3.38,0,0,0,.822,2.272,2.583,2.583,0,0,0,2,.866,2.832,2.832,0,0,0,1.459-.352,3.666,3.666,0,0,0,1.046-.932l.993.773A3.993,3.993,0,0,1,85.342,75.176Zm-.2-8.525a2.169,2.169,0,0,0-1.652.716,3.482,3.482,0,0,0-.826,2.008h4.764v-.123a3.1,3.1,0,0,0-.668-1.92A2.042,2.042,0,0,0,85.14,66.65Zm11.329,5.827a1.2,1.2,0,0,0-.5-1.024,4.78,4.78,0,0,0-1.731-.628,8.186,8.186,0,0,1-1.96-.633,2.788,2.788,0,0,1-1.072-.879,2.1,2.1,0,0,1-.347-1.213,2.467,2.467,0,0,1,.989-1.978,3.861,3.861,0,0,1,2.527-.809A3.974,3.974,0,0,1,97,66.149a2.652,2.652,0,0,1,1.006,2.136H96.372a1.468,1.468,0,0,0-.567-1.151,2.124,2.124,0,0,0-1.428-.483,2.223,2.223,0,0,0-1.389.387,1.217,1.217,0,0,0-.5,1.011.986.986,0,0,0,.466.888,5.731,5.731,0,0,0,1.683.571,8.77,8.77,0,0,1,1.973.65,2.878,2.878,0,0,1,1.121.91,2.237,2.237,0,0,1,.365,1.3,2.434,2.434,0,0,1-1.02,2.043,4.277,4.277,0,0,1-2.646.769,4.789,4.789,0,0,1-2.021-.4,3.288,3.288,0,0,1-1.375-1.129,2.722,2.722,0,0,1-.5-1.569h1.626a1.683,1.683,0,0,0,.655,1.3,2.54,2.54,0,0,0,1.613.479,2.622,2.622,0,0,0,1.481-.374A1.148,1.148,0,0,0,96.469,72.478Z" transform="translate(1033 1006)" fill="#12263f"/>
    <path id="Trazado_190597" data-name="Trazado 190597" d="M-44-5.1h-4.975V0h-3.085V-12.8H-43.5v2.382h-5.476v2.944H-44ZM-37.292,0a3.344,3.344,0,0,1-.281-.853A2.754,2.754,0,0,1-39.858.176a3.374,3.374,0,0,1-2.285-.813,2.588,2.588,0,0,1-.94-2.043,2.66,2.66,0,0,1,1.143-2.338,5.821,5.821,0,0,1,3.322-.791h.914v-.5q0-1.316-1.134-1.316a.927.927,0,0,0-1.055,1.042h-2.962a2.655,2.655,0,0,1,1.173-2.239,4.931,4.931,0,0,1,2.993-.86,4.323,4.323,0,0,1,2.874.888,3.086,3.086,0,0,1,1.081,2.435v4.21a4.311,4.311,0,0,0,.4,2V0Zm-1.854-1.934a1.652,1.652,0,0,0,.918-.237,1.487,1.487,0,0,0,.523-.536V-4.228h-.861q-1.547,0-1.547,1.389a.848.848,0,0,0,.272.655A.986.986,0,0,0-39.146-1.934Zm11.03-.738a.684.684,0,0,0-.4-.606,6.016,6.016,0,0,0-1.5-.475A6.853,6.853,0,0,1-31.843-4.4a3.062,3.062,0,0,1-1.1-.971,2.319,2.319,0,0,1-.378-1.31,2.628,2.628,0,0,1,1.081-2.158,4.453,4.453,0,0,1,2.83-.848,4.934,4.934,0,0,1,3.023.853,2.666,2.666,0,0,1,1.143,2.241h-2.971q0-1.143-1.2-1.143a1.194,1.194,0,0,0-.782.259.8.8,0,0,0-.316.646.737.737,0,0,0,.387.642,3.654,3.654,0,0,0,1.235.4,10.671,10.671,0,0,1,1.49.378A2.706,2.706,0,0,1-25.26-2.76,2.491,2.491,0,0,1-26.416-.642a5.068,5.068,0,0,1-2.993.817,5.172,5.172,0,0,1-2.18-.439,3.645,3.645,0,0,1-1.494-1.2,2.707,2.707,0,0,1-.536-1.591h2.769a1.145,1.145,0,0,0,.439.962,1.808,1.808,0,0,0,1.081.3,1.422,1.422,0,0,0,.91-.246A.787.787,0,0,0-28.116-2.672ZM-19.274.176a4.889,4.889,0,0,1-3.542-1.305,4.507,4.507,0,0,1-1.354-3.4v-.246a5.84,5.84,0,0,1,.541-2.575,3.955,3.955,0,0,1,1.578-1.727,4.763,4.763,0,0,1,2.461-.611,4.117,4.117,0,0,1,3.164,1.244,4.887,4.887,0,0,1,1.16,3.467v1.151h-5.889a2.135,2.135,0,0,0,.694,1.257,2.066,2.066,0,0,0,1.389.457,2.662,2.662,0,0,0,2.2-.984l1.354,1.6A3.784,3.784,0,0,1-17.09-.277,5.3,5.3,0,0,1-19.274.176ZM-19.608-7.4q-1.3,0-1.547,1.723h2.988v-.229a1.467,1.467,0,0,0-.36-1.1A1.434,1.434,0,0,0-19.608-7.4Zm12.674-.237h1.4A1.453,1.453,0,0,0-3.876-9.264a1.406,1.406,0,0,0-.4-1.033,1.5,1.5,0,0,0-1.116-.4,1.606,1.606,0,0,0-1.024.343,1.046,1.046,0,0,0-.435.853H-9.809a3.032,3.032,0,0,1,.563-1.8,3.715,3.715,0,0,1,1.56-1.235,5.334,5.334,0,0,1,2.193-.444,5.241,5.241,0,0,1,3.357.976A3.243,3.243,0,0,1-.914-9.325a2.7,2.7,0,0,1-.505,1.56A3.6,3.6,0,0,1-2.892-6.574a3.441,3.441,0,0,1,1.6,1.121,2.951,2.951,0,0,1,.58,1.859A3.3,3.3,0,0,1-2.03-.853,5.472,5.472,0,0,1-5.493.176,5.675,5.675,0,0,1-7.827-.3,3.656,3.656,0,0,1-9.457-1.63a3.45,3.45,0,0,1-.554-1.929h2.979a1.334,1.334,0,0,0,.475,1.02,1.676,1.676,0,0,0,1.169.431A1.755,1.755,0,0,0-4.14-2.544a1.454,1.454,0,0,0,.466-1.112,1.7,1.7,0,0,0-.483-1.371,2.021,2.021,0,0,0-1.336-.4H-6.935ZM-65.918,25h-1.687V12.2h1.688Zm4.368-9.51.053,1.2a3.465,3.465,0,0,1,2.848-1.371q3.015,0,3.041,3.4V25h-1.626V18.707a2.189,2.189,0,0,0-.47-1.521,1.884,1.884,0,0,0-1.437-.492,2.347,2.347,0,0,0-1.389.422,2.865,2.865,0,0,0-.932,1.107V25h-1.626V15.49Zm8.007,4.676a5.589,5.589,0,0,1,1.028-3.538,3.289,3.289,0,0,1,2.725-1.314,3.271,3.271,0,0,1,2.716,1.23L-47,15.49h1.485v9.281A3.869,3.869,0,0,1-46.6,27.681a4.038,4.038,0,0,1-2.94,1.063,4.891,4.891,0,0,1-2.013-.439,3.465,3.465,0,0,1-1.5-1.2l.844-.976a3.18,3.18,0,0,0,2.558,1.292,2.491,2.491,0,0,0,1.85-.668,2.553,2.553,0,0,0,.664-1.881v-.817a3.342,3.342,0,0,1-2.663,1.125,3.248,3.248,0,0,1-2.7-1.345A5.876,5.876,0,0,1-53.543,20.166Zm1.635.185a4.264,4.264,0,0,0,.659,2.527A2.142,2.142,0,0,0-49.4,23.8a2.382,2.382,0,0,0,2.259-1.4V18.057a2.41,2.41,0,0,0-2.241-1.362,2.161,2.161,0,0,0-1.854.923A4.644,4.644,0,0,0-51.908,20.351Zm13.447-3.4a4.873,4.873,0,0,0-.8-.062,2.143,2.143,0,0,0-2.171,1.362V25h-1.626V15.49h1.582l.026,1.1a2.532,2.532,0,0,1,2.268-1.274,1.661,1.661,0,0,1,.721.123Zm5.273,8.227a4.155,4.155,0,0,1-3.146-1.27,4.714,4.714,0,0,1-1.213-3.4v-.3a5.707,5.707,0,0,1,.541-2.527,4.217,4.217,0,0,1,1.512-1.74,3.8,3.8,0,0,1,2.1-.628,3.562,3.562,0,0,1,2.883,1.222,5.289,5.289,0,0,1,1.028,3.5v.677h-6.442a3.38,3.38,0,0,0,.822,2.272,2.583,2.583,0,0,0,2,.866,2.832,2.832,0,0,0,1.459-.352,3.666,3.666,0,0,0,1.046-.932l.993.773A3.993,3.993,0,0,1-33.187,25.176Zm-.2-8.525a2.169,2.169,0,0,0-1.652.716,3.482,3.482,0,0,0-.826,2.008H-31.1v-.123a3.1,3.1,0,0,0-.668-1.92A2.042,2.042,0,0,0-33.39,16.65Zm11.329,5.827a1.2,1.2,0,0,0-.5-1.024,4.78,4.78,0,0,0-1.731-.628,8.186,8.186,0,0,1-1.96-.633,2.788,2.788,0,0,1-1.072-.879,2.1,2.1,0,0,1-.347-1.213,2.467,2.467,0,0,1,.989-1.978,3.861,3.861,0,0,1,2.527-.809,3.974,3.974,0,0,1,2.624.835,2.652,2.652,0,0,1,1.006,2.136h-1.635a1.468,1.468,0,0,0-.567-1.151,2.124,2.124,0,0,0-1.428-.483,2.223,2.223,0,0,0-1.389.387,1.217,1.217,0,0,0-.5,1.011.986.986,0,0,0,.466.888,5.731,5.731,0,0,0,1.683.571,8.77,8.77,0,0,1,1.973.65,2.878,2.878,0,0,1,1.121.91,2.237,2.237,0,0,1,.365,1.3,2.434,2.434,0,0,1-1.02,2.043,4.277,4.277,0,0,1-2.646.769,4.789,4.789,0,0,1-2.021-.4A3.288,3.288,0,0,1-27.5,23.642a2.722,2.722,0,0,1-.5-1.569h1.626a1.683,1.683,0,0,0,.655,1.3,2.54,2.54,0,0,0,1.613.479,2.622,2.622,0,0,0,1.481-.374A1.148,1.148,0,0,0-22.061,22.478Zm3.313-2.32a5.617,5.617,0,0,1,.549-2.514,4.1,4.1,0,0,1,1.529-1.723,4.163,4.163,0,0,1,2.237-.606,4.01,4.01,0,0,1,3.142,1.345,5.174,5.174,0,0,1,1.2,3.577v.114a5.666,5.666,0,0,1-.532,2.492,4.038,4.038,0,0,1-1.521,1.718,4.211,4.211,0,0,1-2.272.615,4,4,0,0,1-3.133-1.345,5.147,5.147,0,0,1-1.2-3.56Zm1.635.193a4.068,4.068,0,0,0,.734,2.54,2.349,2.349,0,0,0,1.964.958,2.335,2.335,0,0,0,1.969-.971,4.449,4.449,0,0,0,.729-2.72,4.061,4.061,0,0,0-.743-2.536,2.361,2.361,0,0,0-1.973-.971,2.335,2.335,0,0,0-1.942.958A4.416,4.416,0,0,0-17.112,20.351Zm14.6,2.127a1.2,1.2,0,0,0-.5-1.024,4.78,4.78,0,0,0-1.731-.628,8.186,8.186,0,0,1-1.96-.633,2.788,2.788,0,0,1-1.072-.879A2.1,2.1,0,0,1-8.121,18.1a2.467,2.467,0,0,1,.989-1.978,3.861,3.861,0,0,1,2.527-.809,3.974,3.974,0,0,1,2.624.835A2.652,2.652,0,0,1-.976,18.285H-2.61a1.468,1.468,0,0,0-.567-1.151,2.124,2.124,0,0,0-1.428-.483,2.223,2.223,0,0,0-1.389.387,1.217,1.217,0,0,0-.5,1.011.986.986,0,0,0,.466.888,5.731,5.731,0,0,0,1.683.571,8.77,8.77,0,0,1,1.973.65,2.878,2.878,0,0,1,1.121.91,2.237,2.237,0,0,1,.365,1.3,2.434,2.434,0,0,1-1.02,2.043,4.277,4.277,0,0,1-2.646.769,4.789,4.789,0,0,1-2.021-.4A3.288,3.288,0,0,1-7.95,23.642a2.722,2.722,0,0,1-.5-1.569H-6.82a1.683,1.683,0,0,0,.655,1.3,2.54,2.54,0,0,0,1.613.479,2.622,2.622,0,0,0,1.481-.374A1.148,1.148,0,0,0-2.514,22.478ZM-87.935,45.166a5.571,5.571,0,0,1,1.037-3.52,3.28,3.28,0,0,1,2.716-1.332,3.3,3.3,0,0,1,2.646,1.143V36.5h1.626V50H-81.4l-.079-1.02a3.311,3.311,0,0,1-2.716,1.2,3.248,3.248,0,0,1-2.694-1.354,5.634,5.634,0,0,1-1.042-3.533Zm1.626.185a4.218,4.218,0,0,0,.668,2.531,2.159,2.159,0,0,0,1.846.914,2.372,2.372,0,0,0,2.259-1.389V43.039a2.39,2.39,0,0,0-2.241-1.345,2.17,2.17,0,0,0-1.863.923A4.644,4.644,0,0,0-86.309,45.351Zm12.867,4.825a4.155,4.155,0,0,1-3.146-1.27,4.714,4.714,0,0,1-1.213-3.4v-.3a5.707,5.707,0,0,1,.541-2.527,4.217,4.217,0,0,1,1.512-1.74,3.8,3.8,0,0,1,2.1-.628,3.562,3.562,0,0,1,2.883,1.222,5.289,5.289,0,0,1,1.028,3.5v.677h-6.442a3.38,3.38,0,0,0,.822,2.272,2.583,2.583,0,0,0,2,.866,2.832,2.832,0,0,0,1.459-.352,3.666,3.666,0,0,0,1.046-.932l.993.773A3.993,3.993,0,0,1-73.441,50.176Zm-.2-8.525a2.169,2.169,0,0,0-1.652.716,3.482,3.482,0,0,0-.826,2.008h4.764v-.123a3.1,3.1,0,0,0-.668-1.92A2.042,2.042,0,0,0-73.644,41.65Zm9.817,3.507a5.617,5.617,0,0,1,.549-2.514,4.1,4.1,0,0,1,1.529-1.723,4.163,4.163,0,0,1,2.237-.606,4.01,4.01,0,0,1,3.142,1.345,5.174,5.174,0,0,1,1.2,3.577v.114a5.666,5.666,0,0,1-.532,2.492,4.038,4.038,0,0,1-1.521,1.718,4.211,4.211,0,0,1-2.272.615,4,4,0,0,1-3.133-1.345,5.147,5.147,0,0,1-1.2-3.56Zm1.635.193a4.068,4.068,0,0,0,.734,2.54,2.349,2.349,0,0,0,1.964.958,2.335,2.335,0,0,0,1.969-.971,4.449,4.449,0,0,0,.729-2.72,4.061,4.061,0,0,0-.743-2.536,2.361,2.361,0,0,0-1.973-.971,2.335,2.335,0,0,0-1.942.958A4.416,4.416,0,0,0-62.191,45.351Zm3.419-8.851H-56.8l-2.355,2.584-1.31,0Zm10.239,5.449a4.873,4.873,0,0,0-.8-.062A2.143,2.143,0,0,0-51.5,43.25V50H-53.13V40.49h1.582l.026,1.1a2.532,2.532,0,0,1,2.268-1.274,1.661,1.661,0,0,1,.721.123Zm.932,3.217a5.571,5.571,0,0,1,1.037-3.52,3.28,3.28,0,0,1,2.716-1.332A3.3,3.3,0,0,1-41.2,41.457V36.5h1.626V50h-1.494l-.079-1.02a3.311,3.311,0,0,1-2.716,1.2,3.248,3.248,0,0,1-2.694-1.354A5.634,5.634,0,0,1-47.6,45.289Zm1.626.185a4.218,4.218,0,0,0,.668,2.531,2.159,2.159,0,0,0,1.846.914A2.372,2.372,0,0,0-41.2,47.407V43.039a2.39,2.39,0,0,0-2.241-1.345,2.17,2.17,0,0,0-1.863.923A4.644,4.644,0,0,0-45.976,45.351Zm12.867,4.825a4.155,4.155,0,0,1-3.146-1.27,4.714,4.714,0,0,1-1.213-3.4v-.3a5.707,5.707,0,0,1,.541-2.527,4.217,4.217,0,0,1,1.512-1.74,3.8,3.8,0,0,1,2.1-.628,3.562,3.562,0,0,1,2.883,1.222,5.289,5.289,0,0,1,1.028,3.5v.677h-6.442a3.38,3.38,0,0,0,.822,2.272,2.583,2.583,0,0,0,2,.866,2.832,2.832,0,0,0,1.459-.352,3.666,3.666,0,0,0,1.046-.932l.993.773A3.993,3.993,0,0,1-33.108,50.176Zm-.2-8.525a2.169,2.169,0,0,0-1.652.716,3.482,3.482,0,0,0-.826,2.008h4.764v-.123a3.1,3.1,0,0,0-.668-1.92A2.042,2.042,0,0,0-33.311,41.65Zm7.33-1.16.053,1.2a3.465,3.465,0,0,1,2.848-1.371q3.015,0,3.041,3.4V50h-1.626V43.707a2.189,2.189,0,0,0-.47-1.521,1.884,1.884,0,0,0-1.437-.492,2.347,2.347,0,0,0-1.389.422,2.865,2.865,0,0,0-.932,1.107V50h-1.626V40.49Zm12.34,9.686a4.155,4.155,0,0,1-3.146-1.27A4.714,4.714,0,0,1-18,45.509v-.3a5.707,5.707,0,0,1,.541-2.527,4.217,4.217,0,0,1,1.512-1.74,3.8,3.8,0,0,1,2.1-.628,3.562,3.562,0,0,1,2.883,1.222,5.289,5.289,0,0,1,1.028,3.5v.677h-6.442a3.38,3.38,0,0,0,.822,2.272,2.583,2.583,0,0,0,2,.866,2.832,2.832,0,0,0,1.459-.352,3.666,3.666,0,0,0,1.046-.932l.993.773A3.993,3.993,0,0,1-13.641,50.176Zm-.2-8.525a2.169,2.169,0,0,0-1.652.716,3.482,3.482,0,0,0-.826,2.008h4.764v-.123a3.1,3.1,0,0,0-.668-1.92A2.042,2.042,0,0,0-13.843,41.65Zm11.329,5.827a1.2,1.2,0,0,0-.5-1.024,4.78,4.78,0,0,0-1.731-.628,8.186,8.186,0,0,1-1.96-.633,2.788,2.788,0,0,1-1.072-.879A2.1,2.1,0,0,1-8.121,43.1a2.467,2.467,0,0,1,.989-1.978,3.861,3.861,0,0,1,2.527-.809,3.974,3.974,0,0,1,2.624.835A2.652,2.652,0,0,1-.976,43.285H-2.61a1.468,1.468,0,0,0-.567-1.151,2.124,2.124,0,0,0-1.428-.483,2.223,2.223,0,0,0-1.389.387,1.217,1.217,0,0,0-.5,1.011.986.986,0,0,0,.466.888,5.731,5.731,0,0,0,1.683.571,8.77,8.77,0,0,1,1.973.65,2.878,2.878,0,0,1,1.121.91,2.237,2.237,0,0,1,.365,1.3,2.434,2.434,0,0,1-1.02,2.043,4.277,4.277,0,0,1-2.646.769,4.789,4.789,0,0,1-2.021-.4A3.288,3.288,0,0,1-7.95,48.642a2.722,2.722,0,0,1-.5-1.569H-6.82a1.683,1.683,0,0,0,.655,1.3,2.54,2.54,0,0,0,1.613.479,2.622,2.622,0,0,0,1.481-.374A1.148,1.148,0,0,0-2.514,47.478ZM-84.4,70.166a5.571,5.571,0,0,1,1.037-3.52,3.28,3.28,0,0,1,2.716-1.332A3.3,3.3,0,0,1-78,66.457V61.5h1.626V75h-1.494l-.079-1.02a3.311,3.311,0,0,1-2.716,1.2,3.248,3.248,0,0,1-2.694-1.354A5.634,5.634,0,0,1-84.4,70.289Zm1.626.185a4.218,4.218,0,0,0,.668,2.531,2.159,2.159,0,0,0,1.846.914A2.372,2.372,0,0,0-78,72.407V68.039a2.39,2.39,0,0,0-2.241-1.345,2.17,2.17,0,0,0-1.863.923A4.644,4.644,0,0,0-82.775,70.351Zm12.867,4.825a4.155,4.155,0,0,1-3.146-1.27,4.714,4.714,0,0,1-1.213-3.4v-.3a5.707,5.707,0,0,1,.541-2.527,4.217,4.217,0,0,1,1.512-1.74,3.8,3.8,0,0,1,2.1-.628,3.562,3.562,0,0,1,2.883,1.222,5.289,5.289,0,0,1,1.028,3.5v.677h-6.442a3.38,3.38,0,0,0,.822,2.272,2.583,2.583,0,0,0,2,.866,2.832,2.832,0,0,0,1.459-.352,3.666,3.666,0,0,0,1.046-.932l.993.773A3.993,3.993,0,0,1-69.908,75.176Zm-.2-8.525a2.169,2.169,0,0,0-1.652.716,3.482,3.482,0,0,0-.826,2.008h4.764v-.123a3.1,3.1,0,0,0-.668-1.92A2.042,2.042,0,0,0-70.11,66.65Zm14.063,7.2a2.342,2.342,0,0,0,1.521-.527A1.855,1.855,0,0,0-53.807,72h1.538a2.949,2.949,0,0,1-.562,1.556,3.7,3.7,0,0,1-1.384,1.178,3.994,3.994,0,0,1-1.833.439,3.918,3.918,0,0,1-3.089-1.3,5.163,5.163,0,0,1-1.147-3.546v-.272a5.725,5.725,0,0,1,.51-2.47,3.883,3.883,0,0,1,1.463-1.679,4.157,4.157,0,0,1,2.254-.6,3.814,3.814,0,0,1,2.659.958,3.424,3.424,0,0,1,1.129,2.487h-1.538a2.241,2.241,0,0,0-.7-1.516,2.174,2.174,0,0,0-1.551-.593,2.276,2.276,0,0,0-1.92.892,4.19,4.19,0,0,0-.681,2.58v.308a4.106,4.106,0,0,0,.677,2.531A2.287,2.287,0,0,0-56.048,73.849Zm5.177-3.691a5.617,5.617,0,0,1,.549-2.514,4.1,4.1,0,0,1,1.529-1.723,4.163,4.163,0,0,1,2.237-.606,4.01,4.01,0,0,1,3.142,1.345,5.174,5.174,0,0,1,1.2,3.577v.114a5.666,5.666,0,0,1-.532,2.492,4.038,4.038,0,0,1-1.521,1.718,4.211,4.211,0,0,1-2.272.615,4,4,0,0,1-3.133-1.345,5.147,5.147,0,0,1-1.2-3.56Zm1.635.193a4.068,4.068,0,0,0,.734,2.54,2.349,2.349,0,0,0,1.964.958,2.335,2.335,0,0,0,1.969-.971,4.449,4.449,0,0,0,.729-2.72,4.061,4.061,0,0,0-.743-2.536,2.361,2.361,0,0,0-1.973-.971,2.335,2.335,0,0,0-1.942.958A4.416,4.416,0,0,0-49.236,70.351Zm10.591-4.86.044,1.055a3.512,3.512,0,0,1,2.821-1.23,2.719,2.719,0,0,1,2.716,1.529,3.6,3.6,0,0,1,1.235-1.107,3.647,3.647,0,0,1,1.8-.422q3.129,0,3.182,3.313V75h-1.626V68.725a2.184,2.184,0,0,0-.466-1.525,2.051,2.051,0,0,0-1.564-.505,2.156,2.156,0,0,0-1.5.541,2.193,2.193,0,0,0-.694,1.455V75h-1.635V68.769a1.814,1.814,0,0,0-2.03-2.074,2.175,2.175,0,0,0-2.188,1.362V75h-1.626V65.49Zm22.28,4.86a5.694,5.694,0,0,1-.993,3.5,3.183,3.183,0,0,1-2.689,1.327,3.488,3.488,0,0,1-2.725-1.1v4.579H-24.4V65.49h1.485l.079,1.055a3.35,3.35,0,0,1,2.76-1.23,3.243,3.243,0,0,1,2.711,1.292,5.756,5.756,0,0,1,1,3.595Zm-1.626-.185a4.2,4.2,0,0,0-.686-2.54,2.208,2.208,0,0,0-1.881-.932A2.39,2.39,0,0,0-22.772,68v4.544a2.4,2.4,0,0,0,2.232,1.3,2.2,2.2,0,0,0,1.859-.927A4.587,4.587,0,0,0-17.991,70.166ZM-9.7,66.949a4.873,4.873,0,0,0-.8-.062,2.143,2.143,0,0,0-2.171,1.362V75H-14.3V65.49h1.582l.026,1.1a2.532,2.532,0,0,1,2.268-1.274,1.661,1.661,0,0,1,.721.123ZM-2.689,75a3.416,3.416,0,0,1-.229-1,3.628,3.628,0,0,1-2.707,1.178,3.357,3.357,0,0,1-2.307-.8,2.573,2.573,0,0,1-.9-2.017A2.688,2.688,0,0,1-7.7,70.056a5.325,5.325,0,0,1,3.177-.822h1.582v-.747a1.826,1.826,0,0,0-.51-1.358,2.049,2.049,0,0,0-1.5-.505,2.371,2.371,0,0,0-1.459.439A1.3,1.3,0,0,0-7,68.127H-8.64a2.244,2.244,0,0,1,.505-1.375A3.449,3.449,0,0,1-6.763,65.7a4.613,4.613,0,0,1,1.9-.387,3.759,3.759,0,0,1,2.575.822A2.964,2.964,0,0,1-1.318,68.4v4.377a5.351,5.351,0,0,0,.334,2.083V75Zm-2.7-1.239a2.858,2.858,0,0,0,1.45-.4,2.392,2.392,0,0,0,.993-1.028V70.386H-4.219q-2.988,0-2.988,1.749a1.48,1.48,0,0,0,.51,1.2A1.959,1.959,0,0,0-5.388,73.761Z" transform="translate(555 1006)" fill="#12263f"/>
    <g id="Grupo_129801" data-name="Grupo 129801" transform="translate(-4244.059 -1531.644)">
      <path id="Trazado_190587" data-name="Trazado 190587" d="M5027.622,2336.527a155.256,155.256,0,0,1,169.618,129.941q-17.069,14.253-34.145,28.5-18.03-9.659-36.057-19.331a84.288,84.288,0,0,0-89.937-68.962q9.6-17.891,19.191-35.788-14.333-17.183-28.67-34.356" fill="#d84318"/>
      <path id="Trazado_190588" data-name="Trazado 190588" d="M4968.448,2355.445a154.389,154.389,0,0,1,51.5-17.912q14.259,17.067,28.5,34.149-9.672,18.024-19.331,36.048a84.3,84.3,0,0,0-68.967,89.937q-17.91-9.583-35.811-19.182-17.148,14.346-34.333,28.661a154.921,154.921,0,0,1,78.433-151.7" fill="#d6ecff"/>
      <path id="Trazado_190589" data-name="Trazado 190589" d="M5163.89,2502.8q17.188-14.327,34.36-28.662a155.236,155.236,0,0,1-129.95,169.61c-9.5-11.356-18.945-22.766-28.487-34.091,6.381-12.061,12.9-24.055,19.313-36.1a84.369,84.369,0,0,0,68.976-89.95q17.889,9.6,35.788,19.191" fill="#fff59d"/>
      <path id="Trazado_190590" data-name="Trazado 190590" d="M4925.17,2486.32q18.024,9.672,36.057,19.345a84.278,84.278,0,0,0,89.933,68.949c-6.4,11.917-12.771,23.857-19.2,35.765q14.3,17.223,28.675,34.383a155.256,155.256,0,0,1-169.614-129.955q17.082-14.239,34.145-28.487" fill="#1b3f5e"/>
      <path id="Trazado_190591" data-name="Trazado 190591" d="M5201.276,2404.019a8.783,8.783,0,0,1,15.7,4.515l47.26.29a.977.977,0,1,1-.023,1.953l-47.264-.289a8.788,8.788,0,1,1-15.675-6.469Z" fill="#d84318"/>
      <path id="Trazado_190592" data-name="Trazado 190592" d="M5201.276,2566.519a8.783,8.783,0,0,1,15.7,4.515l47.26.29a.977.977,0,1,1-.023,1.953l-47.264-.289a8.788,8.788,0,1,1-15.675-6.469Z" fill="#fff59d"/>
      <path id="Trazado_190593" data-name="Trazado 190593" d="M4886.987,2404.019a8.783,8.783,0,0,0-15.7,4.515l-47.26.29a.977.977,0,0,0,.023,1.953l47.264-.289a8.788,8.788,0,1,0,15.676-6.469Z" fill="#d6ecff"/>
      <path id="Trazado_190594" data-name="Trazado 190594" d="M4886.987,2566.519a8.783,8.783,0,0,0-15.7,4.515l-47.26.29a.977.977,0,0,0,.023,1.953l47.264-.289a8.788,8.788,0,1,0,15.676-6.469Z" fill="#1b3f5e"/>
    </g>
    <path id="Trazado_194419" data-name="Trazado 194419" d="M7.859-4.648h-4.5V0H1.016V-11.375H8.422v1.9H3.359v2.938h4.5ZM12.016,0H9.75V-8.453h2.266Zm-2.4-10.641a1.112,1.112,0,0,1,.34-.836,1.277,1.277,0,0,1,.926-.328,1.28,1.28,0,0,1,.922.328,1.105,1.105,0,0,1,.344.836A1.108,1.108,0,0,1,11.8-9.8a1.283,1.283,0,0,1-.918.328A1.283,1.283,0,0,1,9.965-9.8,1.108,1.108,0,0,1,9.617-10.641Zm3.93,6.352a4.954,4.954,0,0,1,.926-3.133,3,3,0,0,1,2.5-1.187,2.631,2.631,0,0,1,2.164.953l.094-.8h2.047V-.281a3.613,3.613,0,0,1-.5,1.93A3.236,3.236,0,0,1,19.352,2.9a4.985,4.985,0,0,1-2.141.43A4.635,4.635,0,0,1,15.4,2.957,3.217,3.217,0,0,1,14.063,2l1-1.375a2.645,2.645,0,0,0,2.047.945,1.936,1.936,0,0,0,1.4-.48,1.8,1.8,0,0,0,.5-1.363V-.727a2.612,2.612,0,0,1-2.055.883,2.992,2.992,0,0,1-2.465-1.191,4.953,4.953,0,0,1-.941-3.16Zm2.258.168a3.085,3.085,0,0,0,.461,1.8,1.466,1.466,0,0,0,1.266.653,1.568,1.568,0,0,0,1.477-.775V-6a1.564,1.564,0,0,0-1.461-.775,1.476,1.476,0,0,0-1.277.665A3.477,3.477,0,0,0,15.8-4.121ZM28.07-.859A2.831,2.831,0,0,1,25.758.156a2.67,2.67,0,0,1-2.074-.781,3.335,3.335,0,0,1-.73-2.289V-8.453h2.258v5.467q0,1.322,1.2,1.322a1.63,1.63,0,0,0,1.578-.8V-8.453h2.266V0H28.133Zm8.641-5.477A6.134,6.134,0,0,0,35.9-6.4a1.654,1.654,0,0,0-1.68.867V0H31.961V-8.453h2.133l.063,1.008a2.092,2.092,0,0,1,1.883-1.164,2.366,2.366,0,0,1,.7.1ZM42.461,0a2.507,2.507,0,0,1-.227-.758A2.732,2.732,0,0,1,40.1.156a3,3,0,0,1-2.059-.719,2.312,2.312,0,0,1-.816-1.812,2.389,2.389,0,0,1,1-2.062A4.915,4.915,0,0,1,41.1-5.164h1.039v-.484a1.393,1.393,0,0,0-.3-.937,1.183,1.183,0,0,0-.949-.352A1.345,1.345,0,0,0,40-6.664a.929.929,0,0,0-.324.75H37.414a2.268,2.268,0,0,1,.453-1.359,3,3,0,0,1,1.281-.98,4.669,4.669,0,0,1,1.859-.355,3.689,3.689,0,0,1,2.48.785,2.747,2.747,0,0,1,.918,2.207v3.664a4.041,4.041,0,0,0,.336,1.82V0ZM40.594-1.57a1.945,1.945,0,0,0,.922-.223,1.462,1.462,0,0,0,.625-.6V-3.844H41.3q-1.7,0-1.8,1.172l-.008.133a.9.9,0,0,0,.3.7A1.153,1.153,0,0,0,40.594-1.57ZM55.516,0H53.258V-8.7l-2.7.836V-9.7l4.711-1.687h.242ZM9.133,16.375a4.535,4.535,0,0,1-1.6,2.8,4.476,4.476,0,0,1-3.043.984,3.544,3.544,0,0,1-1.844-.52,3.283,3.283,0,0,1-1.227-1.43,5.34,5.34,0,0,1-.484-2.066,6.623,6.623,0,0,1,.055-1.25l.133-.937a7.076,7.076,0,0,1,1.8-4.043A4.544,4.544,0,0,1,6.414,8.469,3.4,3.4,0,0,1,8.953,9.5a4.117,4.117,0,0,1,.992,2.785H8.484Q8.383,9.9,6.609,9.711L6.352,9.7a3.019,3.019,0,0,0-2.465,1.1A5.942,5.942,0,0,0,2.609,13.9l-.172,1.18-.047.688A3.867,3.867,0,0,0,2.9,18.051a1.929,1.929,0,0,0,1.66.879,2.924,2.924,0,0,0,1.965-.57A3.8,3.8,0,0,0,7.711,16.4ZM11.953,20H10.547l1.469-8.453h1.406ZM13.117,8.461a.774.774,0,0,1,.6.215.8.8,0,0,1,.238.605.834.834,0,0,1-.836.852.779.779,0,0,1-.6-.211.764.764,0,0,1-.227-.594.886.886,0,0,1,.234-.609A.826.826,0,0,1,13.117,8.461Zm4.719,10.523a2.145,2.145,0,0,0,1.367-.441,2.1,2.1,0,0,0,.8-1.2l1.336-.008a3.014,3.014,0,0,1-.637,1.453,3.68,3.68,0,0,1-2.926,1.367,3.017,3.017,0,0,1-1.785-.551,3.084,3.084,0,0,1-1.074-1.492,4.972,4.972,0,0,1-.234-2.152l.039-.391a5.605,5.605,0,0,1,.711-2.18,4.11,4.11,0,0,1,1.469-1.5,3.648,3.648,0,0,1,2-.5,2.857,2.857,0,0,1,2.125.891,3.08,3.08,0,0,1,.8,2.18l-1.32-.008a2.029,2.029,0,0,0-.461-1.34,1.607,1.607,0,0,0-1.2-.543,2.254,2.254,0,0,0-1.832.82,4.3,4.3,0,0,0-.91,2.359l-.023.2a6.776,6.776,0,0,0-.016,1.031,2.355,2.355,0,0,0,.516,1.445A1.656,1.656,0,0,0,17.836,18.984ZM24,20H22.594L24.672,8h1.414Zm7.008-8.609a3.047,3.047,0,0,1,1.82.578,3.285,3.285,0,0,1,1.121,1.551,4.8,4.8,0,0,1,.246,2.16l-.016.172a5.685,5.685,0,0,1-.734,2.23,4.309,4.309,0,0,1-1.516,1.551,3.7,3.7,0,0,1-2.039.523,3.052,3.052,0,0,1-1.816-.578,3.21,3.21,0,0,1-1.113-1.531,4.931,4.931,0,0,1-.25-2.133,5.76,5.76,0,0,1,.711-2.359,4.409,4.409,0,0,1,1.527-1.621A3.652,3.652,0,0,1,31.008,11.391Zm-2.875,4.531a4.8,4.8,0,0,0,0,1.023,2.507,2.507,0,0,0,.551,1.469,1.653,1.653,0,0,0,1.262.57,2.253,2.253,0,0,0,1.3-.348,2.919,2.919,0,0,0,1-1.121,4.721,4.721,0,0,0,.523-1.664,7.494,7.494,0,0,0,.023-1.211,2.6,2.6,0,0,0-.57-1.492,1.69,1.69,0,0,0-1.266-.578,2.3,2.3,0,0,0-1.859.859,4.245,4.245,0,0,0-.945,2.313Zm11.438-.164a6.578,6.578,0,0,1,.711-2.328,4.03,4.03,0,0,1,1.367-1.555,3.127,3.127,0,0,1,1.789-.492,2.64,2.64,0,0,1,2.172,1.031L46.422,8h1.414L45.758,20H44.469l.148-.906a3.116,3.116,0,0,1-2.469,1.063,2.335,2.335,0,0,1-1.867-.918,4,4,0,0,1-.75-2.379A7.6,7.6,0,0,1,39.57,15.758Zm1.359.808a2.929,2.929,0,0,0,.4,1.732,1.437,1.437,0,0,0,1.234.632,2.554,2.554,0,0,0,2.18-1.233l.672-3.9a1.754,1.754,0,0,0-1.7-1.186,2.143,2.143,0,0,0-1.473.5,3.256,3.256,0,0,0-.969,1.475A6.082,6.082,0,0,0,40.93,16.565Zm10.719,3.591a3.048,3.048,0,0,1-2.469-1.164,4.006,4.006,0,0,1-.75-2.9l.039-.336a5.624,5.624,0,0,1,.746-2.3,4.339,4.339,0,0,1,1.5-1.566,3.491,3.491,0,0,1,1.906-.5,2.688,2.688,0,0,1,2.047.867,3.566,3.566,0,0,1,.813,2.266,6.621,6.621,0,0,1-.031,1.016l-.086.648H49.836a2.856,2.856,0,0,0,.379,1.953,1.8,1.8,0,0,0,1.551.836,3.007,3.007,0,0,0,2.313-1.125l.813.688a3.718,3.718,0,0,1-1.371,1.2A3.886,3.886,0,0,1,51.648,20.156Zm.9-7.586a2.066,2.066,0,0,0-1.527.594A4.22,4.22,0,0,0,49.984,15l4.109.008.031-.125a2.313,2.313,0,0,0-.316-1.637A1.488,1.488,0,0,0,52.547,12.57ZM65.383,20a1.893,1.893,0,0,1-.055-.445l.023-.445a3.465,3.465,0,0,1-2.469,1.047,2.526,2.526,0,0,1-1.816-.707,2.14,2.14,0,0,1-.637-1.73,2.6,2.6,0,0,1,1.176-2.1,5.005,5.005,0,0,1,2.887-.754l1.477.008.094-.672A1.545,1.545,0,0,0,65.77,13a1.414,1.414,0,0,0-1.113-.457,2.181,2.181,0,0,0-1.285.355,1.513,1.513,0,0,0-.684.98l-1.422.008a2.266,2.266,0,0,1,.578-1.316,3.363,3.363,0,0,1,1.3-.891,4.215,4.215,0,0,1,1.648-.3,2.8,2.8,0,0,1,2.055.8,2.484,2.484,0,0,1,.617,2.043l-.687,4.188-.039.6a2.949,2.949,0,0,0,.094.852L66.82,20Zm-2.219-1.094a2.466,2.466,0,0,0,1.285-.324,3.254,3.254,0,0,0,1.043-.941l.3-1.742-1.07-.008a4.054,4.054,0,0,0-2.047.422,1.554,1.554,0,0,0-.8,1.2,1.21,1.21,0,0,0,.277.988A1.321,1.321,0,0,0,63.164,18.906Zm13.242-3.094a6.586,6.586,0,0,1-.711,2.336,3.982,3.982,0,0,1-1.344,1.539,3.058,3.058,0,0,1-1.75.477,2.61,2.61,0,0,1-2.273-1.148L70.039,20h-1.3L70.82,8h1.414l-.852,4.484a3.107,3.107,0,0,1,2.469-1.094,2.358,2.358,0,0,1,1.9.9,3.954,3.954,0,0,1,.719,2.391,7.362,7.362,0,0,1-.047.969ZM75.063,15a3.009,3.009,0,0,0-.383-1.744,1.465,1.465,0,0,0-1.242-.636A2.574,2.574,0,0,0,71.2,13.944l-.633,3.675a1.8,1.8,0,0,0,1.758,1.319,2.054,2.054,0,0,0,1.449-.492,3.212,3.212,0,0,0,.941-1.463A6.578,6.578,0,0,0,75.063,15ZM82.7,20a1.893,1.893,0,0,1-.055-.445l.023-.445A3.465,3.465,0,0,1,80.2,20.156a2.526,2.526,0,0,1-1.816-.707,2.14,2.14,0,0,1-.637-1.73,2.6,2.6,0,0,1,1.176-2.1,5.005,5.005,0,0,1,2.887-.754l1.477.008.094-.672a1.545,1.545,0,0,0-.293-1.2,1.414,1.414,0,0,0-1.113-.457,2.181,2.181,0,0,0-1.285.355,1.513,1.513,0,0,0-.684.98l-1.422.008a2.266,2.266,0,0,1,.578-1.316,3.363,3.363,0,0,1,1.3-.891,4.215,4.215,0,0,1,1.648-.3,2.8,2.8,0,0,1,2.055.8,2.484,2.484,0,0,1,.617,2.043l-.687,4.188-.039.6a2.949,2.949,0,0,0,.094.852L84.133,20Zm-2.219-1.094a2.466,2.466,0,0,0,1.285-.324,3.254,3.254,0,0,0,1.043-.941l.3-1.742-1.07-.008a4.054,4.054,0,0,0-2.047.422,1.554,1.554,0,0,0-.8,1.2,1.21,1.21,0,0,0,.277.988A1.321,1.321,0,0,0,80.477,18.906Zm10.8-1.2q.117-.875-.961-1.234l-1.469-.43q-1.859-.641-1.8-2.125a2.341,2.341,0,0,1,1.02-1.832,3.631,3.631,0,0,1,2.27-.7,3.027,3.027,0,0,1,2.082.746,2.363,2.363,0,0,1,.77,1.9l-1.406-.008a1.319,1.319,0,0,0-.4-1.031,1.576,1.576,0,0,0-1.1-.414,2.059,2.059,0,0,0-1.266.359,1.316,1.316,0,0,0-.57.922q-.1.734.9,1.07l.711.2a4.577,4.577,0,0,1,2.063.977,1.865,1.865,0,0,1,.563,1.492,2.37,2.37,0,0,1-.516,1.375,2.948,2.948,0,0,1-1.25.895,4.18,4.18,0,0,1-1.664.285,3.3,3.3,0,0,1-2.219-.785,2.427,2.427,0,0,1-.844-1.98l1.414.008a1.5,1.5,0,0,0,.453,1.141,1.732,1.732,0,0,0,1.242.43,2.436,2.436,0,0,0,1.336-.324A1.247,1.247,0,0,0,91.281,17.711ZM97.859,9.5,97.5,11.547h1.539l-.2,1.117H97.313l-.883,5.258a1.833,1.833,0,0,0-.008.375.6.6,0,0,0,.664.609,4.05,4.05,0,0,0,.688-.078l-.109,1.18a3.847,3.847,0,0,1-1.031.141,1.476,1.476,0,0,1-1.266-.621,2.4,2.4,0,0,1-.328-1.629l.859-5.234H94.406l.2-1.117h1.492L96.453,9.5Zm5.07,10.656a3.048,3.048,0,0,1-2.469-1.164,4.006,4.006,0,0,1-.75-2.9l.039-.336a5.624,5.624,0,0,1,.746-2.3,4.339,4.339,0,0,1,1.5-1.566,3.491,3.491,0,0,1,1.906-.5,2.688,2.688,0,0,1,2.047.867,3.566,3.566,0,0,1,.813,2.266,6.62,6.62,0,0,1-.031,1.016l-.086.648h-5.523a2.856,2.856,0,0,0,.379,1.953,1.8,1.8,0,0,0,1.551.836,3.007,3.007,0,0,0,2.313-1.125l.813.688a3.718,3.718,0,0,1-1.371,1.2A3.886,3.886,0,0,1,102.93,20.156Zm.9-7.586a2.066,2.066,0,0,0-1.527.594A4.22,4.22,0,0,0,101.266,15l4.109.008.031-.125a2.313,2.313,0,0,0-.316-1.637A1.488,1.488,0,0,0,103.828,12.57Zm7.313,6.414a2.145,2.145,0,0,0,1.367-.441,2.1,2.1,0,0,0,.8-1.2l1.336-.008A3.014,3.014,0,0,1,114,18.789a3.68,3.68,0,0,1-2.926,1.367,3.017,3.017,0,0,1-1.785-.551,3.084,3.084,0,0,1-1.074-1.492,4.972,4.972,0,0,1-.234-2.152l.039-.391a5.605,5.605,0,0,1,.711-2.18,4.11,4.11,0,0,1,1.469-1.5,3.648,3.648,0,0,1,2-.5,2.857,2.857,0,0,1,2.125.891,3.08,3.08,0,0,1,.8,2.18l-1.32-.008a2.029,2.029,0,0,0-.461-1.34,1.607,1.607,0,0,0-1.2-.543,2.254,2.254,0,0,0-1.832.82,4.3,4.3,0,0,0-.91,2.359l-.023.2a6.776,6.776,0,0,0-.016,1.031,2.355,2.355,0,0,0,.516,1.445A1.656,1.656,0,0,0,111.141,18.984ZM117.3,20H115.9l1.469-8.453h1.406Zm1.164-11.539a.774.774,0,0,1,.6.215.8.8,0,0,1,.238.605.834.834,0,0,1-.836.852.779.779,0,0,1-.6-.211.764.764,0,0,1-.227-.594.886.886,0,0,1,.234-.609A.826.826,0,0,1,118.469,8.461Zm3.938,3.078-.18.945a3.305,3.305,0,0,1,2.57-1.094,2.608,2.608,0,0,1,1.363.367,1.8,1.8,0,0,1,.77.992,3.49,3.49,0,0,1,2.8-1.359,2.235,2.235,0,0,1,1.867.852,3.042,3.042,0,0,1,.445,2.2L131.117,20h-1.406l.922-5.57a2.943,2.943,0,0,0,0-.742q-.148-1.062-1.391-1.086a2.136,2.136,0,0,0-1.4.48,2.222,2.222,0,0,0-.809,1.3L126.07,20h-1.422l.938-5.562a1.786,1.786,0,0,0-.262-1.336,1.377,1.377,0,0,0-1.129-.484,2.315,2.315,0,0,0-2.1,1.2L121.023,20h-1.414l1.469-8.453ZM134.828,20h-1.406l1.469-8.453H136.3Zm1.164-11.539a.774.774,0,0,1,.6.215.8.8,0,0,1,.238.605.834.834,0,0,1-.836.852.779.779,0,0,1-.6-.211.764.764,0,0,1-.227-.594.886.886,0,0,1,.234-.609A.826.826,0,0,1,135.992,8.461Zm4.8,11.7a3.048,3.048,0,0,1-2.469-1.164,4.006,4.006,0,0,1-.75-2.9l.039-.336a5.624,5.624,0,0,1,.746-2.3,4.339,4.339,0,0,1,1.5-1.566,3.491,3.491,0,0,1,1.906-.5,2.688,2.688,0,0,1,2.047.867,3.566,3.566,0,0,1,.813,2.266,6.621,6.621,0,0,1-.031,1.016l-.086.648h-5.523a2.855,2.855,0,0,0,.379,1.953,1.8,1.8,0,0,0,1.551.836,3.007,3.007,0,0,0,2.313-1.125l.813.688a3.718,3.718,0,0,1-1.371,1.2A3.886,3.886,0,0,1,140.8,20.156Zm.9-7.586a2.066,2.066,0,0,0-1.527.594A4.22,4.22,0,0,0,139.133,15l4.109.008.031-.125a2.313,2.313,0,0,0-.316-1.637A1.488,1.488,0,0,0,141.7,12.57Zm6.547-1.031-.2,1.07a3.333,3.333,0,0,1,2.594-1.219,2.1,2.1,0,0,1,1.766.828,3.217,3.217,0,0,1,.422,2.242L151.9,20h-1.414l.93-5.557a2.962,2.962,0,0,0,.008-.71,1.168,1.168,0,0,0-1.289-1.116,2.661,2.661,0,0,0-2.234,1.358L146.852,20h-1.414l1.469-8.453Zm9.57-2.039-.359,2.047h1.539l-.2,1.117h-1.531l-.883,5.258a1.833,1.833,0,0,0-.008.375.6.6,0,0,0,.664.609,4.05,4.05,0,0,0,.688-.078l-.109,1.18a3.847,3.847,0,0,1-1.031.141,1.476,1.476,0,0,1-1.266-.621,2.4,2.4,0,0,1-.328-1.629l.859-5.234h-1.492l.2-1.117h1.492l.359-2.047Zm5.953,1.891a3.047,3.047,0,0,1,1.82.578,3.285,3.285,0,0,1,1.121,1.551,4.8,4.8,0,0,1,.246,2.16l-.016.172a5.685,5.685,0,0,1-.734,2.23,4.309,4.309,0,0,1-1.516,1.551,3.7,3.7,0,0,1-2.039.523,3.052,3.052,0,0,1-1.816-.578,3.21,3.21,0,0,1-1.113-1.531,4.931,4.931,0,0,1-.25-2.133,5.76,5.76,0,0,1,.711-2.359,4.409,4.409,0,0,1,1.527-1.621A3.652,3.652,0,0,1,163.766,11.391Zm-2.875,4.531a4.8,4.8,0,0,0,0,1.023,2.507,2.507,0,0,0,.551,1.469,1.653,1.653,0,0,0,1.262.57,2.253,2.253,0,0,0,1.3-.348,2.919,2.919,0,0,0,1-1.121,4.721,4.721,0,0,0,.523-1.664,7.493,7.493,0,0,0,.023-1.211,2.6,2.6,0,0,0-.57-1.492,1.69,1.69,0,0,0-1.266-.578,2.3,2.3,0,0,0-1.859.859,4.245,4.245,0,0,0-.945,2.313Z" transform="translate(410 704)" fill="#12263f"/>
    <path id="Trazado_194420" data-name="Trazado 194420" d="M0,0H4V40H0Z" transform="translate(390 688)" fill="#f0f8ff"/>
  </g>
</svg>
