<svg xmlns="http://www.w3.org/2000/svg" width="295" height="250" viewBox="0 0 295 250">
  <g id="Grupo_129493" data-name="Grupo 129493" transform="translate(-180 -945)">
    <rect id="Rectángulo_41263" data-name="Rectángulo 41263" width="295" height="250" transform="translate(180 945)" fill="none"/>
    <g id="Grupo_129492" data-name="Grupo 129492" transform="translate(194.896 946)">
      <g id="freepik--Plant--inject-2" transform="translate(1.105 143.898)">
        <g id="freepik--Plants--inject-2">
          <path id="Trazado_189633" data-name="Trazado 189633" d="M459.223,305.444a32.311,32.311,0,0,1,1.243,4.978c.563,3.245.163,14.522,0,17.79h0l.563.18h0c.6-3.307.675-15.04,0-18.325a35.5,35.5,0,0,0-1.316-4.8,17.941,17.941,0,0,0-2.284-4.815c-.079-.1-.18.113-.157.18C457.9,302.249,458.672,303.8,459.223,305.444Z" transform="translate(-443.75 -290.279)" fill="#1b3f5e"/>
          <path id="Trazado_189634" data-name="Trazado 189634" d="M466,295.747a8.4,8.4,0,0,1-3.971-5.911c-.726-3.521-1.687-6.581-1.406-7.34s3.684,2.6,5.36,6.052S466.9,293.981,466,295.747Z" transform="translate(-451.075 -282.388)" fill="#1b3f5e"/>
          <path id="Trazado_189635" data-name="Trazado 189635" d="M474.726,306.086c.3-.562-.714-2.25-3.273-3.774s-6.316-2.5-6.637-2.171,2.407,3.633,5.248,4.938S474.451,306.6,474.726,306.086Z" transform="translate(-461.25 -290.128)" fill="#1b3f5e"/>
          <path id="Trazado_189636" data-name="Trazado 189636" d="M452.741,290.361c-.394-.343-3.982,3.043-5.265,6.406-1.125,2.919-1.361,4.646-1.007,5.236,0,.034-.045.068-.067.107a8.751,8.751,0,0,0-.681,1.564,5.773,5.773,0,0,0-.287,3.375c0,.068.09,0,.1-.045.242-.984.36-1.991.664-2.958a12.146,12.146,0,0,1,.737-1.794c.8-.045,2.424-1.361,3.825-4.078C452.319,295.1,453.14,290.71,452.741,290.361Z" transform="translate(-428.341 -285.866)" fill="#1b3f5e"/>
          <path id="Trazado_189637" data-name="Trazado 189637" d="M469.37,319.819c.349-.523-.495-2.3-2.885-4.078s-6.046-3.1-6.4-2.812,2.036,3.847,4.741,5.428S469.044,320.3,469.37,319.819Z" transform="translate(-453.256 -295.733)" fill="#1b3f5e"/>
          <path id="Trazado_189638" data-name="Trazado 189638" d="M463.387,312.993a1.978,1.978,0,0,0-.647-1.074,7.65,7.65,0,0,0-1.164-.967,14.664,14.664,0,0,0-2.857-1.485c-.1-.039-.214.186-.129.247.838.607,1.727,1.125,2.587,1.687a8.125,8.125,0,0,1,1.125.889c.158.158.321.321.467.489s.276.394.478.416C463.33,313.212,463.392,313.055,463.387,312.993Z" transform="translate(-446.356 -294.234)" fill="#1b3f5e"/>
          <path id="Trazado_189639" data-name="Trazado 189639" d="M459.488,324.106a6.908,6.908,0,0,0-.962-.748,4.4,4.4,0,0,0-1.1-.5c-.1-.028-.18.141-.1.2.613.45,1.215.928,1.783,1.44a7.49,7.49,0,0,1,.754.776,1.69,1.69,0,0,1,.383.787c.045.236.292.281.36,0C460.8,325.321,459.972,324.573,459.488,324.106Z" transform="translate(-442.896 -300.094)" fill="#1b3f5e"/>
          <path id="Trazado_189640" data-name="Trazado 189640" d="M443.673,325.763l.354.444c.934,0,3.543-1.519,5.219-3.836,1.957-2.711,2.525-5.535,2.362-5.934s-3.83,1.4-5.979,4.584A11.4,11.4,0,0,0,443.673,325.763Z" transform="translate(-426.231 -297.262)" fill="#1b3f5e"/>
          <g id="Grupo_129491" data-name="Grupo 129491" transform="translate(3.54)" opacity="0.65">
            <path id="Trazado_189641" data-name="Trazado 189641" d="M459.223,305.444a32.311,32.311,0,0,1,1.243,4.978c.563,3.245.163,14.522,0,17.79h0l.563.18h0c.6-3.307.675-15.04,0-18.325a35.5,35.5,0,0,0-1.316-4.8,17.941,17.941,0,0,0-2.284-4.815c-.079-.1-.18.113-.157.18C457.9,302.249,458.672,303.8,459.223,305.444Z" transform="translate(-447.29 -290.279)" fill="#fff"/>
            <path id="Trazado_189642" data-name="Trazado 189642" d="M466,295.747a8.4,8.4,0,0,1-3.971-5.911c-.726-3.521-1.687-6.581-1.406-7.34s3.684,2.6,5.36,6.052S466.9,293.981,466,295.747Z" transform="translate(-454.616 -282.388)" fill="#fff"/>
            <path id="Trazado_189643" data-name="Trazado 189643" d="M474.726,306.086c.3-.562-.714-2.25-3.273-3.774s-6.316-2.5-6.637-2.171,2.407,3.633,5.248,4.938S474.451,306.6,474.726,306.086Z" transform="translate(-464.79 -290.128)" fill="#fff"/>
            <path id="Trazado_189644" data-name="Trazado 189644" d="M452.741,290.361c-.394-.343-3.982,3.043-5.265,6.406-1.125,2.919-1.361,4.646-1.007,5.236,0,.034-.045.068-.067.107a8.751,8.751,0,0,0-.681,1.564,5.773,5.773,0,0,0-.287,3.375c0,.068.09,0,.1-.045.242-.984.36-1.991.664-2.958a12.146,12.146,0,0,1,.737-1.794c.8-.045,2.424-1.361,3.825-4.078C452.319,295.1,453.14,290.71,452.741,290.361Z" transform="translate(-431.882 -285.866)" fill="#fff"/>
            <path id="Trazado_189645" data-name="Trazado 189645" d="M469.37,319.819c.349-.523-.495-2.3-2.885-4.078s-6.046-3.1-6.4-2.812,2.036,3.847,4.741,5.428S469.044,320.3,469.37,319.819Z" transform="translate(-456.796 -295.733)" fill="#fff"/>
            <path id="Trazado_189646" data-name="Trazado 189646" d="M463.387,312.993a1.978,1.978,0,0,0-.647-1.074,7.65,7.65,0,0,0-1.164-.967,14.664,14.664,0,0,0-2.857-1.485c-.1-.039-.214.186-.129.247.838.607,1.727,1.125,2.587,1.687a8.125,8.125,0,0,1,1.125.889c.158.158.321.321.467.489s.276.394.478.416C463.33,313.212,463.392,313.055,463.387,312.993Z" transform="translate(-449.896 -294.234)" fill="#fff"/>
            <path id="Trazado_189647" data-name="Trazado 189647" d="M459.488,324.106a6.908,6.908,0,0,0-.962-.748,4.4,4.4,0,0,0-1.1-.5c-.1-.028-.18.141-.1.2.613.45,1.215.928,1.783,1.44a7.49,7.49,0,0,1,.754.776,1.69,1.69,0,0,1,.383.787c.045.236.292.281.36,0C460.8,325.321,459.972,324.573,459.488,324.106Z" transform="translate(-446.436 -300.094)" fill="#fff"/>
            <path id="Trazado_189648" data-name="Trazado 189648" d="M443.673,325.763l.354.444c.934,0,3.543-1.519,5.219-3.836,1.957-2.711,2.525-5.535,2.362-5.934s-3.83,1.4-5.979,4.584A11.4,11.4,0,0,0,443.673,325.763Z" transform="translate(-429.772 -297.262)" fill="#fff"/>
          </g>
          <path id="Trazado_189649" data-name="Trazado 189649" d="M482.8,322.9a6.507,6.507,0,0,1-4.533-3.167c-1.513-2.351-3.082-4.291-3.077-4.927s3.375.855,5.579,2.885A5.347,5.347,0,0,1,482.8,322.9Z" transform="translate(-475.189 -296.507)" fill="#1b3f5e"/>
          <path id="Trazado_189650" data-name="Trazado 189650" d="M470.8,325.408c.512.146,1.125-2.295.641-4.533a7.634,7.634,0,0,0-1.969-3.937c-.281-.118-.861,3.453-.377,5.174S470.438,325.307,470.8,325.408Z" transform="translate(-460.404 -297.504)" fill="#1b3f5e"/>
          <path id="Trazado_189651" data-name="Trazado 189651" d="M463.186,332.478c.529.276,1.772-2.25,1.732-4.871a8.383,8.383,0,0,0-1.3-4.792c-.292-.174-1.727,3.616-1.58,5.624S462.843,332.287,463.186,332.478Z" transform="translate(-449.839 -300.074)" fill="#1b3f5e"/>
          <path id="Trazado_189652" data-name="Trazado 189652" d="M479.328,336.592c.377-.467-1.879-2.188-4.432-2.655a8.525,8.525,0,0,0-4.955.326c-.225.253,2.25,2.216,5.214,2.66C477.151,337.222,479.075,336.9,479.328,336.592Z" transform="translate(-468.731 -304.863)" fill="#1b3f5e"/>
          <path id="Trazado_189653" data-name="Trazado 189653" d="M460.958,326.548a36.875,36.875,0,0,1,4.764,5.1c-.045-.1-.084-.208-.124-.309a11.4,11.4,0,0,1-.467-1.648A3.72,3.72,0,0,1,465,328c.028-.09.129,0,.152.039a10.1,10.1,0,0,1,.506,1.738c.146.5.315,1,.489,1.5.242.681.562,1.339.855,2,.394.523.776,1.057,1.125,1.6a6.042,6.042,0,0,1-.124-1.232,4.669,4.669,0,0,1,.034-.686,1.244,1.244,0,0,1,.118-.562c.045-.084.157.028.174.084a6.629,6.629,0,0,1,.124,1.215c.045.4.09.8.169,1.2a8.8,8.8,0,0,0,.366,1.209c.051.1.129.264.174.366.309.518.967,1.687,1.417,2.531l-.4.562c-.416-.861-.866-1.687-1.361-2.52s-1.052-1.721-1.412-2.25a10.61,10.61,0,0,0-.939-.714,7.186,7.186,0,0,0-1.125-.652c-.439-.208-.906-.343-1.35-.562-.068-.034-.174-.225-.034-.225a3.7,3.7,0,0,1,1.406.332,7.079,7.079,0,0,1,1.2.619c-.281-.388-.562-.776-.861-1.153-1.558-2-3.375-3.808-4.86-5.838C460.806,326.559,460.867,326.474,460.958,326.548Z" transform="translate(-454.827 -301.697)" fill="#1b3f5e"/>
        </g>
      </g>
      <g id="freepik--Shadows--inject-2" transform="translate(7.5 164.7)">
        <ellipse id="freepik--Shadow--inject-2" cx="43.854" cy="25.316" rx="43.854" ry="25.316" transform="translate(0 6.337)" fill="#e0e0e0"/>
        <path id="freepik--shadow--inject-2-2" data-name="freepik--shadow--inject-2" d="M282.707,352.173l-56.245-32.392a3.813,3.813,0,0,0-3.437,0l-83.31,48.1c-.951.562-.951,1.44,0,1.985l56.245,32.391a3.781,3.781,0,0,0,3.437,0l83.31-48.1A1.048,1.048,0,0,0,282.707,352.173Z" transform="translate(-93.049 -319.373)" fill="#e0e0e0"/>
        <path id="freepik--shadow--inject-2-3" data-name="freepik--shadow--inject-2" d="M77.81,357.14l45.024,26-56.38,32.622L21.43,389.689Z" transform="translate(133.665 -335.898)" fill="#e0e0e0"/>
      </g>
      <g id="freepik--Character--inject-2" transform="translate(23.241 0)">
        <g id="freepik--Chartacter--inject-2" transform="translate(0)">
          <g id="freepik--Bottom--inject-2" transform="translate(0 80.123)">
            <path id="Trazado_189654" data-name="Trazado 189654" d="M345.25,271.118c.467-6.789.759-9.455,1.406-21.581h0c.056-3.11.169-6.44.377-9.4a59.663,59.663,0,0,1,2.84-15.749c.855-3.425,1.547-9.8,2.852-31.2A110.65,110.65,0,0,1,356.662,169h30.682c3.15,13.42,4.05,42.476,3.937,56.307-.045,7.053-.124,43.483.051,46.4a9.817,9.817,0,0,0,2.953,6.316c2.525,2.711,4.336,3.808,7.5,6.187-.456,1.209-7.092,1.164-9,.242a70.4,70.4,0,0,1-7.9-4.646,9.349,9.349,0,0,1-3.791-7.621,6.759,6.759,0,0,1-.09-.759c-.051-1.687-4.325-25.839-5.405-31.6-.832-4.5.084-13.15.084-13.15l-3.251-21.323s-3.667,14.151-5.624,22.774c-1.434,6.339-4.995,16.35-7.312,26.48h0c-2.722,10.3-2.936,11.21-4.545,18.589-.81,3.718-1.541,18.465-2.447,21.041-2.908,8.3-9.8,2.705-10.175-1.884C342.072,289.286,345.16,272.581,345.25,271.118Z" transform="translate(-341.513 -169)" fill="#ffa8a7"/>
            <path id="Trazado_189655" data-name="Trazado 189655" d="M359.718,374.554a2.74,2.74,0,0,1-.562,2.739,11.739,11.739,0,0,1-8.645,1.732c-4.252-.664-6.524-2.036-8.195-3.51s-4.01-3.549-5.928-4.021c-1.777-.444-4.668-1.524-5.231-2.1s-.416-3.026-.416-3.026Z" transform="translate(-293.077 -255.359)" fill="#263238"/>
            <path id="Trazado_189656" data-name="Trazado 189656" d="M332.481,350.758a1.3,1.3,0,0,0-.709.821c-.146.675-.174,1.541-.489,2.649a19.851,19.851,0,0,0-.562,5.973c.208,1.266,4.066,2.441,5.911,3.2a23.724,23.724,0,0,1,5.951,3.976,17.7,17.7,0,0,0,8.915,3.577c4.241.174,7.019-.905,7.874-2.413,1.125-1.856.293-3.875-4.5-6.26-.911-.45-4.106-2.452-5.191-3.178a25.051,25.051,0,0,1-3.257-2.553,20.463,20.463,0,0,1-1.451-1.513,6.763,6.763,0,0,1-1.192-1.609c-.051-.129-.084-.281-.135-.416a7.342,7.342,0,0,1-.287-1.153c-.068-.4-.1-1-.484-1.249a3.25,3.25,0,0,0-1.738-.253,16.42,16.42,0,0,0-2.632.562c-1.007.309-1.755.512-2.2,1.176a3.571,3.571,0,0,0-.444,1.755,7.3,7.3,0,0,1-.034.855c0,.124.045.343-.124.287s-.332-.478-.394-.624c-.124-.326-.2-.669-.343-.984a2.813,2.813,0,0,0-.562-1.046c-.793-.7-1.58-.591-1.811-.832A4.152,4.152,0,0,1,332.481,350.758Z" transform="translate(-292.984 -248.342)" fill="#37474f"/>
            <path id="Trazado_189657" data-name="Trazado 189657" d="M338.822,372.28a8.5,8.5,0,0,0-8.493,7.256,14.65,14.65,0,0,0,4.342,1.024c4.241.174,7.194-.9,8.077-2.4C343.788,376.4,343.136,374.04,338.822,372.28Z" transform="translate(-276.163 -257.945)" fill="#fafafa"/>
            <path id="Trazado_189658" data-name="Trazado 189658" d="M344.682,370.876a.334.334,0,0,1-.186-.073.3.3,0,0,1-.034-.427c.883-1.024,3.375-3.251,5.6-2.947a.3.3,0,1,1-.057.593l-.022,0c-2.081-.27-4.365,1.941-5.062,2.75A.3.3,0,0,1,344.682,370.876Z" transform="translate(-291.22 -255.81)" fill="#f0f0f0"/>
            <path id="Trazado_189659" data-name="Trazado 189659" d="M349.337,368.012a.349.349,0,0,1-.191-.073.309.309,0,0,1-.028-.427c.883-1.024,3.375-3.257,5.6-2.953a.3.3,0,0,1,.253.337h0a.292.292,0,0,1-.322.26h-.01c-2.081-.276-4.365,1.935-5.062,2.75A.309.309,0,0,1,349.337,368.012Z" transform="translate(-298.478 -254.554)" fill="#f0f0f0"/>
            <path id="Trazado_189660" data-name="Trazado 189660" d="M353.557,364.767a.259.259,0,0,1-.186-.073.3.3,0,0,1-.035-.42l0,0c.883-1.024,3.375-3.251,5.624-2.953a.3.3,0,0,1,.259.337.3.3,0,0,1-.332.259h-.005c-2.075-.276-4.365,1.935-5.062,2.75A.3.3,0,0,1,353.557,364.767Z" transform="translate(-305.106 -253.137)" fill="#f0f0f0"/>
            <path id="Trazado_189661" data-name="Trazado 189661" d="M356.9,361.513a.293.293,0,0,1-.219-.489c1.215-1.457,3.881-3.273,6.1-2.97a.3.3,0,0,1,.259.332v.005a.3.3,0,0,1-.337.259c-2-.27-4.5,1.468-5.568,2.756A.276.276,0,0,1,356.9,361.513Z" transform="translate(-310.806 -251.706)" fill="#f0f0f0"/>
            <path id="Trazado_189662" data-name="Trazado 189662" d="M440.153,384.9a13.189,13.189,0,0,1-1.9,6.3,4.176,4.176,0,0,1-4.893,1.485c-1.9-.574-4.3-1.98-4.747-4.443a15.409,15.409,0,0,1-.141-6.749Z" transform="translate(-428.16 -261.975)" fill="#263238"/>
            <path id="Trazado_189663" data-name="Trazado 189663" d="M428.229,350.56c-.793.028-.748,3.8-1.372,7.582-.669,4.061-1.327,5.658-1.912,9-.664,3.808-.107,5.54,1.125,7.914s5.889,4.831,8.369,1.625c2.025-2.615,2.25-5.624,2.25-9.432a55.769,55.769,0,0,1,.945-9.562c.467-3.071,1.221-5.816.562-6.187a28.3,28.3,0,0,1-.816,3.02c-.09.208-.416.731-.506-.073,0-.242.073-.787.062-1.024a1.007,1.007,0,0,0-.675-.945,7.681,7.681,0,0,0-3.341-.889,9.133,9.133,0,0,0-3.763.219c-.529.242-.562.737-.619,1.215-.09.562-.118.928-.253.81C427.981,353.62,428.3,350.976,428.229,350.56Z" transform="translate(-424.492 -248.442)" fill="#37474f"/>
            <path id="Trazado_189664" data-name="Trazado 189664" d="M428.233,383.179a9.522,9.522,0,0,0,1.226,5.878c1.237,2.368,6.26,4.871,8.746,1.659a10.822,10.822,0,0,0,1.879-5.512C438.8,382.595,430.539,381.1,428.233,383.179Z" transform="translate(-428.096 -262.286)" fill="#fafafa"/>
            <path id="Trazado_189665" data-name="Trazado 189665" d="M437.925,378.609a.274.274,0,0,1-.1-.034,13.712,13.712,0,0,0-7.228-1.024.292.292,0,0,1-.107-.562,13.8,13.8,0,0,1,7.61,1.086.3.3,0,0,1,.124.394A.3.3,0,0,1,437.925,378.609Z" transform="translate(-427.478 -259.932)" fill="#f0f0f0"/>
            <path id="Trazado_189666" data-name="Trazado 189666" d="M429.925,372.415a.292.292,0,0,1-.039-.562c3.605-1.046,7.464.928,7.6,1.012a.292.292,0,0,1-.292.506c-.034,0-3.8-1.935-7.143-.956A.333.333,0,0,1,429.925,372.415Z" transform="translate(-426.504 -257.625)" fill="#f0f0f0"/>
            <path id="Trazado_189667" data-name="Trazado 189667" d="M429.327,367.579a.3.3,0,0,1-.242-.208.292.292,0,0,1,.195-.365h0a10.425,10.425,0,0,1,7.751,1,.293.293,0,0,1,.079.4.287.287,0,0,1-.4.084l-.008-.006a10.126,10.126,0,0,0-7.25-.922A.349.349,0,0,1,429.327,367.579Z" transform="translate(-425.68 -255.472)" fill="#f0f0f0"/>
            <path id="Trazado_189668" data-name="Trazado 189668" d="M428.642,362.9a.291.291,0,0,1-.236-.2.3.3,0,0,1,.186-.371c3.718-1.209,7.655.99,7.8,1.086a.3.3,0,0,1,.09.4.292.292,0,0,1-.4.091h0c-.034,0-3.853-2.143-7.312-1.018A.367.367,0,0,1,428.642,362.9Z" transform="translate(-424.663 -253.432)" fill="#ebebeb"/>
            <path id="Trazado_189669" data-name="Trazado 189669" d="M367.051,169c-1.125,8.369-1.513,10.422-2.762,29.067-1.215,18.077-1.316,20.726-1.49,22.9-.411,5-2.627,6.721-3.268,18.51-.6,10.8-.951,24.124-.951,24.124s1.457,2,5.568,2.368c3.8.337,5.7-1.086,5.7-1.086s7.036-25.175,9-31.5c2.666-8.6,6.406-23.707,6.406-23.707l2.48,17.25a62.03,62.03,0,0,0,.81,16.1c1.991,9.691,4.022,20.248,4.022,20.248a12.94,12.94,0,0,0,5.72.709c4.438-.444,5.923-1.479,5.923-1.479s1.249-29.281,1.249-39.979-.135-36.874-.759-53.517Z" transform="translate(-354.326 -169)" fill="#37474f"/>
            <path id="Trazado_189670" data-name="Trazado 189670" d="M370.92,222.228l3.094-18.735s6.187-1.631,10.169-5.793c-.3,3.1-5.8,7.076-8.381,7.694L372.326,222,373.4,239.49Z" transform="translate(-339.995 -181.558)" fill="#263238"/>
            <path id="Trazado_189671" data-name="Trazado 189671" d="M412.49,174.17a25.606,25.606,0,0,0-2.323,4.91,47.972,47.972,0,0,0-1.547,5.2,53.6,53.6,0,0,0-.979,5.332,35.55,35.55,0,0,0-.36,5.411c.433-1.76.838-3.5,1.237-5.253s.787-3.493,1.209-5.225.838-3.47,1.282-5.2S411.95,175.9,412.49,174.17Z" transform="translate(-388.753 -171.262)" fill="#263238"/>
            <path id="Trazado_189672" data-name="Trazado 189672" d="M418.258,175.33a19.121,19.121,0,0,0-2.447,2.745,26.2,26.2,0,0,0-1.991,3.088,23.713,23.713,0,0,0-1.507,3.375,14.585,14.585,0,0,0-.832,3.594l1.648-3.24c.562-1.063,1.125-2.126,1.687-3.172s1.159-2.092,1.732-3.15S417.723,176.444,418.258,175.33Z" transform="translate(-396.883 -171.77)" fill="#263238"/>
            <path id="Trazado_189673" data-name="Trazado 189673" d="M419.82,213.38c-.782,5.624-1.485,11.249-2.188,16.828s-2.075,11.811-3.1,17.335-6.592,28.961-7.447,34.551c1.294-5.512,7.481-28.769,8.566-34.343s2.317-11.811,2.863-17.436S419.476,219.027,419.82,213.38Z" transform="translate(-395.97 -188.419)" fill="#263238"/>
            <path id="Trazado_189674" data-name="Trazado 189674" d="M365,213.81l.922,14.731c.141,2.458.3,4.91.4,7.368s.259,4.921.219,7.346-.2,26,.129,30.935c.562-5.49.844-25.94,1.012-30.907,0-4.983-.439-9.882-.883-14.8S365.759,218.681,365,213.81Z" transform="translate(-320.171 -188.607)" fill="#263238"/>
            <path id="Trazado_189675" data-name="Trazado 189675" d="M360.75,331.879l.838,5.13s2.053,1.311,6.361.866,4.933-1.839,4.933-1.839V331.21s-1.035,1-4.972,1.446A16.977,16.977,0,0,1,360.75,331.879Z" transform="translate(-322.974 -239.975)" fill="#37474f"/>
            <path id="Trazado_189676" data-name="Trazado 189676" d="M420.892,330.86l-.382,5.18s1.687,1.755,5.984,2.329,5.225-.641,5.225-.641l1.125-4.691s-1.237.737-5.169.253A16.985,16.985,0,0,1,420.892,330.86Z" transform="translate(-416.549 -239.822)" fill="#37474f"/>
          </g>
          <g id="freepik--Top--inject-2" transform="translate(3.571)">
            <g id="freepik--aRM--inject-2" transform="translate(39.734 21.062)">
              <path id="Trazado_189677" data-name="Trazado 189677" d="M296.69,89.92c4.567.844,7.267,1.879,10.883,7.25,3.043,4.5,9.258,12.65,9.258,12.65s8.319-7.256,9.562-9.387c1.856-3.167,15.631-2.424,12.458,2.132-.883,1.277-3.425,2.171-4.758,3.875-3.189,4.095-6.592,10.45-9.668,14.2-3.3,4.016-6.271,6.254-8,6.254-2.16,0-5.383-3.5-6.294-4.55-3.622-4.168-11.125-13.009-11.125-13.009Z" transform="translate(-296.69 -75.338)" fill="#ffa8a7"/>
              <path id="Trazado_189678" data-name="Trazado 189678" d="M306.131,105.915a1.688,1.688,0,0,0,.731-.8,3.513,3.513,0,0,0,.292-1.069c.135-.821.242-1.648.366-2.469s.2-1.547.343-2.317a3.028,3.028,0,0,1,.793-1.687c.281-.264.838.09.517.394a3.214,3.214,0,0,0-.714,1.957c-.135.9-.27,1.794-.4,2.694a11.806,11.806,0,0,1-.456,2.424,1.816,1.816,0,0,1-1.468,1.221C305.884,106.3,305.974,105.971,306.131,105.915Z" transform="translate(-271.861 -78.644)" fill="#f28f8f"/>
              <path id="Trazado_189679" data-name="Trazado 189679" d="M340.3,89.2c4.618.866,6.5,1.519,9.275,4.95s8.831,12.475,8.831,12.475a15.91,15.91,0,0,1-3.819,6.288,19.05,19.05,0,0,1-5.478,3.83l-7.216-7.706Z" transform="translate(-340.3 -75.023)" fill="#455a64"/>
              <g id="freepik--barcode-lector--inject-2" transform="translate(34.756)">
                <path id="Trazado_189680" data-name="Trazado 189680" d="M296.554,80.47c.771.461.562,1.9-.062,5.332s-1.732,10.883-1.732,10.883,1.749.748,3.127,1.389,3.752,1.221,4.9.129-.067-2.413-1.957-3.313l2.61-9.235s.062-1.687-2.812-3.268A23.192,23.192,0,0,0,296.554,80.47Z" transform="translate(-294.475 -71.203)" fill="#37474f"/>
                <path id="Trazado_189681" data-name="Trazado 189681" d="M299.963,86a2.974,2.974,0,0,1,1.125,2.07l-2.61,9.235c-.214.748-.866,2.25-2.03,1.575s-2.39-3.566-1.2-7.143A9.821,9.821,0,0,1,299.963,86Z" transform="translate(-292.124 -73.623)" fill="#455a64"/>
                <path id="Trazado_189682" data-name="Trazado 189682" d="M294.72,80.47a19.737,19.737,0,0,1,4.095,1.918c2.857,1.609,2.812,3.268,2.812,3.268l-.231.816a46.5,46.5,0,0,1-3.768-2.812c-1.44-1.209-1.907-1.738-2.4-2.1C295.192,81,295.052,80.656,294.72,80.47Z" transform="translate(-292.641 -71.203)" opacity="0.4" style="isolation: isolate"/>
                <path id="Trazado_189683" data-name="Trazado 189683" d="M277.665,65.246c-.084-.321.332-.472,1.873-.737a27.036,27.036,0,0,1,12.531.467l1.153.326-9.669,9.382.467,1.862-9.252-2.632c-2.329-.664-3.2-1.485-3.515-2.734l-.163-.658,3.656-3.543Z" transform="translate(-270.946 -63.994)" fill="#455a64"/>
                <path id="Trazado_189684" data-name="Trazado 189684" d="M296.01,68.115a9.753,9.753,0,0,1,3.7-1.446c.99-.242,1.789-.45,1.789-.45s3.768.726,1.513,2.992-8.482.681-7.925,2.936C294.486,69.758,294.756,69.3,296.01,68.115Z" transform="translate(-294.781 -64.968)" fill="#37474f"/>
                <path id="Trazado_189685" data-name="Trazado 189685" d="M298.292,67.37h0c.664.467,1.04,1.215-.09,2.345a5.9,5.9,0,0,1-3.425,1.3,6.189,6.189,0,0,0,3.172-2.008C298.309,68.467,298.607,67.724,298.292,67.37Z" transform="translate(-289.97 -65.471)" fill="#1b3f5e"/>
                <path id="Trazado_189686" data-name="Trazado 189686" d="M265.641,74.459c.225.906,5.776,4.843,8.9,6.558a26.226,26.226,0,0,0,2.677,1.294,3.47,3.47,0,0,0,3.74-.709l5.979-5.793a3.482,3.482,0,0,0,.95-3.335l-.591-2.334a2.531,2.531,0,0,1,.518-2,1.051,1.051,0,0,0-.562-1.631c-.658-.191-1.417-.411-2.075-.562-1.378-.382-2.992.877-6.569,4.376s-4.241,5.231-3.853,6.749Z" transform="translate(-262.679 -64.82)" fill="#37474f"/>
                <path id="Trazado_189687" data-name="Trazado 189687" d="M287.007,85.7c.433,1.727.81,3.937,1.5,4.809-.591-.495-.838-.562-1.929-4.927Z" transform="translate(-274.945 -73.439)" fill="#263238"/>
                <path id="Trazado_189688" data-name="Trazado 189688" d="M279.635,68.635a2.531,2.531,0,0,0-.5,2l.591,2.334a3.482,3.482,0,0,1-.951,3.335L272.8,82.095a3.47,3.47,0,0,1-3.74.709,26.223,26.223,0,0,1-2.677-1.294l-.731-.416c.056,0,3.527,1.637,4.55,1.58,1.384-.073,2.07-.562,3.437-1.935,1.479-1.479,4.308-4.292,4.966-5.062.236-.276.506-1.035.084-1.294a2.62,2.62,0,0,0-2.407-.321L269.9,80.25c-.394-1.575.079-3.133,1.969-5.3a63.845,63.845,0,0,1,6.322-6.024c1.4-1.159,1.412-1.6.877-1.918a1.052,1.052,0,0,1,.562,1.625Z" transform="translate(-254.496 -65.314)" fill="#263238"/>
                <path id="Trazado_189689" data-name="Trazado 189689" d="M270.736,83.214a4.116,4.116,0,0,1,.776-3.324,45.683,45.683,0,0,1,5.726-6.119l.63,2.531Z" transform="translate(-255.344 -68.272)" fill="#1b3f5e"/>
                <path id="Trazado_189690" data-name="Trazado 189690" d="M288.07,71.022l-.737.714a2.368,2.368,0,0,1-2.047.562c-.63-.18-.737-.72-.231-1.2l.737-.72a2.346,2.346,0,0,1,2.047-.562C288.469,69.982,288.571,70.522,288.07,71.022Z" transform="translate(-273.786 -66.519)" fill="#263238"/>
              </g>
              <path id="Trazado_189691" data-name="Trazado 189691" d="M310.032,86l-.416,2.6-3.206.349C307.76,87.687,310.032,86,310.032,86Z" transform="translate(-272.865 -73.623)" fill="#f28f8f"/>
              <path id="Trazado_189692" data-name="Trazado 189692" d="M290.26,98.859a1.749,1.749,0,0,1,.922-1.58c-1.2-.264-1.339-.838-1.254-1.423s1.035-1.221,1.035-1.221a1.2,1.2,0,0,1-.748-.63c-.163-.472.332-1.311,1.164-1.732s2.357-.146,3.234-.225,2.958-1.687,2.958-1.687l.191-.681,2.6,1.6a1.192,1.192,0,0,0-.281,1.046c.152.6.607,1.417.264,1.991a1.26,1.26,0,0,0-.242,1.271,1.762,1.762,0,0,1,0,1.687,1.242,1.242,0,0,0,0,1.052,1.2,1.2,0,0,1-.394,1.423,17.566,17.566,0,0,1-3.285,1.946c-1.024.349-1.159.169-2.25-.067s-2.12-.523-2.132-.928.422-.726.934-.894c-.27-.068-.562-.135-.8-.191C291.036,99.315,290.378,99.292,290.26,98.859Z" transform="translate(-254.027 -75.233)" fill="#f28f8f"/>
              <path id="Trazado_189693" data-name="Trazado 189693" d="M297.506,99.754c2.014-3.161,1.541-7.751,2.407-8.791s4.854-2.582,5.624-2.593c1.221,0,3.015,2.1,4.157,3.442.787.928-.259,1.474-1.164,1.479a4.46,4.46,0,0,1-2.812-1.153l-1.687.765s-1.26,8.33-1.311,8.139S297.506,99.754,297.506,99.754Z" transform="translate(-267.798 -74.66)" fill="#ffa8a7"/>
              <path id="Trazado_189694" data-name="Trazado 189694" d="M341.089,124.316c-1.687,1.6-3.864,3.9-4.258,6.142-.838-3,2.03-5.923,3.3-7.407Z" transform="translate(-320.947 -89.834)" fill="#f28f8f"/>
            </g>
            <path id="freepik--Chest--inject-2" d="M372.76,86.43c-2.362.489-5.36,1.1-8.369,1.929s-3.453,1.012-4.432,1.355c0,0-1.6,6.89-.664,23.4.141,2.447,1.912,9,2.216,14.061a80.926,80.926,0,0,1-.427,15.816s6.013,5.816,22.717,4.556c13.105-.984,16.48-6.7,16.48-6.7s-.146-20.951-.489-30.614c-.444-12.695-4.291-20.023-7.121-22.239l-8.6-1.434Z" transform="translate(-352.96 -52.748)" fill="#455a64"/>
            <g id="freepik--Head--inject-2" transform="translate(5.403)">
              <path id="Trazado_189695" data-name="Trazado 189695" d="M408.445,38.21a4.545,4.545,0,0,0-3.347,2.7c-.669,1.282-1.125,3.617.681,10.287a26.989,26.989,0,0,0,3.228,7.368,3.325,3.325,0,0,0,1.918,1.53l-.135-5.13-.191-3.577s2.885-2.615,3.133-5.186a8.192,8.192,0,0,0-.973-5.175Z" transform="translate(-397.462 -31.65)" fill="#37474f"/>
              <path id="Trazado_189696" data-name="Trazado 189696" d="M373.28,33.275c.5-2.88,4.162-6.322,11.215-6.7,5.782-.309,9,1.783,11.176,5.062,2.25,3.408.686,7.734.686,7.734L378.2,38.185Z" transform="translate(-362.999 -26.546)" fill="#37474f"/>
              <path id="Trazado_189697" data-name="Trazado 189697" d="M376.4,56.448c2.655,1.294,3.87-.81,3.87-.81l.4,10.557c5.1,6.828,18.724,4.359,13.139-.754V63.023a15.175,15.175,0,0,0,2.3-.225,5.668,5.668,0,0,0,4.7-4.5c1.035-3.768.72-11.941.1-16.4a4.62,4.62,0,0,0-2.2-3.268c-2.812-1.395-5.439.619-9.37,2.154-1.631.636-5.585.911-6.626.422,1.372,1.519,1.361,6.305-.664,8.251a4.347,4.347,0,0,1-1.012,1.316c-.861.754-1.564-1.181-2.289-1.94a2.97,2.97,0,0,0-4.612,1.063,4.831,4.831,0,0,0,2.147,6.486Z" transform="translate(-367.781 -31.63)" fill="#ffa8a7"/>
              <path id="Trazado_189698" data-name="Trazado 189698" d="M356.92,86.7a19.71,19.71,0,0,1,9.618,12.008c2.2,8.448,2.784,32.8,2.863,40.811s0,10.99,0,10.99,0-.658,4.578-2.508c0-9.393-.7-40.856-2.03-47.178C369.755,90.4,365.2,88.106,365.2,88.106Z" transform="translate(-330.891 -52.867)" fill="#1b3f5e"/>
              <path id="Trazado_189699" data-name="Trazado 189699" d="M361.76,162.61c.028,1.086.056,2.16.084,3.212a19.884,19.884,0,0,1-4.415,1.963c0-1-.051-2.064-.079-3.183A32.372,32.372,0,0,0,361.76,162.61Z" transform="translate(-318.998 -86.081)" fill="#fafafa"/>
              <path id="Trazado_189700" data-name="Trazado 189700" d="M361.5,177c0,1,.039,1.969.056,2.9a16.06,16.06,0,0,1-4.5,1.856v-2.807A18.323,18.323,0,0,0,361.5,177Z" transform="translate(-318.55 -92.377)" fill="#fafafa"/>
              <path id="Trazado_189701" data-name="Trazado 189701" d="M414,86l.045,1.125A93.275,93.275,0,0,1,417.2,99.5c.7,3.813.962,8.262,1.266,12.228.742,9.624.877,32.622.9,40.547-5.54,1.086-13.268,0-16.738-2.587.658-10.574,1.311-16.047.726-24.017-.608-8.386-4.078-23.994-.827-36.436C405.457,88.4,410.176,86.984,414,86Z" transform="translate(-401.15 -52.56)" fill="#1b3f5e"/>
              <path id="Trazado_189702" data-name="Trazado 189702" d="M401.458,180.86c2.925,2.374,9.6,4.275,16.007,4.083v2.987s-10.535.439-16.215-4.145C401.34,182.772,401.4,181.8,401.458,180.86Z" transform="translate(-399.311 -94.066)" fill="#fafafa"/>
              <path id="Trazado_189703" data-name="Trazado 189703" d="M417.059,169.865c0,1.012.028,2.008.039,2.992A32.385,32.385,0,0,1,401.35,169.9c.034-1.125.051-2.188.045-3.285A29.016,29.016,0,0,0,417.059,169.865Z" transform="translate(-399 -87.836)" fill="#fafafa"/>
              <path id="Trazado_189704" data-name="Trazado 189704" d="M398.88,77.075a21.04,21.04,0,0,1-7.655-1.164c-1.822-.765-3.437-3.234-3.965-5.681,0,1.969.866,5.461,3.628,6.907s5.979,1.53,8,1.575Z" transform="translate(-372.863 -45.66)" fill="#f28f8f"/>
              <path id="Trazado_189705" data-name="Trazado 189705" d="M397.591,49.625l-2.57,1.2a1.49,1.49,0,0,1,.714-1.924,1.378,1.378,0,0,1,1.831.668C397.574,49.586,397.583,49.606,397.591,49.625Z" transform="translate(-375.864 -36.271)" fill="#37474f"/>
              <path id="Trazado_189706" data-name="Trazado 189706" d="M379.367,49.548l-2.689-.951a1.373,1.373,0,0,1,1.708-.923l.07.023A1.5,1.5,0,0,1,379.367,49.548Z" transform="translate(-347.46 -35.766)" fill="#37474f"/>
              <path id="Trazado_189707" data-name="Trazado 189707" d="M393.312,54.755a1.153,1.153,0,1,0,1.069-1.237,1.125,1.125,0,0,0-1.073,1.174C393.308,54.713,393.309,54.734,393.312,54.755Z" transform="translate(-372.992 -38.346)" fill="#263238"/>
              <path id="Trazado_189708" data-name="Trazado 189708" d="M377.789,54.035a1.13,1.13,0,1,0,0-.006Z" transform="translate(-348.74 -38.031)" fill="#263238"/>
              <path id="Trazado_189709" data-name="Trazado 189709" d="M380.14,52l.906,7.312,4.151-1.58A17.229,17.229,0,0,0,380.14,52Z" transform="translate(-355.168 -37.684)" fill="#f28f8f"/>
              <path id="Trazado_189710" data-name="Trazado 189710" d="M387.577,68.57l3.037.877a1.557,1.557,0,0,1-1.888,1.136l-.041-.011A1.648,1.648,0,0,1,387.577,68.57Z" transform="translate(-364.737 -44.934)" fill="#b16668"/>
              <path id="Trazado_189711" data-name="Trazado 189711" d="M390.486,69.5a1.74,1.74,0,0,0-.382,0,1.626,1.626,0,0,0,1.125,1.479,1.393,1.393,0,0,0,.5.051A1.446,1.446,0,0,0,390.486,69.5Z" transform="translate(-367.309 -45.337)" fill="#f28f8f"/>
            </g>
            <g id="freepik--Box--inject-2" transform="translate(29.621 55.229)">
              <path id="Trazado_189712" data-name="Trazado 189712" d="M316.694,135.2l-23.516,6.935L281.89,131.675l23.516-6.935Z" transform="translate(-255.624 -124.74)" fill="#1b3f5e"/>
              <path id="Trazado_189713" data-name="Trazado 189713" d="M316.694,135.2l-23.516,6.935L281.89,131.675l23.516-6.935Z" transform="translate(-255.624 -124.74)" fill="#fff" opacity="0.7" style="isolation: isolate"/>
              <path id="Trazado_189714" data-name="Trazado 189714" d="M331.672,143.33,305.4,175.451l-23.51,6.935,26.266-32.122Z" transform="translate(-270.602 -132.874)" fill="#1b3f5e"/>
              <path id="Trazado_189715" data-name="Trazado 189715" d="M331.672,143.33,305.4,175.451l-23.51,6.935,26.266-32.122Z" transform="translate(-270.602 -132.874)" fill="#fff" opacity="0.4" style="isolation: isolate"/>
              <path id="Trazado_189716" data-name="Trazado 189716" d="M349.966,137.07,323.7,169.2l11.288,10.45,26.266-32.122Z" transform="translate(-323.7 -130.135)" fill="#1b3f5e"/>
              <path id="Trazado_189717" data-name="Trazado 189717" d="M349.966,137.07,323.7,169.2l11.288,10.45,26.266-32.122Z" transform="translate(-323.7 -130.135)" fill="#fff" opacity="0.6" style="isolation: isolate"/>
              <path id="Trazado_189718" data-name="Trazado 189718" d="M326.056,149.606l3.375-1-26.266,32.122-3.375,1Z" transform="translate(-278.428 -135.184)" fill="#263238"/>
              <path id="Trazado_189719" data-name="Trazado 189719" d="M303.175,140.49l4.927,4.567-3.375,1-4.927-4.561Z" transform="translate(-257.104 -131.631)" fill="#455a64"/>
            </g>
            <path id="freepik--shadow--inject-2-4" data-name="freepik--shadow--inject-2" d="M335.009,174.088l8.482-10.372c.562.152,1.041.562,1.614.681a15.5,15.5,0,0,0,2.812.225,25.486,25.486,0,0,0,5.664-.911c1.024-.264,2.042-.562,3.065-.838.591-.157,1.389-.225,1.642.332.191.427-.124.911-.456,1.237-1.946,1.907-4.972,2.109-7.312,3.453-.174.1-.371.264-.321.456s.253.236.427.27c2.177.4,7.458.782,9.562,1.457.388.124.844.366.827.776a.888.888,0,0,1-.489.652,4,4,0,0,1-1.625.591.984.984,0,0,1-.264,1.243,2.679,2.679,0,0,1-1.277.5c-.748.141-1.5.253-2.25.332,0,.321.478.287.776.394a.776.776,0,0,1,.354,1,2.013,2.013,0,0,1-.8.855,5.107,5.107,0,0,1-3.116,1.125,5.987,5.987,0,0,1-1.406-.3c-3.7-1.125-10.428-2.812-14.286-3.026C336.095,174.173,335.549,174.145,335.009,174.088Z" transform="translate(-300.203 -86.147)" fill="#1b3f5e" opacity="0.6" style="isolation: isolate"/>
            <g id="freepik--arm--inject-2-2" data-name="freepik--arm--inject-2" transform="translate(0 36.516)">
              <path id="Trazado_189720" data-name="Trazado 189720" d="M334.894,161.364c1.535.219,2.958-.866,4.162-2.441s1.659-3.026,3.937-3.425,3.515-.517,3.515-.517l-2,2.447s-1.794,2.334.349,2.874a9.05,9.05,0,0,0,5.281-.467c4.038-1.3,6.266-2.25,6.71-1.029s-.793,1.592-2.284,2.25-5.118,1.985-6.029,2.441-1.012.877.844,1.2,7.874.8,9.112.934,1.8,1,1.181,1.547a8.263,8.263,0,0,1-2.812.866s1.164,1.507-1.125,1.907-7.751-.124-8.082-.056a20.273,20.273,0,0,0,4.286,1.451c.568.022,2.812-.866,3.1-.366s-.039,1.057-.951,1.429-2.165,1.378-3.133,1.176-5.973-2-7.424-2.306-8.949-1.974-8.949-1.974Z" transform="translate(-298.878 -119.259)" fill="#ffa8a7"/>
              <path id="Trazado_189721" data-name="Trazado 189721" d="M378.426,92.27c3.611,2.132,6.547,7.914,7.16,13.392s1.9,19.461,1.9,19.461,12.34,5.394,15.569,6.446,6.749,1.8,8.549-.084l-1.294,11.108s-12.47-1.98-18.33-3.088a71.049,71.049,0,0,1-12.031-3.071c-3.375-1.372-4.3-1.6-5.354-7.458-.911-5.062-1.862-14.77-2.514-19.736S370.686,94.469,378.426,92.27Z" transform="translate(-371.427 -91.82)" fill="#ffa8a7"/>
              <path id="Trazado_189722" data-name="Trazado 189722" d="M351.48,177.617c-.962,0-1.918-.073-2.88-.112l-2.874-.169-1.44-.073a10.945,10.945,0,0,1-1.423-.107L340,176.83c.934.214,1.879.4,2.812.534a26.219,26.219,0,0,0,2.88.191c.962.045,1.918.09,2.88.1S350.5,177.691,351.48,177.617Z" transform="translate(-293.472 -128.819)" fill="#f28f8f"/>
              <path id="Trazado_189723" data-name="Trazado 189723" d="M422.095,91.47c-2.295.562-4.893,1.631-6.114,5.146s-1.423,5.551-.866,12.273,1.53,12.841,1.53,12.841,1.986.731,6.716.382a14.14,14.14,0,0,0,7.385-2.486s-.962-10.54-1.423-14.967S426.926,93.866,422.095,91.47Z" transform="translate(-414.82 -91.47)" fill="#455a64"/>
            </g>
          </g>
        </g>
      </g>
      <g id="freepik--cargo-car--inject-2" transform="translate(58.165 84.275)">
        <g id="freepik--cargo-car--inject-2-2" data-name="freepik--cargo-car--inject-2">
          <g id="freepik--cargo-car--inject-2-3" data-name="freepik--cargo-car--inject-2">
            <path id="Trazado_189724" data-name="Trazado 189724" d="M178.105,180.942l28.764,16.6a12.728,12.728,0,0,1,5.731,9.927v63.5l2.672,1.541v-67.2a12.719,12.719,0,0,0-5.731-9.927l-31.559-18.223c-3.155-1.817-5.731-.332-5.731,3.313v67.207l2.666,1.558V182.77C174.916,180.762,176.362,179.941,178.105,180.942Z" transform="translate(-94.266 -176.381)" fill="#e0e0e0"/>
            <path id="Trazado_189725" data-name="Trazado 189725" d="M261.35,428.63a11.345,11.345,0,0,1,5.13-8.892c1.49-.861,2.812-.894,3.763-.27h0l3.465,1.98-7.368,12.515-3.431-1.974h0A3.6,3.6,0,0,1,261.35,428.63Z" transform="translate(-202.816 -282.556)" fill="#455a64"/>
            <path id="Trazado_189726" data-name="Trazado 189726" d="M263.805,423.441a11.345,11.345,0,0,0-5.135,8.892c0,3.268,2.295,4.606,5.135,2.919a11.424,11.424,0,0,0,5.135-8.892C268.94,423.092,266.64,421.781,263.805,423.441Z" transform="translate(-196.542 -284.168)" fill="#37474f"/>
            <path id="Trazado_189727" data-name="Trazado 189727" d="M268.186,431.535c0-1.282-.782-1.867-1.738-1.316a4.162,4.162,0,0,0-1.738,3.324c0,1.277.776,1.867,1.738,1.311A4.167,4.167,0,0,0,268.186,431.535Z" transform="translate(-199.185 -287.357)" fill="#263238"/>
            <path id="Trazado_189728" data-name="Trazado 189728" d="M277.79,414.25s0,5.855,2.812,7.931c.523.388,1.086.658,1.412.934.714.6.242,1.687-.624,2.149-1.26.675-8.116-1.153-11.018-6.721Z" transform="translate(-216.544 -280.461)" fill="#f0f0f0"/>
            <path id="Trazado_189729" data-name="Trazado 189729" d="M273.06,417s0,5.861,2.812,7.936c.523.388,1.086.658,1.412.934.714.562.242,1.687-.624,2.149-1.26.675-8.116-1.153-11.018-6.749Z" transform="translate(-209.154 -281.664)" fill="#fafafa"/>
            <path id="Trazado_189730" data-name="Trazado 189730" d="M267.425,433.438a1.085,1.085,0,0,0-.495.855c0,.315.219.439.495.281a1.084,1.084,0,0,0,.489-.849C267.914,433.41,267.695,433.28,267.425,433.438Z" transform="translate(-200.162 -288.827)" fill="#263238"/>
            <path id="Trazado_189731" data-name="Trazado 189731" d="M162.24,371.409a11.353,11.353,0,0,1,5.135-8.9c1.49-.855,2.812-.889,3.763-.264h0l3.459,1.98-7.362,12.509-3.431-1.974h0A3.575,3.575,0,0,1,162.24,371.409Z" transform="translate(-47.961 -257.519)" fill="#455a64"/>
            <path id="Trazado_189732" data-name="Trazado 189732" d="M164.7,366.2a11.421,11.421,0,0,0-5.135,8.892c0,3.268,2.3,4.6,5.135,2.964a11.36,11.36,0,0,0,5.135-8.892C169.83,365.892,167.53,364.559,164.7,366.2Z" transform="translate(-41.687 -259.128)" fill="#37474f"/>
            <path id="Trazado_189733" data-name="Trazado 189733" d="M169.076,374.307c0-1.277-.776-1.867-1.738-1.31a4.152,4.152,0,0,0-1.738,3.318c0,1.282.776,1.867,1.738,1.316A4.162,4.162,0,0,0,169.076,374.307Z" transform="translate(-44.33 -262.319)" fill="#263238"/>
            <path id="Trazado_189734" data-name="Trazado 189734" d="M178.677,357s0,5.861,2.812,7.936c.529.388,1.086.658,1.417.934.709.562.236,1.687-.63,2.149-1.254.675-8.111-1.153-11.018-6.749Z" transform="translate(-61.687 -255.411)" fill="#f0f0f0"/>
            <path id="Trazado_189735" data-name="Trazado 189735" d="M173.938,359.74s0,5.861,2.812,7.931c.529.394,1.086.664,1.417.939.709.591.242,1.687-.624,2.143-1.26.675-8.116-1.125-11.018-6.721Z" transform="translate(-54.289 -256.61)" fill="#fafafa"/>
            <path id="Trazado_189736" data-name="Trazado 189736" d="M168.3,376.219a1.091,1.091,0,0,0-.489.849c0,.315.219.444.489.287a1.125,1.125,0,0,0,.495-.855C168.794,376.185,168.569,376.067,168.3,376.219Z" transform="translate(-45.292 -263.791)" fill="#263238"/>
            <path id="Trazado_189737" data-name="Trazado 189737" d="M291.164,328.328l-48.4-27.948-75.3,43.472,48.4,27.948Z" transform="translate(-167.47 -230.637)" fill="#455a64"/>
            <path id="Trazado_189738" data-name="Trazado 189738" d="M242.76,350.07v3.1l-75.29,43.472v-3.1Z" transform="translate(-119.066 -252.379)" fill="#37474f"/>
            <path id="Trazado_189739" data-name="Trazado 189739" d="M301.33,377.67v3.1l48.4,27.948v-3.1Z" transform="translate(-301.33 -264.455)" fill="#263238"/>
          </g>
          <g id="freepik--Items--inject-2" transform="translate(8.841 20.928)">
            <path id="freepik--shadow--inject-2-5" data-name="freepik--shadow--inject-2" d="M262.191,329.786l-42.4,24.489L175,328.447l42.516-24.427Z" transform="translate(-151.573 -253.158)" fill="#37474f"/>
            <g id="freepik--box--inject-2-2" data-name="freepik--box--inject-2" transform="translate(27.527 26.019)">
              <path id="Trazado_189740" data-name="Trazado 189740" d="M180.97,282.3l38.837-22.453,40.9,23.662-38.837,22.453Z" transform="translate(-180.97 -259.85)" fill="#1b3f5e"/>
              <path id="Trazado_189741" data-name="Trazado 189741" d="M180.97,282.3l38.837-22.453,40.9,23.662-38.837,22.453Z" transform="translate(-180.97 -259.85)" fill="#fff" opacity="0.3" style="isolation: isolate"/>
              <path id="Trazado_189742" data-name="Trazado 189742" d="M290.916,350.576l-40.9-23.662V299.77l40.9,23.662Z" transform="translate(-250.02 -277.317)" fill="#1b3f5e"/>
              <path id="Trazado_189743" data-name="Trazado 189743" d="M258.732,367.21a.914.914,0,0,0,.45-.118,1.373,1.373,0,0,0,.562-1.249v-3.684h0v-.276l-.186.034-2.891-1.687v4.117a3.375,3.375,0,0,0,1.423,2.689A1.316,1.316,0,0,0,258.732,367.21Zm.562-4.775v3.408a.957.957,0,0,1-.332.849.658.658,0,0,1-.63-.067,2.937,2.937,0,0,1-1.187-2.289v-.3h1.069l.208-1.445Zm-1.479,1.125h-.669v-2.542l1.721,1.007-.855.152Z" transform="translate(-222.595 -303.771)" fill="#455a64"/>
              <path id="Trazado_189744" data-name="Trazado 189744" d="M259.231,375.122a.231.231,0,0,0,.231-.231v-3.071a.231.231,0,1,0-.461,0v3.093A.23.23,0,0,0,259.231,375.122Z" transform="translate(-223.616 -308.742)" fill="#455a64"/>
              <path id="Trazado_189745" data-name="Trazado 189745" d="M259.511,377.68a.242.242,0,0,0,.2-.118.237.237,0,0,0-.084-.315l-2.694-1.552a.225.225,0,0,0-.309.075l-.006.01a.231.231,0,0,0,.084.315l2.689,1.552A.236.236,0,0,0,259.511,377.68Z" transform="translate(-222.541 -310.523)" fill="#455a64"/>
              <path id="Trazado_189746" data-name="Trazado 189746" d="M274.141,365.2a.5.5,0,0,0,.253-.067.614.614,0,0,0,.276-.562v-.63a.231.231,0,0,0-.461,0v.63a.207.207,0,0,1-.045.158.376.376,0,0,1-.152-.039,1.361,1.361,0,0,1-.427-1.046v-4.117a.236.236,0,0,0-.467,0v4.117a1.772,1.772,0,0,0,.658,1.446A.714.714,0,0,0,274.141,365.2Z" transform="translate(-246.767 -303.375)" fill="#455a64"/>
              <path id="Trazado_189747" data-name="Trazado 189747" d="M275.909,358.707v-.4a6.553,6.553,0,0,0-2.964-5.135,1.963,1.963,0,0,0-3.195,1.845v.135Zm-4.353-5.49a2.372,2.372,0,0,1,1.159.36,6.119,6.119,0,0,1,2.711,4.314l-5.208-3a1.715,1.715,0,0,1,.714-1.513A1.225,1.225,0,0,1,271.555,353.218Z" transform="translate(-246.093 -300.482)" fill="#455a64"/>
              <path id="Trazado_189748" data-name="Trazado 189748" d="M288.671,354.855a.231.231,0,0,0,.231-.231h0v-7.874a.231.231,0,0,0-.461,0v7.874a.231.231,0,0,0,.231.231Z" transform="translate(-269.615 -297.772)" fill="#455a64"/>
              <path id="Trazado_189749" data-name="Trazado 189749" d="M288.838,348.395a.188.188,0,0,0,.09,0,.231.231,0,0,0,.118-.3l-.821-1.9-.922,1.063a.231.231,0,0,0,0,.326h0a.236.236,0,0,0,.332-.028l.433-.5.562,1.226A.225.225,0,0,0,288.838,348.395Z" transform="translate(-269.102 -297.628)" fill="#455a64"/>
              <path id="Trazado_189750" data-name="Trazado 189750" d="M292.481,352.686a.231.231,0,0,0,.231-.231h0v-7.874a.231.231,0,0,0-.461,0v7.874a.231.231,0,0,0,.231.231Z" transform="translate(-275.568 -296.823)" fill="#455a64"/>
              <path id="Trazado_189751" data-name="Trazado 189751" d="M292.637,346.225a.188.188,0,0,0,.09,0,.231.231,0,0,0,.125-.3v0l-.827-1.9-.917,1.057a.225.225,0,0,0-.008.318l.008.008a.231.231,0,0,0,.326,0h0l.433-.5.534,1.226A.241.241,0,0,0,292.637,346.225Z" transform="translate(-275.044 -296.679)" fill="#455a64"/>
              <path id="Trazado_189752" data-name="Trazado 189752" d="M180.97,351.517l38.837-22.447V301.92L180.97,324.373Z" transform="translate(-140.074 -278.258)" fill="#1b3f5e"/>
              <path id="Trazado_189753" data-name="Trazado 189753" d="M180.97,351.517l38.837-22.447V301.92L180.97,324.373Z" transform="translate(-140.074 -278.258)" opacity="0.1" style="isolation: isolate"/>
              <path id="Trazado_189754" data-name="Trazado 189754" d="M199.844,331l-11.418,6.581a1.154,1.154,0,0,0-.517.894V346.4c0,.652.461.922,1.029.6l11.4-6.586a1.125,1.125,0,0,0,.517-.889v-7.925C200.868,330.939,200.407,330.675,199.844,331Z" transform="translate(-125.022 -290.921)" fill="#fafafa"/>
              <path id="Trazado_189755" data-name="Trazado 189755" d="M189.588,333.3l-.388.225v6.991l.388-.225Z" transform="translate(-114.484 -291.988)" fill="#455a64"/>
              <path id="Trazado_189756" data-name="Trazado 189756" d="M192.669,334.92l-.669.394V342.3l.669-.394Z" transform="translate(-119.14 -292.697)" fill="#455a64"/>
              <path id="Trazado_189757" data-name="Trazado 189757" d="M195.2,336.54l-.388.225v6.991l.388-.225Z" transform="translate(-123.25 -293.406)" fill="#455a64"/>
              <path id="Trazado_189758" data-name="Trazado 189758" d="M197.706,337.74l-.776.461v6.991l.776-.461Z" transform="translate(-126.95 -293.931)" fill="#455a64"/>
              <path id="Trazado_189759" data-name="Trazado 189759" d="M200.808,339.78l-.388.225V347l.388-.225Z" transform="translate(-132.015 -294.823)" fill="#455a64"/>
              <path id="Trazado_189760" data-name="Trazado 189760" d="M203.272,340.92l-.832.495v6.991l.832-.495Z" transform="translate(-135.615 -295.322)" fill="#455a64"/>
              <path id="Trazado_189761" data-name="Trazado 189761" d="M206.418,343.02l-.388.225v6.991l.388-.225Z" transform="translate(-140.78 -296.241)" fill="#455a64"/>
              <path id="Trazado_189762" data-name="Trazado 189762" d="M207.827,343.93l-.2.113v6.991l.2-.113Z" transform="translate(-143.089 -296.639)" fill="#455a64"/>
              <path id="Trazado_189763" data-name="Trazado 189763" d="M204.947,342.34l-.2.112v6.991l.2-.112Z" transform="translate(-138.589 -295.943)" fill="#455a64"/>
              <path id="Trazado_189764" data-name="Trazado 189764" d="M199.3,339.03l-.2.113v6.991l.2-.113Z" transform="translate(-129.761 -294.495)" fill="#455a64"/>
              <path id="Trazado_189765" data-name="Trazado 189765" d="M196.2,337.25l-.191.112v6.991l.191-.107Z" transform="translate(-124.928 -293.716)" fill="#455a64"/>
              <path id="Trazado_189766" data-name="Trazado 189766" d="M193.977,336.03l-.2.112v6.991l.2-.112Z" transform="translate(-121.449 -293.182)" fill="#455a64"/>
              <path id="Trazado_189767" data-name="Trazado 189767" d="M190.961,334.2l-.191.107v7l.191-.112Z" transform="translate(-116.74 -292.382)" fill="#455a64"/>
              <path id="Trazado_189768" data-name="Trazado 189768" d="M209.228,344.64l-.388.225v6.991l.388-.225Z" transform="translate(-145.171 -296.95)" fill="#455a64"/>
              <path id="Trazado_189769" data-name="Trazado 189769" d="M212.615,322.783l-2.655,1.535V320.2l2.655-1.535Z" transform="translate(-149.187 -285.582)" fill="#37474f"/>
              <path id="Trazado_189770" data-name="Trazado 189770" d="M250.856,301.788l-40.9-23.662,2.655-1.535,40.9,23.662Z" transform="translate(-190.083 -267.175)" fill="#455a64"/>
            </g>
            <path id="freepik--shadow--inject-2-6" data-name="freepik--shadow--inject-2" d="M253.845,283.192,222.264,301.37l-40.294-23.3,31.542-18.223Z" transform="translate(-147.148 -233.831)" opacity="0.1" style="isolation: isolate"/>
            <g id="freepik--box--inject-2-3" data-name="freepik--box--inject-2" transform="translate(38.022)">
              <path id="Trazado_189771" data-name="Trazado 189771" d="M182.09,231.706l31.441-18.117L250.7,235.081,219.257,253.2Z" transform="translate(-182.09 -213.59)" fill="#1b3f5e"/>
              <path id="Trazado_189772" data-name="Trazado 189772" d="M182.09,231.706l31.441-18.117L250.7,235.081,219.257,253.2Z" transform="translate(-182.09 -213.59)" fill="#fff" opacity="0.7" style="isolation: isolate"/>
              <path id="Trazado_189773" data-name="Trazado 189773" d="M275.157,293.366l-37.167-21.5V245.8l37.167,21.491Z" transform="translate(-237.99 -227.683)" fill="#1b3f5e"/>
              <path id="Trazado_189774" data-name="Trazado 189774" d="M275.157,293.366l-37.167-21.5V245.8l37.167,21.491Z" transform="translate(-237.99 -227.683)" fill="#fff" opacity="0.6" style="isolation: isolate"/>
              <path id="Trazado_189775" data-name="Trazado 189775" d="M247.209,307.814a.8.8,0,0,0,.394-.1,1.216,1.216,0,0,0,.489-1.091v-3.2h0v-.236l-.163.028-2.509-1.474v3.577a2.9,2.9,0,0,0,1.232,2.34A1.168,1.168,0,0,0,247.209,307.814Zm.484-4.157v2.964a.809.809,0,0,1-.293.737.563.563,0,0,1-.562-.056,2.538,2.538,0,0,1-1.035-1.991v-.264h.928l.186-1.254Zm-1.288.99h-.562v-2.2l1.5.877-.742.135Z" transform="translate(-215.11 -252.16)" fill="#455a64"/>
              <path id="Trazado_189776" data-name="Trazado 189776" d="M247.6,314.647a.2.2,0,0,0,.2-.2v-2.689a.2.2,0,1,0-.4-.067.194.194,0,0,0,0,.067v2.689A.2.2,0,0,0,247.6,314.647Z" transform="translate(-215.939 -256.439)" fill="#455a64"/>
              <path id="Trazado_189777" data-name="Trazado 189777" d="M247.9,316.9a.185.185,0,0,0,.174-.1.2.2,0,0,0-.073-.276l-2.34-1.35a.2.2,0,1,0-.249.319.2.2,0,0,0,.052.03l2.334,1.35A.235.235,0,0,0,247.9,316.9Z" transform="translate(-215.062 -258.02)" fill="#455a64"/>
              <path id="Trazado_189778" data-name="Trazado 189778" d="M260.571,305.983a.428.428,0,0,0,.219-.056.562.562,0,0,0,.242-.484v-.562a.2.2,0,0,0-.4,0h0v.562c0,.084,0,.124-.039.135a.18.18,0,0,1-.129-.034,1.18,1.18,0,0,1-.377-.911v-3.577a.2.2,0,0,0-.4-.067.191.191,0,0,0,0,.067v3.577a1.523,1.523,0,0,0,.562,1.254A.661.661,0,0,0,260.571,305.983Z" transform="translate(-236.065 -251.757)" fill="#455a64"/>
              <path id="Trazado_189779" data-name="Trazado 189779" d="M262.122,300.4v-.349a5.7,5.7,0,0,0-2.576-4.466,1.687,1.687,0,0,0-2.778,1.609v.113Zm-3.78-4.775a2.037,2.037,0,0,1,1,.315,5.309,5.309,0,0,1,2.357,3.752l-4.5-2.615a1.479,1.479,0,0,1,.624-1.31,1.036,1.036,0,0,1,.517-.135Z" transform="translate(-235.496 -249.276)" fill="#455a64"/>
              <path id="Trazado_189780" data-name="Trazado 189780" d="M273.2,297.066a.2.2,0,0,0,.2-.2v-6.851a.2.2,0,1,0-.4,0v6.851a.2.2,0,0,0,.2.2Z" transform="translate(-255.93 -246.94)" fill="#455a64"/>
              <path id="Trazado_189781" data-name="Trazado 189781" d="M273.349,291.491a.2.2,0,0,0,.2-.195.2.2,0,0,0-.019-.087l-.714-1.659-.8.922a.2.2,0,0,0,0,.286h0a.2.2,0,0,0,.278,0l0,0,.382-.439.461,1.069A.2.2,0,0,0,273.349,291.491Z" transform="translate(-255.485 -246.826)" fill="#455a64"/>
              <path id="Trazado_189782" data-name="Trazado 189782" d="M276.512,295.176a.2.2,0,0,0,.2-.2v-6.851a.2.2,0,1,0-.4,0v6.851a.2.2,0,0,0,.2.2Z" transform="translate(-261.101 -246.113)" fill="#455a64"/>
              <path id="Trazado_189783" data-name="Trazado 189783" d="M276.651,289.564h.079a.2.2,0,0,0,.1-.264l-.714-1.659-.8.928a.2.2,0,0,0,.3.259h0l.383-.439.461,1.069A.2.2,0,0,0,276.651,289.564Z" transform="translate(-260.649 -245.991)" fill="#455a64"/>
              <path id="Trazado_189784" data-name="Trazado 189784" d="M182.09,295.992l31.441-18.122V251.8L182.09,269.917Z" transform="translate(-144.923 -230.309)" fill="#1b3f5e"/>
              <path id="Trazado_189785" data-name="Trazado 189785" d="M182.09,295.992l31.441-18.122V251.8L182.09,269.917Z" transform="translate(-144.923 -230.309)" fill="#fff" opacity="0.4" style="isolation: isolate"/>
              <path id="Trazado_189786" data-name="Trazado 189786" d="M199.844,278.1l-11.418,6.581a1.154,1.154,0,0,0-.517.894V293.5c0,.652.461.922,1.029.6l11.4-6.586a1.125,1.125,0,0,0,.517-.889v-7.925C200.868,278.039,200.407,277.775,199.844,278.1Z" transform="translate(-135.517 -241.756)" fill="#fafafa"/>
              <path id="Trazado_189787" data-name="Trazado 189787" d="M189.588,280.4l-.388.225v6.991l.388-.225Z" transform="translate(-124.98 -242.823)" fill="#455a64"/>
              <path id="Trazado_189788" data-name="Trazado 189788" d="M192.669,282.02l-.669.394V289.4l.669-.394Z" transform="translate(-129.636 -243.531)" fill="#455a64"/>
              <path id="Trazado_189789" data-name="Trazado 189789" d="M195.2,283.64l-.388.225v6.991l.388-.225Z" transform="translate(-133.745 -244.24)" fill="#455a64"/>
              <path id="Trazado_189790" data-name="Trazado 189790" d="M197.706,284.84l-.776.461v6.991l.776-.461Z" transform="translate(-137.445 -244.765)" fill="#455a64"/>
              <path id="Trazado_189791" data-name="Trazado 189791" d="M200.808,286.88l-.388.225V294.1l.388-.225Z" transform="translate(-142.51 -245.658)" fill="#455a64"/>
              <path id="Trazado_189792" data-name="Trazado 189792" d="M203.272,288.02l-.832.495v6.991l.832-.495Z" transform="translate(-146.111 -246.157)" fill="#455a64"/>
              <path id="Trazado_189793" data-name="Trazado 189793" d="M206.418,290.12l-.388.225v6.991l.388-.225Z" transform="translate(-151.276 -247.076)" fill="#455a64"/>
              <path id="Trazado_189794" data-name="Trazado 189794" d="M207.827,291.03l-.2.112v6.991l.2-.113Z" transform="translate(-153.584 -247.474)" fill="#455a64"/>
              <path id="Trazado_189795" data-name="Trazado 189795" d="M204.947,289.44l-.2.113v6.991l.2-.112Z" transform="translate(-149.084 -246.778)" fill="#455a64"/>
              <path id="Trazado_189796" data-name="Trazado 189796" d="M199.3,286.13l-.2.113v6.991l.2-.112Z" transform="translate(-140.257 -245.33)" fill="#455a64"/>
              <path id="Trazado_189797" data-name="Trazado 189797" d="M196.2,284.35l-.191.113v6.991l.191-.107Z" transform="translate(-135.423 -244.551)" fill="#455a64"/>
              <path id="Trazado_189798" data-name="Trazado 189798" d="M193.977,283.13l-.2.107v7l.2-.112Z" transform="translate(-131.944 -244.017)" fill="#455a64"/>
              <path id="Trazado_189799" data-name="Trazado 189799" d="M190.961,281.3l-.191.107v7l.191-.112Z" transform="translate(-127.236 -243.216)" fill="#455a64"/>
              <path id="Trazado_189800" data-name="Trazado 189800" d="M209.228,291.74l-.388.219v7l.388-.225Z" transform="translate(-155.666 -247.785)" fill="#455a64"/>
              <path id="Trazado_189801" data-name="Trazado 189801" d="M208.139,269.61l-2.958,1.71v-4.59l2.958-1.71Z" transform="translate(-152.518 -236.093)" fill="#37474f"/>
              <path id="Trazado_189802" data-name="Trazado 189802" d="M242.352,250.011l-37.172-21.5,2.964-1.7L245.311,248.3Z" transform="translate(-189.69 -219.374)" fill="#455a64"/>
            </g>
            <g id="freepik--Cans--inject-2" transform="translate(11.249 63.26)">
              <path id="Trazado_189803" data-name="Trazado 189803" d="M334.9,361.3a14.144,14.144,0,0,1-12.818,0c-3.543-2.047-3.538-5.355,0-7.4a14.173,14.173,0,0,1,12.824,0C338.453,355.939,338.447,359.257,334.9,361.3Z" transform="translate(-319.43 -337.571)" fill="#37474f"/>
              <path id="Trazado_189804" data-name="Trazado 189804" d="M321.938,349.222h0V333.94h15.3v15.282h0c.062,1.176-.675,2.368-2.25,3.262a11.963,11.963,0,0,1-10.827,0C322.613,351.59,321.87,350.4,321.938,349.222Z" transform="translate(-320.514 -329.509)" fill="#ebebeb"/>
              <path id="Trazado_189805" data-name="Trazado 189805" d="M335.013,333.615a11.963,11.963,0,0,1-10.827,0c-2.992-1.727-2.987-4.5,0-6.249a11.893,11.893,0,0,1,10.827,0C338,329.093,338.005,331.888,335.013,333.615Z" transform="translate(-320.535 -326.062)" fill="#fafafa"/>
              <path id="Trazado_189806" data-name="Trazado 189806" d="M335.048,333.609a11.486,11.486,0,0,1-10.163,0c-2.807-1.58-2.812-4.157,0-5.743a11.467,11.467,0,0,1,10.163,0C337.855,329.447,337.855,332.045,335.048,333.609Z" transform="translate(-320.902 -326.332)" fill="#ebebeb"/>
              <path id="Trazado_189807" data-name="Trazado 189807" d="M324.9,329.228a11.486,11.486,0,0,1,10.163,0,2.544,2.544,0,0,1,0,5,11.486,11.486,0,0,1-10.163,0,3.741,3.741,0,0,1-2.07-2.5A3.788,3.788,0,0,1,324.9,329.228Z" transform="translate(-320.917 -326.929)" fill="#f5f5f5"/>
              <path id="Trazado_189808" data-name="Trazado 189808" d="M337.267,348.557a3.814,3.814,0,0,1-2.25,3.144,11.963,11.963,0,0,1-10.827,0,3.816,3.816,0,0,1-2.25-3.122V338.343a3.829,3.829,0,0,0,2.25,3.127,11.963,11.963,0,0,0,10.827,0,3.812,3.812,0,0,0,2.25-3.15Z" transform="translate(-320.544 -331.426)" fill="#1b3f5e"/>
              <path id="Trazado_189809" data-name="Trazado 189809" d="M337.267,348.557a3.814,3.814,0,0,1-2.25,3.144,11.963,11.963,0,0,1-10.827,0,3.816,3.816,0,0,1-2.25-3.122V338.343a3.829,3.829,0,0,0,2.25,3.127,11.963,11.963,0,0,0,10.827,0,3.812,3.812,0,0,0,2.25-3.15Z" transform="translate(-320.544 -331.426)" opacity="0.3" style="isolation: isolate"/>
              <path id="Trazado_189810" data-name="Trazado 189810" d="M321.927,353.385a12.09,12.09,0,0,0,8.549-.906c1.558-.894,2.295-2.081,2.25-3.268h0V333.93a3.829,3.829,0,0,1-2.25,3.127,9.073,9.073,0,0,1-3.133,1.1V351.09C327.343,352.35,325.47,353.874,321.927,353.385Z" transform="translate(-315.998 -329.505)" opacity="0.1" style="isolation: isolate"/>
              <path id="Trazado_189811" data-name="Trazado 189811" d="M338.315,337.42l.816-.467c.658-.382.832-.894.394-1.153a2.311,2.311,0,0,0-2,.231l-.81.467c-.658.383-.838.894-.394,1.153A2.3,2.3,0,0,0,338.315,337.42Z" transform="translate(-330.997 -330.267)" fill="#e0e0e0"/>
              <path id="Trazado_189812" data-name="Trazado 189812" d="M337.881,336.689a.957.957,0,0,1-.872,0c-.242-.135-.242-.36,0-.5a.957.957,0,0,1,.872,0C338.123,336.329,338.123,336.554,337.881,336.689Z" transform="translate(-329.713 -330.447)" fill="#f5f5f5"/>
              <path id="Trazado_189813" data-name="Trazado 189813" d="M340.735,338.238a.957.957,0,0,1-.872,0,.27.27,0,0,1,0-.506.989.989,0,0,1,.872,0,.27.27,0,0,1,0,.506Z" transform="translate(-334.17 -331.124)" fill="#f5f5f5"/>
              <path id="Trazado_189814" data-name="Trazado 189814" d="M314.751,372.951a14.19,14.19,0,0,1-12.824,0c-3.543-2.042-3.538-5.36,0-7.4a14.19,14.19,0,0,1,12.824,0C318.294,367.59,318.3,370.909,314.751,372.951Z" transform="translate(-287.938 -342.67)" fill="#37474f"/>
              <path id="Trazado_189815" data-name="Trazado 189815" d="M301.766,360.862h0V345.58h15.316v15.282h0c.062,1.181-.675,2.368-2.25,3.268a11.951,11.951,0,0,1-10.822,0A3.752,3.752,0,0,1,301.766,360.862Z" transform="translate(-289.014 -334.602)" fill="#ebebeb"/>
              <path id="Trazado_189816" data-name="Trazado 189816" d="M314.837,345.269a11.986,11.986,0,0,1-10.822,0c-2.987-1.721-2.992-4.528,0-6.255a11.968,11.968,0,0,1,10.822,0C317.824,340.735,317.83,343.542,314.837,345.269Z" transform="translate(-289.015 -331.164)" fill="#fafafa"/>
              <path id="Trazado_189817" data-name="Trazado 189817" d="M314.878,345.292a11.448,11.448,0,0,1-10.163,0c-2.807-1.586-2.812-4.151,0-5.737a11.449,11.449,0,0,1,10.163,0C317.685,341.141,317.685,343.705,314.878,345.292Z" transform="translate(-289.387 -331.445)" fill="#ebebeb"/>
              <path id="Trazado_189818" data-name="Trazado 189818" d="M304.73,340.875a11.449,11.449,0,0,1,10.163,0,2.54,2.54,0,0,1,0,4.995,11.449,11.449,0,0,1-10.163,0,3.741,3.741,0,0,1-2.07-2.5A3.7,3.7,0,0,1,304.73,340.875Z" transform="translate(-289.402 -332.023)" fill="#f5f5f5"/>
              <path id="Trazado_189819" data-name="Trazado 189819" d="M317.091,360.2c0,1.125-.737,2.25-2.25,3.15a11.951,11.951,0,0,1-10.822,0,3.819,3.819,0,0,1-2.25-3.127V349.983a3.829,3.829,0,0,0,2.25,3.127,11.986,11.986,0,0,0,10.822,0,3.826,3.826,0,0,0,2.25-3.15Z" transform="translate(-289.024 -336.519)" fill="#1b3f5e"/>
              <path id="Trazado_189820" data-name="Trazado 189820" d="M317.091,360.2c0,1.125-.737,2.25-2.25,3.15a11.951,11.951,0,0,1-10.822,0,3.819,3.819,0,0,1-2.25-3.127V349.983a3.829,3.829,0,0,0,2.25,3.127,11.986,11.986,0,0,0,10.822,0,3.826,3.826,0,0,0,2.25-3.15Z" transform="translate(-289.024 -336.519)" opacity="0.3" style="isolation: isolate"/>
              <path id="Trazado_189821" data-name="Trazado 189821" d="M301.8,365.035a12.09,12.09,0,0,0,8.549-.906c1.558-.894,2.295-2.087,2.25-3.268h0V345.58a3.829,3.829,0,0,1-2.25,3.127,9,9,0,0,1-3.133,1.091v12.936C307.235,364,305.363,365.5,301.8,365.035Z" transform="translate(-284.546 -334.602)" opacity="0.1" style="isolation: isolate"/>
              <path id="Trazado_189822" data-name="Trazado 189822" d="M318.145,349.084l.816-.472c.658-.377.832-.894.394-1.125a2.289,2.289,0,0,0-2,.225l-.81.472c-.658.377-.838.894-.394,1.125A2.318,2.318,0,0,0,318.145,349.084Z" transform="translate(-299.483 -335.379)" fill="#e0e0e0"/>
              <path id="Trazado_189823" data-name="Trazado 189823" d="M317.735,348.337a.957.957,0,0,1-.872,0,.27.27,0,0,1,0-.506.989.989,0,0,1,.872,0,.27.27,0,0,1,0,.506Z" transform="translate(-298.234 -335.543)" fill="#f5f5f5"/>
              <path id="Trazado_189824" data-name="Trazado 189824" d="M320.575,349.884a.989.989,0,0,1-.872,0,.27.27,0,0,1,0-.506.957.957,0,0,1,.872,0,.27.27,0,0,1,0,.506Z" transform="translate(-302.671 -336.218)" fill="#f5f5f5"/>
              <ellipse id="Elipse_5124" data-name="Elipse 5124" cx="9.067" cy="5.236" rx="9.067" ry="5.236" transform="translate(22.69 27.89)" fill="#37474f"/>
              <path id="Trazado_189825" data-name="Trazado 189825" d="M281.6,372.512h0V357.23h15.3v15.282h0c.062,1.175-.675,2.368-2.25,3.268a11.985,11.985,0,0,1-10.822,0C282.272,374.88,281.535,373.687,281.6,372.512Z" transform="translate(-257.484 -339.7)" fill="#ebebeb"/>
              <path id="Trazado_189826" data-name="Trazado 189826" d="M294.667,356.9a11.951,11.951,0,0,1-10.822,0c-2.987-1.727-2.992-4.5,0-6.249a11.882,11.882,0,0,1,10.822,0C297.654,352.383,297.66,355.178,294.667,356.9Z" transform="translate(-257.5 -336.253)" fill="#fafafa"/>
              <path id="Trazado_189827" data-name="Trazado 189827" d="M294.708,356.939a11.449,11.449,0,0,1-10.163,0c-2.807-1.586-2.812-4.156,0-5.743a11.467,11.467,0,0,1,10.163,0C297.515,352.777,297.515,355.353,294.708,356.939Z" transform="translate(-257.873 -336.54)" fill="#ebebeb"/>
              <path id="Trazado_189828" data-name="Trazado 189828" d="M284.56,352.518a11.486,11.486,0,0,1,10.163,0,2.544,2.544,0,0,1,0,5,11.449,11.449,0,0,1-10.163,0,2.545,2.545,0,0,1,0-5Z" transform="translate(-257.888 -337.119)" fill="#f5f5f5"/>
              <path id="Trazado_189829" data-name="Trazado 189829" d="M296.921,371.847a3.814,3.814,0,0,1-2.25,3.144,11.951,11.951,0,0,1-10.822,0,3.8,3.8,0,0,1-2.25-3.122V361.633a3.829,3.829,0,0,0,2.25,3.127,11.951,11.951,0,0,0,10.822,0,3.812,3.812,0,0,0,2.25-3.15Z" transform="translate(-257.51 -341.616)" fill="#1b3f5e"/>
              <path id="Trazado_189830" data-name="Trazado 189830" d="M296.921,371.847a3.814,3.814,0,0,1-2.25,3.144,11.951,11.951,0,0,1-10.822,0,3.8,3.8,0,0,1-2.25-3.122V361.633a3.829,3.829,0,0,0,2.25,3.127,11.951,11.951,0,0,0,10.822,0,3.812,3.812,0,0,0,2.25-3.15Z" transform="translate(-257.51 -341.616)" opacity="0.3" style="isolation: isolate"/>
              <path id="Trazado_189831" data-name="Trazado 189831" d="M297.975,360.71l.816-.467c.658-.382.832-.894.394-1.153a2.311,2.311,0,0,0-2,.231l-.81.467c-.658.382-.838.894-.394,1.153A2.3,2.3,0,0,0,297.975,360.71Z" transform="translate(-267.968 -340.458)" fill="#e0e0e0"/>
              <path id="Trazado_189832" data-name="Trazado 189832" d="M297.541,359.979a.957.957,0,0,1-.872,0c-.242-.135-.242-.36,0-.5a.957.957,0,0,1,.872,0C297.783,359.619,297.783,359.844,297.541,359.979Z" transform="translate(-266.684 -340.638)" fill="#f5f5f5"/>
              <path id="Trazado_189833" data-name="Trazado 189833" d="M300.4,361.529a.957.957,0,0,1-.872,0c-.242-.141-.242-.366,0-.5a.957.957,0,0,1,.872,0C300.643,361.163,300.643,361.388,300.4,361.529Z" transform="translate(-271.153 -341.316)" fill="#f5f5f5"/>
              <path id="Trazado_189834" data-name="Trazado 189834" d="M281.6,376.685a12.072,12.072,0,0,0,8.544-.911c1.558-.894,2.3-2.081,2.25-3.262h0V357.23a3.841,3.841,0,0,1-2.25,3.127,9,9,0,0,1-3.127,1.091v12.936C287.012,375.661,285.139,377.169,281.6,376.685Z" transform="translate(-252.978 -339.7)" opacity="0.1" style="isolation: isolate"/>
              <path id="Trazado_189835" data-name="Trazado 189835" d="M274.4,396.241a14.19,14.19,0,0,1-12.824,0c-3.543-2.042-3.538-5.36,0-7.4a14.19,14.19,0,0,1,12.824,0C277.942,390.881,277.936,394.2,274.4,396.241Z" transform="translate(-224.885 -352.86)" fill="#37474f"/>
              <path id="Trazado_189836" data-name="Trazado 189836" d="M261.427,384.157h0V368.87h15.3v15.287h0c.062,1.176-.675,2.362-2.25,3.262a11.951,11.951,0,0,1-10.822,0C262.1,386.52,261.365,385.333,261.427,384.157Z" transform="translate(-225.97 -344.793)" fill="#ebebeb"/>
              <ellipse id="Elipse_5125" data-name="Elipse 5125" cx="7.655" cy="4.421" rx="7.655" ry="4.421" transform="translate(35.446 19.656)" fill="#fafafa"/>
              <path id="Trazado_189837" data-name="Trazado 189837" d="M274.521,368.613a11.449,11.449,0,0,1-10.164,0c-2.807-1.586-2.812-4.151,0-5.737a11.541,11.541,0,0,1,10.164-.017C277.333,364.417,277.333,367.016,274.521,368.613Z" transform="translate(-226.335 -341.651)" fill="#ebebeb"/>
              <path id="Trazado_189838" data-name="Trazado 189838" d="M264.39,364.165a11.449,11.449,0,0,1,10.163,0,2.54,2.54,0,0,1,0,4.995,11.449,11.449,0,0,1-10.163,0,2.541,2.541,0,0,1,0-4.995Z" transform="translate(-226.373 -342.214)" fill="#f5f5f5"/>
              <path id="Trazado_189839" data-name="Trazado 189839" d="M276.751,383.491a3.829,3.829,0,0,1-2.25,3.15,11.951,11.951,0,0,1-10.822,0,3.819,3.819,0,0,1-2.25-3.127V373.283a3.829,3.829,0,0,0,2.25,3.127,11.986,11.986,0,0,0,10.822,0,3.826,3.826,0,0,0,2.25-3.15Z" transform="translate(-225.995 -346.714)" fill="#1b3f5e"/>
              <path id="Trazado_189840" data-name="Trazado 189840" d="M276.751,383.491a3.829,3.829,0,0,1-2.25,3.15,11.951,11.951,0,0,1-10.822,0,3.819,3.819,0,0,1-2.25-3.127V373.283a3.829,3.829,0,0,0,2.25,3.127,11.986,11.986,0,0,0,10.822,0,3.826,3.826,0,0,0,2.25-3.15Z" transform="translate(-225.995 -346.714)" opacity="0.3" style="isolation: isolate"/>
              <path id="Trazado_189841" data-name="Trazado 189841" d="M261.417,388.325a12.074,12.074,0,0,0,8.544-.906c1.558-.894,2.295-2.087,2.25-3.268h0V368.87A3.829,3.829,0,0,1,269.96,372a8.925,8.925,0,0,1-3.133,1.091v12.936C266.822,387.29,264.954,388.815,261.417,388.325Z" transform="translate(-221.448 -344.793)" opacity="0.1" style="isolation: isolate"/>
              <path id="Trazado_189842" data-name="Trazado 189842" d="M277.806,372.376l.816-.472c.658-.377.832-.894.394-1.125a2.307,2.307,0,0,0-2,.225l-.81.473c-.658.377-.838.894-.394,1.125A2.317,2.317,0,0,0,277.806,372.376Z" transform="translate(-236.454 -345.571)" fill="#e0e0e0"/>
              <ellipse id="Elipse_5126" data-name="Elipse 5126" cx="0.619" cy="0.354" rx="0.619" ry="0.354" transform="translate(41.149 25.286)" fill="#f5f5f5"/>
              <path id="Trazado_189843" data-name="Trazado 189843" d="M280.235,373.174a.989.989,0,0,1-.872,0,.27.27,0,0,1,0-.506.957.957,0,0,1,.872,0,.27.27,0,0,1,0,.506Z" transform="translate(-239.642 -346.409)" fill="#f5f5f5"/>
            </g>
            <g id="freepik--cans--inject-2-2" data-name="freepik--cans--inject-2" transform="translate(0 69.773)">
              <path id="Trazado_189844" data-name="Trazado 189844" d="M354.908,372.859a14.155,14.155,0,0,1-12.824,0c-3.543-2.047-3.538-5.354,0-7.4a14.173,14.173,0,0,1,12.824,0C358.452,367.5,358.446,370.817,354.908,372.859Z" transform="translate(-339.429 -349.141)" fill="#37474f"/>
              <path id="Trazado_189845" data-name="Trazado 189845" d="M341.937,360.777h0V345.49h15.3v15.287h0c.062,1.176-.675,2.362-2.25,3.262a11.951,11.951,0,0,1-10.822,0C342.612,363.14,341.875,361.953,341.937,360.777Z" transform="translate(-340.514 -341.075)" fill="#ebebeb"/>
              <path id="Trazado_189846" data-name="Trazado 189846" d="M355.007,345.183a11.951,11.951,0,0,1-10.822,0c-2.987-1.727-2.992-4.528,0-6.249a11.968,11.968,0,0,1,10.822,0C357.994,340.661,358,343.468,355.007,345.183Z" transform="translate(-340.529 -337.641)" fill="#fafafa"/>
              <path id="Trazado_189847" data-name="Trazado 189847" d="M355.038,345.2a11.449,11.449,0,0,1-10.163,0c-2.807-1.586-2.812-4.151,0-5.737a11.449,11.449,0,0,1,10.163,0C357.845,341.051,357.845,343.621,355.038,345.2Z" transform="translate(-340.886 -337.919)" fill="#ebebeb"/>
              <path id="Trazado_189848" data-name="Trazado 189848" d="M344.905,340.785a11.449,11.449,0,0,1,10.163,0,2.541,2.541,0,0,1,0,4.995,11.449,11.449,0,0,1-10.163,0,3.736,3.736,0,0,1-2.075-2.5A3.811,3.811,0,0,1,344.905,340.785Z" transform="translate(-340.917 -338.496)" fill="#f5f5f5"/>
              <path id="Trazado_189849" data-name="Trazado 189849" d="M357.261,360.111a3.822,3.822,0,0,1-2.25,3.15,11.951,11.951,0,0,1-10.822,0,3.8,3.8,0,0,1-2.25-3.127V349.9a3.829,3.829,0,0,0,2.25,3.127,11.951,11.951,0,0,0,10.822,0,3.826,3.826,0,0,0,2.25-3.15Z" transform="translate(-340.539 -342.996)" fill="#1b3f5e"/>
              <path id="Trazado_189850" data-name="Trazado 189850" d="M357.261,360.111a3.822,3.822,0,0,1-2.25,3.15,11.951,11.951,0,0,1-10.822,0,3.8,3.8,0,0,1-2.25-3.127V349.9a3.829,3.829,0,0,0,2.25,3.127,11.951,11.951,0,0,0,10.822,0,3.826,3.826,0,0,0,2.25-3.15Z" transform="translate(-340.539 -342.996)" opacity="0.3" style="isolation: isolate"/>
              <path id="Trazado_189851" data-name="Trazado 189851" d="M341.927,364.945a12.071,12.071,0,0,0,8.544-.906c1.558-.894,2.295-2.087,2.25-3.268h0V345.49a3.829,3.829,0,0,1-2.25,3.127,8.93,8.93,0,0,1-3.133,1.1V362.65C347.337,363.91,345.464,365.463,341.927,364.945Z" transform="translate(-335.992 -341.075)" opacity="0.1" style="isolation: isolate"/>
              <path id="Trazado_189852" data-name="Trazado 189852" d="M358.313,348.98l.816-.467c.658-.383.832-.9.394-1.153a2.33,2.33,0,0,0-2,.225l-.81.472c-.658.377-.832.894-.394,1.125A2.251,2.251,0,0,0,358.313,348.98Z" transform="translate(-350.995 -341.837)" fill="#e0e0e0"/>
              <path id="Trazado_189853" data-name="Trazado 189853" d="M357.878,348.249a.969.969,0,0,1-.877,0,.264.264,0,0,1,0-.5.969.969,0,0,1,.877,0,.264.264,0,0,1,0,.5Z" transform="translate(-349.705 -342.018)" fill="#f5f5f5"/>
              <path id="Trazado_189854" data-name="Trazado 189854" d="M360.735,349.795a.989.989,0,0,1-.872,0,.27.27,0,0,1,0-.506.957.957,0,0,1,.872,0,.27.27,0,0,1,0,.506Z" transform="translate(-354.17 -342.691)" fill="#f5f5f5"/>
              <ellipse id="Elipse_5127" data-name="Elipse 5127" cx="9.067" cy="5.236" rx="9.067" ry="5.236" transform="translate(11.345 21.333)" fill="#37474f"/>
              <path id="Trazado_189855" data-name="Trazado 189855" d="M321.766,372.422h0V357.14h15.316v15.282h0c.062,1.181-.675,2.368-2.25,3.268a11.951,11.951,0,0,1-10.822,0C322.457,374.79,321.721,373.6,321.766,372.422Z" transform="translate(-309.014 -346.173)" fill="#ebebeb"/>
              <path id="Trazado_189856" data-name="Trazado 189856" d="M334.837,356.815a11.951,11.951,0,0,1-10.822,0c-2.987-1.727-2.992-4.5,0-6.249a11.882,11.882,0,0,1,10.822,0C337.824,352.293,337.83,355.088,334.837,356.815Z" transform="translate(-309.015 -342.726)" fill="#fafafa"/>
              <path id="Trazado_189857" data-name="Trazado 189857" d="M334.868,356.853a11.449,11.449,0,0,1-10.164,0c-2.807-1.586-2.812-4.156,0-5.737a11.467,11.467,0,0,1,10.164,0C337.675,352.7,337.675,355.267,334.868,356.853Z" transform="translate(-309.371 -343.018)" fill="#ebebeb"/>
              <path id="Trazado_189858" data-name="Trazado 189858" d="M324.735,352.435a11.449,11.449,0,0,1,10.163,0,2.541,2.541,0,0,1,0,4.995,11.449,11.449,0,0,1-10.163,0,2.54,2.54,0,0,1,0-4.995Z" transform="translate(-309.402 -343.594)" fill="#f5f5f5"/>
              <path id="Trazado_189859" data-name="Trazado 189859" d="M337.091,371.761c0,1.125-.737,2.25-2.25,3.15a11.986,11.986,0,0,1-10.822,0,3.819,3.819,0,0,1-2.25-3.127V361.553a3.815,3.815,0,0,0,2.25,3.122,11.951,11.951,0,0,0,10.822,0,3.811,3.811,0,0,0,2.25-3.144Z" transform="translate(-309.024 -348.094)" fill="#1b3f5e"/>
              <path id="Trazado_189860" data-name="Trazado 189860" d="M337.091,371.761c0,1.125-.737,2.25-2.25,3.15a11.986,11.986,0,0,1-10.822,0,3.819,3.819,0,0,1-2.25-3.127V361.553a3.815,3.815,0,0,0,2.25,3.122,11.951,11.951,0,0,0,10.822,0,3.811,3.811,0,0,0,2.25-3.144Z" transform="translate(-309.024 -348.094)" opacity="0.3" style="isolation: isolate"/>
              <path id="Trazado_189861" data-name="Trazado 189861" d="M321.807,376.6a12.071,12.071,0,0,0,8.544-.911c1.558-.894,2.295-2.081,2.25-3.262h0V357.14a3.829,3.829,0,0,1-2.25,3.127,9.054,9.054,0,0,1-3.133,1.091v12.936C327.245,375.56,325.373,377.079,321.807,376.6Z" transform="translate(-304.556 -346.173)" opacity="0.1" style="isolation: isolate"/>
              <path id="Trazado_189862" data-name="Trazado 189862" d="M338.149,360.662l.81-.467c.658-.382.832-.894.394-1.125a2.311,2.311,0,0,0-2,.231l-.81.467c-.658.383-.832.894-.394,1.153A2.312,2.312,0,0,0,338.149,360.662Z" transform="translate(-319.48 -346.961)" fill="#e0e0e0"/>
              <path id="Trazado_189863" data-name="Trazado 189863" d="M337.735,359.895a.989.989,0,0,1-.872,0,.27.27,0,0,1,0-.506.958.958,0,0,1,.872,0,.27.27,0,0,1,0,.506Z" transform="translate(-318.234 -347.111)" fill="#f5f5f5"/>
              <path id="Trazado_189864" data-name="Trazado 189864" d="M340.572,361.439a.957.957,0,0,1-.872,0,.264.264,0,0,1,0-.5.957.957,0,0,1,.872,0,.264.264,0,0,1,0,.5Z" transform="translate(-322.669 -347.789)" fill="#f5f5f5"/>
              <path id="Trazado_189865" data-name="Trazado 189865" d="M314.568,396.149a14.155,14.155,0,0,1-12.824,0c-3.543-2.047-3.538-5.355,0-7.4a14.173,14.173,0,0,1,12.824,0C318.112,390.789,318.106,394.107,314.568,396.149Z" transform="translate(-276.4 -359.332)" fill="#37474f"/>
              <path id="Trazado_189866" data-name="Trazado 189866" d="M301.6,384.09h0V368.78h15.3v15.31h0c.062,1.176-.675,2.362-2.25,3.262a11.951,11.951,0,0,1-10.822,0C302.272,386.43,301.535,385.243,301.6,384.09Z" transform="translate(-277.484 -351.266)" fill="#ebebeb"/>
              <path id="Trazado_189867" data-name="Trazado 189867" d="M314.667,368.465a11.951,11.951,0,0,1-10.822,0c-2.987-1.727-2.992-4.5,0-6.249a11.882,11.882,0,0,1,10.822,0C317.654,363.943,317.66,366.738,314.667,368.465Z" transform="translate(-277.5 -347.824)" fill="#fafafa"/>
              <path id="Trazado_189868" data-name="Trazado 189868" d="M314.7,368.5a11.486,11.486,0,0,1-10.163,0c-2.807-1.581-2.812-4.157,0-5.743a11.449,11.449,0,0,1,10.163,0C317.5,364.341,317.5,366.911,314.7,368.5Z" transform="translate(-277.857 -348.109)" fill="#ebebeb"/>
              <path id="Trazado_189869" data-name="Trazado 189869" d="M304.565,364.075a11.449,11.449,0,0,1,10.163,0,2.541,2.541,0,0,1,0,4.995,11.449,11.449,0,0,1-10.163,0,2.54,2.54,0,0,1,0-4.995Z" transform="translate(-277.888 -348.687)" fill="#f5f5f5"/>
              <path id="Trazado_189870" data-name="Trazado 189870" d="M316.921,383.4a3.821,3.821,0,0,1-2.25,3.15,11.95,11.95,0,0,1-10.822,0,3.8,3.8,0,0,1-2.25-3.122V373.193a3.829,3.829,0,0,0,2.25,3.127,11.951,11.951,0,0,0,10.822,0,3.819,3.819,0,0,0,2.25-3.15Z" transform="translate(-277.51 -353.187)" fill="#1b3f5e"/>
              <path id="Trazado_189871" data-name="Trazado 189871" d="M316.921,383.4a3.821,3.821,0,0,1-2.25,3.15,11.95,11.95,0,0,1-10.822,0,3.8,3.8,0,0,1-2.25-3.122V373.193a3.829,3.829,0,0,0,2.25,3.127,11.951,11.951,0,0,0,10.822,0,3.819,3.819,0,0,0,2.25-3.15Z" transform="translate(-277.51 -353.187)" opacity="0.3" style="isolation: isolate"/>
              <path id="Trazado_189872" data-name="Trazado 189872" d="M317.979,372.27l.81-.467c.658-.382.832-.9.394-1.153a2.33,2.33,0,0,0-2,.225l-.81.472c-.658.377-.832.894-.394,1.125A2.289,2.289,0,0,0,317.979,372.27Z" transform="translate(-287.966 -352.028)" fill="#e0e0e0"/>
              <path id="Trazado_189873" data-name="Trazado 189873" d="M317.534,371.529a.957.957,0,0,1-.872,0c-.242-.141-.242-.366,0-.5a.957.957,0,0,1,.872,0,.264.264,0,0,1,0,.5Z" transform="translate(-286.672 -352.204)" fill="#f5f5f5"/>
              <path id="Trazado_189874" data-name="Trazado 189874" d="M320.4,373.087a.957.957,0,0,1-.872,0,.27.27,0,0,1,0-.506.989.989,0,0,1,.872,0,.27.27,0,0,1,0,.506Z" transform="translate(-291.157 -352.885)" fill="#f5f5f5"/>
              <path id="Trazado_189875" data-name="Trazado 189875" d="M301.587,388.24a12.074,12.074,0,0,0,8.544-.906c1.558-.894,2.295-2.081,2.25-3.262h0V368.79a3.829,3.829,0,0,1-2.25,3.127A9.189,9.189,0,0,1,307,373.008v12.936C307,387.21,305.124,388.729,301.587,388.24Z" transform="translate(-272.963 -351.27)" opacity="0.1" style="isolation: isolate"/>
              <path id="Trazado_189876" data-name="Trazado 189876" d="M294.4,407.8a14.19,14.19,0,0,1-12.824,0c-3.543-2.042-3.538-5.36,0-7.4a14.173,14.173,0,0,1,12.824,0C297.942,402.444,297.936,405.752,294.4,407.8Z" transform="translate(-244.885 -364.429)" fill="#37474f"/>
              <path id="Trazado_189877" data-name="Trazado 189877" d="M281.427,395.712h0V380.43h15.3v15.282h0c.062,1.181-.675,2.368-2.25,3.268a11.951,11.951,0,0,1-10.822,0C282.1,398.08,281.365,396.893,281.427,395.712Z" transform="translate(-245.97 -356.363)" fill="#ebebeb"/>
              <path id="Trazado_189878" data-name="Trazado 189878" d="M294.5,380.125a11.951,11.951,0,0,1-10.822,0c-2.987-1.727-2.992-4.5,0-6.249a11.882,11.882,0,0,1,10.822,0C297.484,375.6,297.49,378.392,294.5,380.125Z" transform="translate(-245.985 -352.925)" fill="#fafafa"/>
              <path id="Trazado_189879" data-name="Trazado 189879" d="M294.524,380.143a11.449,11.449,0,0,1-10.164,0c-2.807-1.586-2.812-4.156,0-5.737a11.468,11.468,0,0,1,10.164,0C297.331,375.992,297.337,378.557,294.524,380.143Z" transform="translate(-246.339 -353.208)" fill="#ebebeb"/>
              <path id="Trazado_189880" data-name="Trazado 189880" d="M284.4,375.725a11.449,11.449,0,0,1,10.163,0,2.541,2.541,0,0,1,0,4.995,11.449,11.449,0,0,1-10.163,0,2.54,2.54,0,0,1,0-4.995Z" transform="translate(-246.373 -353.784)" fill="#f5f5f5"/>
              <path id="Trazado_189881" data-name="Trazado 189881" d="M296.751,395.045a3.829,3.829,0,0,1-2.25,3.15,11.986,11.986,0,0,1-10.822,0,3.819,3.819,0,0,1-2.25-3.127V384.842a3.814,3.814,0,0,0,2.25,3.122,11.951,11.951,0,0,0,10.822,0,3.811,3.811,0,0,0,2.25-3.144Z" transform="translate(-245.995 -358.284)" fill="#1b3f5e"/>
              <path id="Trazado_189882" data-name="Trazado 189882" d="M296.751,395.045a3.829,3.829,0,0,1-2.25,3.15,11.986,11.986,0,0,1-10.822,0,3.819,3.819,0,0,1-2.25-3.127V384.842a3.814,3.814,0,0,0,2.25,3.122,11.951,11.951,0,0,0,10.822,0,3.811,3.811,0,0,0,2.25-3.144Z" transform="translate(-245.995 -358.284)" opacity="0.3" style="isolation: isolate"/>
              <path id="Trazado_189883" data-name="Trazado 189883" d="M281.417,399.874a12.071,12.071,0,0,0,8.544-.911c1.558-.894,2.295-2.081,2.25-3.262h0V380.43a3.829,3.829,0,0,1-2.25,3.127,9.055,9.055,0,0,1-3.133,1.091v12.936C286.822,398.85,284.954,400.369,281.417,399.874Z" transform="translate(-241.448 -356.363)" opacity="0.1" style="isolation: isolate"/>
              <path id="Trazado_189884" data-name="Trazado 189884" d="M297.809,383.926l.81-.467c.658-.382.832-.894.394-1.125a2.248,2.248,0,0,0-1.991.225l-.816.467c-.658.382-.832.9-.394,1.153A2.313,2.313,0,0,0,297.809,383.926Z" transform="translate(-256.451 -357.137)" fill="#e0e0e0"/>
              <ellipse id="Elipse_5128" data-name="Elipse 5128" cx="0.619" cy="0.354" rx="0.619" ry="0.354" transform="translate(41.15 25.276)" fill="#f5f5f5"/>
              <path id="Trazado_189885" data-name="Trazado 189885" d="M300.229,384.729a.957.957,0,0,1-.872,0,.264.264,0,0,1,0-.5.957.957,0,0,1,.872,0C300.471,384.369,300.471,384.616,300.229,384.729Z" transform="translate(-259.636 -357.979)" fill="#f5f5f5"/>
            </g>
          </g>
        </g>
      </g>
      <g id="freepik--Boxes--inject-2" transform="translate(168.372 121.964)">
        <g id="freepik--boxes--inject-2-2" data-name="freepik--boxes--inject-2" transform="translate(0)">
          <g id="freepik--box--inject-2-4" data-name="freepik--box--inject-2" transform="translate(0 29.613)">
            <g id="freepik--box--inject-2-5" data-name="freepik--box--inject-2" transform="translate(0)">
              <g id="freepik--back-box--inject-2">
                <path id="Trazado_189886" data-name="Trazado 189886" d="M122.314,386.033,83.736,363.76l-48.506,28,38.578,22.273Z" transform="translate(-34.448 -325.671)"/>
                <path id="Trazado_189887" data-name="Trazado 189887" d="M33.84,334.129V296.04L73.2,318.769,40.269,337.841Z" transform="translate(15.447 -296.04)" fill="#37474f"/>
                <path id="Trazado_189888" data-name="Trazado 189888" d="M153.107,296.04v38.089l-16.356,9.444L103.82,324.494Z" transform="translate(-103.82 -296.04)" fill="#263238"/>
              </g>
              <g id="freepik--front-box--inject-2" transform="translate(0 22.729)">
                <path id="Trazado_189889" data-name="Trazado 189889" d="M83.127,336.45v37.184L33.84,402.088V364.966Z" transform="translate(5.52 -336.45)" fill="#263238"/>
                <path id="Trazado_189890" data-name="Trazado 189890" d="M160.83,369.42v37.122l-39.36-22.723V346.63Z" transform="translate(-121.47 -340.904)" fill="#37474f"/>
                <path id="Trazado_189891" data-name="Trazado 189891" d="M150.83,387.15l-.776,35.7L121.47,407.319l29.36,16.952Z" transform="translate(-111.47 -358.634)" fill="#455a64"/>
              </g>
              <path id="Trazado_189892" data-name="Trazado 189892" d="M130.047,427.068a.779.779,0,0,0,.4-.107,1.225,1.225,0,0,0,.506-1.125v-3.279h0v-.242l-.169.028-2.576-1.513V424.5a2.982,2.982,0,0,0,1.266,2.4A1.159,1.159,0,0,0,130.047,427.068Zm.489-4.269v3.048a.843.843,0,0,1-.292.754.562.562,0,0,1-.562-.062,2.6,2.6,0,0,1-1.063-2.042v-.27h.956l.186-1.288Zm-1.322,1.018h-.6v-2.25l1.541.906-.771.141Z" transform="translate(-95.389 -350.642)" fill="#e0e0e0"/>
              <path id="Trazado_189893" data-name="Trazado 189893" d="M130.5,434.108a.208.208,0,0,0,.208-.208v-2.762a.214.214,0,0,0-.208-.208.208.208,0,0,0-.208.208V433.9a.2.2,0,0,0,.2.208Z" transform="translate(-96.307 -355.061)" fill="#e0e0e0"/>
              <path id="Trazado_189894" data-name="Trazado 189894" d="M130.769,436.411a.2.2,0,0,0,.18-.1.208.208,0,0,0-.073-.281l-2.4-1.389a.213.213,0,0,0-.287.079.208.208,0,0,0,.079.281l2.4,1.384A.174.174,0,0,0,130.769,436.411Z" transform="translate(-95.38 -356.673)" fill="#e0e0e0"/>
              <path id="Trazado_189895" data-name="Trazado 189895" d="M143.809,425.228a.443.443,0,0,0,.225-.056.562.562,0,0,0,.247-.495v-.562a.208.208,0,1,0-.411-.068.2.2,0,0,0,0,.068v.563a.18.18,0,0,1-.039.135.336.336,0,0,1-.135-.034,1.2,1.2,0,0,1-.388-.934v-3.673a.208.208,0,1,0-.411-.068.2.2,0,0,0,0,.068v3.673a1.575,1.575,0,0,0,.562,1.288A.62.62,0,0,0,143.809,425.228Z" transform="translate(-116.975 -350.248)" fill="#e0e0e0"/>
              <path id="Trazado_189896" data-name="Trazado 189896" d="M145.394,419.471v-.36a5.859,5.859,0,0,0-2.644-4.584,1.749,1.749,0,0,0-2.852,1.648v.124Zm-3.881-4.9a2.092,2.092,0,0,1,1.029.321,5.462,5.462,0,0,1,2.419,3.853l-4.646-2.683a1.536,1.536,0,0,1,.636-1.35,1.125,1.125,0,0,1,.562-.141Z" transform="translate(-116.382 -347.703)" fill="#e0e0e0"/>
              <path id="Trazado_189897" data-name="Trazado 189897" d="M156.786,416.028a.209.209,0,0,0,.2-.208v-7.008a.208.208,0,1,0-.411-.068.2.2,0,0,0,0,.068v7.036A.208.208,0,0,0,156.786,416.028Z" transform="translate(-137.376 -345.277)" fill="#e0e0e0"/>
              <path id="Trazado_189898" data-name="Trazado 189898" d="M156.928,410.277a.236.236,0,0,0,.084,0,.208.208,0,0,0,.107-.27l-.737-1.687-.821.945a.208.208,0,0,0,0,.292.214.214,0,0,0,.292,0l.388-.45.472,1.1A.209.209,0,0,0,156.928,410.277Z" transform="translate(-136.916 -345.168)" fill="#e0e0e0"/>
              <path id="Trazado_189899" data-name="Trazado 189899" d="M160.186,414.061a.208.208,0,0,0,.2-.208v-7.042a.208.208,0,1,0-.411-.068.2.2,0,0,0,0,.068v7.036a.208.208,0,0,0,.2.214Z" transform="translate(-142.688 -344.402)" fill="#e0e0e0"/>
              <path id="Trazado_189900" data-name="Trazado 189900" d="M160.308,408.337a.233.233,0,0,0,.084,0,.208.208,0,0,0,.107-.27l-.737-1.687-.821.911a.208.208,0,0,0,.315.27l.388-.45.472,1.1A.209.209,0,0,0,160.308,408.337Z" transform="translate(-142.208 -344.319)" fill="#e0e0e0"/>
              <path id="Trazado_189901" data-name="Trazado 189901" d="M58.371,383.277l-10.743,6.187a1.08,1.08,0,0,0-.489.844v7.464c0,.619.439.866.967.562l10.732-6.193a1.074,1.074,0,0,0,.484-.838v-7.469C59.339,383.221,58.9,382.968,58.371,383.277Z" transform="translate(21.845 -334.153)" fill="#fafafa"/>
              <path id="Trazado_189902" data-name="Trazado 189902" d="M48.726,385.44l-.366.214v6.592l.366-.208Z" transform="translate(31.755 -335.157)" fill="#455a64"/>
              <path id="Trazado_189903" data-name="Trazado 189903" d="M51.63,386.97l-.63.371v6.592l.63-.371Z" transform="translate(27.366 -335.826)" fill="#455a64"/>
              <path id="Trazado_189904" data-name="Trazado 189904" d="M54.016,388.5l-.366.208V395.3l.366-.208Z" transform="translate(23.49 -336.496)" fill="#455a64"/>
              <path id="Trazado_189905" data-name="Trazado 189905" d="M56.377,389.63l-.737.433.006,6.592.731-.433Z" transform="translate(20.009 -336.99)" fill="#455a64"/>
              <path id="Trazado_189906" data-name="Trazado 189906" d="M59.306,391.55l-.366.214v6.592l.366-.214Z" transform="translate(15.225 -337.83)" fill="#455a64"/>
              <path id="Trazado_189907" data-name="Trazado 189907" d="M61.627,392.63l-.787.461v6.6l.787-.467Z" transform="translate(11.834 -338.303)" fill="#455a64"/>
              <path id="Trazado_189908" data-name="Trazado 189908" d="M64.6,394.61l-.366.208v6.592l.366-.208Z" transform="translate(6.959 -339.169)" fill="#455a64"/>
              <path id="Trazado_189909" data-name="Trazado 189909" d="M65.926,395.46l-.186.107v6.592l.186-.1Z" transform="translate(4.78 -339.541)" fill="#455a64"/>
              <path id="Trazado_189910" data-name="Trazado 189910" d="M63.206,393.97l-.186.1v6.6l.186-.107Z" transform="translate(9.03 -338.889)" fill="#455a64"/>
              <path id="Trazado_189911" data-name="Trazado 189911" d="M57.88,390.85l-.18.1v6.592l.18-.1Z" transform="translate(17.348 -337.524)" fill="#455a64"/>
              <path id="Trazado_189912" data-name="Trazado 189912" d="M54.96,389.17l-.18.107v6.592l.18-.107Z" transform="translate(21.91 -336.789)" fill="#455a64"/>
              <path id="Trazado_189913" data-name="Trazado 189913" d="M52.866,388.01l-.186.107v6.592l.186-.107Z" transform="translate(25.186 -336.281)" fill="#455a64"/>
              <path id="Trazado_189914" data-name="Trazado 189914" d="M50.02,386.29l-.18.107v6.592l.18-.107Z" transform="translate(29.629 -335.529)" fill="#455a64"/>
              <path id="Trazado_189915" data-name="Trazado 189915" d="M67.246,396.13l-.366.214v6.592l.366-.214Z" transform="translate(2.819 -339.834)" fill="#455a64"/>
            </g>
            <path id="Trazado_189916" data-name="Trazado 189916" d="M83.127,296.04l39.36,22.729L73.2,347.285l-39.36-22.79Z" transform="translate(-33.84 -296.04)" fill="#455a64"/>
            <path id="Trazado_189917" data-name="Trazado 189917" d="M122.488,336.45,73.2,363.554,33.84,342.176l39.36,22.79Z" transform="translate(-33.84 -313.721)" fill="#fff" opacity="0.1" style="isolation: isolate"/>
            <path id="Trazado_189918" data-name="Trazado 189918" d="M118.259,316.954,68.943,345.425l-6.063-3.5L112.2,313.45Z" transform="translate(-45.945 -303.658)" fill="#1b3f5e"/>
            <path id="Trazado_189919" data-name="Trazado 189919" d="M150.56,364.06v7.706l.731-.416.765,1.316.759-.45.765,1.333.759-.45.765,1.311.759-.433.759,1.316V367.57Z" transform="translate(-133.625 -325.802)" fill="#1b3f5e"/>
            <path id="Trazado_189920" data-name="Trazado 189920" d="M150.56,364.06v7.706l.731-.416.765,1.316.759-.45.765,1.333.759-.45.765,1.311.759-.433.759,1.316V367.57Z" transform="translate(-133.625 -325.802)" opacity="0.25" style="isolation: isolate"/>
          </g>
          <path id="Trazado_189921" data-name="Trazado 189921" d="M82.591,300.43l34.326,19.815L73.726,345.268,39.4,325.386Z" transform="translate(-31.396 -268.348)" opacity="0.1" style="isolation: isolate"/>
          <g id="freepik--box--inject-2-6" data-name="freepik--box--inject-2" transform="translate(13.156)">
            <g id="freepik--box--inject-2-7" data-name="freepik--box--inject-2">
              <g id="freepik--back-box--inject-2-2" data-name="freepik--back-box--inject-2">
                <path id="Trazado_189922" data-name="Trazado 189922" d="M116.175,324.469,87.485,307.86,51.01,328.929,79.7,345.494Z" transform="translate(-50.341 -271.599)"/>
                <path id="Trazado_189923" data-name="Trazado 189923" d="M49.81,276.125V243.39l29.365,16.952L50.744,276.777Z" transform="translate(-12.666 -243.39)" fill="#37474f"/>
                <path id="Trazado_189924" data-name="Trazado 189924" d="M139.164,243.39v32.735l-8.808,5.1L102.02,264.808Z" transform="translate(-102.02 -243.39)" fill="#263238"/>
              </g>
              <g id="freepik--front-box--inject-2-2" data-name="freepik--front-box--inject-2" transform="translate(0 16.952)">
                <path id="Trazado_189925" data-name="Trazado 189925" d="M86.96,273.53v35.53L49.81,330.472V295Z" transform="translate(-20.45 -273.53)" fill="#263238"/>
                <path id="Trazado_189926" data-name="Trazado 189926" d="M145.22,298.473v35.474l-29.36-16.952V281.47Z" transform="translate(-115.86 -277.004)" fill="#37474f"/>
                <path id="Trazado_189927" data-name="Trazado 189927" d="M141.125,311.7l-.669,34.253-24.6-13.369,25.265,14.59Z" transform="translate(-111.765 -290.231)" fill="#455a64"/>
              </g>
              <path id="Trazado_189928" data-name="Trazado 189928" d="M123.269,352.321a.684.684,0,0,0,.349-.09,1.058,1.058,0,0,0,.433-.962v-2.812h0v-.208h-.141l-2.25-1.3v3.161a2.553,2.553,0,0,0,1.091,2.064A1.012,1.012,0,0,0,123.269,352.321Zm.427-3.656v2.621a.732.732,0,0,1-.259.652.494.494,0,0,1-.478-.051,2.25,2.25,0,0,1-.917-1.76V349.9h.821l.163-1.125Zm-1.125.872h-.517v-1.952l1.327.776-.658.118Z" transform="translate(-97.959 -288.703)" fill="#e0e0e0"/>
              <path id="Trazado_189929" data-name="Trazado 189929" d="M123.63,358.4a.175.175,0,0,0,.18-.169V355.86a.18.18,0,0,0-.18-.18h0a.18.18,0,0,0-.18.18h0v2.379A.18.18,0,0,0,123.63,358.4Z" transform="translate(-98.719 -292.522)" fill="#e0e0e0"/>
              <path id="Trazado_189930" data-name="Trazado 189930" d="M123.836,360.376a.168.168,0,0,0,.152-.09.174.174,0,0,0-.058-.24l0,0-2.07-1.192a.18.18,0,0,0-.174.309l2.064,1.192A.167.167,0,0,0,123.836,360.376Z" transform="translate(-97.89 -293.905)" fill="#e0e0e0"/>
              <path id="Trazado_189931" data-name="Trazado 189931" d="M135.065,350.739a.375.375,0,0,0,.191-.051.462.462,0,0,0,.214-.427v-.484a.18.18,0,0,0-.354-.064.172.172,0,0,0,0,.064v.484a.184.184,0,0,1-.034.124.181.181,0,0,1-.118-.034,1.035,1.035,0,0,1-.332-.8v-3.161a.18.18,0,0,0-.354-.064.172.172,0,0,0,0,.064v3.161a1.378,1.378,0,0,0,.506,1.125A.6.6,0,0,0,135.065,350.739Z" transform="translate(-116.471 -288.363)" fill="#e0e0e0"/>
              <path id="Trazado_189932" data-name="Trazado 189932" d="M136.443,345.8v-.309a5.063,5.063,0,0,0-2.278-3.937,1.507,1.507,0,0,0-2.452,1.417v.1Zm-3.341-4.218a1.792,1.792,0,0,1,.889.276,4.713,4.713,0,0,1,2.081,3.318l-4-2.312a1.311,1.311,0,0,1,.562-1.159A.919.919,0,0,1,133.1,341.585Z" transform="translate(-115.987 -286.189)" fill="#e0e0e0"/>
              <path id="Trazado_189933" data-name="Trazado 189933" d="M146.25,342.852a.18.18,0,0,0,.174-.18v-6.058a.18.18,0,0,0-.354,0v6.058a.18.18,0,0,0,.18.18Z" transform="translate(-134.056 -284.115)" fill="#e0e0e0"/>
              <path id="Trazado_189934" data-name="Trazado 189934" d="M146.368,337.869h.067a.169.169,0,0,0,.1-.216l-.006-.015-.636-1.468-.7.821a.174.174,0,0,0,0,.246h0a.186.186,0,0,0,.253,0l.332-.388.411.945A.174.174,0,0,0,146.368,337.869Z" transform="translate(-133.657 -283.986)" fill="#e0e0e0"/>
              <path id="Trazado_189935" data-name="Trazado 189935" d="M149.18,341.182a.174.174,0,0,0,.174-.174v-6.063a.18.18,0,0,0-.354,0V341a.18.18,0,0,0,.18.18Z" transform="translate(-138.634 -283.385)" fill="#e0e0e0"/>
              <path id="Trazado_189936" data-name="Trazado 189936" d="M149.3,336.2a.159.159,0,0,0,.073,0,.175.175,0,0,0,.091-.229h0l-.63-1.462-.709.815a.175.175,0,0,0,0,.246h0a.186.186,0,0,0,.253,0l.337-.388.4.945A.186.186,0,0,0,149.3,336.2Z" transform="translate(-138.237 -283.26)" fill="#e0e0e0"/>
            </g>
            <path id="Trazado_189937" data-name="Trazado 189937" d="M86.954,243.39l29.365,16.952L79.17,281.811l-29.36-17Z" transform="translate(-49.81 -243.39)" fill="#455a64"/>
            <path id="Trazado_189938" data-name="Trazado 189938" d="M116.32,273.53l-37.009,20.2L49.81,278l29.36,17Z" transform="translate(-49.81 -256.578)" fill="#fff" opacity="0.1" style="isolation: isolate"/>
            <path id="Trazado_189939" data-name="Trazado 189939" d="M115.406,257.795,78.234,279.224l-5.214-3.015,37.167-21.429Z" transform="translate(-61.951 -248.374)" fill="#1b3f5e"/>
            <path id="Trazado_189940" data-name="Trazado 189940" d="M139.1,292.87V299.5l.63-.36.652,1.131.658-.382.652,1.142.658-.388.652,1.136.658-.377.658,1.136V295.89Z" transform="translate(-128.031 -265.04)" fill="#1b3f5e"/>
            <path id="Trazado_189941" data-name="Trazado 189941" d="M139.1,292.87V299.5l.63-.36.652,1.131.658-.382.652,1.142.658-.388.652,1.136.658-.377.658,1.136V295.89Z" transform="translate(-128.031 -265.04)" opacity="0.25" style="isolation: isolate"/>
            <path id="Trazado_189942" data-name="Trazado 189942" d="M70.007,321.247l-10.743,6.187a1.073,1.073,0,0,0-.484.844v7.464c0,.619.439.866.973.562L70.5,330.117a1.074,1.074,0,0,0,.484-.838V321.8C70.974,321.191,70.541,320.938,70.007,321.247Z" transform="translate(-9.515 -277.399)" fill="#fafafa"/>
            <path id="Trazado_189943" data-name="Trazado 189943" d="M60.406,323.41l-.366.214v6.592l.366-.214Z" transform="translate(0.35 -278.403)" fill="#455a64"/>
            <path id="Trazado_189944" data-name="Trazado 189944" d="M63.31,324.94l-.63.371V331.9l.63-.371Z" transform="translate(-4.039 -279.072)" fill="#455a64"/>
            <path id="Trazado_189945" data-name="Trazado 189945" d="M65.7,326.47l-.366.208v6.592l.366-.208Z" transform="translate(-7.915 -279.742)" fill="#455a64"/>
            <path id="Trazado_189946" data-name="Trazado 189946" d="M68.051,327.6l-.731.433v6.592l.731-.433Z" transform="translate(-11.39 -280.236)" fill="#455a64"/>
            <path id="Trazado_189947" data-name="Trazado 189947" d="M70.986,329.52l-.366.214v6.592l.366-.214Z" transform="translate(-16.18 -281.076)" fill="#455a64"/>
            <path id="Trazado_189948" data-name="Trazado 189948" d="M73.3,330.6l-.782.461v6.592l.782-.461Z" transform="translate(-19.565 -281.549)" fill="#455a64"/>
            <path id="Trazado_189949" data-name="Trazado 189949" d="M76.276,332.57l-.366.214v6.592l.366-.214Z" transform="translate(-24.446 -282.411)" fill="#455a64"/>
            <path id="Trazado_189950" data-name="Trazado 189950" d="M77.6,333.43l-.18.107v6.592l.18-.107Z" transform="translate(-26.62 -282.787)" fill="#455a64"/>
            <path id="Trazado_189951" data-name="Trazado 189951" d="M74.886,331.94l-.186.1v6.592l.186-.1Z" transform="translate(-22.375 -282.135)" fill="#455a64"/>
            <path id="Trazado_189952" data-name="Trazado 189952" d="M69.55,328.81l-.18.107v6.592l.186-.1Z" transform="translate(-14.047 -280.765)" fill="#455a64"/>
            <path id="Trazado_189953" data-name="Trazado 189953" d="M66.64,327.14l-.18.107v6.592l.18-.107Z" transform="translate(-9.495 -280.035)" fill="#455a64"/>
            <path id="Trazado_189954" data-name="Trazado 189954" d="M64.54,325.98l-.18.107v6.592l.18-.107Z" transform="translate(-6.214 -279.527)" fill="#455a64"/>
            <path id="Trazado_189955" data-name="Trazado 189955" d="M61.7,324.26l-.18.1v6.592l.18-.1Z" transform="translate(-1.777 -278.775)" fill="#455a64"/>
            <path id="Trazado_189956" data-name="Trazado 189956" d="M78.926,334.1l-.366.214.006,6.592.36-.214Z" transform="translate(-28.586 -283.08)" fill="#455a64"/>
          </g>
        </g>
      </g>
    </g>
  </g>
</svg>
