<svg xmlns="http://www.w3.org/2000/svg" width="190" height="90" viewBox="0 0 190 90">
  <g id="Grupo_129496" data-name="Grupo 129496" transform="translate(-180 -1403)">
    <rect id="Rectángulo_36775" data-name="Rectángulo 36775" width="190" height="90" transform="translate(180 1403)" fill="none"/>
    <g id="Grupo_129487" data-name="Grupo 129487" transform="translate(179.813 998.043)" opacity="0.2">
      <g id="Grupo_129451" data-name="Grupo 129451" transform="translate(174.724 459.748) rotate(180)">
        <path id="Trazado_114977" data-name="Trazado 114977" d="M12.041,0H0L9.126,19.4,0,38.791H12.041l9.126-19.4Z" transform="translate(0 0)" fill="#d84318"/>
        <path id="Trazado_114978" data-name="Trazado 114978" d="M12.041,0H0L9.126,19.4,0,38.791H12.041l9.126-19.4Z" transform="translate(21.167 0)" fill="#d84318"/>
        <path id="Trazado_114979" data-name="Trazado 114979" d="M12.041,0H0L9.126,19.4,0,38.791H12.041l9.126-19.4Z" transform="translate(42.335 0)" fill="#d84318"/>
      </g>
      <g id="Grupo_129486" data-name="Grupo 129486" transform="translate(16.187 440.353)">
        <path id="Trazado_114977-2" data-name="Trazado 114977" d="M12.041,0H0L9.126,19.4,0,38.791H12.041l9.126-19.4Z" transform="translate(0 0)" fill="#1b3f5e"/>
        <path id="Trazado_114978-2" data-name="Trazado 114978" d="M12.041,0H0L9.126,19.4,0,38.791H12.041l9.126-19.4Z" transform="translate(21.167 0)" fill="#1b3f5e"/>
        <path id="Trazado_114979-2" data-name="Trazado 114979" d="M12.041,0H0L9.126,19.4,0,38.791H12.041l9.126-19.4Z" transform="translate(42.335 0)" fill="#1b3f5e"/>
      </g>
    </g>
    <g id="Page-1" transform="translate(233 1406)">
      <g id="_020---Search-Barcode" data-name="020---Search-Barcode" transform="translate(0 0)">
        <path id="Path" d="M79.336,3.8V42.966a2.806,2.806,0,0,1-2.8,2.8H72.16a23.761,23.761,0,0,0-47.2,0H3.8a2.806,2.806,0,0,1-2.8-2.8V3.8A2.806,2.806,0,0,1,3.8,1h72.74A2.806,2.806,0,0,1,79.336,3.8Z" transform="translate(0.399 0.399)" fill="#f5f5f5" fill-rule="evenodd"/>
        <path id="Path-2" data-name="Path" d="M56.2,1H52a2.806,2.806,0,0,1,2.8,2.8V42.966a2.806,2.806,0,0,1-2.8,2.8h4.2a2.806,2.806,0,0,0,2.8-2.8V3.8A2.806,2.806,0,0,0,56.2,1Z" transform="translate(20.74 0.399)" fill="#cfd8dc" fill-rule="evenodd"/>
        <path id="Path-3" data-name="Path" d="M60.482,56.507a23.818,23.818,0,1,1,4.924-17.514,23.818,23.818,0,0,1-4.924,17.514Z" transform="translate(7.152 7.169)" fill="#9e9e9e" fill-rule="evenodd"/>
        <path id="Path-4" data-name="Path" d="M59.2,38.981A23.739,23.739,0,0,0,33.5,18.1a23.764,23.764,0,0,1,0,47.347A23.739,23.739,0,0,0,59.2,38.981Z" transform="translate(13.362 7.181)" fill="#707070" fill-rule="evenodd"/>
        <circle id="Oval" cx="18.327" cy="18.327" r="18.327" transform="translate(30.545 31.054)" fill="#badfff"/>
        <path id="Path-5" data-name="Path" d="M48.457,27.323A18.138,18.138,0,0,0,33.5,22.136a18.17,18.17,0,0,1,0,36.1A18.174,18.174,0,0,0,48.457,27.323Z" transform="translate(13.362 8.779)" fill="#87c8ff" fill-rule="evenodd"/>
        <path id="Path-6" data-name="Path" d="M61.949,61.949a4.2,4.2,0,0,1-5.931,0l-7.092-7.092a1.4,1.4,0,0,1,0-1.972l3.959-3.959a1.4,1.4,0,0,1,1.972,0l7.092,7.092A4.2,4.2,0,0,1,61.949,61.949Z" transform="translate(19.352 19.352)" fill="#ff5d2e" fill-rule="evenodd"/>
        <path id="Path-7" data-name="Path" d="M61.024,56.018l-7.092-7.092a1.4,1.4,0,0,0-1.972,0L50.84,50.038l5.987,5.98a4.141,4.141,0,0,1-.867,6.575,4.185,4.185,0,0,0,5.064-6.575Z" transform="translate(20.278 19.352)" fill="#d84318" fill-rule="evenodd"/>
        <path id="Path-8" data-name="Path" d="M54.081,50.122l-3.959,3.959-4.6-4.6a23.383,23.383,0,0,0,3.959-3.959Z" transform="translate(18.156 18.156)" fill="#7f8e94" fill-rule="evenodd"/>
        <path id="Path-9" data-name="Path" d="M29.036,31.485a1.4,1.4,0,0,1-.989-2.388,13.9,13.9,0,0,1,9.89-4.1,1.4,1.4,0,1,1,0,2.8,11.113,11.113,0,0,0-7.912,3.278A1.4,1.4,0,0,1,29.036,31.485Z" transform="translate(11.023 9.971)" fill="#f5f5f5" fill-rule="evenodd"/>
        <g id="Grupo_129495" data-name="Grupo 129495">
          <path id="Path-10" data-name="Path" d="M29.4,20.786a1.4,1.4,0,0,0,1.4-1.4V5.4a1.4,1.4,0,0,0-2.8,0V19.387A1.4,1.4,0,0,0,29.4,20.786Z" transform="translate(11.168 1.595)" fill-rule="evenodd"/>
          <path id="Path-11" data-name="Path" d="M25.4,23.584a1.4,1.4,0,0,0,1.4-1.4V5.4a1.4,1.4,0,0,0-2.8,0V22.185A1.4,1.4,0,0,0,25.4,23.584Z" transform="translate(9.572 1.595)" fill-rule="evenodd"/>
          <path id="Path-12" data-name="Path" d="M21.4,4A1.4,1.4,0,0,0,20,5.4V24.983a1.4,1.4,0,0,0,2.8,0V5.4A1.4,1.4,0,0,0,21.4,4Z" transform="translate(7.977 1.595)" fill-rule="evenodd"/>
          <path id="Path-13" data-name="Path" d="M17.4,4A1.4,1.4,0,0,0,16,5.4V30.578a1.4,1.4,0,1,0,2.8,0V5.4A1.4,1.4,0,0,0,17.4,4Z" transform="translate(6.382 1.595)" fill-rule="evenodd"/>
          <path id="Path-14" data-name="Path" d="M13.4,4A1.4,1.4,0,0,0,12,5.4V30.578a1.4,1.4,0,1,0,2.8,0V5.4A1.4,1.4,0,0,0,13.4,4Z" transform="translate(4.786 1.595)" fill-rule="evenodd"/>
          <path id="Path-15" data-name="Path" d="M13.4,26A1.4,1.4,0,0,0,12,27.4v2.8a1.4,1.4,0,0,0,2.8,0V27.4A1.4,1.4,0,0,0,13.4,26Z" transform="translate(4.786 10.37)" fill-rule="evenodd"/>
          <path id="Path-16" data-name="Path" d="M9.4,4A1.4,1.4,0,0,0,8,5.4V30.578a1.4,1.4,0,1,0,2.8,0V5.4A1.4,1.4,0,0,0,9.4,4Z" transform="translate(3.191 1.595)" fill-rule="evenodd"/>
          <path id="Path-17" data-name="Path" d="M9.4,26A1.4,1.4,0,0,0,8,27.4v2.8a1.4,1.4,0,0,0,2.8,0V27.4A1.4,1.4,0,0,0,9.4,26Z" transform="translate(3.191 10.37)" fill-rule="evenodd"/>
          <path id="Path-18" data-name="Path" d="M5.4,4A1.4,1.4,0,0,0,4,5.4V30.578a1.4,1.4,0,1,0,2.8,0V5.4A1.4,1.4,0,0,0,5.4,4Z" transform="translate(1.595 1.595)" fill-rule="evenodd"/>
          <path id="Path-19" data-name="Path" d="M5.4,26A1.4,1.4,0,0,0,4,27.4v2.8a1.4,1.4,0,0,0,2.8,0V27.4A1.4,1.4,0,0,0,5.4,26Z" transform="translate(1.595 10.37)" fill-rule="evenodd"/>
          <path id="Path-20" data-name="Path" d="M53.4,31.977a1.4,1.4,0,0,0,1.4-1.4V5.4a1.4,1.4,0,1,0-2.8,0V30.578A1.4,1.4,0,0,0,53.4,31.977Z" transform="translate(20.74 1.595)" fill-rule="evenodd"/>
          <path id="Path-21" data-name="Path" d="M49.4,27.78a1.4,1.4,0,0,0,1.4-1.4V5.4a1.4,1.4,0,1,0-2.8,0V26.382A1.4,1.4,0,0,0,49.4,27.78Z" transform="translate(19.145 1.595)" fill-rule="evenodd"/>
          <path id="Path-22" data-name="Path" d="M45.4,23.584a1.4,1.4,0,0,0,1.4-1.4V5.4a1.4,1.4,0,1,0-2.8,0V22.185A1.4,1.4,0,0,0,45.4,23.584Z" transform="translate(17.549 1.595)" fill-rule="evenodd"/>
          <path id="Path-23" data-name="Path" d="M41.4,20.786a1.4,1.4,0,0,0,1.4-1.4V5.4a1.4,1.4,0,0,0-2.8,0V19.387A1.4,1.4,0,0,0,41.4,20.786Z" transform="translate(15.954 1.595)" fill-rule="evenodd"/>
          <path id="Path-24" data-name="Path" d="M37.4,19.387a1.4,1.4,0,0,0,1.4-1.4V5.4a1.4,1.4,0,0,0-2.8,0v12.59A1.4,1.4,0,0,0,37.4,19.387Z" transform="translate(14.359 1.595)" fill-rule="evenodd"/>
          <path id="Path-25" data-name="Path" d="M33.4,19.387a1.4,1.4,0,0,0,1.4-1.4V5.4a1.4,1.4,0,1,0-2.8,0v12.59A1.4,1.4,0,0,0,33.4,19.387Z" transform="translate(12.763 1.595)" fill-rule="evenodd"/>
          <path id="Shape" d="M54.433,26.736a19.584,19.584,0,1,0,5.735,13.849,19.584,19.584,0,0,0-5.735-13.849ZM52.454,52.454a16.786,16.786,0,1,1,4.917-11.869,16.786,16.786,0,0,1-4.917,11.869Z" transform="translate(8.375 8.375)"/>
          <path id="Shape-2" data-name="Shape" d="M75.2,67.285a2.72,2.72,0,0,0-2.691-.718L69.471,63.53a24.972,24.972,0,0,0,4.668-14.57c0-.47-.043-.933-.069-1.4h2.866a4.2,4.2,0,0,0,4.2-4.2V4.2a4.2,4.2,0,0,0-4.2-4.2H4.2A4.2,4.2,0,0,0,0,4.2V43.364a4.2,4.2,0,0,0,4.2,4.2H23.849c-.025.466-.069.929-.069,1.4a25.156,25.156,0,0,0,39.747,20.5l3.041,3.043a2.826,2.826,0,0,0-.1.713,2.778,2.778,0,0,0,.82,1.978l7.094,7.094a5.6,5.6,0,1,0,7.912-7.912ZM4.2,44.763a1.4,1.4,0,0,1-1.4-1.4V4.2A1.4,1.4,0,0,1,4.2,2.8h72.74a1.4,1.4,0,0,1,1.4,1.4V43.364a1.4,1.4,0,0,1-1.4,1.4h-3.17a25.154,25.154,0,0,0-49.614,0ZM33.135,64.786A22.231,22.231,0,1,1,48.96,71.4a22.382,22.382,0,0,1-15.825-6.618Zm33.63,1.978c.333-.333.629-.691.941-1.038l2.547,2.547-1.981,1.981L65.724,67.7C66.071,67.392,66.43,67.1,66.764,66.764ZM80.314,80.314a2.863,2.863,0,0,1-3.956,0L69.264,73.22l3.956-3.956,7.094,7.094A2.8,2.8,0,0,1,80.314,80.314Z" transform="translate(0 0)"/>
        </g>
      </g>
    </g>
  </g>
</svg>
